<?xml version="1.0" standalone="no"?>
<!DOCTYPE svg PUBLIC "-//W3C//DTD SVG 1.1//EN" "http://www.w3.org/Graphics/SVG/1.1/DTD/svg11.dtd" >
<svg xmlns="http://www.w3.org/2000/svg" xmlns:xlink="http://www.w3.org/1999/xlink" version="1.1">
<metadata></metadata>
<defs>
<font id="quincy_cflight" horiz-adv-x="1435" >
<font-face units-per-em="2048" ascent="1638" descent="-410" />
<missing-glyph horiz-adv-x="450" />
<glyph unicode="&#xfb01;" horiz-adv-x="1173" d="M57 885v51h142v35q0 198 95 296.5t312 98.5q167 0 290.5 -73t123.5 -171q0 -44 -13.5 -56.5t-58.5 -12.5q-17 0 -28.5 2t-24 8.5t-19 21.5t-6.5 37q0 81 -58 126.5t-206 45.5q-75 0 -127.5 -21t-82 -61.5t-42 -93t-12.5 -123.5v-59h246q-5 -13 -10 -27t-7 -20t-5.5 -12.5 t-7 -8t-9 -3t-14.5 -1.5h-193v-772q0 -35 20 -46t87 -11v-35h-330v35q48 0 64 11t16 46v772h-121q-9 0 -15 6t-6 15zM743 848v72l164 18q66 6 66 -64v-780q0 -33 22 -45t66 -12v-37h-309v37q45 0 67.5 12t22.5 45v690q0 35 -13.5 49.5t-44.5 14.5h-41z" />
<glyph unicode="&#xfb02;" horiz-adv-x="1206" d="M57 885v51h142v35q0 178 100.5 286.5t306.5 108.5q179 0 318 -37l73 14q25 5 39.5 -3t18.5 -25.5t5 -42.5t-2 -55q-1 -16 -1 -25v-1049q0 -57 25.5 -81t91.5 -7l-17 -47q-27 -8 -80 -8q-76 0 -116.5 48t-40.5 132v948q0 3 -5 23l-41 53q-44 39 -115.5 64.5t-152.5 25.5 q-71 0 -124 -26t-82.5 -70t-43.5 -95t-14 -108v-59h287q-5 -12 -10 -26.5t-7.5 -20.5t-5.5 -12.5t-7 -8t-9.5 -3t-14.5 -1.5h-233v-772q0 -35 20 -46t87 -11v-35h-330v35q56 0 68 10t12 47v772h-121q-9 0 -15 6t-6 15z" />
<glyph horiz-adv-x="0" />
<glyph horiz-adv-x="682" />
<glyph unicode=" "  horiz-adv-x="450" />
<glyph unicode="&#x09;" horiz-adv-x="450" />
<glyph unicode="&#xa0;" horiz-adv-x="450" />
<glyph unicode="!" horiz-adv-x="452" d="M123 1206q0 74 24.5 102.5t83.5 28.5q60 0 84.5 -28.5t24.5 -102.5q0 -107 -42.5 -353.5t-45.5 -408.5h-41q-3 162 -45.5 408.5t-42.5 353.5zM139 84q0 41 31 71.5t72 30.5t71.5 -30.5t30.5 -71.5q0 -43 -30.5 -73.5t-71.5 -30.5q-42 0 -72.5 31t-30.5 73z" />
<glyph unicode="&#x22;" horiz-adv-x="542" d="M82 1274l49 -350q4 -35 16 -35q5 0 10.5 11t6.5 24l49 350q3 33 -15.5 55.5t-50.5 22.5q-33 0 -50.5 -22.5t-14.5 -55.5zM332 1274l47 -350q8 -35 16 -35q11 0 19 35l47 350q3 33 -15 55.5t-51 22.5t-49.5 -22t-13.5 -56z" />
<glyph unicode="#" horiz-adv-x="1198" d="M72 420v12q3 31 32 31h209l109 418h-238q-25 0 -28 30v13q3 30 32 30h254l109 422h80l-107 -422h285l109 422h79l-106 -422h217q32 0 29 -30v-13q1 -14 -8 -22t-25 -8h-232l-104 -418h256q32 0 29 -31v-12q-3 -31 -33 -31h-270l-113 -450h-90l117 450h-283l-113 -450h-90 l117 450h-195q-31 0 -28 31zM401 463h281l109 418h-285z" />
<glyph unicode="$" horiz-adv-x="1085" d="M72 360l43 11q22 8 35.5 2t25.5 -29q5 -10 21 -39t24 -45q39 -80 115.5 -136t173.5 -69v533q-11 4 -45 15t-49.5 16t-48.5 17.5t-50 21.5t-45.5 25t-45 31t-37.5 37t-33.5 45t-23 52.5t-15.5 62.5q-10 62 11 128.5t68.5 124t129.5 97.5t184 46v104h68v-104 q78 -4 140.5 -25t95.5 -44.5t74 -47.5t79 -31l26 -260l-43 -8q-41 -6 -49 24l-22 82q-25 93 -110.5 162.5t-190.5 81.5v-514q151 -44 215 -74q215 -99 235 -278q10 -79 -12.5 -146.5t-67 -113.5t-106 -79t-128.5 -49t-136 -18v-94h-68v96q-59 5 -111.5 22t-78 31.5t-66.5 22 t-76 -7.5zM262 958q5 -36 24 -67.5t41 -51t58.5 -39t61 -29t63.5 -23.5v493q-117 -10 -188.5 -97t-59.5 -186zM578 51q43 1 82.5 8t80 26t69 47.5t43 76t7.5 108.5q-5 45 -24 82t-43 61t-64 45.5t-71.5 33.5t-79.5 28v-516z" />
<glyph unicode="%" horiz-adv-x="1318" d="M106 -10l916 1272q-79 -64 -155.5 -94t-137.5 -28t-113 29q23 -72 9 -137q-12 -88 -102 -183t-191 -95q-73 0 -124.5 44t-71 106.5t-11.5 127.5q20 100 109.5 192.5t189.5 92.5q50 0 94 -23q9 -4 43.5 -20t56.5 -24t62.5 -20t77.5 -12t84.5 5t101 25.5t109.5 54.5h67 l-884 -1313h-130zM249.5 928q0.5 -47 23 -77t67.5 -30q127 0 166 211q39 219 -86 219q-120 0 -164 -219q-7 -57 -6.5 -104zM672 256q20 100 109.5 192.5t189.5 92.5q73 0 125 -44.5t70.5 -109t4.5 -131.5q-8 -55 -49 -119t-108 -112t-135 -48q-73 0 -124.5 44.5t-71 107 t-11.5 127.5zM796.5 152q0.5 -47 23 -77t67.5 -30q121 0 166 211q39 219 -86 219q-120 0 -164 -219q-7 -57 -6.5 -104z" />
<glyph unicode="&#x26;" horiz-adv-x="1484" d="M92 387q0 92 25.5 162t67.5 109t90 58.5t100 20.5q-4 4 -27.5 26.5t-33 33t-30 33.5t-30.5 41t-22 43.5t-17.5 52t-5.5 55.5q0 46 20.5 94t59.5 91t106 70.5t150 27.5q112 0 193.5 -48.5t115.5 -144.5q16 -43 4.5 -76t-49.5 -37q-40 -5 -69 17.5t-29 60.5 q-4 91 -43 123.5t-131 32.5q-97 0 -137 -57t-40 -172q0 -103 51.5 -176.5t145.5 -102.5l-14 -59l-51 10q-34 4 -74.5 -15.5t-77.5 -56.5t-61.5 -99.5t-24.5 -135.5q0 -97 32.5 -168t88.5 -109.5t120 -56t138 -17.5q168 0 284.5 102.5t116.5 262.5q0 78 -39.5 126t-107.5 48 q-43 0 -72.5 -23.5t-32 -55t20.5 -62.5h-47q-45 40 -45 104q0 40 32 71.5t105 78.5l262 168q7 5 39.5 26.5t39.5 27t29.5 23.5t28.5 27.5t17.5 27.5t14.5 36.5t3 40.5q0 44 -20 76.5t-50 49t-63 22.5t-62 1l-51 -12q-25 -6 -32 20q0 15 4 23t18 14q72 24 117 31 q108 13 179 -54.5t71 -203.5q0 -33 -8.5 -63.5t-26 -58t-36 -51t-49 -47.5t-52.5 -41t-59 -38.5t-57.5 -32.5t-57.5 -30.5t-50 -26.5q180 -67 183 -256q1 -86 -47 -162.5t-126.5 -127.5t-177 -80.5t-198.5 -29.5q-148 0 -270 51t-195.5 147t-73.5 220z" />
<glyph unicode="'" horiz-adv-x="296" d="M82 1274l49 -350q4 -35 16 -35q5 0 10.5 11t6.5 24l49 350q3 33 -15.5 55.5t-50.5 22.5q-33 0 -50.5 -22.5t-14.5 -55.5z" />
<glyph unicode="(" horiz-adv-x="612" d="M92 606q0 274 111 519.5t286 412.5q17 14 39 14h2q20 0 27.5 -8t-2.5 -18q-155 -147 -235.5 -388.5t-77.5 -531.5q-3 -285 75 -523.5t228 -385.5q17 -13 13 -25t-23 -12h-7q-22 0 -39 14q-175 167 -286 412.5t-111 519.5z" />
<glyph unicode=")" horiz-adv-x="612" d="M54.5 1544q7.5 8 27.5 8h4q22 0 39 -14q174 -167 284.5 -413t110.5 -519t-110.5 -519t-284.5 -413q-17 -14 -39 -14h-8q-19 0 -23 12t13 25q150 147 228 385.5t75 523.5q3 289 -78 531t-236 389q-10 10 -2.5 18z" />
<glyph unicode="*" horiz-adv-x="649" d="M49 821q44 -56 111 -28l110 137q13 15 2.5 29.5t-30.5 9.5l-166 -35q-55 -44 -27 -113zM49 1149q-29 -69 27 -111l164 -37q22 -5 33.5 9.5t-1.5 29.5l-112 138q-66 28 -111 -29zM242 750q9 -71 82 -80q73 9 82 80l-62 159q-7 20 -20.5 20t-20.5 -20zM242 1225l61 -160 q5 -13 12.5 -18t14.5 0t12 18l64 160q-9 71 -82 80q-73 -9 -82 -80zM376 1010.5q12 -14.5 34 -9.5l163 37q55 43 27 111q-47 56 -111 29l-112 -138q-13 -15 -1 -29.5zM377 959.5q-11 -14.5 2 -29.5l110 -137q65 -27 111 28q27 68 -27 113l-165 35q-20 5 -31 -9.5z" />
<glyph unicode="+" horiz-adv-x="1044" d="M143 467v96h332v330h96v-330h330v-96h-330v-334h-96v334h-332z" />
<glyph unicode="," horiz-adv-x="385" d="M96 94q6 43 40 69.5t75 20.5q37 -6 61.5 -34t32.5 -64q15 -76 -4 -141q-21 -70 -92 -135q-13 -8 -31 4l-22 22q44 44 63 90q16 45 6 64q-20 -7 -51 -4q-36 6 -59 37t-19 71z" />
<glyph unicode="-" horiz-adv-x="778" d="M92 471v84h553v-84h-553z" />
<glyph unicode="." horiz-adv-x="430" d="M113 84q0 41 30.5 71.5t71.5 30.5t71.5 -30.5t30.5 -71.5q0 -43 -30.5 -73.5t-71.5 -30.5t-71.5 30.5t-30.5 73.5z" />
<glyph unicode="/" horiz-adv-x="829" d="M96 0l547 1313h90l-547 -1313h-90z" />
<glyph unicode="0" horiz-adv-x="1120" d="M72 641q0 98 17 191t55.5 179t94 150.5t138.5 103t184 38.5t184 -38.5t138.5 -103t93.5 -151t55 -179t17 -190.5q0 -100 -17 -193.5t-55 -180t-93.5 -151t-138.5 -103t-184 -38.5q-125 0 -222 58t-153.5 155t-85 212t-28.5 241zM244 641q0 -327 69.5 -468.5t247.5 -141.5 q176 0 244.5 141.5t68.5 468.5q0 326 -68.5 468t-244.5 142q-178 0 -247.5 -142t-69.5 -468z" />
<glyph unicode="1" horiz-adv-x="614" d="M82 1118v49l254 113q23 12 34.5 7.5t15 -13.5t3.5 -27v-1141q0 -13 9 -23.5t30.5 -18t34 -11t44 -9.5t36.5 -7v-37h-451v37q7 1 27 5t30.5 6t28 6t27.5 9t20.5 11t15.5 14t5 18v977q0 37 -15 55t-45 9z" />
<glyph unicode="2" horiz-adv-x="1171" d="M92 0q21 108 70.5 208t116.5 179t133 138t139 108q21 14 70.5 46t71.5 47t57.5 46t51.5 56t29 62.5t13 80.5q0 108 -77.5 186t-199.5 78q-117 0 -189.5 -55t-92.5 -144q-12 -66 -7.5 -98t12.5 -62.5t5 -48.5q-33 -67 -90 -67q-34 0 -62 28.5t-28 63.5q0 125 52 226.5 t158 164t250 62.5q211 0 314.5 -99.5t103.5 -267.5q0 -31 -6 -60t-14 -52.5t-25 -48.5t-29.5 -42.5t-39 -40.5t-41.5 -35.5t-48 -35t-47.5 -32t-51.5 -32.5t-50 -31q-19 -12 -58.5 -37t-57 -36t-50.5 -33t-50 -36.5t-44 -37t-44.5 -43t-39.5 -48t-41 -57.5t-37 -65l633 -4 q71 0 103.5 10.5t58.5 48.5l33 46h32l-47 -189q-15 -47 -61 -47h-879z" />
<glyph unicode="3" horiz-adv-x="1150" d="M104 362q-3 45 19 69t59 24q40 0 55.5 -13t16.5 -33t7 -66.5t22 -90.5q43 -115 110 -169t197 -54q121 0 216 100.5t95 253.5q0 71 -24 127.5t-63 89.5t-84 50.5t-91 17.5q-37 0 -78 -13l-84 -28l-22 51l88 35q260 100 260 295q0 112 -62.5 172.5t-173.5 60.5 q-105 0 -155.5 -51.5t-61.5 -149.5q-4 -32 -4 -60t-4 -50q-35 -39 -79 -42t-73.5 26.5t-29.5 76.5q0 55 28 110t78 100.5t129 74.5t172 29t170 -27.5t124 -71.5t72 -96t25 -104q0 -84 -44 -147t-121 -99q62 5 124 -41.5t102 -127.5t40 -169q0 -122 -63 -225t-173 -162.5 t-243 -59.5q-209 0 -336 103t-140 284z" />
<glyph unicode="4" horiz-adv-x="1128" d="M63 424v35l691 848q17 21 33 17t16 -24v-804h223v-72h-223v-320q0 -16 9 -27t33 -19t35 -10.5t44 -8.5q7 -1 10 -2v-37h-414v37q31 5 45.5 8.5t36.5 11t31.5 19t9.5 28.5v320h-580zM156 496h487v563z" />
<glyph unicode="5" horiz-adv-x="1161" d="M94 367q-3 44 20.5 67t61.5 23q30 0 44.5 -7t19 -24.5t5.5 -38.5t7 -58.5t20 -74.5q43 -115 108 -169t191 -54q129 0 224.5 101.5t95.5 250.5q0 107 -47 199.5t-130 148t-182 55.5q-80 0 -136 -16.5t-108 -48t-61 -35.5h-55l47 586h678l35 26l29 2l-17 -137l-35 -30h-637 l-28 -404q49 57 143.5 91t187.5 34q69 0 136 -15t130.5 -49t111.5 -83.5t77 -123.5t29 -163t-38 -170.5t-102.5 -142t-155.5 -96.5t-192 -36q-206 0 -335 104.5t-142 287.5z" />
<glyph unicode="6" horiz-adv-x="1075" d="M90 567q1 95 20 194.5t60.5 197t99.5 174t143 123.5t185 47q154 0 258 -76q22 -16 4 -37l-14 -16q-14 -17 -37 -7q-5 3 -23.5 13.5t-23 13t-19.5 10.5t-21 10t-19.5 7.5t-21.5 7t-21 4.5t-25.5 3.5t-26.5 0.5q-74 0 -134 -35t-98.5 -91t-66 -133.5t-40.5 -153.5t-19 -160 q32 40 119.5 82t185.5 42q184 0 306 -108t122 -279q0 -61 -16.5 -121t-52 -115t-85.5 -97.5t-122.5 -67.5t-157.5 -25q-104 0 -185 34.5t-132 91t-84 135t-46 160t-12 171.5zM254 588q-11 -273 70.5 -411t224.5 -138q145 0 213.5 99t68.5 270q0 143 -70.5 231t-193.5 88 q-55 0 -114 -16.5t-101 -39.5t-69.5 -46.5t-28.5 -36.5z" />
<glyph unicode="7" horiz-adv-x="1087" d="M82 1047l41 178q10 47 57 47h836l-645 -1282h-17q-28 0 -43.5 21t-1.5 48l574 1080h-725l-43 -92h-33z" />
<glyph unicode="8" horiz-adv-x="1148" d="M102 360q0 262 248 347q-91 34 -132.5 107t-41.5 161q0 58 24.5 112t71.5 99.5t125 72.5t176 27q90 0 164 -27t120 -71.5t70.5 -100.5t24.5 -116q0 -74 -45.5 -146t-138.5 -112q69 -27 117.5 -57.5t86.5 -74.5t56.5 -104t18.5 -139q0 -147 -137 -257t-339 -110 q-107 0 -197 33.5t-148.5 88.5t-91 124.5t-32.5 142.5zM221 352q0 -58 22 -115t64 -105.5t110 -78.5t152 -30q80 0 141 28.5t95.5 76.5t51.5 104.5t17 119.5q0 110 -65.5 175t-214.5 98l-162 37q-46 10 -95 -28.5t-82.5 -115.5t-33.5 -166zM332 975q0 -176 200 -221l107 -25 q54 -12 104.5 25.5t79.5 99t29 121.5q0 50 -13 92t-43.5 80.5t-88 60t-138.5 21.5q-237 0 -237 -254z" />
<glyph unicode="9" horiz-adv-x="1077" d="M92 883q0 61 16.5 121t52 115t85.5 97.5t122.5 67.5t157.5 25q104 0 185.5 -34.5t132.5 -91t83.5 -135.5t45.5 -160t12 -171q-1 -95 -20 -194.5t-60 -197t-99 -173.5t-143.5 -123t-185.5 -47q-153 0 -256 75q-22 16 -4 37l12 17q13 16 37 6q7 -4 30 -17t29.5 -16 t24.5 -12t27 -11.5t25 -7t31.5 -5.5t33.5 -1q74 0 134.5 35.5t99 91.5t66 133.5t41 153.5t19.5 160q-32 -40 -120.5 -82.5t-186.5 -42.5q-184 0 -306 108t-122 279zM246 877q0 -144 70 -232t192 -88q55 0 114 16.5t101.5 39.5t70.5 46.5t29 36.5q10 274 -72 411.5 t-225 137.5q-144 0 -212 -98.5t-68 -269.5z" />
<glyph unicode=":" horiz-adv-x="434" d="M117 84q0 41 30.5 71.5t71.5 30.5t72 -30.5t31 -71.5q0 -42 -31 -73t-72 -31t-71.5 30.5t-30.5 73.5zM117 772q0 43 30.5 74t71.5 31t72 -31t31 -74q0 -42 -31 -73t-72 -31t-71.5 30.5t-30.5 73.5z" />
<glyph unicode=";" horiz-adv-x="385" d="M96 94q6 43 40 69.5t75 20.5q37 -6 61.5 -34t32.5 -64q15 -76 -4 -141q-21 -70 -92 -135q-13 -8 -31 4l-22 22q44 44 63 90q16 45 6 64q-20 -7 -51 -4q-36 6 -59 37t-19 71zM102 770q0 42 31 73t72 31t71.5 -30.5t30.5 -73.5t-30.5 -73.5t-71.5 -30.5t-72 31t-31 73z" />
<glyph unicode="&#x3c;" horiz-adv-x="1038" d="M143 465v96q362 138 752 350v-90q-285 -168 -690 -307q409 -144 690 -307v-92q-390 212 -752 350z" />
<glyph unicode="=" horiz-adv-x="1044" d="M143 283v96h758v-96h-758zM143 651v97h758v-97h-758z" />
<glyph unicode="&#x3e;" horiz-adv-x="1038" d="M143 115v92q279 162 691 307q-407 140 -691 307v90q390 -212 752 -350v-96q-362 -138 -752 -350z" />
<glyph unicode="?" horiz-adv-x="948" d="M92 1024q0 -56 19 -94.5t47 -52.5t59.5 -9.5t56.5 29.5q24 22 21.5 57.5t-18.5 70t-22.5 76t9.5 75.5q63 120 228 120q99 0 154.5 -54.5t55.5 -137.5q4 -47 -7 -82.5t-54.5 -86t-130.5 -120.5q-101 -77 -84 -201l20 -190h43l19 190q3 26 35 52t96.5 69.5t112.5 87.5 q67 60 91.5 134t4.5 141.5t-67.5 124.5t-125 91t-166.5 34q-181 0 -289 -91t-108 -233zM379 84q0 41 30.5 71.5t71.5 30.5q43 0 74 -30.5t31 -71.5q0 -43 -31 -73.5t-74 -30.5q-41 0 -71.5 30.5t-30.5 73.5z" />
<glyph unicode="@" horiz-adv-x="1445" d="M92 510q0 147 49.5 274t134.5 215t201.5 138.5t247.5 50.5q132 0 247 -47.5t200.5 -133t134.5 -212.5t49 -279q0 -79 -10.5 -134.5t-37.5 -104t-78.5 -79.5t-129.5 -48q-89 -19 -139 13.5t-62 121.5q-23 -68 -90 -114t-158 -46q-100 0 -163.5 44.5t-63.5 139.5 q0 43 10.5 75t41 64t83.5 56t138.5 45t205.5 37v26q0 42 -7 76.5t-25 70t-57 54.5t-97 16q-10 -1 -25.5 -2t-28.5 -3t-30 -7q-32 -5 -42.5 -27t-5.5 -48.5t-1 -53.5q-18 -55 -82 -45q-26 3 -40.5 29.5t-4.5 66.5q13 56 84.5 97t158.5 49q153 12 236.5 -56.5t83.5 -214.5 v-331q0 -44 22.5 -65t59.5 -13q30 7 53.5 21t38 31t24.5 41.5t14.5 44.5t6.5 48t2 46t-1 43t-1 34q0 178 -56 314t-174 217t-284 81q-125 0 -224 -49t-160.5 -134.5t-93.5 -196t-32 -238.5q0 -168 61 -308t179 -225.5t270 -85.5q37 0 115 15q51 12 69 -13l23 -34 q-105 -27 -207 -27q-130 0 -246.5 50.5t-201.5 138.5t-135 216t-50 275zM539 315q0 -47 40 -82.5t105 -35.5q34 0 66 10.5t52.5 23t42.5 35t30.5 34t22.5 31.5q4 5 5 7v197q-99 -14 -167.5 -32t-107 -36.5t-59 -45t-25.5 -49t-5 -57.5z" />
<glyph unicode="A" d="M41 0v41q68 14 99 38t59 91l463 1118l51 -12q41 -14 55 -55l438 -998q31 -71 60 -108t55 -49.5t74 -22.5v-43h-430v41q59 11 84 26.5t23 35.5t-13 47l-125 292h-545l-115 -282q-8 -20 -8 -36q0 -24 18 -39q28 -26 107 -44v-41h-350zM414 506h493l-254 596z" />
<glyph unicode="B" horiz-adv-x="1212" d="M51 0v57q133 28 133 99v964q0 71 -131 90v62h584q204 0 319 -74.5t115 -226.5q0 -90 -61.5 -169.5t-171.5 -113.5q140 -28 221.5 -116t81.5 -210q-1 -180 -123 -272q-119 -90 -332 -90h-14l-180 4q-149 9 -230 9h-15q-81 -1 -196 -13zM328 158q0 -37 14.5 -60.5 t44.5 -23.5h279q163 0 240 67.5t77 220.5q0 70 -25 122.5t-81 92t-154.5 60t-239.5 20.5h-155v-499zM328 723h454q39 0 85 75t46 179q0 223 -245 223h-340v-477z" />
<glyph unicode="C" horiz-adv-x="1261" d="M55 653q0 129 46 248.5t123.5 208.5t187 142t229.5 53q118 0 215.5 -46.5t161.5 -121.5q44 0 59 100q6 35 39 35h33l22 -406l-36 -16q-35 -15 -48 22q-4 12 -28 74q-61 146 -168.5 218.5t-239.5 72.5q-64 0 -125.5 -20t-117 -62.5t-97 -103t-66 -148t-24.5 -190.5 q0 -120 28 -227.5t75.5 -185.5t108 -136t126 -86.5t129.5 -28.5q67 0 122.5 18t98 53t71 68.5t60.5 81.5q6 10 14 24.5t12 22t10 15.5t12 11t14 3t30.5 -12.5t32.5 -20.5q6 -13 -1.5 -31.5t-28.5 -53.5q-2 -3 -3.5 -5.5t-3.5 -5.5q-148 -248 -469 -248q-169 0 -308.5 94.5 t-217.5 251.5t-78 338z" />
<glyph unicode="D" horiz-adv-x="1284" d="M29 1225v47h417q187 0 321.5 -32.5t232 -106t145 -196.5t47.5 -300q0 -337 -175 -493q-161 -143 -478 -143q-29 0 -58 1q-156 11 -237 11h-14q-82 -1 -199 -13v57q133 28 133 99v964q0 36 -30.5 60.5t-104.5 44.5zM307 160q0 -35 14.5 -45t61.5 -15l121 -10q43 -4 83 -4 q97 0 172 23q106 32 167.5 107t89.5 178t28 243q0 263 -123 413t-378 150h-236v-1040z" />
<glyph unicode="E" horiz-adv-x="1142" d="M72 0v45q10 3 27.5 9t23.5 8.5t17 8t15 11t9 14.5t6.5 21.5t1.5 29.5v983q0 20 -3.5 34.5t-6.5 23t-14.5 16t-17.5 10.5t-27 10t-31 11v37h872q21 0 28 -7t7 -30v-199h-45l-31 68q-45 94 -164 94h-409v-514h383q17 0 30 5t21 11t16.5 20.5t12.5 23t12 30.5t12 31h31v-313 h-31q-4 10 -14 36t-15 35.5t-16 24.5t-25 20.5t-34 5.5h-383v-546l489 4q36 0 59 8t31 16.5t23 31.5t24 34l54 67h61q-41 -81 -65 -182q-6 -22 -23.5 -34.5t-38.5 -12.5h-872z" />
<glyph unicode="F" horiz-adv-x="1103" d="M51 0v27q10 4 31 11.5t27 10t18 10t15 16t6.5 22.5t3.5 34v999q0 20 -3.5 34.5t-6.5 23t-15 16t-18 10.5t-27 10t-31 11v37h903l7 -2q7 -3 11.5 -3t8.5 3l61 -234h-45l-30 68q-40 94 -164 94h-494v-514h385q17 0 30 5t21 10.5t17 21t12.5 23t12.5 30.5t12 31h30v-313h-30 q-4 8 -14.5 35.5t-15.5 36t-16 24t-25 21t-34 5.5h-385v-483q0 -20 3.5 -34t7 -22.5t15 -16t18.5 -10.5t27 -10t30 -11v-27h-359z" />
<glyph unicode="G" horiz-adv-x="1374" d="M51 655q0 182 78.5 331t215 234t302.5 85q125 0 213.5 -47.5t161.5 -137.5q28 0 41 42.5t18 123.5h60l28 -409l-86 -41q-5 12 -18 43.5t-21 50.5q-64 154 -167 229.5t-230 75.5q-63 0 -121.5 -17.5t-115.5 -60.5t-99 -108t-68 -167.5t-26 -230.5q0 -151 37.5 -270.5 t101.5 -193t143.5 -112t168.5 -38.5q64 0 131 24.5t116 59.5t80 74.5t31 70.5v191q0 31 -17 48t-48 17h-93v82l435 2v-84h-64q-31 0 -48 -17t-17 -48v-447q0 -20 -25 -24.5t-29 14.5l-49 160q-87 -84 -182 -132t-221 -48q-174 0 -314.5 84.5t-221.5 239t-81 351.5z" />
<glyph unicode="H" horiz-adv-x="1335" d="M55 0v27q10 4 30 11t27 10t18.5 10.5t15 16t7 22.5t3.5 34v999q0 20 -3.5 34.5t-7 23t-15 16t-18.5 10.5t-26.5 10t-30.5 11v37h359v-37q-11 -4 -30.5 -11t-26.5 -10t-18.5 -10.5t-15 -16t-7 -23t-3.5 -34.5v-450h715v450q0 20 -3.5 34.5t-7 23t-15 16t-18 10.5t-26 10 t-30.5 11v37h358v-37q-11 -4 -30.5 -11t-26 -10t-18 -10.5t-15 -16t-7 -23t-3.5 -34.5v-999q0 -20 3.5 -34t7 -22.5t15 -16t18 -10.5t26.5 -10t30 -11v-27h-358v27q10 4 30 11t26.5 10t18 10.5t15 16t7 22.5t3.5 34v477h-715v-477q0 -20 3.5 -34t7 -22.5t15 -16t18.5 -10.5 t27 -10t30 -11v-27h-359z" />
<glyph unicode="I" horiz-adv-x="516" d="M82 0v27q12 4 32 11t28 10.5t20 10.5t16.5 15.5t8 22.5t3.5 34v999q0 20 -3.5 34.5t-8 23t-16.5 16t-20 10.5t-28 9.5t-32 11.5v37h358v-37q-11 -4 -36 -13t-32 -12.5t-19 -14t-15.5 -26t-3.5 -39.5v-999q0 -20 3.5 -34t8 -22.5t16.5 -15.5t20 -10.5t27.5 -10t30.5 -11.5 v-27h-358z" />
<glyph unicode="J" horiz-adv-x="638" d="M-10 -180q0 96 90 96q39 0 58.5 -24.5t19.5 -63.5q0 -36 20.5 -70t57.5 -34q35 0 52 33t17 87v1286q0 24 -3.5 39.5t-15.5 26t-19 14t-32 12.5t-36 13v37h358v-37q-12 -5 -32 -11.5t-28 -9.5t-20 -10.5t-16.5 -16t-8 -23t-3.5 -34.5v-1187q0 -143 -66 -209t-195 -66 q-95 0 -146.5 50t-51.5 102z" />
<glyph unicode="K" horiz-adv-x="1247" d="M41 0v27q12 5 32 11.5t28 10t20 10.5t16.5 15.5t8.5 22.5t4 34v999q0 24 -3.5 39.5t-16 26t-19.5 14t-33 12.5t-37 13v37h358v-37q-11 -4 -36 -13t-32 -12.5t-19 -14t-15.5 -26t-3.5 -39.5v-436h37q56 0 96 43l408 439q23 26 3 38.5t-63 18.5v39h316v-39 q-109 -12 -150 -55l-455 -488l441 -493q36 -40 68 -69t51.5 -43.5t49.5 -26t38.5 -13.5l42.5 -10v-35h-418v35q68 18 78 27q14 11 -2 30l-453 520h-88v-481q0 -20 3.5 -34t8 -22.5t16.5 -15.5t20 -10.5t27.5 -10t30.5 -11.5v-27h-358z" />
<glyph unicode="L" horiz-adv-x="1095" d="M25 0v27q11 4 36 13t32.5 13t20 14t16 25.5t3.5 38.5v999q0 24 -3.5 39.5t-16 25.5t-20 14.5t-32 12.5t-36.5 13v37h358v-37q-12 -5 -31 -11.5t-27.5 -9.5t-20 -10.5t-16.5 -16t-8.5 -23t-3.5 -34.5v-978q1 -48 18 -65t44 -15l428 16q76 3 108.5 14t55.5 50l37 65h57 l-49 -170q-15 -47 -62 -47h-888z" />
<glyph unicode="M" horiz-adv-x="1634" d="M61 0v27q9 4 28 10t25 9l18 9t16 11.5t9.5 15.5t7 23t1.5 30v969q0 59 -24 88t-81 49v31h283l504 -942l469 942h235v-31q-54 -19 -72 -47t-18 -90v-969q0 -13 1 -22.5t1.5 -17.5t4 -14.5t4.5 -11t7.5 -9.5t8.5 -7t12 -6.5t13.5 -6t17.5 -6.5t20 -7v-27h-331v27 q10 4 28 11.5t25 10.5t18.5 11t15.5 16.5t7.5 23.5t3.5 35v955l-483 -977q-20 -40 -24 -40t-26 40l-542 1005v-983q0 -20 3.5 -35t7.5 -23.5t16 -16.5t18.5 -11t26.5 -10.5t30 -11.5v-27h-285z" />
<glyph unicode="N" horiz-adv-x="1312" d="M51 0v31q60 21 87.5 45t27.5 59v1006q0 35 -27.5 59t-87.5 45v27h250l752 -953v822q0 35 -27 59.5t-88 44.5v27h324v-27q-61 -20 -88 -44.5t-27 -59.5v-1141q0 -15 -1 -15t-13 15l-889 1085v-950q0 -34 26.5 -58.5t83.5 -45.5v-31h-303z" />
<glyph unicode="O" horiz-adv-x="1302" d="M61 647q0 183 73.5 332.5t209.5 237.5t307 88q173 0 308 -85t208.5 -235t73.5 -338q0 -192 -73.5 -346.5t-208.5 -243t-308 -88.5q-170 0 -306.5 95t-210 249.5t-73.5 333.5zM227 709q0 -154 36.5 -284t96 -212.5t131.5 -128t146 -45.5q84 0 149 16t120.5 54.5t92 100.5 t56.5 156.5t20 219.5q0 142 -39 267.5t-100.5 208t-136.5 130t-148 47.5q-78 0 -137 -11.5t-115.5 -45.5t-92 -91.5t-57.5 -153.5t-22 -228z" />
<glyph unicode="P" horiz-adv-x="1110" d="M51 0v27q12 5 32 11.5t28 10t20 10.5t16.5 15.5t8.5 22.5t4 34v999q0 24 -3.5 39.5t-16 26t-19.5 14t-33 12.5t-37 13v37h533q208 0 341.5 -106t133.5 -285q0 -177 -138 -275t-364 -98h-254v-377q0 -20 3.5 -34t8.5 -22.5t16.5 -15.5t20 -10.5t27.5 -10t31 -11.5v-27 h-359zM303 557h283q295 0 295 324q0 146 -64.5 236.5t-204.5 90.5h-309v-651z" />
<glyph unicode="Q" horiz-adv-x="1398" d="M61 633q0 136 43.5 257t120 209.5t187 139.5t239.5 51q173 0 308 -85t208.5 -234.5t73.5 -337.5q0 -182 -66 -330.5t-187.5 -239.5t-278.5 -106l217 -164q62 -43 116 -43h6q56 3 94 37t38 78v9q0 38 14 62q17 27 53 27q69 0 72 -80q0 -91 -71 -155t-171 -64 q-107 3 -262 96l-274 185q-61 38 -124 42q-8 1 -15 1q-53 0 -88 -25q-39 -28 -40 -74q0 -32 -19.5 -54.5t-45.5 -22.5q-24 0 -44 24.5t-20 59.5q0 59 45.5 109.5t114.5 74.5q-115 93 -179.5 240t-64.5 313zM227 694q0 -213 66 -369t170 -235q73 -15 149 -63l25 -2 q84 0 149 16t120.5 54.5t92 100t56.5 156t20 219.5q0 142 -39 267.5t-100.5 208.5t-136.5 130.5t-148 47.5q-78 0 -137 -11.5t-115.5 -45.5t-92 -92t-57.5 -154t-22 -228z" />
<glyph unicode="R" horiz-adv-x="1234" d="M72 0v27q10 4 27 10t23.5 8.5t17.5 8.5t15 11.5t9 14.5t6.5 21.5t1.5 29.5v977q0 58 -22.5 87t-77.5 50v27h493q210 0 329.5 -96t119.5 -252q0 -116 -83 -201t-233 -125q35 -5 64 -15.5t48.5 -20t37 -30.5t26.5 -33.5t19.5 -42.5t14.5 -43t13 -50q3 -13 5 -19 q17 -66 45.5 -129t73.5 -113t92 -55h47v-47h-199q-30 21 -43.5 30.5t-47.5 42.5t-54 63.5t-42 82.5t-32 111q-16 82 -31.5 127.5t-46 82t-78.5 50.5t-125 14h-170v-473q0 -23 4 -38.5t16 -25.5t20 -14.5t30.5 -12.5t34.5 -13v-27h-348zM315 647h279q250 0 250 277 q0 74 -23 136t-77 105t-132 43h-297v-561z" />
<glyph unicode="S" horiz-adv-x="1091" d="M72 360l43 11q22 8 35.5 2t25.5 -29q5 -10 21 -39t24 -45q46 -93 137.5 -151t208.5 -58q43 0 83.5 6.5t83 25t72 47t45.5 76.5q11 34 11 75q0 18 -2 36q-3 27 -11 51t-17.5 42.5t-27 36.5t-31 30t-39 25.5t-40.5 21t-45.5 19t-44.5 16t-48 15t-46 14.5q-11 4 -45 15 t-49.5 16t-48.5 17.5t-50 21.5t-45.5 25t-45 31t-37.5 37t-33.5 45t-23 52.5t-15.5 62.5q-3 20 -3 40q0 31 8 65q12 54 46 106.5t84.5 93.5t125.5 66t163 25q90 0 159.5 -20t105 -44.5t79 -50t82.5 -33.5l26 -260l-43 -8q-41 -6 -49 24l-22 82q-27 101 -124.5 173.5 t-213.5 72.5q-129 1 -211 -89q-70 -76 -70 -165q0 -15 2 -31q5 -38 25.5 -70.5t43.5 -52.5t63.5 -40t64.5 -29t66 -23l18 -6q14 -5 54 -16t70 -20t75 -26t79 -34.5t72.5 -45t64.5 -58t45.5 -72.5t24.5 -90q3 -24 3 -47q0 -54 -17 -102q-24 -68 -70.5 -115t-110.5 -79.5 t-133 -47.5t-139 -15q-74 0 -136.5 17t-91.5 34t-73 26q-16 3 -31 3q-27 0 -51 -10z" />
<glyph unicode="T" horiz-adv-x="1181" d="M51 1047l12 180q3 45 43 45h969q40 0 43 -45l12 -180h-26l-23 67q-24 64 -92 64h-323v-1047q0 -20 3.5 -34t8 -22.5t16.5 -15.5t20 -10.5t28 -10.5t32 -11v-27h-362v27q11 5 30.5 11.5t27.5 10t20 10.5t16.5 15.5t8 22.5t3.5 34v1047h-325q-69 0 -93 -64l-22 -67h-27z " />
<glyph unicode="U" horiz-adv-x="1288" d="M41 1237v35h344v-35q-46 -7 -70 -20.5t-24 -45.5v-557q0 -302 89.5 -434.5t268.5 -132.5q53 0 102 14t95 47.5t80 84t54.5 128.5t20.5 175v675q0 32 -23.5 45.5t-72.5 20.5v35h301v-35q-46 -7 -69 -20.5t-23 -45.5v-651q0 -250 -122.5 -395t-342.5 -145 q-256 0 -387 141.5t-131 386.5v663q0 32 -22.5 45.5t-67.5 20.5z" />
<glyph unicode="V" horiz-adv-x="1370" d="M20 1233v39h406v-39q-69 -6 -94 -18.5t-15 -38.5l402 -957l397 936q13 34 -19 52.5t-96 25.5v39h328v-39q-61 -6 -87.5 -27.5t-51.5 -83.5l-477 -1132h-11q-48 0 -65 49l-440 1032q-40 96 -74 126t-103 36z" />
<glyph unicode="W" horiz-adv-x="1914" d="M31 1233v39h352v-39q-36 -12 -51.5 -26t-7.5 -38l356 -923l233 727l-34 92q-36 95 -71.5 126t-105.5 42v39h353v-39q-28 -10 -45.5 -31t-14.5 -33l359 -923l309 903q11 35 -14.5 54t-87.5 30v39h323v-39q-63 -10 -90 -33.5t-49 -83.5l-395 -1126h-7q-45 0 -65 49 l-322 825l-278 -874h-6q-46 0 -66 49l-399 1026q-37 95 -71.5 126t-104.5 42z" />
<glyph unicode="X" horiz-adv-x="1359" d="M37 0v43q61 6 93.5 30.5t78.5 88.5l366 495l-319 408q-18 24 -42.5 58t-35 47.5t-28.5 30t-36.5 23t-45.5 9.5v39h376v-39q-48 -8 -74 -25.5t-10 -38.5l345 -440l288 420q21 31 -10 53.5t-96 30.5v39h336v-39q-32 -4 -55 -12t-42.5 -26.5t-30 -32.5t-32.5 -46l-313 -446 l356 -457q19 -26 44 -61.5t35.5 -48.5t28 -29.5t35.5 -22.5t45 -8v-43h-374v43q49 7 74.5 24t9.5 42l-379 485l-330 -465q-12 -17 -12 -31q0 -15 13 -26q26 -23 89 -29v-43h-348z" />
<glyph unicode="Y" horiz-adv-x="1257" d="M31 1235v37h381v-37q-47 -8 -69.5 -26t-6.5 -42l332 -479l317 459q11 15 11 29q0 15 -16 28q-29 23 -93 31v37h340v-37q-61 -7 -95.5 -33.5t-76.5 -87.5l-350 -496v-507q0 -17 11.5 -29t36.5 -19.5t45 -11t56 -8.5v-43h-438v43q36 5 56 8.5t45.5 11t37.5 19.5t12 29v452 l-346 500q-7 11 -22 33t-20 30t-17 24.5t-17 22t-15 17t-16.5 15.5t-16.5 10.5t-19.5 9.5t-21 5.5t-25.5 4.5z" />
<glyph unicode="Z" horiz-adv-x="1187" d="M51 1040l33 232h1020l-895 -1204l764 10q26 0 39 15t26 48l31 78h37l-45 -219h-955q-41 0 -53 33q-4 10 -4 20q0 23 19 47l809 1104l-713 -8q-43 0 -55 -63l-21 -93h-37z" />
<glyph unicode="[" horiz-adv-x="507" d="M92 -326v1866l365 14v-2q0 -25 -43 -32l-199 -39v-1747l199 -39q43 -7 43 -33v-2z" />
<glyph unicode="\" horiz-adv-x="821" d="M92 1313h90l547 -1313h-90z" />
<glyph unicode="]" horiz-adv-x="507" d="M51 -338q0 26 43 33l199 39v1747l-199 39q-43 7 -43 32v2l365 -14v-1866l-365 -14v2z" />
<glyph unicode="^" horiz-adv-x="747" d="M41.5 934q-3.5 10 3.5 22l315 422q15 19 27 0l315 -422q7 -12 4 -22t-14 -10h-39q-4 0 -7 3t-8 9t-7 8l-256 281l-258 -281q-15 -20 -21 -20h-39q-12 0 -15.5 10z" />
<glyph unicode="_" horiz-adv-x="1222" d="M61 -41h1049v-61h-1049v61z" />
<glyph unicode="`" horiz-adv-x="577" d="M103.5 1301.5q-0.5 -6.5 1.5 -10.5l4.5 -9t7.5 -9t12 -7l301 -156q29 -18 41 0q13 16 -18 41l-240 221q-33 29 -59.5 23t-36.5 -35q-1 -3 -4 -12.5t-4 -12.5t-3.5 -11t-2 -12t0 -10.5z" />
<glyph unicode="a" horiz-adv-x="944" d="M35 219q0 62 25 109t90 92t190.5 80t312.5 61v19q0 149 -47.5 223t-161.5 74q-105 0 -151.5 -38.5t-46.5 -144.5q0 -25 -29 -39t-61 -14q-31 0 -50 20.5t-22 53.5q0 75 53 127.5t134.5 76t181.5 23.5q167 0 252.5 -89t85.5 -235v-464q0 -56 25 -70q14 -8 40 -9q20 0 47 5 v-51q-58 -45 -125 -45q-41 0 -73.5 55t-42.5 149q-43 -83 -127 -144t-191 -64h-11q-118 0 -206 60q-92 63 -92 179zM184 225q0 -79 50 -126.5t141 -47.5q47 0 87 14.5t69.5 40.5t49.5 49.5t41 53.5t31 41v262q-119 -17 -206 -41t-137 -50t-79 -60.5t-38 -65t-9 -70.5z" />
<glyph unicode="b" horiz-adv-x="1032" d="M31 1243v62l202 41q10 2 17 2q33 0 33 -41v-320q0 -139 -33 -254l35 45q3 3 22 24t27 29t28.5 27t34.5 28.5t38 23.5t45.5 20.5t50.5 12t59 5.5q170 0 265 -127.5t95 -355.5q0 -222 -105 -351.5t-261 -129.5q-66 0 -123.5 19t-95 49.5t-62 62t-35.5 61.5l-88 -184 q-9 -20 -23 -13t-14 23v1174q0 36 -12.5 51.5t-42.5 15.5h-57zM285 279q22 -60 55.5 -109.5t91 -86t125.5 -36.5q254 0 254 391q0 78 -15 149t-44.5 130t-79.5 94t-113 35q-73 0 -123 -18t-80.5 -47t-70.5 -85v-417z" />
<glyph unicode="c" horiz-adv-x="907" d="M51 463q0 225 116 352t292 127q168 0 257 -78t89 -188q0 -23 -22.5 -42.5t-57.5 -19.5q-80 0 -80 60v17v38.5t-1.5 33.5t-4.5 30l-8 24t-13.5 21.5t-20.5 15t-28 12t-37.5 6t-48.5 2.5q-160 0 -224 -82.5t-64 -283.5q0 -107 40.5 -205.5t120 -164t179.5 -66.5h12 q39 0 67 6q32 6 54 22.5t33 29t29 41.5t28 42q14 21 30 0l33 -37q-99 -192 -377 -192q-166 0 -279.5 135.5t-113.5 343.5z" />
<glyph unicode="d" horiz-adv-x="1064" d="M72 444q0 129 41.5 239t125.5 179.5t193 69.5q37 0 69.5 -4t61.5 -14t48.5 -17t45 -24.5t35.5 -24.5t36 -28.5t32 -26.5v356q0 51 -27 73q-25 21 -77 21h-9v62l193 38q24 4 37.5 -3t18 -23t5.5 -39t-1 -50q-1 -24 -1 -36v-1002q1 -52 27 -67q17 -9 46 -9q18 0 42 3v-68 l-109 -49q-11 -3 -22 -3q-36 -1 -68 37q-42 50 -55 154q-47 -80 -83 -116q-87 -88 -210 -88q-76 0 -146.5 32.5t-126 90t-89 145.5t-33.5 192zM211 471q0 -165 88.5 -284t210.5 -119q176 0 250 227v393q-115 180 -289 180q-122 0 -191 -110.5t-69 -286.5z" />
<glyph unicode="e" horiz-adv-x="923" d="M61 471q0 221 116.5 344t299.5 123q102 0 188.5 -42.5t141.5 -128.5t55 -200q0 -56 -27 -77t-87 -21h-533q0 -92 27.5 -170.5t72.5 -130t101 -80.5t114 -29q55 0 100 14t79 41.5t54 49.5t44 55l43 -65q-23 -31 -35 -45.5t-45 -44t-66 -44t-88.5 -27.5t-121.5 -13 q-185 0 -309 139t-124 352zM215 543h498v13q0 135 -61 226q-64 95 -175 95q-120 0 -191 -95t-71 -239z" />
<glyph unicode="f" horiz-adv-x="802" d="M57 885v51h156v102q0 149 74.5 238.5t212.5 89.5q69 0 123.5 -13t91 -37.5t56.5 -43.5t42 -47q13 -13 21.5 -29t7.5 -36.5t-17 -35.5q-22 -24 -52.5 -23t-43.5 27q-39 80 -62 107q-51 58 -124 59q-95 0 -142 -60.5t-47 -158.5v-139h320q-15 -48 -25 -60t-39 -12h-256 v-772q0 -35 20 -46t87 -11v-35h-342v35q58 0 76 11t18 46v772h-135q-9 0 -15 6t-6 15z" />
<glyph unicode="g" horiz-adv-x="1077" d="M49 -186q0 53 21.5 96t58.5 70.5t77.5 45.5t86.5 27q-152 29 -215 124q-31 46 -31 91q0 26 11 52q30 71 123 86q20 3 41.5 3t45.5 -3q-68 41 -106.5 103.5t-38.5 139.5q0 132 92 210.5t285 78.5q107 0 188.5 -42.5t104.5 -92.5q4 67 47.5 101t117.5 34q25 0 46.5 -20 t21.5 -52q0 -41 -17.5 -60t-43.5 -11q-19 5 -35 5q-33 0 -51 -21q-27 -31 -27 -140q-2 -127 -98 -208t-277 -81q-71 0 -141 25q-15 1 -28 1q-81 0 -112 -42q-13 -17 -13 -36q0 -23 21 -49q44 -54 152 -71l211 -35q220 -32 304.5 -86t84.5 -184q0 -153 -127 -238.5 t-356 -85.5q-195 0 -309.5 69.5t-114.5 195.5zM201 -180q0 -215 272 -215q194 0 270 51t76 188q0 43 -11.5 71.5t-38.5 47t-60 28t-88 19.5l-267 39q-41 -6 -72.5 -31.5t-48 -61t-24.5 -70t-8 -66.5zM270 651q0 -33 2.5 -58.5t15 -62t34 -60t63.5 -41t100 -17.5 q220 0 220 239q0 39 -4 67.5t-17 59.5t-36.5 50.5t-65 32.5t-99.5 13q-213 0 -213 -223z" />
<glyph unicode="h" horiz-adv-x="1089" d="M25 1241v64l200 41q16 3 27.5 1t18 -8.5t11 -17t5.5 -24.5t1.5 -30.5t0 -35t0.5 -37.5v-414l-8 -63q17 28 48 62t79.5 72.5t116.5 63.5t141 25q99 0 157 -29.5t88.5 -107.5t30.5 -217v-428q0 -58 26 -86q16 -17 49 -17q21 0 48 6l-27 -47q-8 -3 -15 -5t-12.5 -3.5 t-12 -2.5t-10 -2t-11 -1h-10h-12h-13.5q-66 0 -107.5 42.5t-41.5 104.5v471q0 115 -40.5 175.5t-131.5 60.5q-66 0 -139 -34.5t-116 -69t-69 -64.5v-592q0 -34 23.5 -45.5t78.5 -11.5v-37h-350v37q52 0 74 11.5t22 45.5v1067q0 82 -90 82q-14 0 -30 -2z" />
<glyph unicode="i" horiz-adv-x="489" d="M88 848v72l166 18h10q55 0 55 -64v-780q0 -33 22.5 -45t66.5 -12v-37h-312v37q45 0 67.5 12t22.5 45v690q0 35 -13 49.5t-44 14.5h-41zM166 1288q0 33 25.5 57.5t58.5 24.5q34 0 60 -24.5t26 -57.5q0 -36 -26 -61t-60 -25q-33 0 -58.5 25t-25.5 61z" />
<glyph unicode="j" horiz-adv-x="403" d="M-111 -346q0 66 37 82q17 9 39.5 10.5t34.5 -4.5q2 2 8 -7t14.5 -23t18.5 -28t21.5 -22t21.5 -4q49 20 49 102v1024q0 35 -13 49.5t-44 14.5h-41v72l166 18h10q55 0 55 -64v-1026q0 -108 -30 -171.5t-103 -94.5q-54 -22 -103 -22q-32 0 -61 9q-75 23 -80 85zM113 1288 q0 33 25.5 57.5t58.5 24.5q34 0 60 -24.5t26 -57.5q0 -36 -26 -61t-60 -25q-33 0 -58.5 25t-25.5 61z" />
<glyph unicode="k" horiz-adv-x="1030" d="M41 1286v49l203 31q8 1 14 1q35 0 35 -40v-807l381 303q28 24 9 41q-17 15 -67 15v45h302v-45q-16 0 -28 -0.5t-22 -3.5t-16 -4t-14.5 -6.5t-11 -7t-12 -9.5t-11.5 -10l-381 -306l432 -446q32 -32 52 -41.5t63 -9.5v-35h-310v35q66 0 66 24q0 6 -8 15l-424 428v-410 q0 -57 65 -57v-35h-278v35q74 0 74 57v1127q0 36 -13.5 51.5t-44.5 15.5h-55z" />
<glyph unicode="l" horiz-adv-x="446" d="M31 1225v80l200 38q11 4 20 1.5t15.5 -3t11 -8t7.5 -12t4.5 -15t2 -18.5t0.5 -21v-23t-0.5 -25.5t-0.5 -26.5v-1036q0 -56 25 -78q14 -12 39 -13q21 0 51 9l-17 -64q-59 -26 -78 -26q-75 0 -117 51.5t-42 136.5v973q0 82 -89 82q-15 0 -32 -2z" />
<glyph unicode="m" horiz-adv-x="1622" d="M51 834v71l201 35q7 1 14 1q40 0 43 -47v-9q0 -30 -10 -99l-8 -79q53 93 83 129q90 106 214 106q122 0 192 -52t92 -161q15 30 26.5 49.5t38.5 54t55.5 55.5t73 37.5t95.5 16.5q147 0 222 -77t75 -257v-514q0 -34 23.5 -45.5t79.5 -11.5v-37h-361v37q52 0 74 11.5 t22 45.5v535q0 102 -34.5 163.5t-108.5 61.5q-92 0 -165 -68t-105 -153v-539q0 -34 23 -45.5t77 -11.5v-37h-356v37q52 0 74 11.5t22 45.5v535q0 111 -31 168t-110 57q-94 0 -164 -65.5t-111 -155.5v-539q0 -34 23.5 -45.5t79.5 -11.5v-37h-334v37q52 0 74 11.5t22 45.5v660 q0 82 -89 82q-15 0 -32 -2z" />
<glyph unicode="n" horiz-adv-x="1087" d="M51 834v71l203 35q7 1 14 1q34 -1 42 -33q4 -16 5 -36q0 -28 -8 -63q-1 -14 -2 -21l-8 -71q131 223 350 223q100 0 157.5 -31t86.5 -108t31 -215v-428q0 -57 26 -81q16 -14 47 -14q22 0 52 7l-27 -50q-37 -13 -52 -16.5t-42 -3.5q-66 0 -108 43t-42 104v471 q0 236 -174 236q-41 0 -82.5 -14t-70 -31t-60.5 -45.5t-44.5 -42t-31.5 -35.5v-592q0 -34 23.5 -45.5t79.5 -11.5v-37h-340v37q52 0 74 11.5t22 45.5v660q0 82 -89 82q-15 0 -32 -2z" />
<glyph unicode="o" horiz-adv-x="966" d="M61 455q0 141 57 252.5t152 171t209 59.5q183 0 304.5 -132t121.5 -335q0 -213 -120.5 -352t-295.5 -139q-181 0 -304.5 136.5t-123.5 338.5zM201 494q0 -182 90 -308.5t221 -126.5q258 0 258 375q0 115 -41 215.5t-113.5 160.5t-158.5 60q-256 0 -256 -376z" />
<glyph unicode="p" horiz-adv-x="1028" d="M41 825v84l201 35q35 5 50.5 -18.5t12.5 -61t-18 -84.5q2 2 20 21t30 30.5t35.5 31.5t46.5 33t51.5 26.5t62.5 20.5t69 7q182 0 276.5 -125.5t94.5 -359.5q0 -223 -103.5 -350t-261.5 -127q-112 0 -192.5 47t-118.5 110v-415q0 -34 23.5 -46t78.5 -12v-49h-333v49 q52 0 74 12t22 46v1015q0 82 -89 82q-15 0 -32 -2zM297 285q34 -96 108 -163t183 -67q125 0 186.5 92.5t61.5 290.5q0 106 -24 196t-81.5 152t-140.5 62q-51 0 -92 -9t-66.5 -20t-53 -37t-40.5 -42.5t-41 -55.5v-399z" />
<glyph unicode="q" horiz-adv-x="1077" d="M51 485q0 218 102 340.5t283 122.5q52 0 100.5 -17t80 -39t59.5 -52t39.5 -46t19.5 -30l88 172q0 22 24.5 16t24.5 -16v-1133q0 -16 -12 -24l176 49v-92l-239 -170q-23 -14 -41.5 -5.5t-18.5 29.5v424q0 143 23 248l-19 -67q-10 -35 -29 -67.5t-52 -66t-86 -53.5 t-119 -20q-195 0 -299.5 124.5t-104.5 372.5zM195 520q0 -197 73 -308.5t207 -111.5q94 0 160.5 54.5t99.5 128.5v385q-36 72 -58 101q-79 98 -214 99q-139 0 -203.5 -79.5t-64.5 -268.5z" />
<glyph unicode="r" horiz-adv-x="782" d="M51 827v72l199 33q32 4 45.5 -12.5t12 -48t-5.5 -73.5q-2 -14 -3 -22l-18 -172l14 82q14 108 103 178t218 70q57 0 95 -38q20 -20 20 -39t-18 -38l-47 -49q-12 -15 -24 -17t-25 5.5t-26 17.5t-33 18.5t-40 8.5q-41 0 -75.5 -18.5t-56.5 -44t-39.5 -59.5t-26 -58.5 t-13.5 -47.5v-481q0 -34 25.5 -45.5t85.5 -11.5v-37h-348v37q56 0 80 11.5t24 45.5v654q0 81 -90 81q-15 0 -33 -2z" />
<glyph unicode="s" horiz-adv-x="874" d="M76 127q-22 67 -22 107q0 50 34 59q36 7 55 9t27.5 -4.5t9.5 -11.5t2 -24q27 -215 248 -215q120 0 178 48.5t58 131.5q0 110 -267 193q-53 17 -105 43t-101 61t-79 81.5t-30 94.5q0 104 84.5 169t259.5 65q69 0 133 -17t104.5 -41.5t64.5 -49t26 -40.5q2 -28 2 -52 q0 -30 -4 -54q-6 -42 -15.5 -54t-19.5 -12q-11 -1 -21 -1q-44 0 -64 14q-26 17 -20 51q2 18 2 35q0 65 -34 103q-44 48 -154 48q-108 0 -161.5 -43t-53.5 -110q0 -29 18.5 -55t42 -43.5t65 -36t67 -27.5t67.5 -23q150 -47 212 -83q127 -74 128 -189q0 -128 -104.5 -201 t-278.5 -73q-137 0 -238.5 52t-115.5 95z" />
<glyph unicode="t" horiz-adv-x="655" d="M57 858v64q74 0 136 61.5t108 159.5q5 11 10 14.5t8 -0.5t3 -14v-201h243v-59q0 -15 -5 -20t-17 -5h-221v-616q0 -65 31 -117.5t85 -52.5q93 0 156 49q8 -8 21.5 -29t5.5 -29q-97 -77 -228 -77q-215 0 -215 268v604h-121zM594 121z" />
<glyph unicode="u" horiz-adv-x="1069" d="M51 868v45l178 33q23 0 34 -8.5t11 -30.5v-600q0 -129 51.5 -181t170.5 -52q103 0 170 74.5t102 199.5v455q0 36 -12 50.5t-43 14.5h-31v45l176 31q8 2 15 2q30 0 30 -39v-753q-1 -56 25 -70q15 -8 43 -8q20 0 47 4v-51l-86 -41q-17 -7 -33 -7q-41 -1 -73 45 q-46 64 -58 205v5q-12 -35 -35 -73.5t-60 -81t-93 -70t-119 -27.5q-153 0 -237.5 89.5t-84.5 260.5v469q0 35 -13 50t-44 15h-31z" />
<glyph unicode="v" horiz-adv-x="1009" d="M20 881v43h363v-43l-41 -17q-26 -11 -34.5 -21t-3.5 -42.5t32 -98.5l196 -481l177 475q21 57 29.5 83.5t9 46t-7.5 25.5t-27 13l-45 17v43h321v-43l-47 -17q-16 -5 -27.5 -11.5t-31 -23t-39.5 -50t-39 -81.5l-287 -700q-28 0 -41 37l-295 667q-36 85 -63 118.5t-56 43.5z " />
<glyph unicode="w" horiz-adv-x="1560" d="M31 877v47q90 -2 181 -2l181 2v-47l-51 -17q-21 -6 -29.5 -12t-14.5 -22t1.5 -45.5t26.5 -78.5l202 -466l199 448l-8 18q-12 29 -24.5 60.5t-18 44t-12.5 26t-13 18.5t-16 9l-78 17v47q100 -2 199.5 -2t197.5 2v-47l-84 -17q-29 -5 -42 -15.5t-10 -45.5t32 -97l225 -466 l182 460q28 71 36 100t2 42.5t-31 21.5l-45 17v47q80 -2 160.5 -2t160.5 2v-47l-47 -17q-15 -5 -27 -11.5t-30.5 -22.5t-38.5 -48.5t-41 -79.5l-297 -700q-17 1 -26.5 10t-18.5 31l-238 532l-264 -573q-17 2 -27.5 10.5t-19.5 30.5l-268 663q-33 81 -62 113.5t-61 44.5z M512 -2h6h-6zM1059 -2h6h-6z" />
<glyph unicode="x" horiz-adv-x="1085" d="M49 0v39l60 14q29 4 51 16.5t51 51.5l256 346l-242 313q-9 11 -16.5 20.5t-16 17t-14 12.5t-14.5 9.5t-12.5 7t-14 5.5t-12 3.5t-14 3.5t-13.5 3l-43 10v54q95 -2 190 -2t189 2v-54l-57 -8q-23 -3 -25.5 -15t19.5 -46l182 -244l176 232q21 26 23 42t-7 21.5t-28 9.5 l-47 8v54q81 -2 162.5 -2t162.5 2v-54l-49 -10q-21 -4 -34.5 -8t-34.5 -15t-43.5 -32t-47.5 -53l-190 -252l289 -385q19 -26 36.5 -40t27.5 -17.5t26 -6.5l59 -14v-39h-381v39l60 12q18 2 27.5 4.5t16 8.5t3.5 17t-15 28l-247 319l6 -18l-199 -291q-19 -29 -10.5 -47 t37.5 -21l47 -12v-39h-330z" />
<glyph unicode="y" horiz-adv-x="1017" d="M18 883v41h355v-41l-51 -11q-51 -9 -51 -37q0 -9 5 -20l265 -586l227 586q8 22 -6.5 37t-40.5 20l-57 11v41h313v-41l-29 -13q-7 -3 -26 -10.5t-26.5 -11t-18 -12.5t-15.5 -21l-397 -987q-21 -50 -33.5 -78t-31 -63.5t-35 -54.5t-39 -38t-49 -26.5t-58.5 -7.5 q-52 0 -93.5 29.5t-47.5 74.5q-1 10 -1 20q0 36 15 56q20 24 72 24q31 0 42.5 -15t10 -33t11 -33t44.5 -15q12 0 22.5 5t20.5 17.5t17 21.5t16 29t12 27t11 27l104 262l-352 758q-12 26 -26.5 36t-41.5 19z" />
<glyph unicode="z" horiz-adv-x="950" d="M41 723l37 223h788l-635 -858l525 8q11 -1 19.5 3t14.5 13.5t9 17t7.5 21.5t6.5 19l12 37h43l-37 -207h-702q-41 0 -53 32q-4 11 -5 22q0 22 17 44l549 762l-483 -14q-17 -1 -25.5 -12.5t-14 -35.5t-8.5 -30l-16 -45h-49z" />
<glyph unicode="{" horiz-adv-x="526" d="M92 588v35q81 36 106 58t25 67v374q0 77 9 134.5t33 115.5t73.5 103t124.5 75l12 -55q-69 -36 -99 -127.5t-30 -245.5v-407q0 -35 -34 -58t-103 -49v-6q70 -27 103.5 -49t33.5 -57v-408q0 -154 30 -245.5t99 -127.5l-12 -55q-75 30 -124.5 75t-73.5 103t-33 115.5 t-9 134.5v375q0 45 -25 67t-106 58z" />
<glyph unicode="|" horiz-adv-x="477" d="M184 -440v2078h109v-2078h-109z" />
<glyph unicode="}" horiz-adv-x="526" d="M51 -285q68 36 97.5 127t29.5 246v408q0 35 34 57.5t105 48.5v6q-70 26 -104.5 49t-34.5 58v407q0 155 -29.5 246t-97.5 127l12 55q75 -30 124.5 -75t73.5 -103t33 -115.5t9 -134.5v-374q0 -45 25 -67t106 -58v-35q-81 -36 -106 -58t-25 -67v-375q0 -77 -9 -134.5 t-33 -115.5t-73.5 -103t-124.5 -75z" />
<glyph unicode="~" horiz-adv-x="1044" d="M143 442h58q13 0 25.5 15t23 32.5t34 32.5t56.5 15q37 0 79.5 -21.5t76.5 -46.5t85 -46.5t101 -21.5q68 0 130 51t89 138h-57q-10 0 -29 -20.5t-48.5 -41t-64.5 -20.5q-46 0 -89 18t-72.5 39.5t-74.5 39.5t-93 18q-79 0 -139 -48t-91 -133z" />
<glyph unicode="&#xa1;" horiz-adv-x="452" d="M123 -74q0 107 42.5 353.5t45.5 408.5h41q3 -162 45.5 -408.5t42.5 -353.5q0 -74 -24.5 -102.5t-84.5 -28.5q-59 0 -83.5 28.5t-24.5 102.5zM139 1049q0 43 30.5 73.5t72.5 30.5q41 0 71.5 -30.5t30.5 -73.5q0 -41 -30.5 -72t-71.5 -31t-72 31t-31 72z" />
<glyph unicode="&#xa2;" horiz-adv-x="921" d="M51 463q0 225 116 352t292 127q45 0 82 -6l34 127h68l-39 -141q98 -29 149.5 -96.5t51.5 -149.5q0 -23 -22.5 -42.5t-57.5 -19.5q-80 0 -80 60q0 101 -8 128q-12 40 -49 56l-203 -741q67 -45 150 -45q46 -1 78.5 5.5t54.5 23t33 29t29 41.5t28 42q14 21 30 0l33 -37 q-99 -192 -377 -192q-48 0 -92 12l-33 -121h-67l39 143q-108 54 -174 172t-66 273zM195 508q0 -98 35.5 -191t99.5 -157l194 712l-41 2q-160 0 -224 -82.5t-64 -283.5z" />
<glyph unicode="&#xa3;" horiz-adv-x="1155" d="M92 528v76h158q-68 109 -89 163q-30 76 -30 153t32.5 146.5t91.5 122.5t150 84.5t201 31.5q194 0 309 -110t115 -282q0 -57 -22.5 -103t-57.5 -46q-33 0 -57.5 16t-46.5 58q-3 18 15 61t18 78q0 39 -17 81t-48 81t-85 64.5t-119 25.5q-152 0 -237.5 -73t-85.5 -187 q0 -71 18.5 -127.5t42 -87t57.5 -74t52 -76.5h266v-76h-236q15 -62 15 -118q0 -100 -40 -186.5t-126 -135.5q36 1 140 1t176 3t158.5 10.5t140 26.5t69.5 49l22 43h31l-47 -174q-12 -47 -65 -47h-850v102q219 136 219 295q0 65 -37 131h-201z" />
<glyph unicode="&#xa4;" horiz-adv-x="1222" d="M172 70l117 114q-105 121 -105 283q0 155 103 276l-115 113l47 49l115 -114q120 102 274 102q161 0 279 -105l117 117l47 -49l-117 -115q102 -120 102 -274q0 -161 -104 -281l119 -116l-47 -47l-119 116q-125 -100 -277 -100q-155 0 -272 100l-117 -116zM270 467 q0 -145 98.5 -250.5t241.5 -105.5q141 0 242.5 106t101.5 250q0 143 -101 247.5t-243 104.5q-143 0 -241.5 -104t-98.5 -248z" />
<glyph unicode="&#xa5;" horiz-adv-x="1261" d="M31 1235v37h381v-37q-47 -8 -69.5 -26t-6.5 -42l332 -479l317 459q24 34 -5 57t-93 31v37h340v-37q-61 -7 -95.5 -33.5t-76.5 -87.5l-353 -498v-2l3 -2v-145h385v-74h-385v-282q0 -17 11.5 -29t36.5 -19.5t45 -11t56 -8.5v-43h-438v43q36 5 56 8.5t45.5 11t37.5 19.5 t12 29v282h-317v74h317v96l-37 53h-280v74h229l-258 373q-7 11 -22 33t-20 30t-17 24.5t-17 22t-15 17t-16.5 15.5t-16.5 10.5t-19.5 9.5t-21 5.5t-25.5 4.5zM705 612v4h12l-6 -8zM717 616l63 74h310v-74h-373z" />
<glyph unicode="&#xa6;" horiz-adv-x="477" d="M184 274h109v-714h-109v714zM184 924v714h109v-714h-109z" />
<glyph unicode="&#xa7;" horiz-adv-x="1028" d="M63 199l41 14q15 6 23 3.5t12 -17.5q13 -27 37 -113q33 -105 123 -162t217 -57q49 0 88.5 4.5t81.5 18t68.5 36.5t40.5 63.5t6 94.5q-3 26 -11.5 48t-23.5 39t-29 30.5t-38.5 25.5t-41 19.5t-47.5 15.5l-46.5 12t-49 11t-45.5 10q-11 2 -42 8.5t-46.5 10t-46.5 11.5 t-48.5 14.5t-45 18.5t-44 24.5t-37 31t-33.5 39t-24 47t-16 57.5q-20 137 80 248q-58 55 -72 139q-23 155 83 258t296 103q85 0 150 -12.5t95 -26.5t76.5 -41t71.5 -39l21 -242l-41 -8q-18 -9 -27 12q-3 19 -35 117q-25 86 -98.5 127t-212.5 41q-120 0 -189.5 -63 t-54.5 -164q6 -37 22.5 -64t37 -41.5t51.5 -24.5t56 -13.5t61.5 -8.5t58.5 -10q11 -3 47.5 -10.5t62.5 -13t68 -18.5t72.5 -26.5t66 -36.5t59.5 -49t42.5 -63t23.5 -80q17 -146 -77 -244q71 -64 82 -158q8 -69 -12 -127.5t-62 -99.5t-100 -69.5t-124 -42t-137 -13.5 q-32 0 -62 1.5t-57.5 6t-48 8t-45 11.5t-38.5 12.5t-37 14.5t-30.5 13.5t-30.5 15l-27 13.5zM225 608q6 -28 18 -50t32.5 -37.5t38.5 -26.5t48.5 -19.5t49 -13t54.5 -11.5t50 -10q3 -1 50 -10t72.5 -15t69.5 -20t78 -30q20 50 11 120q-3 29 -14 53.5t-24.5 41.5t-37.5 32.5 t-42.5 24.5t-51 19.5t-51.5 15t-55.5 12.5t-51.5 12q-14 3 -50 10t-57.5 11.5t-53 13.5t-56.5 19q-38 -79 -27 -142z" />
<glyph unicode="&#xa8;" horiz-adv-x="808" d="M133 1272q0 37 26.5 64.5t63.5 27.5t63.5 -27.5t26.5 -64.5q0 -36 -27 -63t-63 -27t-63 27t-27 63zM494 1272q0 37 27.5 64.5t62.5 27.5q37 0 64.5 -27.5t27.5 -64.5q0 -35 -27.5 -62.5t-64.5 -27.5q-35 0 -62.5 27.5t-27.5 62.5z" />
<glyph unicode="&#xa9;" horiz-adv-x="1560" d="M109 492q0 151 52 281.5t142 221t214 142t265 51.5t265 -51.5t213.5 -142t141.5 -221t52 -281.5t-52 -281.5t-141.5 -221.5t-213.5 -142.5t-265 -51.5q-188 0 -341.5 88t-242.5 248t-89 361zM231 492q0 -178 63.5 -317.5t190 -222.5t297.5 -83t297.5 83t190 223t63.5 317 q0 178 -64 318t-190 222t-297 82q-172 0 -298 -82t-189.5 -221.5t-63.5 -318.5zM469 477q0 181 96 285t234 104q131 0 203.5 -61t72.5 -146q0 -26 -15 -42.5t-46 -16.5q-30 0 -48 14.5t-18 38.5v7q0 33 -1 48.5t-7.5 38t-19.5 32.5t-38 18t-63 8q-122 0 -171.5 -68 t-49.5 -227q0 -89 30.5 -167t90 -127.5t135.5 -49.5q63 0 98.5 20.5t59.5 55.5q11 15 21 21.5t16.5 6t9.5 -5.5l22 -24q-86 -150 -290 -150q-129 0 -225.5 109.5t-96.5 277.5z" />
<glyph unicode="&#xaa;" horiz-adv-x="733" d="M94 825q0 40 15.5 69t55 56.5t115 48t189.5 35.5v25q0 26 -2.5 47.5t-11 46t-22.5 41t-39.5 26.5t-59.5 7q-29 -2 -66 -13q-22 -7 -29 -22.5t-7 -40.5t-3 -35q-4 -19 -23 -27.5t-44 -3.5q-48 7 -31 72q10 41 62.5 71t119.5 36q118 11 186 -42t68 -161v-256q0 -35 20 -47 t52 2v-41l-84 -27q-32 -11 -59.5 28.5t-28.5 108.5q-16 -59 -66 -99.5t-125 -41.5q-78 -2 -130 33t-52 104zM111 498v55h510v-55h-510zM199 827q0 -40 28 -65t74 -25q29 0 55 10.5t41 21t33 34t22 31t17 30.5v140q-72 -11 -124 -28t-79.5 -34t-43 -39.5t-19.5 -39t-4 -36.5z " />
<glyph unicode="&#xab;" horiz-adv-x="739" d="M61 469l295 291v-72l-161 -219l161 -219v-70zM342 469l295 291v-72l-162 -219l162 -219v-70z" />
<glyph unicode="&#xac;" horiz-adv-x="1153" d="M143 651v97h867v-455h-97v358h-770z" />
<glyph unicode="&#xad;" horiz-adv-x="778" d="M92 471v84h553v-84h-553z" />
<glyph unicode="&#xae;" horiz-adv-x="1560" d="M115 492q0 200 88.5 358t240.5 244t338 86q139 0 261.5 -50.5t211.5 -140t140 -218.5t51 -279q0 -149 -51.5 -278t-140 -219t-211 -141t-261.5 -51t-262 51t-212.5 140.5t-141 219t-51.5 278.5zM236 492q0 -176 63 -315t188 -220.5t295 -81.5q169 0 294.5 81.5t189 220.5 t63.5 315t-63.5 314.5t-189 220t-294.5 81.5q-170 0 -295 -81.5t-188 -220t-63 -314.5zM487 141v35q3 1 11 3t10.5 3t8.5 2.5t8 3t5.5 4.5t4.5 6t3 7t2.5 9.5t0.5 12.5v535q0 15 -3 24.5t-12.5 16t-15.5 9.5t-23 9v31h297q115 0 185.5 -54.5t70.5 -140.5t-55.5 -129.5 t-173.5 -44.5q50 -2 82.5 -13t51 -34t27 -44.5t17.5 -59.5q14 -54 48.5 -99t64.5 -45v-49h-72q-98 0 -147 185q-20 78 -53.5 108.5t-100.5 30.5h-72v-236q0 -10 2 -17t4 -11t9.5 -8t10.5 -5l15 -5t17 -5v-35h-228zM657 508h134q69 0 100 42t31 107q0 63 -31.5 106.5 t-89.5 43.5h-144v-299z" />
<glyph unicode="&#xaf;" horiz-adv-x="899" d="M119 1239q0 35 41 35h579q41 0 41 -35t-41 -35h-579q-41 0 -41 35z" />
<glyph unicode="&#xb0;" horiz-adv-x="624" d="M82 1063q0 100 67.5 167.5t163.5 67.5t163 -67.5t67 -167.5t-67 -168t-163 -68t-163.5 68t-67.5 168zM180 1063q0 -74 36 -124t99 -50q61 0 97.5 50.5t36.5 123.5q0 76 -36 125t-98 49q-64 0 -99.5 -49t-35.5 -125z" />
<glyph unicode="&#xb1;" horiz-adv-x="1044" d="M143 14v97h758v-97h-758zM143 674v96h332v330h96v-330h330v-96h-330v-334h-96v334h-332z" />
<glyph unicode="&#xb2;" horiz-adv-x="610" d="M92 793q10 50 30 90t49 69t52 45.5t58 38.5q34 21 49 32t30 34t15 53q0 43 -21.5 72.5t-58.5 29.5q-38 0 -57.5 -13.5t-26.5 -47.5q-4 -23 1.5 -45t2.5 -33q-13 -30 -40.5 -32.5t-49 14t-21.5 33.5q-3 77 49 128.5t146 51.5q92 0 141 -43t49 -113q0 -22 -7.5 -42 t-16.5 -33t-29 -28.5t-30 -22t-36.5 -21.5t-33.5 -19q-4 -3 -20.5 -12t-23 -13t-21.5 -12.5t-22.5 -14t-19.5 -13.5t-18.5 -14.5t-14.5 -14t-12 -14t-6 -13.5h230q32 0 43 17l18 26h49l-20 -92q-6 -28 -43 -28h-363z" />
<glyph unicode="&#xb3;" horiz-adv-x="636" d="M123 946q0 47 49 47q25 0 38.5 -9.5t16.5 -20t5.5 -30t5.5 -28.5q14 -40 34 -54.5t64 -14.5q36 0 62 30t26 86q0 50 -23 73.5t-55 22t-70 -19.5l-18 45l49 23q88 31 88 90q0 42 -15.5 59t-49.5 17q-41 0 -65.5 -24t-27 -53.5t2.5 -56.5l-66 13q-24 9 -24 28 q-2 63 46 104.5t128 41.5q77 0 124.5 -40t47.5 -85q0 -54 -43 -88q33 -15 57.5 -50.5t24.5 -84.5q0 -75 -62 -129t-143 -54q-90 0 -148.5 49t-58.5 113z" />
<glyph unicode="&#xb4;" horiz-adv-x="616" d="M129 1110q14 -17 43 0l299 156q7 3 12 7t7.5 9l4.5 9t1.5 10.5t0 10.5t-2 12t-3.5 11t-4 12.5t-4 12.5q-10 29 -35.5 35t-60.5 -23l-240 -221q-29 -23 -18 -41z" />
<glyph unicode="&#xb6;" horiz-adv-x="1193" d="M41 881q0 181 134.5 286t352.5 105h574v-39q-47 -9 -69.5 -22.5t-22.5 -45.5v-1196q0 -36 19 -53.5t73 -24.5v-28h-678v28q73 7 97 24t24 54v523h-35q-217 0 -343 104t-126 285zM231 881q0 -82 11 -140.5t38 -105.5t77 -70.5t124 -23.5h64v671h157v-1243 q0 -36 16.5 -51.5t57.5 -15.5t57.5 15.5t16.5 51.5v1194q0 35 -10.5 46.5t-36.5 11.5h-303q-80 0 -134 -23t-83 -69.5t-40.5 -105t-11.5 -142.5z" />
<glyph unicode="&#xb7;" horiz-adv-x="409" d="M102 600q0 43 31 74t72 31t71.5 -31t30.5 -74t-30.5 -73.5t-71.5 -30.5t-72 31t-31 73z" />
<glyph unicode="&#xb8;" horiz-adv-x="505" d="M61 -299q-9 47 26 66t75 -15q0 -2 2.5 -15t3.5 -17t3.5 -16t5.5 -17t7.5 -14.5t10 -14.5t12.5 -10.5t16.5 -8.5t20.5 -4q57 -4 93 24t44 77q8 51 -26.5 83t-98.5 25q-21 -2 -48 -7l-28 -5q-17 -3 -25 15.5t3 33.5q34 63 57 119h94l-47 -98q54 17 109.5 0t88 -65 t21.5 -111q-25 -149 -241 -138q-77 5 -123.5 33.5t-55.5 79.5z" />
<glyph unicode="&#xb9;" horiz-adv-x="372" d="M82 1212v48l115 51q15 4 23.5 5t13 -6t6 -13t2.5 -17v-406q0 -21 15 -27.5t44 -8.5v-35h-215v35q19 1 29 3t20 10.5t10 22.5v359z" />
<glyph unicode="&#xba;" horiz-adv-x="729" d="M94 971q0 134 80.5 212.5t190.5 80.5q110 -2 190 -78.5t80 -204.5q0 -132 -80 -211.5t-190 -79.5q-108 0 -189.5 78t-81.5 203zM111 498v55h510v-55h-510zM195 995q0 -104 52 -181t118 -77q85 0 127.5 50.5t42.5 168.5q0 107 -51 185t-119 78q-170 0 -170 -224z" />
<glyph unicode="&#xbb;" horiz-adv-x="739" d="M102 180v70l160 219l-160 219v72l293 -291zM383 180v70l160 219l-160 219v72l293 -291z" />
<glyph unicode="&#xbc;" horiz-adv-x="1286" d="M55 -10l885 1313h94l-884 -1313h-95zM82 1212v48l115 51q15 4 23.5 5t13 -6t6 -13t2.5 -17v-406q0 -21 15 -27.5t44 -8.5v-35h-215v35q19 1 29 3t20 10.5t10 22.5v359zM786 150v45l246 307q19 22 44.5 13.5t25.5 -32.5v-284h82v-49h-82v-78q0 -37 51 -37v-47h-201v47 q49 0 49 37v78h-215zM870 199h131v153z" />
<glyph unicode="&#xbd;" horiz-adv-x="1284" d="M55 -10l885 1313h94l-884 -1313h-95zM82 1212v48l115 51q15 4 23.5 5t13 -6t6 -13t2.5 -17v-406q0 -21 15 -27.5t44 -8.5v-35h-215v35q19 1 29 3t20 10.5t10 22.5v359zM766 -12q8 41 24 75.5t33 57.5t42 45.5t43 35t46 29.5q35 21 49.5 31.5t30 34t15.5 53.5 q0 43 -21.5 73t-58.5 30q-38 0 -57.5 -14t-26.5 -48q-4 -23 1.5 -45t2.5 -33q-13 -30 -40.5 -32.5t-49 14t-21.5 33.5q-3 77 49 128.5t146 51.5q92 0 141 -43t49 -113q0 -22 -7.5 -42t-16.5 -33t-29 -28.5t-30 -22t-36.5 -21.5t-33.5 -19q-4 -2 -26.5 -15t-30 -17.5 t-26.5 -16t-27.5 -18.5t-20.5 -17t-18.5 -19t-8.5 -17h229q32 0 43 16l19 27h49l-21 -93q-6 -28 -43 -28h-362z" />
<glyph unicode="&#xbe;" horiz-adv-x="1495" d="M123 946q0 47 49 47q25 0 38.5 -9.5t16.5 -20t5.5 -30t5.5 -28.5q14 -40 34 -54.5t64 -14.5q36 0 62 30t26 86q0 50 -23 73.5t-55 22t-70 -19.5l-18 45l49 23q88 31 88 90q0 42 -15.5 59t-49.5 17q-41 0 -65.5 -24t-27 -53.5t2.5 -56.5l-66 13q-24 9 -24 28 q-2 63 46 104.5t128 41.5q77 0 124.5 -40t47.5 -85q0 -54 -43 -88q33 -15 57.5 -50.5t24.5 -84.5q0 -75 -62 -129t-143 -54q-90 0 -148.5 49t-58.5 113zM272 -10l885 1313h94l-884 -1313h-95zM1030 150v45l246 307q19 22 44.5 13.5t25.5 -32.5v-284h81v-49h-81v-78 q0 -37 51 -37v-47h-201v47q49 0 49 37v78h-215zM1114 199h131v153z" />
<glyph unicode="&#xbf;" horiz-adv-x="948" d="M93.5 80q4.5 -57 34 -111t77.5 -94.5t115 -65t141 -24.5q181 0 288 91t107 233q0 56 -19 94.5t-47 52.5t-59.5 9.5t-56.5 -29.5q-23 -22 -20.5 -57.5t18.5 -70t22 -76t-10 -75.5q-64 -121 -225 -121q-99 0 -156 55t-57 138q-2 36 3 62t24.5 60t59.5 73.5t107 92.5 q99 78 82 201l-20 191h-43l-17 -191q-4 -26 -35.5 -52t-96 -69.5t-113.5 -87.5q-56 -51 -82 -111.5t-21.5 -117.5zM365 1049q0 43 30.5 73.5t71.5 30.5t71.5 -30.5t30.5 -73.5q0 -41 -30.5 -72t-71.5 -31t-71.5 31t-30.5 72z" />
<glyph unicode="&#xc0;" d="M41 0v41q68 14 99 38t59 91l463 1118l51 -12q41 -14 55 -55l438 -998q31 -71 60 -108t55 -49.5t74 -22.5v-43h-430v41q59 11 84 26.5t23 35.5t-13 47l-125 292h-545l-115 -282q-19 -49 9.5 -75t107.5 -44v-41h-350zM414 506h493l-254 596zM461.5 1649.5q0.5 6.5 0 10.5 t2 12t3.5 11t4 12.5t4 12.5q10 29 36.5 35t59.5 -23l240 -221q31 -25 18 -41q-14 -17 -43 0l-299 156q-7 3 -12 7t-7.5 9l-4.5 9t-1.5 10.5z" />
<glyph unicode="&#xc1;" d="M41 0v41q68 14 99 38t59 91l463 1118l51 -12q41 -14 55 -55l438 -998q31 -71 60 -108t55 -49.5t74 -22.5v-43h-430v41q59 11 84 26.5t23 35.5t-13 47l-125 292h-545l-115 -282q-19 -49 9.5 -75t107.5 -44v-41h-350zM414 506h493l-254 596zM639 1458q-11 18 18 41l240 221 q35 29 60.5 23t35.5 -35q1 -3 4 -12.5t4 -12.5t3.5 -11t2 -12t0 -10.5t-1.5 -10.5l-4.5 -9t-7.5 -9t-12 -7l-299 -156q-29 -17 -43 0z" />
<glyph unicode="&#xc2;" d="M41 0v41q68 14 99 38t59 91l463 1118l51 -12q41 -14 55 -55l438 -998q31 -71 60 -108t55 -49.5t74 -22.5v-43h-430v41q59 11 84 26.5t23 35.5t-13 47l-125 292h-545l-115 -282q-19 -49 9.5 -75t107.5 -44v-41h-350zM414 506h493l-254 596zM424 1442l289 295l291 -295h-72 l-219 162l-219 -162h-70z" />
<glyph unicode="&#xc3;" d="M41 0v41q68 14 99 38t59 91l463 1118l51 -12q41 -14 55 -55l438 -998q31 -71 60 -108t55 -49.5t74 -22.5v-43h-430v41q59 11 84 26.5t23 35.5t-13 47l-125 292h-545l-115 -282q-19 -49 9.5 -75t107.5 -44v-41h-350zM354 1513q-13 83 53.5 136t149.5 53q43 0 85 -18.5 t71.5 -41t71.5 -41t85 -18.5q50 0 97.5 29.5t50.5 56.5h39q-15 -93 -76.5 -144.5t-149.5 -51.5q-42 0 -87.5 21.5t-78.5 48t-72 48t-69 21.5q-61 0 -100 -32t-39 -67h-31zM414 506h493l-254 596z" />
<glyph unicode="&#xc4;" d="M41 0v41q68 14 99 38t59 91l463 1118l51 -12q41 -14 55 -55l438 -998q31 -71 60 -108t55 -49.5t74 -22.5v-43h-430v41q59 11 84 26.5t23 35.5t-13 47l-125 292h-545l-115 -282q-19 -49 9.5 -75t107.5 -44v-41h-350zM414 506h493l-254 596zM424 1620q0 37 26.5 64.5 t63.5 27.5t63.5 -27.5t26.5 -64.5q0 -36 -27 -63t-63 -27t-63 27t-27 63zM784 1620q0 37 27.5 64.5t62.5 27.5q37 0 65 -27.5t28 -64.5q0 -35 -28 -62.5t-65 -27.5q-35 0 -62.5 27.5t-27.5 62.5z" />
<glyph unicode="&#xc5;" d="M41 0v41q68 14 99 38t59 91l463 1118l51 -12q41 -14 55 -55l438 -998q31 -71 60 -108t55 -49.5t74 -22.5v-43h-430v41q59 11 84 26.5t23 35.5t-13 47l-125 292h-545l-115 -282q-19 -49 9.5 -75t107.5 -44v-41h-350zM414 506h493l-254 596zM532 1655q0 67 51 115.5 t122 48.5q69 0 119 -48.5t50 -115.5q0 -66 -50 -115t-119 -49q-70 0 -121.5 49t-51.5 115zM616 1655q0 -44 27 -77.5t62 -33.5q33 0 59.5 33.5t26.5 77.5q0 42 -26.5 76t-59.5 34q-35 0 -62 -33.5t-27 -76.5z" />
<glyph unicode="&#xc6;" horiz-adv-x="1959" d="M41 0v39q87 15 124 37.5t79 87.5l655 962q31 41 30.5 66.5t-40.5 42.5v37h872q21 0 28 -7t7 -30v-199h-45l-31 68q-45 94 -164 94h-409v-514h383q17 0 30 5t21 11t16.5 20.5t12.5 23t12 30.5t12 31h31v-313h-31q-4 10 -14 36t-15 35.5t-16 24.5t-25 20.5t-34 5.5h-383 v-546l489 4q36 0 59 8.5t31.5 16t23.5 31t24 34.5l53 67h61q-41 -81 -65 -182q-6 -22 -23.5 -34.5t-38.5 -12.5h-872v45q10 3 27.5 9t23.5 8.5t17 8t15 11t9 14.5t6.5 21.5t1.5 29.5v308h-452l-211 -312q-27 -42 3.5 -65.5t123.5 -38.5v-39h-412zM578 516h411v610z" />
<glyph unicode="&#xc7;" horiz-adv-x="1261" d="M55 653q0 129 46 248.5t123.5 208.5t187 142t229.5 53q118 0 215.5 -46.5t161.5 -121.5q44 0 59 100q6 35 39 35h33l22 -406l-36 -16q-35 -15 -48 22q-4 12 -28 74q-61 146 -168.5 218.5t-239.5 72.5q-64 0 -125.5 -20t-117 -62.5t-97 -103t-66 -148t-24.5 -190.5 q0 -120 28 -227.5t75.5 -185.5t108 -136t126 -86.5t129.5 -28.5q67 0 122.5 18t98 53t71 68.5t60.5 81.5q6 10 14 24.5t12 22t10 15.5t12 11t14 3t30.5 -12.5t32.5 -20.5q6 -13 -1.5 -31.5t-28.5 -53.5q-2 -3 -3.5 -5.5t-3.5 -5.5q-142 -235 -440 -248l-33 -67 q54 17 109.5 0t88 -65t21.5 -111q-25 -149 -241 -138q-77 5 -123 33.5t-55 79.5q-9 47 25.5 66t74.5 -15q0 -2 2.5 -15t3.5 -17t3.5 -16t5.5 -17t7.5 -14.5t10 -14.5t12.5 -10.5t16.5 -8.5t20.5 -4q57 -4 93 24t44 77q8 51 -26.5 83t-98.5 25q-21 -2 -49 -7l-27 -5 q-17 -3 -25 15.5t3 33.5q19 34 45 92q-153 17 -278 114.5t-194 246.5t-69 319z" />
<glyph unicode="&#xc8;" horiz-adv-x="1142" d="M72 0v45q10 3 27.5 9t23.5 8.5t17 8t15 11t9 14.5t6.5 21.5t1.5 29.5v983q0 20 -3.5 34.5t-6.5 23t-14.5 16t-17.5 10.5t-27 10t-31 11v37h872q21 0 28 -7t7 -30v-199h-45l-31 68q-45 94 -164 94h-409v-514h383q17 0 30 5t21 11t16.5 20.5t12.5 23t12 30.5t12 31h31v-313 h-31q-4 10 -14 36t-15 35.5t-16 24.5t-25 20.5t-34 5.5h-383v-546l489 4q36 0 59 8t31 16.5t23 31.5t24 34l54 67h61q-41 -81 -65 -182q-6 -22 -23.5 -34.5t-38.5 -12.5h-872zM310.5 1649.5q-0.5 -6.5 1.5 -10.5l4.5 -9t7.5 -9t12 -7l299 -156q29 -17 43 0q13 16 -19 41 l-239 221q-33 29 -59.5 23t-36.5 -35q-1 -3 -4 -12.5t-4 -12.5t-3.5 -11t-2 -12t0 -10.5z" />
<glyph unicode="&#xc9;" horiz-adv-x="1142" d="M72 0v45q10 3 27.5 9t23.5 8.5t17 8t15 11t9 14.5t6.5 21.5t1.5 29.5v983q0 20 -3.5 34.5t-6.5 23t-14.5 16t-17.5 10.5t-27 10t-31 11v37h872q21 0 28 -7t7 -30v-199h-45l-31 68q-45 94 -164 94h-409v-514h383q17 0 30 5t21 11t16.5 20.5t12.5 23t12 30.5t12 31h31v-313 h-31q-4 10 -14 36t-15 35.5t-16 24.5t-25 20.5t-34 5.5h-383v-546l489 4q36 0 59 8t31 16.5t23 31.5t24 34l54 67h61q-41 -81 -65 -182q-6 -22 -23.5 -34.5t-38.5 -12.5h-872zM487 1458q14 -17 43 0l299 156q19 9 23.5 27.5t1.5 28t-12 38.5q-10 29 -36 35t-61 -23 l-239 -221q-29 -24 -19 -41z" />
<glyph unicode="&#xca;" horiz-adv-x="1142" d="M72 0v45q10 3 27.5 9t23.5 8.5t17 8t15 11t9 14.5t6.5 21.5t1.5 29.5v983q0 20 -3.5 34.5t-6.5 23t-14.5 16t-17.5 10.5t-27 10t-31 11v37h872q21 0 28 -7t7 -30v-199h-45l-31 68q-45 94 -164 94h-409v-514h383q17 0 30 5t21 11t16.5 20.5t12.5 23t12 30.5t12 31h31v-313 h-31q-4 10 -14 36t-15 35.5t-16 24.5t-25 20.5t-34 5.5h-383v-546l489 4q36 0 59 8t31 16.5t23 31.5t24 34l54 67h61q-41 -81 -65 -182q-6 -22 -23.5 -34.5t-38.5 -12.5h-872zM272 1442l289 295l291 -295h-72l-219 162l-219 -162h-70z" />
<glyph unicode="&#xcb;" horiz-adv-x="1142" d="M72 0v45q10 3 27.5 9t23.5 8.5t17 8t15 11t9 14.5t6.5 21.5t1.5 29.5v983q0 20 -3.5 34.5t-6.5 23t-14.5 16t-17.5 10.5t-27 10t-31 11v37h872q21 0 28 -7t7 -30v-199h-45l-31 68q-45 94 -164 94h-409v-514h383q17 0 30 5t21 11t16.5 20.5t12.5 23t12 30.5t12 31h31v-313 h-31q-4 10 -14 36t-15 35.5t-16 24.5t-25 20.5t-34 5.5h-383v-546l489 4q36 0 59 8t31 16.5t23 31.5t24 34l54 67h61q-41 -81 -65 -182q-6 -22 -23.5 -34.5t-38.5 -12.5h-872zM272 1620q0 37 26.5 64.5t63.5 27.5t64 -27.5t27 -64.5q0 -36 -27.5 -63t-63.5 -27t-63 27 t-27 63zM633 1620q0 37 27.5 64.5t62.5 27.5q37 0 64.5 -27.5t27.5 -64.5q0 -35 -27.5 -62.5t-64.5 -27.5q-35 0 -62.5 27.5t-27.5 62.5z" />
<glyph unicode="&#xcc;" horiz-adv-x="516" d="M21.5 1649.5q-0.5 -6.5 1.5 -10.5l4.5 -9t7.5 -9t12 -7l299 -156q29 -17 43 0q13 16 -18 41l-240 221q-33 29 -59.5 23t-36.5 -35q-1 -3 -4 -12.5t-4 -12.5t-3.5 -11t-2 -12t0 -10.5zM82 0v27q12 4 32 11t28 10.5t20 10.5t16.5 15.5t8 22.5t3.5 34v999q0 20 -3.5 34.5 t-8 23t-16.5 16t-20 10.5t-28 9.5t-32 11.5v37h358v-37q-11 -4 -36 -13t-32 -12.5t-19 -14t-15.5 -26t-3.5 -39.5v-999q0 -20 3.5 -34t8 -22.5t16.5 -15.5t20 -10.5t27.5 -10t30.5 -11.5v-27h-358z" />
<glyph unicode="&#xcd;" horiz-adv-x="516" d="M82 0v27q12 4 32 11t28 10.5t20 10.5t16.5 15.5t8 22.5t3.5 34v999q0 20 -3.5 34.5t-8 23t-16.5 16t-20 10.5t-28 9.5t-32 11.5v37h358v-37q-11 -4 -36 -13t-32 -12.5t-19 -14t-15.5 -26t-3.5 -39.5v-999q0 -20 3.5 -34t8 -22.5t16.5 -15.5t20 -10.5t27.5 -10t30.5 -11.5 v-27h-358zM199 1458q14 -17 43 0l299 156q7 3 12 7t7.5 9l4.5 9t1.5 10.5t0 10.5t-2 12t-3.5 11t-4 12.5t-4 12.5q-10 29 -35.5 35t-60.5 -23l-240 -221q-29 -23 -18 -41z" />
<glyph unicode="&#xce;" horiz-adv-x="516" d="M-20 1442l290 295l291 -295h-72l-219 162l-219 -162h-71zM82 0v27q12 4 32 11t28 10.5t20 10.5t16.5 15.5t8 22.5t3.5 34v999q0 20 -3.5 34.5t-8 23t-16.5 16t-20 10.5t-28 9.5t-32 11.5v37h358v-37q-11 -4 -36 -13t-32 -12.5t-19 -14t-15.5 -26t-3.5 -39.5v-999 q0 -20 3.5 -34t8 -22.5t16.5 -15.5t20 -10.5t27.5 -10t30.5 -11.5v-27h-358z" />
<glyph unicode="&#xcf;" horiz-adv-x="516" d="M-16 1620q0 37 26.5 64.5t63.5 27.5t63.5 -27.5t26.5 -64.5q0 -36 -27 -63t-63 -27t-63 27t-27 63zM82 0v27q12 4 32 11t28 10.5t20 10.5t16.5 15.5t8 22.5t3.5 34v999q0 20 -3.5 34.5t-8 23t-16.5 16t-20 10.5t-28 9.5t-32 11.5v37h358v-37q-11 -4 -36 -13t-32 -12.5 t-19 -14t-15.5 -26t-3.5 -39.5v-999q0 -20 3.5 -34t8 -22.5t16.5 -15.5t20 -10.5t27.5 -10t30.5 -11.5v-27h-358zM344 1620q0 37 27.5 64.5t62.5 27.5q37 0 64.5 -27.5t27.5 -64.5q0 -35 -27.5 -62.5t-64.5 -27.5q-35 0 -62.5 27.5t-27.5 62.5z" />
<glyph unicode="&#xd0;" horiz-adv-x="1292" d="M31 602v68h141v450q0 36 -30.5 60.5t-104.5 44.5v47h418q187 0 321.5 -32.5t231.5 -106t144.5 -196.5t47.5 -300q0 -338 -175 -493.5t-536 -141.5q-169 12 -250.5 11t-199.5 -13v57q133 28 133 99v446h-141zM315 160q0 -35 14.5 -45t61.5 -15l121 -10q149 -13 255 19 t168 107t90 178t28 243q0 128 -29 229.5t-88.5 177t-157 116t-227.5 40.5h-236v-530h269v-68h-269v-442z" />
<glyph unicode="&#xd1;" horiz-adv-x="1312" d="M51 0v31q60 21 87.5 45t27.5 59v1006q0 35 -27.5 59t-87.5 45v27h250l752 -953v822q0 35 -27 59.5t-88 44.5v27h324v-27q-61 -20 -88 -44.5t-27 -59.5v-1141q0 -15 -1 -15t-13 15l-889 1085v-950q0 -34 26.5 -58.5t83.5 -45.5v-31h-303zM305 1513q-13 83 53.5 136 t149.5 53q43 0 85 -18.5t71.5 -41t71.5 -41t85 -18.5q50 0 97.5 29.5t50.5 56.5h39q-15 -93 -76.5 -144.5t-149.5 -51.5q-42 0 -87.5 21.5t-78.5 48t-72 48t-69 21.5q-61 0 -100 -32t-39 -67h-31z" />
<glyph unicode="&#xd2;" horiz-adv-x="1302" d="M61 647q0 183 73.5 332.5t209.5 237.5t307 88q173 0 308 -85t208.5 -235t73.5 -338q0 -192 -73.5 -346.5t-208.5 -243t-308 -88.5q-170 0 -306.5 95t-210 249.5t-73.5 333.5zM227 709q0 -154 36.5 -284t96 -212.5t131.5 -128t146 -45.5q84 0 149 16t120.5 54.5t92 100.5 t56.5 156.5t20 219.5q0 142 -39 267.5t-100.5 208t-136.5 130t-148 47.5q-78 0 -137 -11.5t-115.5 -45.5t-92 -91.5t-57.5 -153.5t-22 -228zM406.5 1649.5q-0.5 -6.5 1.5 -10.5l4.5 -9t7.5 -9t12 -7l299 -156q29 -17 43 0q13 16 -18 41l-240 221q-33 29 -59.5 23t-36.5 -35 q-1 -3 -4 -12.5t-4 -12.5t-3.5 -11t-2 -12t0 -10.5z" />
<glyph unicode="&#xd3;" horiz-adv-x="1302" d="M61 647q0 183 73.5 332.5t209.5 237.5t307 88q173 0 308 -85t208.5 -235t73.5 -338q0 -192 -73.5 -346.5t-208.5 -243t-308 -88.5q-170 0 -306.5 95t-210 249.5t-73.5 333.5zM227 709q0 -154 36.5 -284t96 -212.5t131.5 -128t146 -45.5q84 0 149 16t120.5 54.5t92 100.5 t56.5 156.5t20 219.5q0 142 -39 267.5t-100.5 208t-136.5 130t-148 47.5q-78 0 -137 -11.5t-115.5 -45.5t-92 -91.5t-57.5 -153.5t-22 -228zM586 1458q14 -17 43 0l299 156q7 3 12 7t7.5 9l4.5 9t1.5 10.5t0 10.5t-2 12t-3.5 11t-4 12.5t-4 12.5q-10 29 -35.5 35t-60.5 -23 l-240 -221q-29 -23 -18 -41z" />
<glyph unicode="&#xd4;" horiz-adv-x="1302" d="M61 647q0 183 73.5 332.5t209.5 237.5t307 88q173 0 308 -85t208.5 -235t73.5 -338q0 -192 -73.5 -346.5t-208.5 -243t-308 -88.5q-170 0 -306.5 95t-210 249.5t-73.5 333.5zM227 709q0 -154 36.5 -284t96 -212.5t131.5 -128t146 -45.5q84 0 149 16t120.5 54.5t92 100.5 t56.5 156.5t20 219.5q0 142 -39 267.5t-100.5 208t-136.5 130t-148 47.5q-78 0 -137 -11.5t-115.5 -45.5t-92 -91.5t-57.5 -153.5t-22 -228zM369 1442l288 295l291 -295h-71l-220 162l-219 -162h-69z" />
<glyph unicode="&#xd5;" horiz-adv-x="1302" d="M61 647q0 183 73.5 332.5t209.5 237.5t307 88q173 0 308 -85t208.5 -235t73.5 -338q0 -192 -73.5 -346.5t-208.5 -243t-308 -88.5q-170 0 -306.5 95t-210 249.5t-73.5 333.5zM227 709q0 -154 36.5 -284t96 -212.5t131.5 -128t146 -45.5q84 0 149 16t120.5 54.5t92 100.5 t56.5 156.5t20 219.5q0 142 -39 267.5t-100.5 208t-136.5 130t-148 47.5q-78 0 -137 -11.5t-115.5 -45.5t-92 -91.5t-57.5 -153.5t-22 -228zM299 1513q-13 83 53.5 136t149.5 53q43 0 85 -18.5t71.5 -41t71.5 -41t85 -18.5q50 0 97.5 29.5t50.5 56.5h38q-15 -93 -76 -144.5 t-149 -51.5q-42 0 -87.5 21.5t-78.5 48t-72 48t-69 21.5q-61 0 -100 -32t-39 -67h-31z" />
<glyph unicode="&#xd6;" horiz-adv-x="1302" d="M61 647q0 183 73.5 332.5t209.5 237.5t307 88q173 0 308 -85t208.5 -235t73.5 -338q0 -192 -73.5 -346.5t-208.5 -243t-308 -88.5q-170 0 -306.5 95t-210 249.5t-73.5 333.5zM227 709q0 -154 36.5 -284t96 -212.5t131.5 -128t146 -45.5q84 0 149 16t120.5 54.5t92 100.5 t56.5 156.5t20 219.5q0 142 -39 267.5t-100.5 208t-136.5 130t-148 47.5q-78 0 -137 -11.5t-115.5 -45.5t-92 -91.5t-57.5 -153.5t-22 -228zM369 1620q0 37 26.5 64.5t63.5 27.5t63.5 -27.5t26.5 -64.5q0 -36 -27 -63t-63 -27t-63 27t-27 63zM729 1620q0 37 27.5 64.5 t62.5 27.5q37 0 64.5 -27.5t27.5 -64.5q0 -35 -27.5 -62.5t-64.5 -27.5q-35 0 -62.5 27.5t-27.5 62.5z" />
<glyph unicode="&#xd7;" horiz-adv-x="903" d="M143 274l240 242l-240 240l68 69l242 -241l239 241l68 -69l-240 -240l240 -242l-68 -69l-239 241l-242 -241z" />
<glyph unicode="&#xd8;" horiz-adv-x="1302" d="M61 647q0 183 73.5 332.5t209.5 237.5t307 88q210 0 359 -121l88 116l57 -36l-96 -125q87 -90 134.5 -216.5t47.5 -275.5q0 -192 -73.5 -346.5t-208.5 -243t-308 -88.5q-211 0 -370 146l-111 -146l-55 39l118 156q-82 94 -127 220t-45 263zM227 709q0 -248 95 -430 l604 794q-59 79 -132 122.5t-143 43.5q-78 0 -137 -11.5t-115.5 -45.5t-92 -91.5t-57.5 -153.5t-22 -228zM358 217q57 -86 131 -132t148 -46q84 0 149 16t120.5 54.5t92 100.5t56.5 156.5t20 219.5q0 250 -108 428z" />
<glyph unicode="&#xd9;" horiz-adv-x="1288" d="M41 1237v35h344v-35q-46 -7 -70 -20.5t-24 -45.5v-557q0 -302 89.5 -434.5t268.5 -132.5q53 0 102 14t95 47.5t80 84t54.5 128.5t20.5 175v675q0 32 -23.5 45.5t-72.5 20.5v35h301v-35q-46 -7 -69 -20.5t-23 -45.5v-651q0 -250 -122.5 -395t-342.5 -145 q-256 0 -387 141.5t-131 386.5v663q0 32 -22.5 45.5t-67.5 20.5zM416.5 1649.5q-0.5 -6.5 1.5 -10.5l4.5 -9t7.5 -9t12 -7l299 -156q29 -17 43 0q13 16 -18 41l-240 221q-33 29 -59.5 23t-36.5 -35q-1 -3 -4 -12.5t-4 -12.5t-3.5 -11t-2 -12t0 -10.5z" />
<glyph unicode="&#xda;" horiz-adv-x="1288" d="M41 1237v35h344v-35q-46 -7 -70 -20.5t-24 -45.5v-557q0 -302 89.5 -434.5t268.5 -132.5q53 0 102 14t95 47.5t80 84t54.5 128.5t20.5 175v675q0 32 -23.5 45.5t-72.5 20.5v35h301v-35q-46 -7 -69 -20.5t-23 -45.5v-651q0 -250 -122.5 -395t-342.5 -145 q-256 0 -387 141.5t-131 386.5v663q0 32 -22.5 45.5t-67.5 20.5zM594 1458q14 -17 43 0l299 156q7 3 12 7t7.5 9l4.5 9t1.5 10.5t0 10.5t-2 12t-3.5 11t-4 12.5t-4 12.5q-10 29 -35.5 35t-60.5 -23l-240 -221q-29 -23 -18 -41z" />
<glyph unicode="&#xdb;" horiz-adv-x="1288" d="M41 1237v35h344v-35q-46 -7 -70 -20.5t-24 -45.5v-557q0 -302 89.5 -434.5t268.5 -132.5q53 0 102 14t95 47.5t80 84t54.5 128.5t20.5 175v675q0 32 -23.5 45.5t-72.5 20.5v35h301v-35q-46 -7 -69 -20.5t-23 -45.5v-651q0 -250 -122.5 -395t-342.5 -145 q-256 0 -387 141.5t-131 386.5v663q0 32 -22.5 45.5t-67.5 20.5zM379 1442l289 295l290 -295h-71l-219 162l-219 -162h-70z" />
<glyph unicode="&#xdc;" horiz-adv-x="1288" d="M41 1237v35h344v-35q-46 -7 -70 -20.5t-24 -45.5v-557q0 -302 89.5 -434.5t268.5 -132.5q53 0 102 14t95 47.5t80 84t54.5 128.5t20.5 175v675q0 32 -23.5 45.5t-72.5 20.5v35h301v-35q-46 -7 -69 -20.5t-23 -45.5v-651q0 -250 -122.5 -395t-342.5 -145 q-256 0 -387 141.5t-131 386.5v663q0 32 -22.5 45.5t-67.5 20.5zM379 1620q0 37 26.5 64.5t63.5 27.5t63.5 -27.5t26.5 -64.5q0 -36 -27 -63t-63 -27t-63 27t-27 63zM739 1620q0 37 27.5 64.5t62.5 27.5q37 0 65 -27.5t28 -64.5q0 -35 -28 -62.5t-65 -27.5q-35 0 -62.5 27.5 t-27.5 62.5z" />
<glyph unicode="&#xdd;" horiz-adv-x="1257" d="M31 1235v37h381v-37q-47 -8 -69.5 -26t-6.5 -42l332 -479l317 459q24 34 -5 57t-93 31v37h340v-37q-61 -7 -95.5 -33.5t-76.5 -87.5l-350 -496v-507q0 -17 11.5 -29t36.5 -19.5t45 -11t56 -8.5v-43h-438v43q36 5 56 8.5t45.5 11t37.5 19.5t12 29v452l-346 500 q-7 11 -22 33t-20 30t-17 24.5t-17 22t-15 17t-16.5 15.5t-16.5 10.5t-19.5 9.5t-21 5.5t-25.5 4.5zM598 1458q-11 18 18 41l240 221q35 29 60.5 23t35.5 -35q1 -3 4 -12.5t4 -12.5t3.5 -11t2 -12t0 -10.5t-1.5 -10.5l-4.5 -9t-7.5 -9t-12 -7l-299 -156q-29 -17 -43 0z" />
<glyph unicode="&#xde;" horiz-adv-x="1114" d="M37 0v27q12 4 32 11t28 10.5t20 10.5t16.5 15.5t8 22.5t3.5 34v999q0 20 -3.5 34.5t-8 23t-16.5 16t-20 10.5t-28 9.5t-32 11.5v37h358v-37q-11 -4 -36 -13t-32 -12.5t-19 -14t-15.5 -26t-3.5 -39.5v-999q0 -20 3.5 -34t8 -22.5t16.5 -15.5t20 -10.5t27.5 -10t30.5 -11.5 v-27h-358zM295 276v48h285q93 0 153 21t89.5 65.5t39.5 96t10 130.5q0 62 -6.5 110.5t-25 96.5t-50 79t-85 50.5t-125.5 19.5h-285v56h256q238 0 369 -108.5t131 -291.5q0 -175 -129 -274t-369 -99h-258z" />
<glyph unicode="&#xdf;" horiz-adv-x="1054" d="M66 0v27q59 8 76.5 20t17.5 47v918q0 354 319 354q171 0 254.5 -97t83.5 -261q0 -158 -143 -234q125 -23 209 -127.5t84 -267.5q0 -178 -136 -279.5t-382 -101.5v72q187 0 270.5 72t83.5 237q0 84 -14.5 143t-51.5 107t-106 72.5t-172 25.5v53q89 0 162 68t73 160 q0 297 -215 297q-89 0 -133.5 -70t-44.5 -186v-859q0 -54 -4.5 -84.5t-20 -57t-48 -37.5t-85.5 -11h-77z" />
<glyph unicode="&#xe0;" horiz-adv-x="944" d="M35 219q0 62 25 109t90 92t190.5 80t312.5 61v19q0 149 -47.5 223t-161.5 74q-105 0 -151.5 -38.5t-46.5 -144.5q0 -25 -29 -39t-61 -14q-31 0 -50 20.5t-22 53.5q0 75 53 127.5t134.5 76t181.5 23.5q167 0 252.5 -89t85.5 -235v-464q0 -56 25 -70.5t87 -3.5v-51 q-58 -45 -125 -45q-41 0 -73.5 55t-42.5 149q-43 -83 -127 -144t-191 -64q-125 -3 -217 60t-92 179zM184 225q0 -79 50 -126.5t141 -47.5q47 0 87 14.5t69.5 40.5t49.5 49.5t41 53.5t31 41v262q-119 -17 -206 -41t-137 -50t-79 -60.5t-38 -65t-9 -70.5zM211 1295 q4 -19 25 -29l299 -156q29 -17 43 0q13 16 -19 41l-240 221q-33 29 -59.5 23t-36.5 -35q-16 -49 -12 -65z" />
<glyph unicode="&#xe1;" horiz-adv-x="944" d="M35 219q0 62 25 109t90 92t190.5 80t312.5 61v19q0 149 -47.5 223t-161.5 74q-105 0 -151.5 -38.5t-46.5 -144.5q0 -25 -29 -39t-61 -14q-31 0 -50 20.5t-22 53.5q0 75 53 127.5t134.5 76t181.5 23.5q167 0 252.5 -89t85.5 -235v-464q0 -56 25 -70.5t87 -3.5v-51 q-58 -45 -125 -45q-41 0 -73.5 55t-42.5 149q-43 -83 -127 -144t-191 -64q-125 -3 -217 60t-92 179zM184 225q0 -79 50 -126.5t141 -47.5q47 0 87 14.5t69.5 40.5t49.5 49.5t41 53.5t31 41v262q-119 -17 -206 -41t-137 -50t-79 -60.5t-38 -65t-9 -70.5zM387 1110 q14 -17 43 0l299 156q7 3 12 7t7.5 9l4.5 9t1.5 10.5t0 10.5t-2 12t-3.5 11t-4 12.5t-4 12.5q-10 29 -35.5 35t-60.5 -23l-239 -221q-29 -24 -19 -41z" />
<glyph unicode="&#xe2;" horiz-adv-x="944" d="M35 219q0 62 25 109t90 92t190.5 80t312.5 61v19q0 149 -47.5 223t-161.5 74q-105 0 -151.5 -38.5t-46.5 -144.5q0 -25 -29 -39t-61 -14q-31 0 -50 20.5t-22 53.5q0 75 53 127.5t134.5 76t181.5 23.5q167 0 252.5 -89t85.5 -235v-464q0 -56 25 -70.5t87 -3.5v-51 q-58 -45 -125 -45q-41 0 -73.5 55t-42.5 149q-43 -83 -127 -144t-191 -64q-125 -3 -217 60t-92 179zM172 1094l289 295l291 -295h-72l-219 161l-219 -161h-70zM184 225q0 -79 50 -126.5t141 -47.5q47 0 87 14.5t69.5 40.5t49.5 49.5t41 53.5t31 41v262q-119 -17 -206 -41 t-137 -50t-79 -60.5t-38 -65t-9 -70.5z" />
<glyph unicode="&#xe3;" horiz-adv-x="944" d="M35 219q0 62 25 109t90 92t190.5 80t312.5 61v19q0 149 -47.5 223t-161.5 74q-105 0 -151.5 -38.5t-46.5 -144.5q0 -25 -29 -39t-61 -14q-31 0 -50 20.5t-22 53.5q0 75 53 127.5t134.5 76t181.5 23.5q167 0 252.5 -89t85.5 -235v-464q0 -56 25 -70.5t87 -3.5v-51 q-58 -45 -125 -45q-41 0 -73.5 55t-42.5 149q-43 -83 -127 -144t-191 -64q-125 -3 -217 60t-92 179zM102 1165q-13 83 53.5 136t149.5 53q43 0 85 -18.5t71.5 -41t71.5 -41t85 -18.5q50 0 97.5 29.5t50.5 56.5h39q-15 -93 -76 -145t-149 -52q-42 0 -88 22t-78.5 48t-72 48 t-69.5 22q-61 0 -100 -32t-39 -67h-31zM184 225q0 -79 50 -126.5t141 -47.5q47 0 87 14.5t69.5 40.5t49.5 49.5t41 53.5t31 41v262q-119 -17 -206 -41t-137 -50t-79 -60.5t-38 -65t-9 -70.5z" />
<glyph unicode="&#xe4;" horiz-adv-x="944" d="M35 219q0 62 25 109t90 92t190.5 80t312.5 61v19q0 149 -47.5 223t-161.5 74q-105 0 -151.5 -38.5t-46.5 -144.5q0 -25 -29 -39t-61 -14q-31 0 -50 20.5t-22 53.5q0 75 53 127.5t134.5 76t181.5 23.5q167 0 252.5 -89t85.5 -235v-464q0 -56 25 -70.5t87 -3.5v-51 q-58 -45 -125 -45q-41 0 -73.5 55t-42.5 149q-43 -83 -127 -144t-191 -64q-125 -3 -217 60t-92 179zM172 1272q0 37 26.5 64.5t63.5 27.5t63.5 -27.5t26.5 -64.5q0 -36 -27 -63t-63 -27t-63 27t-27 63zM184 225q0 -79 50 -126.5t141 -47.5q47 0 87 14.5t69.5 40.5t49.5 49.5 t41 53.5t31 41v262q-119 -17 -206 -41t-137 -50t-79 -60.5t-38 -65t-9 -70.5zM532 1272q0 36 28 64t63 28q37 0 64.5 -27.5t27.5 -64.5q0 -35 -27.5 -62.5t-64.5 -27.5q-35 0 -63 27.5t-28 62.5z" />
<glyph unicode="&#xe5;" horiz-adv-x="944" d="M35 219q0 62 25 109t90 92t190.5 80t312.5 61v19q0 149 -47.5 223t-161.5 74q-105 0 -151.5 -38.5t-46.5 -144.5q0 -25 -29 -39t-61 -14q-31 0 -50 20.5t-22 53.5q0 75 53 127.5t134.5 76t181.5 23.5q167 0 252.5 -89t85.5 -235v-464q0 -56 25 -70.5t87 -3.5v-51 q-58 -45 -125 -45q-41 0 -73.5 55t-42.5 149q-43 -83 -127 -144t-191 -64q-125 -3 -217 60t-92 179zM184 225q0 -79 50 -126.5t141 -47.5q47 0 87 14.5t69.5 40.5t49.5 49.5t41 53.5t31 41v262q-119 -17 -206 -41t-137 -50t-79 -60.5t-38 -65t-9 -70.5zM281 1307 q0 67 50.5 115t121.5 48q69 0 119.5 -48t50.5 -115q0 -66 -50.5 -115t-119.5 -49q-70 0 -121 49t-51 115zM365 1307q0 -44 26.5 -77.5t61.5 -33.5q33 0 59.5 33.5t26.5 77.5q0 42 -26.5 76t-59.5 34q-35 0 -61.5 -33.5t-26.5 -76.5z" />
<glyph unicode="&#xe6;" horiz-adv-x="1544" d="M61 219q0 47 14.5 85t54.5 77.5t106.5 71t176 60t257.5 48.5v19q0 182 -81 247t-270 23q-26 -5 -34.5 -29t-8.5 -66t-4 -61q-8 -28 -38.5 -42t-69.5 -5q-68 15 -43 117q11 45 58.5 83t108.5 60t122 27q271 23 358 -141q115 145 319 145q102 0 189 -42.5t142 -128.5 t55 -200q0 -56 -27.5 -77t-87.5 -21h-533q0 -92 27.5 -170.5t72.5 -130t101.5 -80.5t114.5 -29q55 0 100 14t79 41.5t53.5 49.5t43.5 55l43 -65q-23 -31 -35 -45.5t-45 -44t-66 -44t-88.5 -27.5t-121.5 -13q-111 0 -202.5 53t-151.5 147q-107 -190 -388 -194 q-75 -1 -143 25.5t-113 81t-45 126.5zM207 215q0 -72 51.5 -116t134.5 -44q47 0 87 12.5t66.5 30t52 47t39 51t32.5 54.5v262q-463 -67 -463 -297zM825 543h498q3 144 -61 239t-175 95q-120 0 -191 -95t-71 -239z" />
<glyph unicode="&#xe7;" horiz-adv-x="907" d="M51 463q0 225 116 352t292 127q168 0 257 -78t89 -188q0 -23 -22.5 -42.5t-57.5 -19.5q-80 0 -80 60v17v38.5t-1.5 33.5t-4.5 30l-8 24t-13.5 21.5t-20.5 15t-28 12t-37.5 6t-48.5 2.5q-160 0 -224 -82.5t-64 -283.5q0 -107 40.5 -205.5t120 -164t179.5 -66.5 q46 -1 78.5 5.5t54.5 23t33 29t29 41.5t28 42q14 21 30 0l33 -37q-86 -172 -317 -190l-41 -84q54 17 109.5 0t88 -65t21.5 -111q-25 -150 -242 -138q-77 5 -123 33.5t-55 79.5q-9 47 25.5 66t74.5 -15q0 -2 2.5 -15t3.5 -17t3.5 -16t5.5 -17t7.5 -14.5t10 -14.5t12.5 -10.5 t16.5 -8.5t20.5 -4q57 -4 93.5 24t44.5 77q8 51 -26.5 83t-98.5 25q-21 -2 -49 -7l-27 -5q-17 -3 -25.5 15.5t2.5 33.5q38 69 52 105q-155 15 -257 147.5t-102 329.5z" />
<glyph unicode="&#xe8;" horiz-adv-x="923" d="M61 471q0 221 116.5 344t299.5 123q102 0 188.5 -42.5t141.5 -128.5t55 -200q0 -56 -27 -77t-87 -21h-533q0 -92 27.5 -170.5t72.5 -130t101 -80.5t114 -29q55 0 100 14t79 41.5t54 49.5t44 55l43 -65q-23 -31 -35 -45.5t-45 -44t-66 -44t-88.5 -27.5t-121.5 -13 q-185 0 -309 139t-124 352zM215 543h498q3 144 -61 239t-175 95q-120 0 -191 -95t-71 -239zM224.5 1301.5q-0.5 -6.5 1.5 -10.5l4.5 -9t7.5 -9t12 -7l299 -156q29 -17 43 0q13 16 -19 41l-239 221q-33 29 -59.5 23t-36.5 -35q-1 -3 -4 -12.5t-4 -12.5t-3.5 -11t-2 -12 t0 -10.5z" />
<glyph unicode="&#xe9;" horiz-adv-x="923" d="M61 471q0 221 116.5 344t299.5 123q102 0 188.5 -42.5t141.5 -128.5t55 -200q0 -56 -27 -77t-87 -21h-533q0 -92 27.5 -170.5t72.5 -130t101 -80.5t114 -29q55 0 100 14t79 41.5t54 49.5t44 55l43 -65q-23 -31 -35 -45.5t-45 -44t-66 -44t-88.5 -27.5t-121.5 -13 q-185 0 -309 139t-124 352zM215 543h498q3 144 -61 239t-175 95q-120 0 -191 -95t-71 -239zM401 1110q14 -17 43 0l299 156q19 9 23.5 27.5t1.5 28t-12 38.5q-10 29 -36 35t-61 -23l-239 -221q-29 -24 -19 -41z" />
<glyph unicode="&#xea;" horiz-adv-x="923" d="M61 471q0 221 116.5 344t299.5 123q102 0 188.5 -42.5t141.5 -128.5t55 -200q0 -56 -27 -77t-87 -21h-533q0 -92 27.5 -170.5t72.5 -130t101 -80.5t114 -29q55 0 100 14t79 41.5t54 49.5t44 55l43 -65q-23 -31 -35 -45.5t-45 -44t-66 -44t-88.5 -27.5t-121.5 -13 q-185 0 -309 139t-124 352zM186 1094l289 295l291 -295h-72l-219 161l-219 -161h-70zM215 543h498q3 144 -61 239t-175 95q-120 0 -191 -95t-71 -239z" />
<glyph unicode="&#xeb;" horiz-adv-x="923" d="M61 471q0 221 116.5 344t299.5 123q102 0 188.5 -42.5t141.5 -128.5t55 -200q0 -56 -27 -77t-87 -21h-533q0 -92 27.5 -170.5t72.5 -130t101 -80.5t114 -29q55 0 100 14t79 41.5t54 49.5t44 55l43 -65q-23 -31 -35 -45.5t-45 -44t-66 -44t-88.5 -27.5t-121.5 -13 q-185 0 -309 139t-124 352zM186 1272q0 37 26.5 64.5t63.5 27.5t64 -27.5t27 -64.5q0 -36 -27.5 -63t-63.5 -27t-63 27t-27 63zM215 543h498q3 144 -61 239t-175 95q-120 0 -191 -95t-71 -239zM547 1272q0 37 27.5 64.5t62.5 27.5q37 0 64.5 -27.5t27.5 -64.5 q0 -35 -27.5 -62.5t-64.5 -27.5q-35 0 -62.5 27.5t-27.5 62.5z" />
<glyph unicode="&#xec;" horiz-adv-x="473" d="M-21.5 1301.5q-0.5 -6.5 1.5 -10.5l4.5 -9t7.5 -9t12 -7l299 -156q29 -17 43 0q13 16 -18 41l-240 221q-33 29 -59.5 23t-36.5 -35q-1 -3 -4 -12.5t-4 -12.5t-3.5 -11t-2 -12t0 -10.5zM72 848v72l166 18q65 6 65 -64v-780q0 -33 22 -45t66 -12v-37h-311v37q45 0 67.5 12 t22.5 45v690q0 35 -13 49.5t-44 14.5h-41z" />
<glyph unicode="&#xed;" horiz-adv-x="473" d="M72 848v72l166 18q65 6 65 -64v-780q0 -33 22 -45t66 -12v-37h-311v37q45 0 67.5 12t22.5 45v690q0 35 -13 49.5t-44 14.5h-41zM158 1110q14 -17 43 0l299 156q7 3 12 7t7.5 9l4.5 9t1.5 10.5t0 10.5t-2 12t-3.5 11t-4 12.5t-4 12.5q-10 29 -35.5 35t-60.5 -23l-240 -221 q-29 -23 -18 -41z" />
<glyph unicode="&#xee;" horiz-adv-x="473" d="M-63 1094l290 295l291 -295h-72l-219 161l-219 -161h-71zM72 848v72l166 18q65 6 65 -64v-780q0 -33 22 -45t66 -12v-37h-311v37q45 0 67.5 12t22.5 45v690q0 35 -13 49.5t-44 14.5h-41z" />
<glyph unicode="&#xef;" horiz-adv-x="473" d="M-59 1272q0 37 26.5 64.5t63.5 27.5t63.5 -27.5t26.5 -64.5q0 -36 -27 -63t-63 -27t-63 27t-27 63zM72 848v72l166 18q65 6 65 -64v-780q0 -33 22 -45t66 -12v-37h-311v37q45 0 67.5 12t22.5 45v690q0 35 -13 49.5t-44 14.5h-41zM301 1272q0 37 27.5 64.5t62.5 27.5 q37 0 64.5 -27.5t27.5 -64.5q0 -35 -27.5 -62.5t-64.5 -27.5q-35 0 -62.5 27.5t-27.5 62.5z" />
<glyph unicode="&#xf0;" horiz-adv-x="1091" d="M61 473q0 228 82 350.5t230 122.5q172 0 332 -160v179q0 84 -13 151l-209 -59l-14 47l211 59q-17 52 -50 81t-65.5 37.5t-83.5 12.5l-63 4v48q2 0 19 -0.5t27.5 -1t32.5 -2.5t37.5 -5t40 -9t43 -13.5t42 -19.5t43 -26.5t39.5 -34.5t36 -44l217 61l15 -47l-205 -57 q51 -104 51 -256v-195q0 -364 -101.5 -536t-322.5 -172q-189 0 -280 119.5t-91 365.5zM197 473q0 -221 58.5 -322.5t176.5 -101.5q57 0 101 20t73.5 60t49.5 90.5t30.5 120.5t14.5 140t4 159q0 19 -20 54.5t-55 74.5t-96.5 67.5t-132.5 28.5q-96 0 -150 -100t-54 -291z" />
<glyph unicode="&#xf1;" horiz-adv-x="1087" d="M51 834v71l203 35q47 7 56.5 -31.5t-3.5 -99.5q-1 -14 -2 -21l-8 -71q131 223 350 223q100 0 157.5 -31t86.5 -108t31 -215v-428q0 -57 26.5 -81t98.5 -7l-27 -50q-37 -13 -52 -16.5t-42 -3.5q-66 0 -108 43t-42 104v471q0 236 -174 236q-41 0 -82.5 -14t-70 -31 t-60.5 -45.5t-44.5 -42t-31.5 -35.5v-592q0 -34 23.5 -45.5t79.5 -11.5v-37h-340v37q52 0 74 11.5t22 45.5v660q0 96 -121 80zM172 1165q-13 83 53.5 136t149.5 53q43 0 85 -18.5t71.5 -41t71.5 -41t85 -18.5q50 0 97.5 29.5t50.5 56.5h38q-15 -93 -76 -145t-149 -52 q-42 0 -87.5 22t-78.5 48t-72 48t-69 22q-61 0 -100 -32t-39 -67h-31z" />
<glyph unicode="&#xf2;" horiz-adv-x="966" d="M61 455q0 141 57 252.5t152 171t209 59.5q183 0 304.5 -132t121.5 -335q0 -213 -120.5 -352t-295.5 -139q-181 0 -304.5 136.5t-123.5 338.5zM201 494q0 -182 90 -308.5t221 -126.5q258 0 258 375q0 115 -41 215.5t-113.5 160.5t-158.5 60q-256 0 -256 -376z M236.5 1301.5q-0.5 -6.5 1.5 -10.5l4.5 -9t7.5 -9t12 -7l299 -156q29 -17 43 0q13 16 -18 41l-240 221q-33 29 -59.5 23t-36.5 -35q-1 -3 -4 -12.5t-4 -12.5t-3.5 -11t-2 -12t0 -10.5z" />
<glyph unicode="&#xf3;" horiz-adv-x="966" d="M61 455q0 141 57 252.5t152 171t209 59.5q183 0 304.5 -132t121.5 -335q0 -213 -120.5 -352t-295.5 -139q-181 0 -304.5 136.5t-123.5 338.5zM201 494q0 -182 90 -308.5t221 -126.5q258 0 258 375q0 115 -41 215.5t-113.5 160.5t-158.5 60q-256 0 -256 -376zM414 1110 q14 -17 43 0l299 156q7 3 12 7t7.5 9l4.5 9t1.5 10.5t0 10.5t-2 12t-3.5 11t-4 12.5t-4 12.5q-10 29 -35.5 35t-60.5 -23l-240 -221q-29 -23 -18 -41z" />
<glyph unicode="&#xf4;" horiz-adv-x="966" d="M61 455q0 141 57 252.5t152 171t209 59.5q183 0 304.5 -132t121.5 -335q0 -213 -120.5 -352t-295.5 -139q-181 0 -304.5 136.5t-123.5 338.5zM197 1094l288 295l291 -295h-71l-220 161l-219 -161h-69zM201 494q0 -182 90 -308.5t221 -126.5q258 0 258 375 q0 115 -41 215.5t-113.5 160.5t-158.5 60q-256 0 -256 -376z" />
<glyph unicode="&#xf5;" horiz-adv-x="966" d="M61 455q0 141 57 252.5t152 171t209 59.5q183 0 304.5 -132t121.5 -335q0 -213 -120.5 -352t-295.5 -139q-181 0 -304.5 136.5t-123.5 338.5zM127 1165q-13 83 53.5 136t149.5 53q43 0 85 -18.5t71.5 -41t71.5 -41t85 -18.5q50 0 97.5 29.5t50.5 56.5h38 q-15 -93 -76 -145t-149 -52q-42 0 -87.5 22t-78.5 48t-72 48t-69 22q-61 0 -100 -32t-39 -67h-31zM201 494q0 -182 90 -308.5t221 -126.5q258 0 258 375q0 115 -41 215.5t-113.5 160.5t-158.5 60q-256 0 -256 -376z" />
<glyph unicode="&#xf6;" horiz-adv-x="966" d="M61 455q0 141 57 252.5t152 171t209 59.5q183 0 304.5 -132t121.5 -335q0 -213 -120.5 -352t-295.5 -139q-181 0 -304.5 136.5t-123.5 338.5zM199 1272q0 37 26.5 64.5t63.5 27.5t63.5 -27.5t26.5 -64.5q0 -36 -27 -63t-63 -27t-63 27t-27 63zM201 494q0 -182 90 -308.5 t221 -126.5q258 0 258 375q0 115 -41 215.5t-113.5 160.5t-158.5 60q-256 0 -256 -376zM559 1272q0 37 27.5 64.5t62.5 27.5q37 0 64.5 -27.5t27.5 -64.5q0 -35 -27.5 -62.5t-64.5 -27.5q-35 0 -62.5 27.5t-27.5 62.5z" />
<glyph unicode="&#xf7;" horiz-adv-x="1044" d="M143 467v96h758v-96h-758zM451 203q0 31 23 54.5t52 23.5q31 0 54.5 -23.5t23.5 -54.5q0 -32 -23.5 -55t-54.5 -23q-30 0 -52.5 23t-22.5 55zM451 829q0 31 23 54.5t52 23.5q31 0 54.5 -23.5t23.5 -54.5q0 -32 -23.5 -54.5t-54.5 -22.5q-30 0 -52.5 22.5t-22.5 54.5z" />
<glyph unicode="&#xf8;" horiz-adv-x="966" d="M61 455q0 141 57 252.5t152 171t209 59.5q137 0 250 -82l51 68l56 -39l-56 -74q125 -135 125 -340q0 -213 -120.5 -352t-295.5 -139q-145 0 -260 94l-41 -56l-57 39l49 66q-119 135 -119 332zM201 494q0 -147 61 -263l400 533q-88 106 -205 106q-256 0 -256 -376z M301 170q87 -111 211 -111q258 0 258 375q0 147 -70 271z" />
<glyph unicode="&#xf9;" horiz-adv-x="1069" d="M51 868v45l178 33q23 0 34 -8.5t11 -30.5v-600q0 -129 51.5 -181t170.5 -52q103 0 170 74.5t102 199.5v455q0 36 -12 50.5t-43 14.5h-31v45l176 31q45 11 45 -37v-753q0 -56 25.5 -70t89.5 -4v-51l-86 -41q-60 -25 -105.5 38.5t-58.5 204.5v5q-12 -35 -35 -73.5t-60 -81 t-93 -70t-119 -27.5q-153 0 -237.5 89.5t-84.5 260.5v469q0 35 -13 50t-44 15h-31zM283.5 1301.5q0.5 6.5 0 10.5t2 12t3.5 11t4 12.5t4 12.5q10 29 36.5 35t59.5 -23l240 -221q31 -25 18 -41q-14 -17 -43 0l-299 156q-7 3 -12 7t-7.5 9l-4.5 9t-1.5 10.5z" />
<glyph unicode="&#xfa;" horiz-adv-x="1069" d="M51 868v45l178 33q23 0 34 -8.5t11 -30.5v-600q0 -129 51.5 -181t170.5 -52q103 0 170 74.5t102 199.5v455q0 36 -12 50.5t-43 14.5h-31v45l176 31q45 11 45 -37v-753q0 -56 25.5 -70t89.5 -4v-51l-86 -41q-60 -25 -105.5 38.5t-58.5 204.5v5q-12 -35 -35 -73.5t-60 -81 t-93 -70t-119 -27.5q-153 0 -237.5 89.5t-84.5 260.5v469q0 35 -13 50t-44 15h-31zM463 1110q-11 18 18 41l240 221q35 29 60.5 23t35.5 -35q1 -3 4 -12.5t4 -12.5t3.5 -11t2 -12t0 -10.5t-1.5 -10.5l-4.5 -9t-7.5 -9t-12 -7l-299 -156q-29 -17 -43 0z" />
<glyph unicode="&#xfb;" horiz-adv-x="1069" d="M51 868v45l178 33q23 0 34 -8.5t11 -30.5v-600q0 -129 51.5 -181t170.5 -52q103 0 170 74.5t102 199.5v455q0 36 -12 50.5t-43 14.5h-31v45l176 31q45 11 45 -37v-753q0 -56 25.5 -70t89.5 -4v-51l-86 -41q-60 -25 -105.5 38.5t-58.5 204.5v5q-12 -35 -35 -73.5t-60 -81 t-93 -70t-119 -27.5q-153 0 -237.5 89.5t-84.5 260.5v469q0 35 -13 50t-44 15h-31zM246 1094l289 295l290 -295h-71l-219 161l-220 -161h-69z" />
<glyph unicode="&#xfc;" horiz-adv-x="1069" d="M51 868v45l178 33q23 0 34 -8.5t11 -30.5v-600q0 -129 51.5 -181t170.5 -52q103 0 170 74.5t102 199.5v455q0 36 -12 50.5t-43 14.5h-31v45l176 31q45 11 45 -37v-753q0 -56 25.5 -70t89.5 -4v-51l-86 -41q-60 -25 -105.5 38.5t-58.5 204.5v5q-12 -35 -35 -73.5t-60 -81 t-93 -70t-119 -27.5q-153 0 -237.5 89.5t-84.5 260.5v469q0 35 -13 50t-44 15h-31zM246 1272q0 37 26.5 64.5t63.5 27.5t63.5 -27.5t26.5 -64.5q0 -36 -27 -63t-63 -27t-63 27t-27 63zM606 1272q0 37 27.5 64.5t62.5 27.5q37 0 64.5 -27.5t27.5 -64.5q0 -35 -27.5 -62.5 t-64.5 -27.5q-35 0 -62.5 27.5t-27.5 62.5z" />
<glyph unicode="&#xfd;" horiz-adv-x="1017" d="M18 883v41h355v-41l-51 -11q-67 -12 -46 -57l265 -586l227 586q8 22 -6.5 37t-40.5 20l-57 11v41h313v-41l-29 -13q-7 -3 -26 -10.5t-26.5 -11t-18 -12.5t-15.5 -21l-397 -987q-21 -50 -33.5 -78t-31 -63.5t-35 -54.5t-39 -38t-49 -26.5t-58.5 -7.5q-52 0 -93.5 29.5 t-47.5 74.5q-5 51 14.5 75.5t71.5 24.5q31 0 42.5 -15t10 -33t11 -33t44.5 -15q12 0 22.5 5t20.5 17.5t17 21.5t16 29t12 27t11 27l104 262l-352 758q-12 26 -26.5 36t-41.5 19zM453 1110q14 -17 43 0l299 156q7 3 12 7t7.5 9l4.5 9t1.5 10.5t0 10.5t-2 12t-3.5 11t-4 12.5 t-4 12.5q-10 29 -35.5 35t-60.5 -23l-240 -221q-29 -23 -18 -41z" />
<glyph unicode="&#xfe;" horiz-adv-x="1026" d="M31 1262v73l202 31q50 6 50 -39v-340q0 -130 -33 -254l35 45q29 35 48 54.5t58.5 51.5t88 48t104.5 16q173 0 266.5 -127t93.5 -356q0 -223 -103.5 -350t-262.5 -127q-201 0 -293 182v-440q0 -34 23.5 -46t78.5 -12v-49h-340v49q52 0 74 12t22 46v1464q0 36 -12.5 52 t-42.5 16h-57zM285 279q33 -95 102 -159.5t170 -64.5q126 0 187 92t61 291q0 78 -14 149t-42.5 130t-77.5 94t-112 35q-72 0 -122.5 -19t-80 -47.5t-71.5 -85.5v-415z" />
<glyph unicode="&#xff;" horiz-adv-x="1017" d="M18 883v41h355v-41l-51 -11q-67 -12 -46 -57l265 -586l227 586q8 22 -6.5 37t-40.5 20l-57 11v41h313v-41l-29 -13q-7 -3 -26 -10.5t-26.5 -11t-18 -12.5t-15.5 -21l-397 -987q-21 -50 -33.5 -78t-31 -63.5t-35 -54.5t-39 -38t-49 -26.5t-58.5 -7.5q-52 0 -93.5 29.5 t-47.5 74.5q-5 51 14.5 75.5t71.5 24.5q31 0 42.5 -15t10 -33t11 -33t44.5 -15q12 0 22.5 5t20.5 17.5t17 21.5t16 29t12 27t11 27l104 262l-352 758q-12 26 -26.5 36t-41.5 19zM236 1272q0 37 26.5 64.5t63.5 27.5t63.5 -27.5t26.5 -64.5q0 -36 -27 -63t-63 -27t-63 27 t-27 63zM596 1272q0 37 27.5 64.5t62.5 27.5q37 0 64.5 -27.5t27.5 -64.5q0 -35 -27.5 -62.5t-64.5 -27.5q-35 0 -62.5 27.5t-27.5 62.5z" />
<glyph unicode="&#x152;" horiz-adv-x="1918" d="M61 647q0 183 73.5 332.5t209.5 237.5t307 88q102 0 199 -33h870q21 0 28 -7t7 -30v-199h-45l-31 68q-45 94 -163 94h-410v-514h383q17 0 30 5t21 11t16.5 20.5t12.5 23t12 30.5t12 31h31v-313h-31q-4 10 -14 36t-15 35.5t-16 24.5t-25 20.5t-34 5.5h-383v-546l489 4 q36 0 59 8.5t31.5 16t23.5 31t24 34.5l53 67h61q-41 -81 -65 -182q-6 -22 -23.5 -34.5t-38.5 -12.5h-872v2q-97 -33 -197 -33q-170 0 -306.5 95t-210 249.5t-73.5 333.5zM227 709q0 -154 36.5 -284t96 -212.5t131.5 -128t146 -45.5q207 0 311 104v4v902q-63 89 -143.5 139.5 t-153.5 50.5q-78 0 -137 -11.5t-115.5 -45.5t-92 -91.5t-57.5 -153.5t-22 -228z" />
<glyph unicode="&#x153;" horiz-adv-x="1642" d="M61 455q0 141 57 252.5t152 171t209 59.5q109 0 200 -50t148 -140q55 94 146.5 143t206.5 49q101 0 187.5 -42.5t142 -128.5t55.5 -200q0 -56 -27.5 -77t-87.5 -21h-532q0 -181 95.5 -295.5t217.5 -114.5q55 0 100 14t79 41.5t53.5 49.5t43.5 55l43 -65 q-23 -31 -35 -45.5t-45 -44t-66 -44t-88.5 -27.5t-121.5 -13q-114 0 -207 55t-151 153q-57 -99 -148 -154.5t-199 -55.5q-181 0 -304.5 136.5t-123.5 338.5zM201 494q0 -182 90 -308.5t221 -126.5q111 0 179 77t77 245q-6 46 -6 92l2 49q-22 149 -107.5 248.5t-199.5 99.5 q-256 0 -256 -376zM918 545h497q2 144 -61.5 239t-173.5 95q-121 0 -191.5 -95t-70.5 -239z" />
<glyph unicode="&#x178;" horiz-adv-x="1257" d="M31 1235v37h381v-37q-47 -8 -69.5 -26t-6.5 -42l332 -479l317 459q24 34 -5 57t-93 31v37h340v-37q-61 -7 -95.5 -33.5t-76.5 -87.5l-350 -496v-507q0 -17 11.5 -29t36.5 -19.5t45 -11t56 -8.5v-43h-438v43q36 5 56 8.5t45.5 11t37.5 19.5t12 29v452l-346 500 q-7 11 -22 33t-20 30t-17 24.5t-17 22t-15 17t-16.5 15.5t-16.5 10.5t-19.5 9.5t-21 5.5t-25.5 4.5zM383 1620q0 37 26.5 64.5t63.5 27.5t63.5 -27.5t26.5 -64.5q0 -36 -27 -63t-63 -27t-63 27t-27 63zM743 1620q0 36 27.5 64t63.5 28q37 0 64.5 -27.5t27.5 -64.5 q0 -35 -27.5 -62.5t-64.5 -27.5q-35 0 -63 27.5t-28 62.5z" />
<glyph unicode="&#x2c6;" horiz-adv-x="804" d="M113 1094l290 292l289 -292h-69l-220 159l-221 -159h-69z" />
<glyph unicode="&#x2dc;" horiz-adv-x="868" d="M84 1165q-13 83 53.5 136t149.5 53q43 0 85 -18.5t71.5 -41t71.5 -41t85 -18.5q50 0 97.5 29.5t50.5 56.5h38q-15 -93 -76 -145t-149 -52q-42 0 -87.5 22t-78.5 48t-72 48t-69 22q-61 0 -100 -32t-39 -67h-31z" />
<glyph unicode="&#x2000;" horiz-adv-x="909" />
<glyph unicode="&#x2001;" horiz-adv-x="1819" />
<glyph unicode="&#x2002;" horiz-adv-x="909" />
<glyph unicode="&#x2003;" horiz-adv-x="1819" />
<glyph unicode="&#x2004;" horiz-adv-x="606" />
<glyph unicode="&#x2005;" horiz-adv-x="454" />
<glyph unicode="&#x2006;" horiz-adv-x="303" />
<glyph unicode="&#x2007;" horiz-adv-x="303" />
<glyph unicode="&#x2008;" horiz-adv-x="227" />
<glyph unicode="&#x2009;" horiz-adv-x="363" />
<glyph unicode="&#x200a;" horiz-adv-x="101" />
<glyph unicode="&#x2010;" horiz-adv-x="778" d="M92 471v84h553v-84h-553z" />
<glyph unicode="&#x2011;" horiz-adv-x="778" d="M92 471v84h553v-84h-553z" />
<glyph unicode="&#x2012;" horiz-adv-x="778" d="M92 471v84h553v-84h-553z" />
<glyph unicode="&#x2013;" horiz-adv-x="1366" d="M61 471v84h1192v-84h-1192z" />
<glyph unicode="&#x2014;" horiz-adv-x="1820" d="M51 471v84h1678v-84h-1678z" />
<glyph unicode="&#x2018;" horiz-adv-x="344" d="M90 1001q-12 78 4 142q20 68 94 135q14 8 29 -4l25 -23q-50 -50 -64 -90q-18 -44 -6 -63q19 6 49 4q37 -6 60.5 -37t17.5 -70q-6 -44 -39 -71t-74 -21q-37 6 -62.5 34t-33.5 64z" />
<glyph unicode="&#x2019;" horiz-adv-x="342" d="M43 1200q6 43 40 69.5t75 20.5q37 -6 61.5 -34t32.5 -64q15 -76 -4 -141q-22 -73 -92 -136q-12 -7 -31 5l-23 22q48 51 64 90q16 45 6 64q-20 -7 -51 -4q-36 6 -59 37t-19 71z" />
<glyph unicode="&#x201a;" horiz-adv-x="385" d="M96 94q6 43 40 69.5t75 20.5q37 -6 61.5 -34t32.5 -64q15 -76 -4 -141q-21 -70 -92 -135q-13 -8 -31 4l-22 22q44 44 63 90q16 45 6 64q-20 -7 -51 -4q-36 6 -59 37t-19 71z" />
<glyph unicode="&#x201c;" horiz-adv-x="696" d="M49 1001q-15 77 4 142q19 66 92 135q15 9 31 -4l23 -23q-46 -46 -64 -90q-16 -45 -4 -63q17 7 49 4q37 -6 59.5 -37t18.5 -70q-6 -44 -40 -71t-75 -21q-37 6 -61.5 34t-32.5 64zM406 1001q-15 77 4 142q19 66 92 135q14 9 30 -4l23 -23q-44 -44 -63 -90q-16 -46 -5 -63 q17 7 50 4q37 -6 59 -36.5t18 -70.5q-6 -44 -39.5 -71t-74.5 -21q-37 6 -61.5 34t-32.5 64z" />
<glyph unicode="&#x201d;" horiz-adv-x="698" d="M18 1200q6 43 39 69.5t74 20.5q37 -6 62.5 -34t33.5 -64q12 -78 -4 -141q-21 -70 -94 -136q-13 -8 -29 5l-24 22q51 54 63 90q19 45 6 64q-19 -6 -49 -4q-38 6 -61 37t-17 71zM375 1200q6 43 38.5 69.5t73.5 20.5q37 -6 63 -34.5t34 -63.5q12 -78 -4 -141 q-21 -69 -95 -136q-12 -7 -28 5l-25 22q52 55 64 90q19 45 6 64q-19 -6 -49 -4q-38 6 -61 37t-17 71z" />
<glyph unicode="&#x201e;" horiz-adv-x="716" d="M96 94q6 43 40 69.5t75 20.5q37 -6 61.5 -34t32.5 -64q15 -76 -4 -141q-21 -70 -92 -135q-13 -8 -31 4l-22 22q44 44 63 90q16 45 6 64q-20 -7 -51 -4q-36 6 -59 37t-19 71zM428 94q6 43 40 69.5t75 20.5q37 -6 61.5 -34t32.5 -64q15 -76 -4 -141q-21 -70 -92 -135 q-13 -8 -31 4l-23 22q46 46 64 90q16 45 6 64q-20 -7 -51 -4q-36 6 -59 37t-19 71z" />
<glyph unicode="&#x2022;" horiz-adv-x="536" d="M123 602q0 59 43.5 102.5t101.5 43.5q60 0 103 -43.5t43 -102.5q0 -60 -43 -102.5t-103 -42.5q-59 0 -102 42.5t-43 102.5z" />
<glyph unicode="&#x2026;" horiz-adv-x="1095" d="M113 84q0 41 30.5 71.5t71.5 30.5t71.5 -30.5t30.5 -71.5q0 -43 -30.5 -73.5t-71.5 -30.5t-71.5 30.5t-30.5 73.5zM446 84q0 42 30 72t73 30q41 0 71.5 -30.5t30.5 -71.5q0 -43 -30.5 -73.5t-71.5 -30.5q-43 0 -73 30.5t-30 73.5zM778 84q0 41 31 71.5t72 30.5 t71.5 -30.5t30.5 -71.5q0 -43 -30.5 -73.5t-71.5 -30.5t-72 31t-31 73z" />
<glyph unicode="&#x202f;" horiz-adv-x="363" />
<glyph unicode="&#x2039;" horiz-adv-x="456" d="M63 469l293 291v-72l-159 -219l159 -219v-70z" />
<glyph unicode="&#x203a;" horiz-adv-x="456" d="M100 180v70l162 219l-162 219v72l295 -291z" />
<glyph unicode="&#x205f;" horiz-adv-x="454" />
<glyph unicode="&#x20ac;" horiz-adv-x="1454" d="M78 481l14 74h154q-6 49 -6 98l2 45h-129l16 76h121q39 225 200.5 378t374.5 153q118 0 215.5 -46.5t161.5 -121.5q45 0 60 100q6 35 38 35h33l23 -406l-37 -16q-34 -15 -47 22q-3 8 -7 19t-10.5 27t-11.5 28q-61 147 -168 219t-239 72q-76 0 -147.5 -29t-131.5 -84.5 t-100 -146t-49 -203.5h561l-17 -76h-546q0 -53 12 -143h514l-14 -74h-484q53 -197 179 -314.5t259 -117.5q67 0 122.5 18t98 52.5t71.5 68.5t61 82q7 12 16.5 30t14 25.5t12.5 14t18 6.5q8 0 31.5 -12.5t32.5 -20.5q6 -13 -1.5 -31.5t-28.5 -53.5q-2 -3 -3.5 -5.5t-3.5 -5.5 q-148 -248 -469 -248q-213 0 -373 145.5t-211 366.5h-182z" />
<glyph unicode="&#x2122;" horiz-adv-x="1290" d="M41 1147l6 98q0 9 9.5 18t21.5 9h407q12 0 21.5 -9t9.5 -18l6 -98h-45l-16 33q-8 16 -27 16h-92v-317q0 -10 16.5 -15.5t36.5 -5.5v-51h-227v51q51 0 51 21v317h-90q-19 0 -27 -16l-16 -33h-45zM578 807v47q29 8 37 13.5t8 19.5v297q0 18 -8.5 24.5t-36.5 12.5v51h155 l187 -283l184 283h137v-49q-23 -8 -29 -14t-6 -25v-297q0 -16 6.5 -20.5t36.5 -12.5v-47h-200v47q29 8 37 13.5t8 19.5v225l-158 -256q-10 -23 -28.5 -23t-30.5 23l-177 258v-227q0 -7 2 -12t9 -8.5t12.5 -5.5t21.5 -7v-47h-167z" />
<glyph unicode="&#x25fc;" horiz-adv-x="921" d="M0 0v922h922v-922h-922z" />
</font>
</defs>
</svg>
