<svg xmlns="http://www.w3.org/2000/svg" viewBox="0 0 240 50" enable-background="new 0 0 240 50"><style type="text/css">.st0{fill:#E4813F;} .st1{fill:#FFFFFF;}</style><g id="XMLID_1_"><title>Suda Maden</title><path id="XMLID_6_" class="st0" d="M24.6 15.4l-5.4-9.1-16.1 27.4c5.2 6.1 12.9 10 21.5 10s16.3-3.9 21.5-10l-16.1-27.4-5.4 9.1zm-15.6 17.8l10.4-17.7 2.6 4.4-9.4 16c-1.3-.8-2.5-1.7-3.6-2.7zm15.6 5.9c-2.8 0-5.4-.5-7.9-1.4l7.9-13.5 7.9 13.5c-2.4.9-5.1 1.4-7.9 1.4zm12-3.3l-9.4-16 2.6-4.4 10.4 17.7c-1.1 1.1-2.3 2-3.6 2.7z"/><path id="XMLID_141_" class="st1" d="M67.3 23.6l-2.4-.4c-1-.1-1.9-.5-2.4-1-.6-.5-.8-1.2-.8-2 0-1.9 1.4-3.3 3.9-3.3 1.8 0 3.3.4 4.6 1.6l2.1-2c-1.8-1.7-3.8-2.4-6.6-2.4-4.4 0-7.1 2.5-7.1 6.3 0 1.7.5 3.1 1.6 4.1.9.9 2.3 1.5 4 1.7l2.5.4c1.3.2 1.8.4 2.3.9.6.5.8 1.3.8 2.2 0 2.1-1.6 3.3-4.4 3.3-2.2 0-3.9-.5-5.4-2l-2.2 2c2 2.1 4.3 2.8 7.5 2.8 4.5 0 7.7-2.3 7.7-6.3 0-1.8-.6-3.3-1.7-4.4-.9-.7-2-1.2-4-1.5z"/><path id="XMLID_142_" class="st1" d="M88.5 28.3c0 2.8-1.8 4.6-4.4 4.6-2.7 0-4.4-1.8-4.4-4.6v-14h-3.2v14.1c0 4.4 3.3 7.4 7.6 7.4s7.7-3 7.7-7.4v-14h-3.2v13.9z"/><path id="XMLID_145_" class="st1" d="M109.4 16.4c-1.3-1.3-3.3-2-5.5-2h-7.5v21.3h7.5c2.2 0 4.2-.7 5.5-2 2.3-2.3 2.2-5.7 2.2-8.8-.1-3.1.1-6.2-2.2-8.5zm-2.3 14.9c-.9 1-2.1 1.4-3.6 1.4h-3.9v-15.4h3.9c1.5 0 2.7.4 3.6 1.4 1.1 1.2 1.1 3.2 1.1 6.2.1 2.9 0 5.2-1.1 6.4z"/><path id="XMLID_148_" class="st1" d="M120.7 14.4l-7.8 21.3h3.4l1.5-4.3h8.4l1.5 4.3h3.4l-7.8-21.3h-2.6zm-2 14.2l3.3-9.5 3.2 9.5h-6.5z"/><path id="XMLID_149_" class="st1" d="M149.5 27.6l-6.2-13.2h-3.2v21.3h3.2v-14.3l5 10.4h2.4l4.9-10.4v14.3h3.3v-21.3h-3.3z"/><path id="XMLID_152_" class="st1" d="M169.1 14.4l-7.8 21.3h3.4l1.5-4.3h8.4l1.5 4.3h3.4l-7.8-21.3h-2.6zm-2 14.2l3.3-9.5 3.2 9.5h-6.5z"/><path id="XMLID_155_" class="st1" d="M194.9 16.4c-1.3-1.3-3.3-2-5.5-2h-7.5v21.3h7.5c2.2 0 4.2-.7 5.5-2 2.3-2.3 2.2-5.7 2.2-8.8-.1-3.1.1-6.2-2.2-8.5zm-2.2 14.9c-.9 1-2.1 1.4-3.6 1.4h-3.9v-15.4h3.9c1.5 0 2.7.4 3.6 1.4 1.1 1.2 1.1 3.2 1.1 6.2 0 2.9 0 5.2-1.1 6.4z"/><path id="XMLID_156_" class="st1" d="M201.2 35.7h13.6v-2.9h-10.4v-6.4h8.9v-2.9h-8.9v-6.2h10.4v-2.9h-13.6z"/><path id="XMLID_157_" class="st1" d="M231.5 14.4v14.9l-9.9-14.9h-2.9v21.3h3.2v-15l9.8 15h3v-21.3z"/></g></svg>