<?xml version="1.0" standalone="no"?>
<!DOCTYPE svg PUBLIC "-//W3C//DTD SVG 1.1//EN" "http://www.w3.org/Graphics/SVG/1.1/DTD/svg11.dtd" >
<svg xmlns="http://www.w3.org/2000/svg" xmlns:xlink="http://www.w3.org/1999/xlink" version="1.1">
<metadata></metadata>
<defs>
<font id="quincy_cfbold" horiz-adv-x="1222" >
<font-face units-per-em="2048" ascent="1638" descent="-410" />
<missing-glyph horiz-adv-x="450" />
<glyph unicode="&#xfb01;" horiz-adv-x="1236" d="M63 838v98h121v35q0 186 108 290.5t337 104.5q195 0 325.5 -72t130.5 -172q0 -45 -29 -71.5t-81 -26.5q-48 0 -80.5 26t-32.5 72q0 148 -233 148q-74 0 -123.5 -22.5t-74 -64t-33.5 -86t-9 -102.5v-59h246q-28 -80 -42 -99.5t-44 -19.5h-160v-684q0 -35 20 -46t87 -11 v-76h-412v76q63 0 81.5 11t18.5 46v684h-100q-9 0 -15 6t-6 15zM791 819v92l233 19q66 6 66 -64v-731q0 -33 22 -45t66 -12v-78h-379v78q45 0 67.5 12t22.5 45v621q0 35 -13.5 49t-44.5 14h-40z" />
<glyph unicode="&#xfb02;" horiz-adv-x="1273" d="M63 838v98h121v35q0 86 23.5 156.5t71.5 124.5t128 84t185 30q175 0 330 -41l120 18q31 5 46 -9.5t15.5 -42.5t-0.5 -65v-12t-0.5 -10.5t-0.5 -11.5v-985q0 -58 28 -81.5t107 -6.5l-33 -90q-68 -29 -147 -29q-75 0 -115.5 44t-40.5 116v887q0 85 -94 154t-215 69 q-203 0 -203 -275v-59h287q-28 -80 -42 -99.5t-44 -19.5h-201v-684q0 -35 20 -46t87 -11v-76h-412v76q59 0 79.5 11t20.5 46v684h-100q-9 0 -15 6t-6 15z" />
<glyph horiz-adv-x="0" />
<glyph horiz-adv-x="682" />
<glyph unicode=" "  horiz-adv-x="450" />
<glyph unicode="&#x09;" horiz-adv-x="450" />
<glyph unicode="&#xa0;" horiz-adv-x="450" />
<glyph unicode="!" horiz-adv-x="505" d="M123 1186q0 73 37 112t98 39t98 -39t37 -112q0 -84 -22 -204.5t-45.5 -263t-26.5 -274.5h-82q-3 132 -26.5 274.5t-45.5 263t-22 204.5zM137 106q0 51 37 88t88 37t88 -37t37 -88q0 -52 -37 -89t-88 -37t-88 37t-37 89z" />
<glyph unicode="&#x22;" horiz-adv-x="643" d="M84 1237l45 -303q6 -45 49 -45q41 0 47 45l45 303q7 54 -18.5 84.5t-73.5 30.5q-50 0 -75.5 -30t-18.5 -85zM375 1237l43 -303q9 -45 49 -45t49 45l43 303q7 55 -17.5 85t-74.5 30t-74.5 -30t-17.5 -85z" />
<glyph unicode="#" horiz-adv-x="1204" d="M72 379l6 74q3 30 33 30h194l86 336h-207q-28 0 -28 31l6 74q3 30 33 30h233l109 422h141l-107 -422h224l108 422h141l-106 -422h176q32 0 29 -30l-6 -74q0 -31 -33 -31h-199l-84 -336h209q32 0 29 -30l-6 -74q-3 -31 -33 -31h-234l-102 -409h-152l107 409h-221 l-103 -409h-151l106 409h-170q-31 0 -28 31zM453 483h221l86 336h-223z" />
<glyph unicode="$" horiz-adv-x="1144" d="M72 360l84 29q23 9 38 2.5t27 -29.5q5 -10 21 -38.5t24 -44.5q77 -154 254 -181v439q-40 13 -68.5 23t-71 28t-73.5 37t-66 47.5t-59 60.5t-42.5 75.5t-24.5 92.5q-14 101 29.5 190t142 148t233.5 66v106h109v-108q70 -6 129.5 -27t93.5 -43t76 -44.5t78 -29.5l26 -260 l-88 -14q-41 -6 -49 24l-23 82q-19 70 -87 126t-156 73v-440q163 -47 244 -91q195 -105 214 -284q8 -77 -15.5 -143.5t-69 -112.5t-108 -79.5t-129.5 -50.5t-136 -20v-94h-109v100q-53 6 -107.5 23.5t-83.5 30t-73.5 19t-77.5 -8.5zM317 965q10 -68 61 -108.5t142 -72.5v412 q-100 -12 -156 -79t-47 -152zM629 92q110 7 175.5 56.5t55.5 150.5q-7 80 -66 125t-165 80v-412z" />
<glyph unicode="%" horiz-adv-x="1415" d="M127 1034q24 109 116 196t216 87q71 0 121 -37q100 -46 160 -57q165 -29 345 80h129l-884 -1313h-191l891 1237q-206 -172 -358 -113q3 -46 -4 -80q-21 -114 -112 -197t-214 -83q-80 0 -135 43t-74 106t-6 131zM270 944.5q0 -42.5 23 -72.5t67 -30q62 0 102 57t54 135 q6 47 6.5 91t-20.5 75t-62 31q-64 0 -106 -59t-58 -138q-6 -47 -6 -89.5zM727 258q24 109 116 196t216 87q78 0 132 -44.5t72.5 -108.5t4.5 -130q-23 -115 -113.5 -198t-212.5 -83q-80 0 -135 43t-74 106.5t-6 131.5zM871 168.5q0 -42.5 23 -72.5t67 -30q62 0 100.5 56.5 t54.5 135.5q6 47 6.5 91t-20.5 75t-62 31q-64 0 -105.5 -58.5t-57.5 -138.5q-6 -47 -6 -89.5z" />
<glyph unicode="&#x26;" horiz-adv-x="1566" d="M92 408q0 85 29 151.5t76.5 105t103.5 57t115 15.5q-94 33 -150.5 102.5t-56.5 161.5q0 54 24 107t68.5 97.5t119 72t165.5 27.5q114 0 204.5 -49t124.5 -144q15 -42 -7 -78t-62 -41q-41 -4 -71 20.5t-32 63.5q-4 68 -42.5 96.5t-112.5 28.5q-83 0 -124.5 -54t-41.5 -144 q0 -93 45 -164t135 -99l-22 -96l-50 8q-74 10 -144.5 -67t-70.5 -197q0 -105 52 -179t131 -107t176 -33q161 0 271 93t110 220q0 76 -36.5 125t-90.5 49q-43 0 -72.5 -23.5t-32 -55t20.5 -62.5h-88q-45 40 -45 104q0 40 32 71.5t105 78.5l262 168q6 4 31.5 20.5t31 20.5 t25.5 18.5t25.5 20.5t19 19.5t17.5 23.5t11 24t9 29.5t2 32.5q0 73 -49 108.5t-115 22.5l-35 -9q-26 -6 -34 29q-3 20 0.5 28.5t17.5 14.5q72 24 117 31q52 6 103.5 -7.5t93.5 -44.5t68 -84.5t26 -121.5q0 -48 -24 -94t-56.5 -79t-87 -69t-92 -56.5t-97.5 -50t-80 -40.5 q117 -33 169.5 -96.5t54.5 -159.5q2 -115 -82 -208t-219 -142.5t-289 -49.5q-118 0 -223.5 30.5t-184.5 86t-125.5 139t-46.5 183.5z" />
<glyph unicode="'" horiz-adv-x="354" d="M84 1237l45 -303q6 -45 49 -45q41 0 47 45l45 303q7 54 -18.5 84.5t-73.5 30.5q-50 0 -75.5 -30t-18.5 -85z" />
<glyph unicode="(" horiz-adv-x="663" d="M92 606q0 285 110.5 529.5t307.5 402.5q17 14 39 14h33q20 0 27.5 -8t-3.5 -18q-143 -151 -224.5 -394.5t-78.5 -525.5q-3 -277 76 -517.5t217 -391.5q15 -15 12 -26t-22 -11h-37q-22 0 -39 14q-197 158 -307.5 402.5t-110.5 529.5z" />
<glyph unicode=")" horiz-adv-x="663" d="M54.5 1544q7.5 8 27.5 8h35q22 0 39 -14q195 -158 305 -402.5t110 -529.5t-110 -529.5t-305 -402.5q-17 -14 -39 -14h-39q-19 0 -22 11t12 26q138 151 216.5 391t75.5 518q3 282 -78.5 525.5t-224.5 394.5q-10 10 -2.5 18z" />
<glyph unicode="*" horiz-adv-x="649" d="M49 821q44 -56 111 -28l110 137q13 15 2.5 29.5t-30.5 9.5l-166 -35q-55 -44 -27 -113zM49 1149q-29 -69 27 -111l164 -37q22 -5 33.5 9.5t-1.5 29.5l-112 138q-66 28 -111 -29zM242 750q9 -71 82 -80q73 9 82 80l-62 159q-7 20 -20.5 20t-20.5 -20zM242 1225l61 -160 q5 -13 12.5 -18t14.5 0t12 18l64 160q-9 71 -82 80q-73 -9 -82 -80zM376 1010.5q12 -14.5 34 -9.5l163 37q55 43 27 111q-47 56 -111 29l-112 -138q-13 -15 -1 -29.5zM377 959.5q-11 -14.5 2 -29.5l110 -137q65 -27 111 28q27 68 -27 113l-165 35q-20 5 -31 -9.5z" />
<glyph unicode="+" horiz-adv-x="1044" d="M143 446v138h312v309h137v-309h309v-138h-309v-313h-137v313h-312z" />
<glyph unicode="," horiz-adv-x="438" d="M96 119q6 53 48 84.5t94 25.5q49 -6 79.5 -41.5t38.5 -81.5q18 -91 -6 -174q-29 -99 -110 -170q-20 -11 -39 5l-35 38q58 62 74 103q18 51 10 78q-19 -5 -57 -2q-44 6 -73.5 45.5t-23.5 89.5z" />
<glyph unicode="-" horiz-adv-x="778" d="M92 451v124h553v-124h-553z" />
<glyph unicode="." horiz-adv-x="475" d="M113 106q0 51 37 88t88 37t87.5 -37t36.5 -88q0 -52 -36.5 -89t-87.5 -37t-88 37t-37 89z" />
<glyph unicode="/" horiz-adv-x="890" d="M96 0l547 1313h152l-547 -1313h-152z" />
<glyph unicode="0" horiz-adv-x="1202" d="M72 641q0 102 21.5 198.5t65.5 180.5t106 147t149 99.5t188 36.5q126 0 228.5 -55.5t166.5 -149t98.5 -211t34.5 -246.5q0 -104 -21 -201t-65 -181.5t-105.5 -147.5t-148 -99.5t-188.5 -36.5t-188.5 36.5t-148.5 99.5t-106 147.5t-65.5 181.5t-21.5 201zM305 641 q0 -273 68.5 -413t228.5 -140q81 0 138 37t91 110.5t49 172.5t15 233q0 269 -68 410t-225 141q-82 0 -140 -37.5t-92 -111t-49.5 -172t-15.5 -230.5z" />
<glyph unicode="1" horiz-adv-x="677" d="M82 1038v111l297 131q35 13 54.5 2.5t19.5 -35.5v-1089q0 -8 3 -14.5t10 -12t14 -10t18.5 -8t20 -6.5t23 -5.5t22 -4t22.5 -4t20 -3.5v-90h-514v90q98 16 125 30q29 15 29 38v846q0 37 -15 54.5t-45 8.5z" />
<glyph unicode="2" horiz-adv-x="1212" d="M92 0q18 99 57.5 189t85.5 155t108 126.5t113 100.5t113 80q22 15 59.5 38t57 36t47.5 34t43 38.5t30 40.5t21.5 50.5t6.5 59.5q0 114 -68.5 180t-171.5 66q-98 0 -164 -38.5t-84 -119.5q-12 -66 -7.5 -98t12.5 -62.5t5 -48.5q-35 -82 -123 -82q-49 0 -83.5 33t-34.5 74 q0 208 126 330.5t355 122.5q218 0 338.5 -98t120.5 -271q0 -45 -11 -86.5t-26 -73.5t-43.5 -65t-51.5 -54.5t-62.5 -49t-63.5 -42.5t-68.5 -41.5t-64.5 -38.5q-28 -18 -84.5 -51.5t-77.5 -47t-59.5 -41t-57.5 -48.5t-42.5 -52.5t-41.5 -68.5l551 -4q71 0 103.5 10.5 t58.5 48.5l33 45h73l-47 -229q-6 -22 -23 -34.5t-38 -12.5h-920z" />
<glyph unicode="3" horiz-adv-x="1220" d="M104 336q-4 64 25.5 93.5t77.5 29.5q39 0 61.5 -9t32 -29.5t12.5 -42t9.5 -58t17.5 -66.5q64 -170 276 -170q124 0 206.5 81.5t82.5 217.5q0 125 -66.5 193.5t-160.5 68.5q-40 0 -78 -12l-82 -29l-37 94l88 35q121 48 180.5 109t59.5 153q0 95 -53 150t-158 55 q-99 0 -149 -45t-58 -115q-4 -32 -4 -60t-4 -50q-34 -39 -85 -42t-88.5 26.5t-37.5 76.5q0 55 28 109.5t79.5 101t135 75t183.5 28.5q98 0 181 -27.5t134.5 -71.5t80 -96t28.5 -104q0 -94 -60.5 -158.5t-142.5 -87.5q48 4 100.5 -16t100 -60t78 -109t30.5 -153 q0 -121 -74 -225t-193 -163t-251 -59q-230 0 -362 98t-144 263z" />
<glyph unicode="4" horiz-adv-x="1169" d="M94 403v95l651 798q22 27 55.5 30t59 -17t25.5 -54v-739h182v-113h-182v-243q0 -17 10.5 -28.5t35.5 -19.5t38.5 -11t46.5 -9v-92h-475v92q22 4 31 5.5t28.5 6t29 9t21 11t16.5 16t5 20.5v243h-578zM246 516h426v510z" />
<glyph unicode="5" horiz-adv-x="1212" d="M94 338q-4 63 25 91t78 28q41 0 63.5 -9t31.5 -29t12 -41.5t9 -57.5t17 -66q64 -170 262 -170q122 0 203.5 77t81.5 222q0 160 -92.5 261t-231.5 101q-86 0 -163 -29t-128 -69h-94l49 625h701l34 26l49 2l-20 -188l-35 -31h-635l-24 -315q137 108 334 108q65 0 131.5 -16 t131 -52t114.5 -87.5t81 -129t31 -169.5q0 -127 -69 -229.5t-187.5 -159t-261.5 -56.5q-223 0 -354.5 98.5t-143.5 264.5z" />
<glyph unicode="6" horiz-adv-x="1142" d="M92 588q1 106 22 208t65.5 194t107 161.5t151.5 110.5t193 41q162 0 266 -76q20 -14 4 -37l-27 -37q-11 -17 -36 -6q-59 26 -97.5 35.5t-99.5 9.5t-110 -19.5t-83 -56.5t-58.5 -82.5t-39.5 -107t-23.5 -119.5t-13.5 -129q35 44 116 87.5t181 43.5q119 0 218.5 -48.5 t161 -143t61.5 -216.5q0 -82 -33 -159t-92 -136.5t-148.5 -95t-193.5 -35.5q-128 0 -225 49.5t-154.5 135.5t-85.5 194t-27 234zM317 555q-10 -216 62 -341.5t205 -125.5q72 0 123.5 26.5t79.5 73t40.5 100.5t12.5 120q0 127 -65.5 206.5t-172.5 79.5q-57 0 -112 -16.5 t-91 -40t-58.5 -46t-23.5 -36.5z" />
<glyph unicode="7" horiz-adv-x="1122" d="M82 985l55 240q4 22 20 34.5t38 12.5h856l-645 -1282h-58q-28 0 -43.5 21t-1.5 48l539 1018h-643l-43 -92h-74z" />
<glyph unicode="8" horiz-adv-x="1210" d="M102 360q0 117 75.5 209t207.5 138q-99 38 -155 107t-56 161q0 132 118 221.5t312 89.5q182 0 297 -90t115 -225q0 -83 -62 -157t-159 -101q144 -39 228.5 -130t84.5 -237q0 -152 -146 -263.5t-360 -111.5q-226 0 -363 112t-137 277zM279 373q0 -123 80 -206t241 -83 q79 0 135.5 21.5t86.5 61t43.5 84.5t13.5 101q0 99 -56 159.5t-198 92.5l-160 37q-44 10 -87.5 -27t-71 -103.5t-27.5 -137.5zM387 975q0 -73 37 -125t139 -76l105 -24q52 -12 97.5 25t69 93t23.5 107q0 28 -5.5 54t-22 56t-43.5 52t-75.5 36.5t-111.5 14.5 q-213 0 -213 -213z" />
<glyph unicode="9" horiz-adv-x="1142" d="M92 883q0 82 33 159t92 136.5t148.5 95t193.5 35.5q128 0 225.5 -49.5t154.5 -135.5t85 -194t27 -234q-1 -106 -22 -208t-65.5 -194t-106.5 -161t-151 -110t-194 -41q-161 0 -264 75q-20 14 -4 37l24 37q11 17 37 6q62 -27 99 -36t98 -9q73 0 129 29.5t90.5 76t58 116.5 t34.5 138t17 154q-35 -43 -117 -87t-182 -44q-183 0 -311.5 112.5t-128.5 295.5zM305 877q0 -127 65 -207t171 -80q57 0 112 16.5t91.5 40t59 46t23.5 36.5q9 216 -63.5 341.5t-204.5 125.5q-57 0 -101.5 -17.5t-73 -47t-46.5 -71.5t-25.5 -86.5t-7.5 -96.5z" />
<glyph unicode=":" horiz-adv-x="477" d="M115 106q0 51 37 88t88 37t88 -37t37 -88q0 -52 -37 -89t-88 -37t-88 37t-37 89zM115 774q0 52 37 89.5t88 37.5t88 -37.5t37 -89.5t-37 -89.5t-88 -37.5t-88 37.5t-37 89.5z" />
<glyph unicode=";" horiz-adv-x="438" d="M96 119q6 53 48 84.5t94 25.5q49 -6 79.5 -41.5t38.5 -81.5q18 -91 -6 -174q-29 -99 -110 -170q-20 -11 -39 5l-35 38q58 62 74 103q18 51 10 78q-19 -5 -57 -2q-44 6 -73.5 45.5t-23.5 89.5zM102 772q0 52 37 89.5t88 37.5t88 -37.5t37 -89.5t-37 -89.5t-88 -37.5 t-88 37.5t-37 89.5z" />
<glyph unicode="&#x3c;" horiz-adv-x="1048" d="M143 444v138q395 150 762 350v-152q-285 -157 -620 -266q336 -113 620 -266v-154q-367 200 -762 350z" />
<glyph unicode="=" horiz-adv-x="1044" d="M143 262v137h758v-137h-758zM143 631v137h758v-137h-758z" />
<glyph unicode="&#x3e;" horiz-adv-x="1048" d="M143 94v154q282 153 621 266q-338 110 -621 266v152q367 -200 762 -350v-138q-395 -150 -762 -350z" />
<glyph unicode="?" horiz-adv-x="999" d="M92 1004q0 -62 24.5 -106t59.5 -60t74.5 -10.5t68.5 34.5q24 22 28.5 52t-5 58t-19.5 60t-15.5 59t7.5 54q29 56 76.5 83t126.5 27q87 0 137 -49t50 -123q2 -46 -8.5 -78.5t-51.5 -79.5t-125 -114q-111 -89 -94 -219l23 -168h92l20 168q2 20 32 43t92 65t112 88 q61 54 88.5 118.5t22.5 125.5t-36 119t-82 101.5t-123 69.5t-151 26q-190 0 -307 -97.5t-117 -246.5zM375 106q0 51 37 88t88 37q52 0 89.5 -37t37.5 -88q0 -52 -37 -89t-90 -37q-51 0 -88 37t-37 89z" />
<glyph unicode="@" horiz-adv-x="1499" d="M92 510q0 143 51.5 269.5t140 216t210 141t258.5 51.5t257.5 -49t208.5 -135.5t138.5 -213t50.5 -274.5q0 -78 -10.5 -133.5t-38.5 -105t-81.5 -82t-135.5 -50.5q-176 -38 -230 86q-31 -47 -93 -78.5t-140 -31.5q-107 0 -181.5 49t-74.5 143q0 40 11 71t42 63.5 t82.5 57.5t136.5 47.5t201 39.5v20q0 41 -5 72.5t-19 63.5t-45 48.5t-78 14.5q-42 -3 -76 -14q-17 -4 -23.5 -21.5t-7.5 -49t-4 -44.5q-8 -26 -41.5 -41.5t-73.5 -9.5q-83 17 -61 112q12 54 89.5 95.5t172.5 50.5q167 13 255.5 -58.5t88.5 -216.5v-327q0 -41 15.5 -55.5 t47.5 -8.5q16 4 29.5 13t23.5 19.5t18 28t13 31.5t8.5 36.5t5 35.5t2.5 37.5t1 33.5v31.5v24.5q0 263 -126.5 421.5t-352.5 158.5q-149 0 -259 -78t-164.5 -209.5t-54.5 -298.5q0 -164 57 -296.5t167 -211t254 -78.5q48 0 114 12q23 8 54.5 4t44.5 -30l24 -43 q-110 -35 -237 -35q-137 0 -259 51.5t-210 141.5t-139.5 216.5t-51.5 270.5zM602 315q0 -47 28.5 -74.5t80.5 -27.5q34 0 63.5 11.5t53 33.5t37.5 39t30 41v182q-78 -13 -133.5 -31.5t-86 -37t-47.5 -43.5t-21.5 -45t-4.5 -48z" />
<glyph unicode="A" horiz-adv-x="1443" d="M41 0v84q42 9 60.5 14t37.5 18.5t30 32.5t26 56l454 1083l76 -20q54 -19 72 -64l422 -948q24 -54 41.5 -84t40.5 -48t42 -24.5t60 -15.5v-84h-473v84q82 14 98 32t-4 54l-119 272h-477l-106 -262q-5 -14 -5 -25q1 -21 17 -35q26 -22 102 -36v-84h-395zM469 543h393 l-203 469z" />
<glyph unicode="B" horiz-adv-x="1294" d="M51 0v96q133 28 133 99v895q0 71 -131 90v92h596q504 0 504 -301q0 -93 -68.5 -171.5t-205.5 -111.5q168 -27 256 -114t88 -212q1 -179 -135 -273q-129 -89 -351 -89h-24l-181 4q-124 8 -234 8q-134 0 -247 -12zM410 197q0 -37 14.5 -61.5t44.5 -24.5h217 q154 0 225.5 53.5t71.5 197.5q0 93 -42.5 154t-145.5 95t-271 34h-114v-448zM410 733h374q49 0 89 65t40 169q0 97 -61 149.5t-184 52.5h-258v-436z" />
<glyph unicode="C" horiz-adv-x="1310" d="M66 657q0 138 48 259t129 206t192 134t233 49q231 0 370 -168q45 0 60 100q6 35 39 35h55l22 -391l-88 -31q-35 -12 -47 22q-4 12 -28 74q-54 130 -144.5 189t-201.5 59q-80 0 -149 -31t-123 -91t-85 -158.5t-31 -225.5q0 -166 61 -302t160 -210t212 -74q106 0 179.5 44 t133.5 126q8 12 20.5 31.5t18.5 27.5t15.5 15t19.5 8q18 0 45.5 -18t31.5 -35q1 -3 1 -8q0 -23 -27 -72q-67 -114 -188 -183t-300 -69q-125 0 -240 50t-202.5 138t-139.5 218.5t-52 281.5z" />
<glyph unicode="D" horiz-adv-x="1325" d="M31 0v96q133 28 133 99v895q0 69 -133 96v86h465q175 0 307 -34t230.5 -108t149 -197.5t50.5 -295.5q0 -154 -44 -272t-115 -187.5t-168.5 -111.5t-195.5 -55q-67 -9 -137 -9q-33 0 -67 2q-123 8 -231 8q-133 0 -244 -12zM389 201q0 -73 66 -78l110 -6q19 -1 37 -1 q188 0 280 122q101 134 101 399q0 257 -111.5 394.5t-328.5 137.5h-154v-968z" />
<glyph unicode="E" d="M72 0v86q63 13 90.5 32.5t27.5 61.5v914q0 43 -27 62t-91 34v82h932q21 0 27.5 -7t6.5 -30v-219h-86l-30 67q-20 42 -58 58t-106 16h-336v-452h350q44 0 62 19t39 71l1.5 3t1 3t1.5 4h51v-313h-51q-2 4 -8.5 19.5t-8 19t-7.5 15.5t-9 15t-9 11t-11.5 10t-13.5 6t-17.5 5 t-20.5 1h-350v-481l436 4q58 0 82 13t55 52l54 68h102q-33 -65 -66 -203q-6 -22 -23 -34.5t-38 -12.5h-952z" />
<glyph unicode="F" horiz-adv-x="1130" d="M51 0v78q64 15 91.5 34.5t27.5 61.5v920q0 43 -27 62t-92 34v82h893q72 0 86 -74l39 -182h-86l-33 67q-20 42 -58 58t-106 16h-385v-452h349q23 0 38.5 4.5t27 19t16.5 25t17 39.5q3 8 5 12h51v-313h-51q-2 4 -9.5 21.5t-9 21.5t-8 16.5t-10 15.5t-11.5 11t-15 9.5 t-17.5 4t-23.5 2.5h-349v-420q0 -41 28 -61t91 -35v-78h-469z" />
<glyph unicode="G" horiz-adv-x="1394" d="M51 655q0 140 46 261t125.5 206.5t189.5 134t235 48.5q128 0 224.5 -49.5t150.5 -135.5q28 0 41 42.5t18 123.5h101l28 -409l-127 -41q-5 12 -18 43.5t-21 50.5q-53 127 -161.5 194.5t-235.5 67.5q-158 0 -251 -123.5t-93 -376.5q0 -280 101 -436t264 -156q119 0 218 52 t99 114v170q0 31 -17 48.5t-48 17.5h-93v102l496 2v-104h-63q-31 0 -48.5 -17.5t-17.5 -48.5v-426q0 -20 -35 -24.5t-39 14.5l-49 160q-87 -84 -182 -132t-221 -48q-175 0 -314.5 82t-221 236.5t-81.5 356.5z" />
<glyph unicode="H" horiz-adv-x="1437" d="M66 0v78q63 15 90.5 35t27.5 61v920q0 43 -27 62t-91 34v82h469v-82q-64 -15 -91.5 -34t-27.5 -62v-394h602v394q0 43 -27.5 62t-91.5 34v82h469v-82q-64 -15 -91.5 -34t-27.5 -62v-920q0 -41 28 -61t91 -35v-78h-469v78q63 15 91 35t28 61v414h-602v-414q0 -41 28 -61 t91 -35v-78h-469z" />
<glyph unicode="I" horiz-adv-x="636" d="M82 0v78q65 15 94 35t29 61v920q0 42 -28.5 61.5t-94.5 34.5v82h469v-82q-65 -15 -93 -34.5t-28 -61.5v-920q0 -41 28.5 -61t92.5 -35v-78h-469z" />
<glyph unicode="J" horiz-adv-x="763" d="M-10 -154q0 121 116 121q95 0 95 -104q0 -45 16 -77t51 -32q66 0 66 111v1229q0 42 -28 61.5t-93 34.5v82h469v-82q-66 -15 -94.5 -34.5t-28.5 -61.5v-1117q0 -171 -78 -245t-231 -74q-117 0 -188.5 55.5t-71.5 132.5z" />
<glyph unicode="K" horiz-adv-x="1378" d="M41 0v78q65 15 94 35t29 61v920q0 42 -28.5 61.5t-94.5 34.5v82h469v-82q-65 -15 -93 -34.5t-28 -61.5v-400h35q55 0 98 43l375 398q9 9 11.5 17t-2 14t-11 10t-18 7t-21 5t-22.5 4v80h376v-80q-125 -14 -166 -55l-417 -439l426 -460q45 -48 80.5 -79t69 -47.5t51 -22 t53.5 -13.5v-76h-516v76q68 18 78 27q15 11 -3 30l-411 438h-66v-397q0 -41 28.5 -61t92.5 -35v-78h-469z" />
<glyph unicode="L" horiz-adv-x="1181" d="M35 0v78q64 15 93.5 35t29.5 61v920q0 42 -29 61.5t-94 34.5v82h469v-82q-65 -15 -93 -34.5t-28 -61.5v-899q0 -39 23 -64q21 -22 51 -22h8l344 16q77 4 110 14t54 49l35 66h102l-49 -207q-6 -22 -23.5 -34.5t-38.5 -12.5h-964z" />
<glyph unicode="M" horiz-adv-x="1755" d="M61 0v78q65 15 93 35t28 63v907q0 84 -121 109v80h338l500 -901l453 901h321v-80q-59 -12 -86.5 -38t-27.5 -71v-907q0 -43 25.5 -63.5t88.5 -34.5v-78h-459v78q62 15 90.5 35.5t28.5 62.5v811l-430 -874q-20 -40 -53.5 -40t-56.5 40l-482 843v-780q0 -43 28.5 -63 t92.5 -35v-78h-371z" />
<glyph unicode="N" horiz-adv-x="1386" d="M51 0v80q125 28 125 96v922q0 68 -125 96v78h326l692 -875v701q0 69 -125 96v78h391v-78q-125 -27 -125 -96v-1098q0 -15 -34 -15t-46 15l-831 995v-819q0 -68 123 -96v-80h-371z" />
<glyph unicode="O" horiz-adv-x="1382" d="M61 647q0 190 83.5 341t227 234t320.5 83q130 0 246.5 -50t200.5 -136.5t133 -209t49 -262.5q0 -190 -83.5 -346t-227.5 -244t-318 -88q-132 0 -248.5 49.5t-201 137.5t-133 215.5t-48.5 275.5zM313 709q0 -134 33.5 -250t88 -193.5t123.5 -121.5t140 -44 q67 0 118.5 11.5t101 43.5t81.5 85.5t51 140.5t19 205q0 270 -112.5 438t-264.5 168q-70 0 -126 -14t-104.5 -48t-80.5 -88.5t-50 -138.5t-18 -194z" />
<glyph unicode="P" horiz-adv-x="1206" d="M51 0v78q65 15 94 35t29 61v920q0 42 -28.5 61.5t-94.5 34.5v82h588q236 0 376 -104.5t140 -286.5t-146.5 -290t-396.5 -108h-213v-309q0 -41 28.5 -61t92.5 -35v-78h-469zM399 582h242q274 0 274 299q0 141 -59.5 220t-187.5 79h-269v-598z" />
<glyph unicode="Q" horiz-adv-x="1433" d="M61 633q0 142 49 265t133 209t200.5 134.5t248.5 48.5q174 0 318 -84.5t227.5 -235.5t83.5 -337q0 -267 -158 -456.5t-397 -217.5l172 -135q58 -43 103 -43q2 0 3 1q47 1 75.5 32t29.5 75q3 109 102 109q49 -1 76 -30q25 -26 25 -68v-6q-1 -99 -86 -170q-83 -68 -193 -68 h-6q-137 7 -279 108l-274 197q-54 38 -103 41h-10q-42 0 -67 -22q-29 -24 -31 -64q0 -42 -29.5 -70t-70.5 -28q-40 1 -68.5 33t-28.5 75q1 64 45 116t113 79q-96 91 -149.5 222.5t-53.5 289.5zM313 694q0 -134 33.5 -250t88 -193t123.5 -121t140 -44q67 0 118.5 11.5 t101 43.5t81.5 85t51 140t19 205q0 270 -112.5 438.5t-264.5 168.5q-89 0 -155 -23.5t-118 -77.5t-79 -150t-27 -233z" />
<glyph unicode="R" horiz-adv-x="1370" d="M72 0v78q64 15 91 34.5t27 61.5v911q0 43 -29 69t-89 40v78h602q216 0 344.5 -97t128.5 -251q0 -123 -91.5 -212.5t-267.5 -113.5q125 -18 191.5 -81t101.5 -173q16 -51 32 -90t39 -78t53.5 -61.5t66.5 -26.5h47v-88h-240q-86 35 -153 111t-111 219q-40 131 -96 182 t-164 51h-139v-389q0 -41 29 -61t92 -35v-78h-465zM416 668h260q65 0 111.5 21.5t72 59t36.5 80.5t11 95t-12.5 97t-37 81.5t-67 57t-98.5 20.5h-276v-512z" />
<glyph unicode="S" horiz-adv-x="1150" d="M72 360l84 29q23 9 38 2.5t27 -29.5q5 -10 21 -38.5t24 -44.5q93 -187 332 -187q57 0 104 10.5t86 33.5q38 22 58 64q15 32 15 73q0 13 -1 26q-4 41 -23.5 74t-46.5 54.5t-68 40.5t-79 31.5t-87 27.5q-6 2 -9.5 3t-9 2.5t-9.5 2.5q-42 13 -69.5 22.5t-72 28t-75 37 t-67.5 47.5t-60.5 61t-43 76t-25.5 94q-3 23 -3 46q0 53 18 105q26 74 82 130.5t146.5 90.5t200.5 34q90 0 163 -20t112 -44.5t86 -50t86 -33.5l26 -260l-88 -14q-41 -6 -49 24l-23 82q-22 85 -114 146t-199 61q-117 0 -185 -70q-59 -60 -58 -138q0 -13 1 -25 q4 -30 15.5 -54.5t35 -44.5t43 -33.5t58.5 -28.5t62 -23t71 -23q9 -3 43 -13t54 -16t58 -19.5t63 -25t60.5 -30.5t60 -38t52.5 -45.5t45.5 -55t31 -64.5t17.5 -76q2 -21 2 -41q0 -58 -19 -108q-26 -68 -75.5 -115t-116 -79.5t-137.5 -47.5t-141 -15q-74 0 -142.5 17 t-104.5 34q-37 17 -87 26q-18 3 -34 3q-29 0 -54 -10z" />
<glyph unicode="T" d="M51 1026l17 197q1 23 14 36t33 13h993q20 0 33 -13t14 -36l16 -197h-67l-31 68q-32 65 -96 65h-252v-985q0 -41 29 -61t94 -35v-78h-471v78q64 15 92.5 35t28.5 61v985h-252q-64 0 -96 -65l-31 -68h-68z" />
<glyph unicode="U" horiz-adv-x="1345" d="M41 1190v82h414v-82q-47 -7 -71 -20.5t-24 -45.5v-530q0 -250 85 -371t237 -121q77 0 138.5 22.5t112 71.5t78 135.5t27.5 205.5v587q0 32 -23.5 45.5t-72.5 20.5v82h322v-82q-46 -7 -69.5 -20.5t-23.5 -45.5v-604q0 -248 -132 -394t-357 -146q-263 0 -407 146t-144 402 v596q0 32 -22.5 45.5t-67.5 20.5z" />
<glyph unicode="V" horiz-adv-x="1411" d="M20 1186v86h480v-86q-69 -6 -95 -19t-14 -39l369 -833l354 813q4 10 4 19q0 47 -119 59v86h371v-86q-61 -6 -86.5 -27.5t-52.5 -83.5l-477 -1085h-52q-45 0 -65 49l-440 985q-43 97 -76 126.5t-101 35.5z" />
<glyph unicode="W" horiz-adv-x="1970" d="M31 1186v86h458v-86q-56 -8 -77.5 -21.5t-12.5 -38.5l310 -819l223 670l-19 45q-38 98 -72 127t-104 37v86h459v-86q-52 -7 -74 -23t-16 -37l311 -819l273 799q11 34 -21.5 53t-97.5 27v86h368v-86q-62 -7 -89.5 -29.5t-49.5 -83.5l-383 -1083h-51q-46 0 -66 49l-307 780 l-282 -829h-52q-45 0 -65 49l-387 983q-38 98 -72 127t-104 37z" />
<glyph unicode="X" horiz-adv-x="1406" d="M43 0v88q61 6 96 31.5t82 87.5l340 438l-305 375q-9 11 -30 37.5t-27.5 34t-22.5 26.5t-23.5 24t-21.5 16.5t-25.5 15t-26.5 8t-32 6.5v84h471v-84q-48 -8 -74 -25.5t-10 -38.5l299 -366l264 346q22 30 -10 53t-96 31v84h387v-84q-61 -7 -99.5 -34.5t-80.5 -82.5 l-299 -393l340 -420q10 -13 35 -44t31.5 -39.5t24.5 -28.5t27 -25t25 -15t31 -13t35 -5v-88h-469v88q50 7 76.5 24.5t7.5 41.5l-334 407l-295 -387q-26 -33 0 -56.5t88 -29.5v-88h-379z" />
<glyph unicode="Y" horiz-adv-x="1304" d="M31 1186v86h454v-86q-47 -8 -70 -26t-5 -42l301 -418l286 398q12 16 12 30q0 16 -15 28q-30 22 -95 30v86h375v-86q-60 -7 -94 -33t-78 -88l-340 -463v-442q0 -17 11.5 -29t36.5 -19.5t45 -11t56 -8.5v-92h-505v92q36 5 56 8.5t45.5 11t37.5 19.5t12 29v387l-336 467 q-11 15 -31 45t-27 39.5t-22 28.5t-23.5 25t-23 15.5t-29.5 13t-34 5.5z" />
<glyph unicode="Z" horiz-adv-x="1269" d="M51 1020l53 252h1061l-809 -1163l617 10q26 0 39 15t26 48l31 78h119l-66 -260h-995q-41 0 -53 33q-4 10 -3 21q0 23 17 46l743 1063l-585 -8q-25 0 -36.5 -16.5t-19.5 -46.5l-20 -72h-119z" />
<glyph unicode="[" horiz-adv-x="569" d="M92 -317v1849l426 22v-43q0 -25 -43 -32l-199 -39v-1665l199 -39q43 -7 43 -33v-43z" />
<glyph unicode="\" horiz-adv-x="882" d="M92 1313h152l547 -1313h-152z" />
<glyph unicode="]" horiz-adv-x="569" d="M51 -297q0 26 43 33l199 39v1665l-199 39q-43 7 -43 32v43l426 -22v-1849l-426 -23v43z" />
<glyph unicode="^" horiz-adv-x="763" d="M43.5 942q-8.5 18 3.5 35l307 412q13 16 29.5 15t26.5 -15l307 -412q12 -17 3.5 -35t-30.5 -18h-33q-6 0 -11.5 2t-9.5 3.5t-9.5 6.5t-7.5 7l-8 8l-7 7l-221 234l-223 -234q-29 -34 -54 -34h-32q-22 0 -30.5 18z" />
<glyph unicode="_" d="M61 -41h1049v-123h-1049v123z" />
<glyph unicode="`" horiz-adv-x="610" d="M107 1331q12 -39 57 -65l280 -158q37 -22 56 6q22 27 -13 62l-219 229q-35 38 -72 41.5t-69 -33.5q-32 -43 -20 -82z" />
<glyph unicode="a" horiz-adv-x="1001" d="M45 240q0 53 15 93.5t54 79t106 68.5t171.5 57t249.5 48v35q0 117 -38.5 173t-125.5 56q-88 0 -126 -32.5t-38 -125.5q0 -30 -35.5 -47.5t-82.5 -17.5q-43 0 -70 27.5t-29 68.5q0 103 114 161t275 58q172 0 266.5 -86t94.5 -268v-395q0 -51 27 -67q17 -11 49 -10 q17 0 39 3v-84q-112 -47 -181 -47q-50 0 -86 51t-45 149q-18 -40 -41.5 -74t-57.5 -65.5t-81.5 -49.5t-103.5 -19h-7q-128 0 -220 67q-94 69 -93 193zM264 250q0 -61 40.5 -102.5t105.5 -41.5q40 0 74.5 15t57 35t44 52.5t31.5 53t24 51.5v181q-100 -17 -172.5 -40.5 t-111 -46.5t-60.5 -52.5t-27.5 -52t-5.5 -52.5z" />
<glyph unicode="b" horiz-adv-x="1120" d="M31 1223v82l268 41q8 1 14 1q35 0 35 -40v-320q0 -130 -33 -254l35 45q24 30 46 52.5t59 51t84 44.5t100 16q177 0 288 -127t111 -350q0 -111 -34.5 -204t-92 -152.5t-129.5 -92t-149 -32.5q-60 0 -114 19t-90 49t-60 61.5t-35 60.5l-72 -149q-14 -29 -43 -36t-52.5 6 t-23.5 36v1124q0 36 -12.5 52t-42.5 16h-57zM350 299q32 -89 100 -146t166 -57q95 0 151 87t56 255q0 154 -54.5 257.5t-150.5 103.5t-156 -31t-112 -94v-375z" />
<glyph unicode="c" horiz-adv-x="970" d="M51 459q0 112 37.5 205t100.5 153t143.5 92.5t167.5 32.5q171 0 272.5 -77.5t101.5 -178.5q0 -40 -25 -66t-75 -26q-51 0 -78.5 22.5t-27.5 57.5q0 36 -1 53t-8 42t-21.5 36t-43 20t-70.5 9q-137 0 -195.5 -78t-58.5 -258q0 -165 80 -280q79 -114 209 -114h2q26 0 47 2 t39.5 10t29 11.5t27 18.5t21 18.5t22.5 23.5t21 23q10 10 16.5 14.5t17.5 4.5t23 -11l47 -43q-17 -32 -44.5 -62.5t-72 -61.5t-113 -49.5t-150.5 -18.5q-85 0 -164.5 34.5t-141 95t-98.5 151t-37 194.5z" />
<glyph unicode="d" horiz-adv-x="1118" d="M72 440q0 207 115.5 352.5t273.5 145.5q58 0 104.5 -11.5t82.5 -36t54 -41.5t46 -48v334q0 50 -27 71q-25 19 -76 19h-10v80l258 38q11 4 20 1t15.5 -3.5t11 -8t7.5 -11.5t4.5 -15t2.5 -18.5t0.5 -21t-0.5 -23t-1 -25t-1 -26.5v-1002q0 -52 26 -67q17 -9 47 -9q18 0 42 3 v-68l-166 -49q-10 -3 -20 -3q-39 0 -75 39q-46 49 -58 152q-12 -31 -29.5 -59.5t-49 -64.5t-82 -58t-112.5 -22q-76 0 -148 32.5t-129 89.5t-91.5 144.5t-34.5 189.5zM287 467q0 -138 64.5 -242t164.5 -104q47 0 86 15.5t67 44t45 54.5t34 60v399q-109 133 -240 133 q-100 0 -160.5 -104t-60.5 -256z" />
<glyph unicode="e" horiz-adv-x="985" d="M61 467q0 109 37 200t99 149t142 90t167 32q168 0 293 -109.5t125 -271.5q0 -59 -29.5 -92t-85.5 -33h-526q0 -144 77.5 -238t200.5 -94q88 0 147 36.5t107 94.5l72 -77q-24 -32 -49.5 -57t-68 -54.5t-104 -46t-135.5 -16.5q-198 0 -333.5 138t-135.5 349zM283 541h432 v10q0 131 -51 204q-53 76 -158 76q-106 0 -164.5 -77t-58.5 -213z" />
<glyph unicode="f" horiz-adv-x="819" d="M63 838v98h115v53q0 180 89.5 278.5t242.5 98.5q234 0 326 -141q18 -23 18 -52q0 -8 -2 -17q-7 -40 -43 -60q-26 -12 -48 -12q-12 0 -23 3q-33 10 -48 39q-17 34 -27 52t-29.5 43t-43.5 36t-55 11q-154 0 -154 -256v-76h299q-30 -85 -40 -102t-38 -17h-221v-684 q0 -36 19.5 -46.5t86.5 -10.5v-76h-403v76q58 0 76 11t18 46v684h-94q-9 0 -15 6t-6 15z" />
<glyph unicode="g" horiz-adv-x="1112" d="M57 -195q0 100 62.5 164t154.5 88q-142 25 -200 118q-27 43 -27 85q0 28 13 57q32 71 125 85q19 3 40 3q17 0 35 -2q-62 42 -97.5 103t-35.5 131q0 132 95 216.5t280 84.5q116 0 202 -41t103 -106q8 66 47.5 106.5t112.5 40.5q34 0 64 -26t30 -64q0 -46 -29 -72 q-21 -18 -44 -18q-11 0 -23 4q-41 11 -57 -14q-15 -24 -15 -107v-10q0 -127 -101 -216t-280 -89q-70 0 -141 22q-18 2 -34 2q-63 0 -86 -32q-9 -12 -9 -25q0 -21 23 -43q39 -38 122 -51l205 -33q220 -34 311.5 -92.5t91.5 -190.5q0 -152 -139 -243t-360 -91q-207 0 -323 69 t-116 187zM266 -166q0 -89 58 -138.5t172 -49.5q175 0 241 42.5t66 166.5q0 68 -37.5 97.5t-130.5 45.5l-273 43q-49 -21 -72.5 -83.5t-23.5 -123.5zM330 639q0 -32 2 -55.5t12.5 -55t28 -52t52.5 -35.5t83 -15q47 0 81.5 13.5t53.5 33.5t30 50t14 56.5t3 59.5 q0 27 -0.5 40.5t-4 38t-10 38t-20 31t-32.5 27t-49 16t-68 6.5q-45 0 -78 -12.5t-51.5 -30.5t-29.5 -46t-14 -52.5t-3 -55.5z" />
<glyph unicode="h" horiz-adv-x="1179" d="M35 1217v88l266 36q24 4 38 -2t18 -28.5t4 -37.5t-3 -54q-1 -19 -2 -29v-412l-8 -61q18 31 45 63.5t71.5 72.5t108.5 65.5t134 25.5q74 0 129 -17t98.5 -56.5t65.5 -110.5t22 -174v-387q0 -59 26 -85q15 -15 47 -15q21 0 50 7l-27 -88q-51 -18 -137 -18q-80 0 -125 42 t-45 105v420q0 121 -31 180.5t-118 59.5q-49 0 -98 -19.5t-89.5 -51t-64.5 -54.5t-45 -47v-500q0 -34 23.5 -45.5t78.5 -11.5v-78h-408v78q52 0 74.5 11.5t22.5 45.5v1002q0 82 -89 82q-15 0 -32 -2z" />
<glyph unicode="i" horiz-adv-x="548" d="M78 819v92l235 19h10q56 0 56 -64v-731q0 -33 22 -45t66 -12v-78h-381v78q45 0 67.5 12t22.5 45v621q0 35 -13 49t-44 14h-41zM137 1247q0 51 37 87t88 36t88 -36t37 -87q0 -53 -36.5 -90t-88.5 -37t-88.5 37t-36.5 90z" />
<glyph unicode="j" horiz-adv-x="526" d="M-101 -242q10 45 48 64q27 12 50 12q14 0 26 -4q32 -12 49 -43q7 -14 19.5 -54t24 -60.5t27.5 -14.5q50 21 50 102v996q0 35 -13.5 49t-44.5 14h-41v92l236 19h10q55 0 55 -64v-1018q0 -191 -164 -260q-67 -26 -127 -26q-37 0 -72 10q-91 25 -124 100q-12 26 -12 55 q0 15 3 31zM154 1247q0 51 37 87t88 36t87.5 -36t36.5 -87q0 -54 -36.5 -90.5t-87.5 -36.5t-88 37t-37 90z" />
<glyph unicode="k" horiz-adv-x="1120" d="M41 1251v84l268 31q6 1 11 1q38 0 38 -40v-792l322 253q29 23 11 41q-17 15 -68 15v80h362v-80q-50 0 -78.5 -10t-56.5 -31l-322 -250l416 -426q32 -32 52 -41.5t63 -9.5v-76h-391v76q65 0 65 23q0 8 -8 16l-367 358v-340q0 -57 66 -57v-76h-344v76q74 0 74 57v1051 q0 36 -13.5 51.5t-44.5 15.5h-55z" />
<glyph unicode="l" horiz-adv-x="528" d="M31 1225v80l264 38q11 4 20 1t15.5 -3.5t11 -7.5t7 -12t4.5 -15.5t2.5 -18t0.5 -21t-0.5 -23.5t-1 -25t-0.5 -26v-987q0 -58 28 -81q15 -12 44 -12q25 0 61 9l-32 -96q-84 -41 -146 -41q-74 0 -115.5 47.5t-41.5 120.5v993q0 82 -89 82q-15 0 -32 -2z" />
<glyph unicode="m" horiz-adv-x="1730" d="M51 813v92l268 35q26 4 40 -6t16.5 -32t0.5 -48.5t-8 -63.5q-1 -1 -1 -2v-2l-9 -79q53 93 83 129q90 106 214 106q125 0 205 -53t101 -160q15 30 26.5 49.5t38.5 54t55 55.5t72.5 37.5t95.5 16.5q147 0 232.5 -87t85.5 -267v-453q0 -34 23.5 -45.5t78.5 -11.5v-78h-401 v78q52 0 74 11.5t22 45.5v440q0 230 -143 230q-47 0 -89 -18.5t-72.5 -49.5t-51.5 -62.5t-37 -66.5v-473q0 -34 23 -45.5t77 -11.5v-78h-397v78q52 0 74 11.5t22 45.5v440q0 115 -31 172.5t-110 57.5q-49 0 -90.5 -17.5t-73 -50.5t-50.5 -61.5t-40 -67.5v-473 q0 -34 23.5 -45.5t78.5 -11.5v-78h-401v78q52 0 74 11.5t22 45.5v598q0 82 -89 82q-15 0 -32 -2z" />
<glyph unicode="n" horiz-adv-x="1181" d="M51 813v92l264 35q6 1 12 1q37 0 45 -34q4 -16 5 -37q0 -28 -8 -63q0 -4 -0.5 -6.5t-1 -6t-0.5 -6.5l-9 -71q15 26 31 48.5t48.5 57.5t68 59.5t88 43t108.5 18.5q75 0 130 -16.5t98 -56t65 -110.5t23 -175v-387q0 -57 26 -81q15 -14 45 -14q22 0 52 7l-27 -91 q-56 -20 -135 -20t-123.5 42t-44.5 105v420q0 121 -32.5 180.5t-121.5 59.5q-39 0 -80 -15t-67 -31t-59.5 -47.5t-43.5 -42t-32 -36.5v-500q0 -34 23.5 -45.5t78.5 -11.5v-78h-401v78q52 0 74 11.5t22 45.5v598q0 82 -89 82q-15 0 -32 -2z" />
<glyph unicode="o" horiz-adv-x="1038" d="M61 455q0 112 39 205t103.5 153t145.5 92.5t169 32.5q120 0 223.5 -54.5t169.5 -163t66 -249.5q0 -110 -38.5 -204t-102.5 -156t-145.5 -96.5t-168.5 -34.5q-88 0 -171.5 34.5t-147.5 95t-103 151t-39 194.5zM279 518q0 -188 74.5 -303t187.5 -115q221 0 221 310 q0 192 -74.5 305.5t-189.5 113.5q-219 0 -219 -311z" />
<glyph unicode="p" horiz-adv-x="1099" d="M41 823v84l270 35q5 1 10 1q43 0 51 -46q2 -13 2 -28q0 -40 -18 -89q22 24 35 37.5t45.5 40t61.5 42t72.5 28t88.5 12.5q169 0 275 -126t106 -349q0 -111 -33.5 -203.5t-89.5 -151t-126 -90.5t-146 -32q-98 0 -170 45.5t-108 107.5v-391q0 -34 23.5 -45.5t78.5 -11.5v-70 h-403v70q52 0 74 11.5t22 45.5v993q0 82 -89 82q-15 0 -32 -2zM367 299q32 -88 98 -144.5t160 -56.5q95 0 148.5 85.5t53.5 254.5q0 155 -52.5 258t-147.5 103q-91 0 -148.5 -30.5t-111.5 -84.5v-385z" />
<glyph unicode="q" horiz-adv-x="1140" d="M51 487q0 210 103 334.5t264 124.5q166 0 304 -171q2 -2 4 -5l5 -6l100 145q18 28 43.5 34.5t43.5 -7.5t18 -39v-1028q0 -9 -0.5 -22t-0.5 -20v-16t2.5 -13t6 -7t10.5 -3t17 3l129 37v-92l-307 -170q-23 -12 -41.5 -4t-18.5 28v363q0 193 35 348l-33 -106 q-9 -28 -22 -53.5t-37 -54.5t-54.5 -50t-78 -35t-103.5 -14q-176 0 -282.5 132t-106.5 367zM268 502q0 -171 61 -268t169 -97q95 0 147.5 45t85.5 123v350q-1 2 -18 23t-22.5 27t-24 25t-29 27t-31 22t-38 20t-41 11t-48.5 5q-103 0 -157 -78.5t-54 -234.5z" />
<glyph unicode="r" horiz-adv-x="874" d="M51 811v92l264 33q33 4 47 -13t12.5 -49t-5.5 -75q-1 -3 -1 -5t-0.5 -5t-0.5 -5l-19 -172l21 82q27 118 110 179t193 61q86 0 129 -36q22 -19 22 -42q0 -22 -20 -47l-53 -64q-20 -26 -39.5 -28.5t-35.5 10t-46.5 26t-63.5 13.5q-43 0 -78.5 -26t-57.5 -66.5t-35 -78 t-19 -73.5v-389q0 -34 25 -45.5t85 -11.5v-76h-415v76q56 0 80 11.5t24 45.5v598q0 82 -90 82q-15 0 -33 -2z" />
<glyph unicode="s" horiz-adv-x="919" d="M74 127q-22 68 -22 111q0 68 54 77q27 5 48 5q30 0 44 -10q26 -16 29 -48q13 -95 68 -137.5t160 -42.5q101 0 152.5 41t51.5 102q0 87 -235 160q-340 105 -340 299q0 115 94 185.5t275 70.5q69 0 137 -17.5t113 -42t73.5 -49t30.5 -40.5q3 -29 3 -52q0 -33 -5 -55 q-8 -40 -23 -52.5t-39 -13.5q-11 -1 -21 -1q-44 0 -64 14q-26 17 -19 51q2 12 2 24q0 52 -41 90q-50 46 -147 46q-86 0 -132.5 -37t-46.5 -90q0 -17 6 -32t14 -26t24.5 -22t28.5 -18t36 -16t36 -13t40.5 -13t38.5 -12q142 -44 200 -76q160 -85 160 -233q0 -126 -113.5 -200 t-289.5 -74q-97 0 -187 28.5t-138 61.5t-56 57z" />
<glyph unicode="t" horiz-adv-x="673" d="M47 813v98q42 0 78 18t65.5 55t48 68t44.5 83q15 29 44 25t29 -32v-202h219v-68q0 -45 -43 -45h-176v-559q0 -70 21 -114t65 -44q63 0 125 45q16 11 36 -5t25 -38.5t-10 -38.5q-97 -73 -223 -73q-245 0 -245 301v526h-103z" />
<glyph unicode="u" horiz-adv-x="1150" d="M51 827v74l240 37q23 2 37 -9.5t14 -33.5v-549q0 -127 47.5 -179t147.5 -52q97 0 153 60.5t92 172.5v414q0 36 -12 50.5t-43 14.5h-31v74l238 37q24 4 37.5 -7.5t13.5 -35.5v-702q0 -51 27 -67q17 -11 49 -10q17 0 39 3v-84l-148 -43q-17 -5 -33 -5q-43 1 -77 39 q-47 54 -60 185v4q-10 -28 -23 -54.5t-38.5 -60t-57 -58t-79 -41.5t-103.5 -17q-156 0 -249 89.5t-93 258.5v430q0 35 -13 50t-44 15h-31z" />
<glyph unicode="v" horiz-adv-x="1091" d="M20 858v66h418v-66l-41 -16q-26 -10 -34 -20.5t-3 -42t31 -97.5l201 -487l162 481q22 66 25 100t-6 45.5t-36 20.5l-45 16v66h379v-66l-47 -16q-16 -5 -27.5 -11.5t-31 -23t-39.5 -49t-39 -80.5l-279 -678h-71q-57 0 -78 59l-277 623q-37 83 -63.5 116.5t-55.5 43.5z" />
<glyph unicode="w" horiz-adv-x="1628" d="M31 856v68q104 -3 209 -3l209 3v-68l-46 -16q-26 -9 -34 -19t-3.5 -41.5t27.5 -97.5l176 -469l174 496q-29 69 -49 95t-45 36l-57 16v68q108 -3 216 -3t216 3v-68l-57 -16q-27 -8 -36.5 -18t-5.5 -42.5t29 -97.5l185 -469l151 463q22 66 25.5 99t-6 44.5t-35.5 20.5 l-45 16v68q94 -3 189 -3t190 3v-68l-47 -16q-17 -5 -28 -11t-31 -22t-40 -48.5t-39 -80.5l-270 -678h-74q-52 0 -73 55l-197 490l-225 -545h-74q-55 0 -76 55l-239 627q-32 81 -60.5 113.5t-60.5 44.5z" />
<glyph unicode="x" horiz-adv-x="1165" d="M51 0v90l60 6q26 3 47 16.5t55 51.5l266 295l-256 299q-39 45 -63.5 59t-63.5 23l-43 10v74q115 -3 230 -3t231 3v-74l-57 -8q-27 -4 -27 -21q0 -15 21 -41l155 -188l162 176q26 27 26 45q0 21 -38 29l-47 8v74q94 -3 187 -3l187 3v-74l-49 -10q-37 -7 -72.5 -29 t-87.5 -80l-198 -221l289 -350q29 -36 48.5 -48t41.5 -16l59 -6v-90h-463v90l60 4q17 2 27.5 4.5t17.5 9t3.5 17.5t-16.5 27l-194 227l-193 -217q-21 -28 -12 -46.5t39 -21.5l47 -4v-90h-379z" />
<glyph unicode="y" horiz-adv-x="1132" d="M23 858v66h423v-66l-51 -10q-50 -9 -50 -37q0 -9 5 -20l264 -562l228 562q8 22 -6.5 37t-40.5 20l-58 10v66h355v-66l-29 -12q-7 -3 -26 -10.5t-26.5 -11t-18 -12.5t-15.5 -21l-416 -963q-30 -69 -55 -112.5t-59 -82t-77 -56t-98 -17.5q-95 0 -153.5 31.5t-71.5 91.5 q-4 20 -4 38q0 38 18 63q26 38 93 38q37 0 57.5 -15t26 -37t9.5 -44t17 -37t39 -15q9 0 17 2.5t15.5 9t14 12.5t14 17t12.5 19t12 22.5t10.5 22t11 23.5t10.5 22l88 199l-381 768q-12 26 -26.5 36t-41.5 19z" />
<glyph unicode="z" horiz-adv-x="970" d="M41 709l37 223h809l-598 -819l448 10q11 0 19.5 3.5t14 12t8.5 14t7.5 19.5t6.5 18l12 37h84l-37 -227h-743q-41 0 -53 32q-4 11 -5 22q0 22 17 44l522 725l-400 -12q-17 -1 -30 -14t-17 -23.5t-12 -32.5l-12 -32h-78z" />
<glyph unicode="{" horiz-adv-x="567" d="M92 578v55q81 36 106 58t25 67v364q0 77 9 134.5t33 115.5t73.5 103t124.5 75l53 -55q-66 -34 -87 -120.5t-21 -252.5v-346q0 -66 -40.5 -105.5t-117.5 -62.5v-6q77 -23 117.5 -62.5t40.5 -105.5v-346q0 -166 21 -252.5t87 -120.5l-53 -55q-75 30 -124.5 75t-73.5 103 t-33 115.5t-9 134.5v365q0 45 -25 67t-106 58z" />
<glyph unicode="|" horiz-adv-x="518" d="M184 -440v2078h150v-2078h-150z" />
<glyph unicode="}" horiz-adv-x="567" d="M51 -285q66 34 86.5 120t20.5 253v346q0 66 40.5 105.5t118.5 62.5v6q-78 23 -118.5 62.5t-40.5 105.5v346q0 167 -20.5 253t-86.5 120l53 55q75 -30 124.5 -75t73.5 -103t33 -115.5t9 -134.5v-364q0 -45 25 -67t106 -58v-55q-81 -36 -106 -58t-25 -67v-365 q0 -77 -9 -134.5t-33 -115.5t-73.5 -103t-124.5 -75z" />
<glyph unicode="~" horiz-adv-x="1095" d="M143 422h84q23 0 39.5 15.5t26 34.5t28.5 34.5t46 15.5q32 0 72 -22t74.5 -48.5t87.5 -48.5t108 -22q79 0 150.5 63.5t92.5 165.5h-82q-18 0 -39 -22t-46.5 -44t-55.5 -22q-41 0 -81.5 19t-69.5 41.5t-77 41.5t-102 19q-91 0 -159.5 -60.5t-96.5 -160.5z" />
<glyph unicode="&#xa1;" horiz-adv-x="505" d="M123 -53q0 84 22 204.5t45.5 262.5t26.5 274h82q3 -132 26.5 -274t45.5 -262.5t22 -204.5q0 -73 -37 -112.5t-98 -39.5t-98 39.5t-37 112.5zM137 1026q0 52 37 89.5t88 37.5t88 -37.5t37 -89.5q0 -51 -37 -88t-88 -37t-88 37t-37 88z" />
<glyph unicode="&#xa2;" horiz-adv-x="995" d="M51 459q0 112 37.5 205t100.5 153t143.5 92.5t167.5 32.5q23 0 63 -4l33 125h109l-39 -145q98 -31 153 -95.5t55 -136.5q0 -40 -25 -66t-75 -26q-51 0 -78.5 22.5t-27.5 57.5q0 37 -1 55.5t-8.5 41t-23.5 36.5l-184 -678q52 -25 110 -25q26 0 47 2t39.5 10t29 11.5 t27 18.5t21 18.5t22.5 23.5t21 23q10 10 16.5 14.5t17.5 4.5t23 -11l47 -43q-17 -32 -44.5 -62.5t-72 -61.5t-113 -49.5t-150.5 -18.5q-44 0 -80 8l-31 -117h-109l41 150q-117 55 -189.5 169t-72.5 265zM270 498q0 -180 92 -295l170 631h-8q-137 0 -195.5 -78t-58.5 -258z " />
<glyph unicode="&#xa3;" horiz-adv-x="1175" d="M92 514v117h111q-43 73 -66.5 139.5t-23.5 147.5q0 160 131.5 273.5t361.5 113.5q211 0 338 -112t127 -286q0 -61 -30.5 -105t-92.5 -44q-82 0 -123 80q-3 19 12 60.5t15 72.5q0 96 -62 156.5t-192 60.5q-131 0 -199.5 -70.5t-68.5 -171.5q0 -55 15.5 -103.5t32.5 -76 t48 -70t45 -65.5h252v-117h-205q8 -31 8 -78q0 -91 -45 -172.5t-137 -134.5q39 1 132.5 1t155.5 2t135.5 8.5t119 24t59.5 44.5l23 43h108l-51 -205q-12 -47 -65 -47h-859v131q199 120 199 256q0 52 -33 127h-176z" />
<glyph unicode="&#xa4;" d="M143 70l133 131q-92 119 -92 266q0 145 88 260l-129 129l76 78l129 -129q115 88 260 88q143 0 264 -90l132 131l75 -78l-131 -131q88 -115 88 -258q0 -145 -92 -264l135 -133l-75 -76l-136 133q-115 -88 -260 -88q-139 0 -256 86l-133 -131zM303 467q0 -131 89 -226.5 t218 -95.5q128 0 220 96t92 226q0 129 -91.5 223t-220.5 94t-218 -93.5t-89 -223.5z" />
<glyph unicode="&#xa5;" horiz-adv-x="1300" d="M31 1186v86h454v-86q-47 -8 -70 -26t-5 -42l301 -418l286 398q26 35 -3.5 57.5t-94.5 30.5v86h375v-86q-60 -7 -94 -33t-78 -88l-275 -375h263v-115h-328v-108h328v-115h-328v-192q0 -17 11.5 -29t36.5 -19.5t45 -11t56 -8.5v-92h-505v92q36 5 56 8.5t45.5 11t37.5 19.5 t12 29v192h-307v115h307v80l-20 28h-287v115h205l-234 324q-11 15 -31 45t-27 39.5t-22 28.5t-23.5 25t-23 15.5t-29.5 13t-34 5.5z" />
<glyph unicode="&#xa6;" horiz-adv-x="518" d="M184 274h150v-714h-150v714zM184 924v714h150v-714h-150z" />
<glyph unicode="&#xa7;" horiz-adv-x="1062" d="M66 215l59 21q54 21 65 -27q11 -20 37 -109q64 -202 310 -202q47 0 82.5 3.5t73.5 15.5t60.5 32.5t33.5 56.5t4 86q-5 38 -24 67.5t-42.5 47t-63.5 32.5t-68 22t-75 17q-22 5 -33 7t-42 8.5t-47 10t-47 12t-50 15.5t-47 19.5t-45.5 25t-39 31.5t-34.5 40t-24.5 49 t-16.5 59q-20 134 74 242q-52 52 -66 137q-25 157 87 264t307 107q90 0 159.5 -14t102.5 -31t75.5 -41.5t69.5 -34.5l23 -258l-60 -15q-45 -13 -55 27q-3 19 -35 113q-24 81 -87 117t-193 36q-105 0 -166 -57t-49 -148q5 -33 19 -57t32 -36.5t46 -22t50.5 -13t57.5 -8.5 t57 -10q8 -2 47 -9.5t64 -13t69 -19t74 -27.5t68 -37t62 -50t43 -65t25 -82q14 -142 -71 -240q64 -64 75 -153q10 -87 -25 -158t-101.5 -114.5t-149.5 -67t-172 -23.5q-62 0 -114 6t-99 21.5t-68 23t-64.5 29.5t-45.5 23zM274 610q5 -25 15 -44.5t29 -33.5t34 -23.5t45 -18 t45 -12t51 -10.5t48 -9q4 -1 58 -12t98.5 -23t86.5 -29q7 45 2 90q-2 23 -9 43t-20 35.5t-25.5 28t-34 23t-37 17.5t-43 14.5t-42.5 11t-46 10.5t-44 10t-56 10.5t-75.5 15.5t-62.5 19q-25 -58 -17 -113z" />
<glyph unicode="&#xa8;" horiz-adv-x="964" d="M133 1272q0 54 39 93.5t94 39.5q54 0 92.5 -39.5t38.5 -93.5t-38.5 -93.5t-92.5 -39.5q-55 0 -94 39.5t-39 93.5zM565 1272q0 54 39.5 93.5t93.5 39.5t93.5 -39.5t39.5 -93.5t-39.5 -93.5t-93.5 -39.5t-93.5 39.5t-39.5 93.5z" />
<glyph unicode="&#xa9;" horiz-adv-x="1560" d="M100 492q0 152 52.5 282.5t143.5 220.5t217 141.5t269 51.5q192 0 346.5 -87.5t243 -247t88.5 -361.5q0 -152 -52 -282.5t-142 -221t-215 -142t-269 -51.5q-191 0 -346.5 87.5t-245.5 247.5t-90 362zM258 492q0 -174 60 -308.5t180 -213.5t284 -79q163 0 283.5 79 t181 214t60.5 308q0 130 -35.5 240t-101.5 190t-165.5 125t-222.5 45q-164 0 -284 -78.5t-180 -213t-60 -308.5zM457 477q0 92 28 167.5t75.5 125t109 76t129.5 26.5q135 0 211.5 -64.5t76.5 -150.5q0 -29 -19.5 -50t-57.5 -21q-37 0 -59.5 17.5t-22.5 47.5q0 75 -10 96 q-20 41 -99 41q-109 0 -155 -64t-46 -214q0 -131 65.5 -229.5t166.5 -98.5q44 0 75.5 13.5t44.5 27.5t36 45q13 18 29 21.5t26 -8.5l35 -35q-13 -26 -34 -51t-56 -51.5t-91 -43t-124 -16.5q-138 0 -236 110.5t-98 282.5z" />
<glyph unicode="&#xaa;" horiz-adv-x="733" d="M74 825q0 53 28.5 91.5t114 72.5t232.5 55v15q0 32 -4 57t-15.5 50.5t-35 38t-58.5 9.5q-29 -2 -62 -12q-14 -4 -17.5 -17t-3 -35.5t-3.5 -35.5q-6 -22 -33.5 -34t-58.5 -7q-31 4 -43.5 27.5t-3.5 58.5q12 44 70.5 77.5t129.5 39.5q129 12 203 -44.5t74 -170.5v-256 q0 -32 14 -36.5t57 15.5v-73l-98 -31q-35 -12 -64 16.5t-38 83.5q-25 -45 -72 -74t-111 -30q-83 -2 -142.5 36.5t-59.5 112.5zM111 457v96h510v-96h-510zM219 827q0 -37 22 -57t60 -20q30 0 54.5 10.5t43.5 32.5t27.5 34.5t22.5 38.5v121q-61 -10 -105.5 -25.5t-68 -30.5 t-37 -35t-16.5 -35t-3 -34z" />
<glyph unicode="&#xab;" horiz-adv-x="911" d="M92 469l357 332v-133l-142 -199l142 -199v-131zM483 469l357 332v-133l-142 -199l142 -199v-131z" />
<glyph unicode="&#xac;" horiz-adv-x="1173" d="M143 631v137h887v-475h-137v338h-750z" />
<glyph unicode="&#xad;" horiz-adv-x="778" d="M92 451v124h553v-124h-553z" />
<glyph unicode="&#xae;" horiz-adv-x="1560" d="M96 492q0 204 90.5 364.5t247 248t348.5 87.5q144 0 270 -51.5t217 -142t143 -222t52 -284.5t-52 -284t-143 -222t-217 -143t-270 -52t-270.5 52t-218 143t-144.5 222.5t-53 283.5zM254 492q0 -268 140.5 -436.5t387.5 -168.5q164 0 285 79t182.5 215t61.5 311 t-61.5 310.5t-182.5 214.5t-285 79q-165 0 -286 -79t-181.5 -214.5t-60.5 -310.5zM469 129v55q34 9 43.5 20t9.5 40v501q0 30 -11.5 43.5t-41.5 24.5v51h315q120 0 197.5 -59t77.5 -148q0 -155 -182 -178q64 -12 90.5 -47t40.5 -98q13 -53 47 -100.5t65 -47.5v-59h-90 q-57 0 -99.5 51.5t-66.5 143.5q-20 77 -47 103t-88 26h-53v-207q0 -26 11.5 -37.5t45.5 -22.5v-55h-264zM676 520h115q112 0 112 137q0 60 -26 98t-76 38h-125v-273z" />
<glyph unicode="&#xaf;" horiz-adv-x="899" d="M119 1233v61q0 35 41 35h579q41 0 41 -35v-61q0 -35 -41 -35h-579q-41 0 -41 35z" />
<glyph unicode="&#xb0;" horiz-adv-x="624" d="M82 1063q0 100 67.5 167.5t163.5 67.5t163 -67.5t67 -167.5t-67 -168t-163 -68t-163.5 68t-67.5 168zM199 1063q0 -63 30.5 -105.5t83.5 -42.5q52 0 82.5 42.5t30.5 105.5q0 64 -30.5 105.5t-82.5 41.5q-54 0 -84 -41.5t-30 -105.5z" />
<glyph unicode="&#xb1;" horiz-adv-x="1044" d="M143 -6v137h758v-137h-758zM143 653v138h312v309h137v-309h309v-138h-309v-313h-137v313h-312z" />
<glyph unicode="&#xb2;" horiz-adv-x="620" d="M92 793q10 50 31.5 91.5t52 72.5t56 50t59.5 40q46 28 70 54t24 62t-21.5 60t-54.5 24q-67 0 -78 -51q-5 -21 1.5 -44t3.5 -34q-13 -31 -44.5 -34.5t-57 14t-25.5 39.5q-2 75 50.5 125.5t149.5 50.5q93 0 142 -42.5t49 -113.5q0 -15 -2.5 -29t-10 -27t-12.5 -22.5 t-18 -21t-19 -17.5t-23.5 -17t-22 -14.5t-24.5 -15t-22 -12.5q-78 -45 -98 -65q-16 -16 -21 -35h183q32 0 43 16l18 27h57l-20 -103q-6 -28 -43 -28h-373z" />
<glyph unicode="&#xb3;" horiz-adv-x="651" d="M123 946q0 49 53 49q25 0 38.5 -9.5t16.5 -20t5.5 -30t5.5 -28.5q21 -61 92 -61q40 0 66.5 31t25.5 75q1 46 -20 66.5t-51.5 19t-67.5 -19.5l-27 55l49 23q80 28 80 90q0 65 -65 65q-47 0 -64.5 -40.5t-5.5 -82.5l-86 13q-25 9 -25 28q-2 63 47.5 104.5t135.5 41.5 q85 0 134.5 -40t49.5 -85q0 -60 -55 -88q41 -14 67.5 -49.5t26.5 -85.5q0 -77 -62 -130t-155 -53q-94 0 -151.5 48.5t-57.5 113.5z" />
<glyph unicode="&#xb4;" horiz-adv-x="616" d="M113 1114q21 -27 57 -6l279 158q45 26 56.5 65.5t-20.5 81.5q-32 37 -68 33.5t-73 -41.5l-219 -229q-33 -33 -12 -62z" />
<glyph unicode="&#xb6;" horiz-adv-x="1296" d="M41 881q0 119 67.5 209t182 136t258.5 46h655v-88q-47 -9 -69.5 -22.5t-22.5 -45.5v-1098q0 -36 19 -53t73 -24v-78h-760v78q74 7 97.5 23.5t23.5 53.5v474h-35q-220 0 -354.5 105t-134.5 284zM272 881q0 -291 230 -291h63v581h-45q-72 0 -122 -22t-77 -63.5t-38 -91 t-11 -113.5zM764 18q0 -36 16.5 -51.5t57.5 -15.5t57 15.5t16 51.5v1096q0 35 -10.5 46t-36.5 11h-100v-1153z" />
<glyph unicode="&#xb7;" horiz-adv-x="454" d="M102 602q0 52 37 89.5t88 37.5t88 -37.5t37 -89.5t-37 -89.5t-88 -37.5t-88 37.5t-37 89.5z" />
<glyph unicode="&#xb8;" horiz-adv-x="524" d="M20 -309q-4 25 8.5 46t34 31t49.5 5t50 -29q11 -60 25 -79q19 -28 59 -30q99 -6 114 95q8 48 -20 76t-82 22q-17 -2 -42.5 -6.5t-31.5 -5.5q-32 -6 -46 16.5t1 44.5q41 74 60 123h135l-45 -94q89 14 158 -42.5t55 -148.5q-14 -85 -90.5 -127t-173.5 -37q-93 4 -150.5 45 t-67.5 95z" />
<glyph unicode="&#xb9;" horiz-adv-x="393" d="M82 1192v68l115 51q27 11 46 -0.5t19 -30.5v-385q0 -21 16 -28t44 -9v-55h-236v55q18 1 29 3.5t20.5 11t9.5 22.5v317z" />
<glyph unicode="&#xba;" horiz-adv-x="729" d="M74 971q0 138 86.5 220.5t204.5 84.5q118 -2 204 -83t86 -212q0 -136 -86 -219.5t-204 -83.5q-116 0 -203.5 82.5t-87.5 210.5zM111 457v96h510v-96h-510zM215 995q0 -98 47.5 -171.5t102.5 -73.5q74 0 111.5 47t37.5 159q0 100 -46.5 175t-102.5 75q-73 0 -111.5 -49.5 t-38.5 -161.5z" />
<glyph unicode="&#xbb;" horiz-adv-x="911" d="M72 139v131l139 199l-139 199v133l354 -332zM463 139v131l139 199l-139 199v133l354 -332z" />
<glyph unicode="&#xbc;" horiz-adv-x="1347" d="M76 -10l885 1313h135l-885 -1313h-135zM82 1192v68l115 51q27 11 46 -0.5t19 -30.5v-385q0 -21 16 -28t44 -9v-55h-236v55q18 1 29 3.5t20.5 11t9.5 22.5v317zM848 139v66l246 297q19 22 49.5 13.5t30.5 -32.5v-274h71v-70h-71v-67q0 -37 51 -37v-47h-221v47q49 0 49 37 v67h-205zM942 209h111v131z" />
<glyph unicode="&#xbd;" horiz-adv-x="1355" d="M76 -10l885 1313h135l-885 -1313h-135zM82 1192v68l115 51q27 11 46 -0.5t19 -30.5v-385q0 -21 16 -28t44 -9v-55h-236v55q18 1 29 3.5t20.5 11t9.5 22.5v317zM827 -12q10 50 31.5 91.5t52 72.5t56 50t59.5 40q46 28 70 54t24 62t-21.5 60t-54.5 24q-66 0 -77 -51 q-5 -21 1 -44t3 -34q-13 -31 -44.5 -34.5t-57 14t-25.5 39.5q-2 75 50.5 125.5t149.5 50.5q93 0 142 -42.5t49 -113.5q0 -15 -2.5 -29t-10 -27t-12.5 -22.5t-18 -21t-19 -17.5t-23.5 -17t-22 -14.5t-24.5 -15t-22 -12.5q-78 -45 -98 -66q-15 -16 -20 -34h182q32 0 43 16 l18 27h58l-21 -103q-6 -28 -43 -28h-373z" />
<glyph unicode="&#xbe;" horiz-adv-x="1540" d="M123 946q0 49 53 49q25 0 38.5 -9.5t16.5 -20t5.5 -30t5.5 -28.5q21 -61 92 -61q40 0 66.5 31t25.5 75q1 46 -20 66.5t-51.5 19t-67.5 -19.5l-27 55l49 23q80 28 80 90q0 65 -65 65q-47 0 -64.5 -40.5t-5.5 -82.5l-86 13q-25 9 -25 28q-2 63 47.5 104.5t135.5 41.5 q85 0 134.5 -40t49.5 -85q0 -60 -55 -88q41 -14 67.5 -49.5t26.5 -85.5q0 -77 -62 -130t-155 -53q-94 0 -151.5 48.5t-57.5 113.5zM262 -10l885 1313h135l-885 -1313h-135zM1020 139v66l246 297q19 22 49.5 13.5t30.5 -32.5v-274h71v-70h-71v-67q0 -37 51 -37v-47h-221v47 q49 0 49 37v67h-205zM1114 209h111v131z" />
<glyph unicode="&#xbf;" horiz-adv-x="999" d="M92 100q5 -61 36.5 -119t82.5 -101t123 -69t151 -26q190 0 306 97.5t116 246.5q0 62 -24.5 106t-59.5 60t-74.5 10t-68.5 -35q-24 -22 -28.5 -52t5.5 -58t20 -59.5t15.5 -58.5t-8.5 -54q-29 -56 -75.5 -83.5t-125.5 -27.5q-87 0 -137.5 49t-50.5 123q-2 69 31.5 123 t154.5 150q109 89 92 219l-22 168h-92l-19 -168q-3 -20 -32.5 -43t-91.5 -65.5t-113 -88.5q-61 -54 -88.5 -118.5t-22.5 -125.5zM375 1026q0 52 37 89.5t88 37.5t88 -37.5t37 -89.5q0 -51 -37 -88t-88 -37t-88 37t-37 88z" />
<glyph unicode="&#xc0;" horiz-adv-x="1443" d="M41 0v84q42 9 60.5 14t37.5 18.5t30 32.5t26 56l454 1083l76 -20q54 -19 72 -64l422 -948q24 -54 41.5 -84t40.5 -48t42 -24.5t60 -15.5v-84h-473v84q82 14 98 32t-4 54l-119 272h-477l-106 -262q-15 -38 11.5 -59.5t102.5 -36.5v-84h-395zM459 1679q-12 39 20 82 q32 37 69.5 33.5t72.5 -41.5l219 -229q34 -34 12 -62q-21 -27 -57 -6l-279 158q-45 26 -57 65zM469 543h393l-203 469z" />
<glyph unicode="&#xc1;" horiz-adv-x="1443" d="M41 0v84q42 9 60.5 14t37.5 18.5t30 32.5t26 56l454 1083l76 -20q54 -19 72 -64l422 -948q24 -54 41.5 -84t40.5 -48t42 -24.5t60 -15.5v-84h-473v84q82 14 98 32t-4 54l-119 272h-477l-106 -262q-15 -38 11.5 -59.5t102.5 -36.5v-84h-395zM469 543h393l-203 469z M629 1462q-21 29 12 62l219 229q37 38 73 41.5t68 -33.5q32 -42 20.5 -81.5t-56.5 -65.5l-279 -158q-36 -21 -57 6z" />
<glyph unicode="&#xc2;" horiz-adv-x="1443" d="M41 0v84q42 9 60.5 14t37.5 18.5t30 32.5t26 56l454 1083l76 -20q54 -19 72 -64l422 -948q24 -54 41.5 -84t40.5 -48t42 -24.5t60 -15.5v-84h-473v84q82 14 98 32t-4 54l-119 272h-477l-106 -262q-15 -38 11.5 -59.5t102.5 -36.5v-84h-395zM389 1442l330 356l332 -356 h-133l-199 141l-199 -141h-131zM469 543h393l-203 469z" />
<glyph unicode="&#xc3;" horiz-adv-x="1443" d="M41 0v84q42 9 60.5 14t37.5 18.5t30 32.5t26 56l454 1083l76 -20q54 -19 72 -64l422 -948q24 -54 41.5 -84t40.5 -48t42 -24.5t60 -15.5v-84h-473v84q82 14 98 32t-4 54l-119 272h-477l-106 -262q-15 -38 11.5 -59.5t102.5 -36.5v-84h-395zM338 1499q-22 92 52 154.5 t173 62.5q42 0 78 -12.5t62.5 -30t51.5 -34.5t56 -29.5t66 -12.5q48 0 84 31t36 55h95q-10 -102 -79.5 -163.5t-174.5 -61.5q-48 0 -95 21.5t-77.5 48t-67.5 48t-68 21.5q-57 0 -87.5 -36t-26.5 -62h-78zM469 543h393l-203 469z" />
<glyph unicode="&#xc4;" horiz-adv-x="1443" d="M41 0v84q42 9 60.5 14t37.5 18.5t30 32.5t26 56l454 1083l76 -20q54 -19 72 -64l422 -948q24 -54 41.5 -84t40.5 -48t42 -24.5t60 -15.5v-84h-473v84q82 14 98 32t-4 54l-119 272h-477l-106 -262q-15 -38 11.5 -59.5t102.5 -36.5v-84h-395zM352 1620q0 54 39 93.5 t94 39.5q54 0 92.5 -39.5t38.5 -93.5t-38.5 -93.5t-92.5 -39.5q-55 0 -94 39.5t-39 93.5zM469 543h393l-203 469zM784 1620q0 54 40 93.5t94 39.5t93.5 -39.5t39.5 -93.5t-39.5 -93.5t-93.5 -39.5t-94 39.5t-40 93.5z" />
<glyph unicode="&#xc5;" horiz-adv-x="1443" d="M41 0v84q42 9 60.5 14t37.5 18.5t30 32.5t26 56l454 1083l76 -20q54 -19 72 -64l422 -948q24 -54 41.5 -84t40.5 -48t42 -24.5t60 -15.5v-84h-473v84q82 14 98 32t-4 54l-119 272h-477l-106 -262q-15 -38 11.5 -59.5t102.5 -36.5v-84h-395zM469 543h393l-203 469z M508 1655q0 80 60 137t143 57t141.5 -57t58.5 -137q0 -79 -58.5 -136t-141.5 -57t-143 57.5t-60 135.5zM631 1655q0 -40 24 -69.5t56 -29.5q28 0 51.5 30t23.5 69q0 38 -23.5 68t-51.5 30q-32 0 -56 -29.5t-24 -68.5z" />
<glyph unicode="&#xc6;" horiz-adv-x="2039" d="M41 0v82q84 15 119.5 37t83.5 88l655 874q32 41 31 66.5t-41 42.5v82h932q21 0 27.5 -7t6.5 -30v-219h-86l-30 67q-20 42 -58 58t-106 16h-336v-452h350q44 0 62 19t39 71l1.5 3t1 3t1.5 4h51v-313h-51q-2 4 -8.5 19.5t-8 19t-7.5 15.5t-9 15t-9 11t-11.5 10t-13.5 6 t-17.5 5t-20.5 1h-350v-481l436 4q58 0 82 13t55 52l54 68h102q-31 -61 -65 -203q-6 -22 -23.5 -34.5t-38.5 -12.5h-952v86q63 13 91 32.5t28 61.5v254h-457l-184 -248q-30 -40 1.5 -64.5t125.5 -39.5v-82h-453zM627 537h381v510z" />
<glyph unicode="&#xc7;" horiz-adv-x="1310" d="M66 657q0 138 48 259t129 206t192 134t233 49q231 0 370 -168q45 0 60 100q6 35 39 35h55l22 -391l-88 -31q-35 -12 -47 22q-4 12 -28 74q-54 130 -144.5 189t-201.5 59q-80 0 -149 -31t-123 -91t-85 -158.5t-31 -225.5q0 -166 61 -302t160 -210t212 -74q106 0 179.5 44 t133.5 126q8 12 20.5 31.5t18.5 27.5t15.5 15t19.5 8q18 0 45.5 -18t31.5 -35q6 -21 -26 -80q-64 -107 -174.5 -175t-270.5 -75l-30 -65q89 14 158 -42.5t55 -148.5q-14 -85 -90.5 -127t-173.5 -37q-93 4 -150.5 45t-67.5 95q-4 25 8.5 46t34 31t49.5 5t50 -29 q11 -60 25 -79q20 -27 59 -30q99 -6 114 95q8 48 -20 76t-82 22q-17 -2 -42.5 -6.5t-31.5 -5.5q-32 -6 -46 16.5t1 44.5q40 77 49 98q-112 16 -211 72t-173.5 143t-118 208t-43.5 259z" />
<glyph unicode="&#xc8;" d="M72 0v86q63 13 90.5 32.5t27.5 61.5v914q0 43 -27 62t-91 34v82h932q21 0 27.5 -7t6.5 -30v-219h-86l-30 67q-20 42 -58 58t-106 16h-336v-452h350q44 0 62 19t39 71l1.5 3t1 3t1.5 4h51v-313h-51q-2 4 -8.5 19.5t-8 19t-7.5 15.5t-9 15t-9 11t-11.5 10t-13.5 6t-17.5 5 t-20.5 1h-350v-481l436 4q58 0 82 13t55 52l54 68h102q-33 -65 -66 -203q-6 -22 -23 -34.5t-38 -12.5h-952zM340 1679q12 -39 57 -65l279 -158q36 -21 57 6q22 28 -12 62l-219 229q-35 38 -72.5 41.5t-69.5 -33.5q-32 -43 -20 -82z" />
<glyph unicode="&#xc9;" d="M72 0v86q63 13 90.5 32.5t27.5 61.5v914q0 43 -27 62t-91 34v82h932q21 0 27.5 -7t6.5 -30v-219h-86l-30 67q-20 42 -58 58t-106 16h-336v-452h350q44 0 62 19t39 71l1.5 3t1 3t1.5 4h51v-313h-51q-2 4 -8.5 19.5t-8 19t-7.5 15.5t-9 15t-9 11t-11.5 10t-13.5 6t-17.5 5 t-20.5 1h-350v-481l436 4q58 0 82 13t55 52l54 68h102q-33 -65 -66 -203q-6 -22 -23 -34.5t-38 -12.5h-952zM510 1462q21 -27 57 -6l279 158q45 26 57 65t-20 82q-32 37 -68.5 33.5t-73.5 -41.5l-219 -229q-33 -33 -12 -62z" />
<glyph unicode="&#xca;" d="M72 0v86q63 13 90.5 32.5t27.5 61.5v914q0 43 -27 62t-91 34v82h932q21 0 27.5 -7t6.5 -30v-219h-86l-30 67q-20 42 -58 58t-106 16h-336v-452h350q44 0 62 19t39 71l1.5 3t1 3t1.5 4h51v-313h-51q-2 4 -8.5 19.5t-8 19t-7.5 15.5t-9 15t-9 11t-11.5 10t-13.5 6t-17.5 5 t-20.5 1h-350v-481l436 4q58 0 82 13t55 52l54 68h102q-33 -65 -66 -203q-6 -22 -23 -34.5t-38 -12.5h-952zM270 1442l330 356l332 -356h-133l-199 141l-199 -141h-131z" />
<glyph unicode="&#xcb;" d="M72 0v86q63 13 90.5 32.5t27.5 61.5v914q0 43 -27 62t-91 34v82h932q21 0 27.5 -7t6.5 -30v-219h-86l-30 67q-20 42 -58 58t-106 16h-336v-452h350q44 0 62 19t39 71l1.5 3t1 3t1.5 4h51v-313h-51q-2 4 -8.5 19.5t-8 19t-7.5 15.5t-9 15t-9 11t-11.5 10t-13.5 6t-17.5 5 t-20.5 1h-350v-481l436 4q58 0 82 13t55 52l54 68h102q-33 -65 -66 -203q-6 -22 -23 -34.5t-38 -12.5h-952zM233 1620q0 54 39.5 93.5t94.5 39.5q54 0 92.5 -39.5t38.5 -93.5t-38.5 -93.5t-92.5 -39.5q-55 0 -94.5 39.5t-39.5 93.5zM666 1620q0 54 39.5 93.5t93.5 39.5 t93.5 -39.5t39.5 -93.5t-39.5 -93.5t-93.5 -39.5t-93.5 39.5t-39.5 93.5z" />
<glyph unicode="&#xcc;" horiz-adv-x="636" d="M68 1679q12 -39 57 -65l278 -158q36 -22 58 6t-12 62l-220 229q-35 38 -72 41.5t-69 -33.5q-32 -43 -20 -82zM82 0v78q65 15 94 35t29 61v920q0 42 -28.5 61.5t-94.5 34.5v82h469v-82q-65 -15 -93 -34.5t-28 -61.5v-920q0 -41 28.5 -61t92.5 -35v-78h-469z" />
<glyph unicode="&#xcd;" horiz-adv-x="636" d="M82 0v78q65 15 94 35t29 61v920q0 42 -28.5 61.5t-94.5 34.5v82h469v-82q-65 -15 -93 -34.5t-28 -61.5v-920q0 -41 28.5 -61t92.5 -35v-78h-469zM238 1462q21 -27 57 -6l278 158q45 26 57 65t-20 82q-32 37 -68 33.5t-73 -41.5l-219 -229q-33 -33 -12 -62z" />
<glyph unicode="&#xce;" horiz-adv-x="636" d="M-6 1442l332 356l331 -356h-133l-198 141l-199 -141h-133zM82 0v78q65 15 94 35t29 61v920q0 42 -28.5 61.5t-94.5 34.5v82h469v-82q-65 -15 -93 -34.5t-28 -61.5v-920q0 -41 28.5 -61t92.5 -35v-78h-469z" />
<glyph unicode="&#xcf;" horiz-adv-x="636" d="M-39 1620q0 54 39 93.5t94 39.5q54 0 92.5 -39.5t38.5 -93.5t-38.5 -93.5t-92.5 -39.5q-55 0 -94 39.5t-39 93.5zM82 0v78q65 15 94 35t29 61v920q0 42 -28.5 61.5t-94.5 34.5v82h469v-82q-65 -15 -93 -34.5t-28 -61.5v-920q0 -41 28.5 -61t92.5 -35v-78h-469zM393 1620 q0 54 39.5 93.5t93.5 39.5t93.5 -39.5t39.5 -93.5t-39.5 -93.5t-93.5 -39.5t-93.5 39.5t-39.5 93.5z" />
<glyph unicode="&#xd0;" horiz-adv-x="1333" d="M31 582v108h141v400q0 69 -133 96v86h465q175 0 307 -34t230.5 -108t149 -197.5t50.5 -295.5q0 -154 -44 -272t-115 -187.5t-168.5 -111.5t-195 -55t-204.5 -7q-273 18 -475 -4v96q133 28 133 99v387h-141zM397 201q0 -73 66 -78l110 -6q216 -13 317 121t101 399 q0 257 -111.5 394.5t-328.5 137.5h-154v-479h187v-108h-187v-381z" />
<glyph unicode="&#xd1;" horiz-adv-x="1386" d="M51 0v80q125 28 125 96v922q0 68 -125 96v78h326l692 -875v701q0 69 -125 96v78h391v-78q-125 -27 -125 -96v-1098q0 -15 -34 -15t-46 15l-831 995v-819q0 -68 123 -96v-80h-371zM322 1499q-22 92 52 154.5t173 62.5q51 0 95 -18.5t71 -41t66 -41t81 -18.5q48 0 84.5 31 t36.5 55h94q-10 -102 -79.5 -163.5t-174.5 -61.5q-40 0 -77.5 14.5t-66 35t-55 40.5t-54.5 34.5t-54 14.5q-57 0 -88 -36t-27 -62h-77z" />
<glyph unicode="&#xd2;" horiz-adv-x="1382" d="M61 647q0 190 83.5 341t227 234t320.5 83q130 0 246.5 -50t200.5 -136.5t133 -209t49 -262.5q0 -190 -83.5 -346t-227.5 -244t-318 -88q-132 0 -248.5 49.5t-201 137.5t-133 215.5t-48.5 275.5zM313 709q0 -134 33.5 -250t88 -193.5t123.5 -121.5t140 -44 q67 0 118.5 11.5t101 43.5t81.5 85.5t51 140.5t19 205q0 270 -112.5 438t-264.5 168q-70 0 -126 -14t-104.5 -48t-80.5 -88.5t-50 -138.5t-18 -194zM439 1679q12 -39 57 -65l278 -158q36 -21 57 6q22 28 -12 62l-219 229q-35 38 -72 41.5t-69 -33.5q-32 -43 -20 -82z" />
<glyph unicode="&#xd3;" horiz-adv-x="1382" d="M61 647q0 190 83.5 341t227 234t320.5 83q130 0 246.5 -50t200.5 -136.5t133 -209t49 -262.5q0 -190 -83.5 -346t-227.5 -244t-318 -88q-132 0 -248.5 49.5t-201 137.5t-133 215.5t-48.5 275.5zM313 709q0 -134 33.5 -250t88 -193.5t123.5 -121.5t140 -44 q67 0 118.5 11.5t101 43.5t81.5 85.5t51 140.5t19 205q0 270 -112.5 438t-264.5 168q-70 0 -126 -14t-104.5 -48t-80.5 -88.5t-50 -138.5t-18 -194zM610 1462q22 -28 58 -6l278 158q45 26 57 65t-20 82q-32 37 -68 33.5t-73 -41.5l-219 -229q-33 -33 -13 -62z" />
<glyph unicode="&#xd4;" horiz-adv-x="1382" d="M61 647q0 190 83.5 341t227 234t320.5 83q130 0 246.5 -50t200.5 -136.5t133 -209t49 -262.5q0 -190 -83.5 -346t-227.5 -244t-318 -88q-132 0 -248.5 49.5t-201 137.5t-133 215.5t-48.5 275.5zM313 709q0 -134 33.5 -250t88 -193.5t123.5 -121.5t140 -44 q67 0 118.5 11.5t101 43.5t81.5 85.5t51 140.5t19 205q0 270 -112.5 438t-264.5 168q-70 0 -126 -14t-104.5 -48t-80.5 -88.5t-50 -138.5t-18 -194zM369 1442l329 356l332 -356h-133l-199 141l-198 -141h-131z" />
<glyph unicode="&#xd5;" horiz-adv-x="1382" d="M61 647q0 190 83.5 341t227 234t320.5 83q130 0 246.5 -50t200.5 -136.5t133 -209t49 -262.5q0 -190 -83.5 -346t-227.5 -244t-318 -88q-132 0 -248.5 49.5t-201 137.5t-133 215.5t-48.5 275.5zM313 709q0 -134 33.5 -250t88 -193.5t123.5 -121.5t140 -44 q67 0 118.5 11.5t101 43.5t81.5 85.5t51 140.5t19 205q0 270 -112.5 438t-264.5 168q-70 0 -126 -14t-104.5 -48t-80.5 -88.5t-50 -138.5t-18 -194zM317 1499q-22 92 52.5 154.5t173.5 62.5q51 0 95 -18.5t71 -41t66 -41t81 -18.5q48 0 84.5 31t36.5 55h94 q-10 -102 -79.5 -163.5t-174.5 -61.5q-40 0 -77.5 14.5t-66 35t-55 40.5t-54.5 34.5t-54 14.5q-57 0 -88 -36t-27 -62h-78z" />
<glyph unicode="&#xd6;" horiz-adv-x="1382" d="M61 647q0 190 83.5 341t227 234t320.5 83q130 0 246.5 -50t200.5 -136.5t133 -209t49 -262.5q0 -190 -83.5 -346t-227.5 -244t-318 -88q-132 0 -248.5 49.5t-201 137.5t-133 215.5t-48.5 275.5zM313 709q0 -134 33.5 -250t88 -193.5t123.5 -121.5t140 -44 q67 0 118.5 11.5t101 43.5t81.5 85.5t51 140.5t19 205q0 270 -112.5 438t-264.5 168q-70 0 -126 -14t-104.5 -48t-80.5 -88.5t-50 -138.5t-18 -194zM332 1620q0 54 39 93.5t94 39.5q54 0 92.5 -39.5t38.5 -93.5t-38.5 -93.5t-92.5 -39.5q-55 0 -94 39.5t-39 93.5zM764 1620 q0 54 39.5 93.5t93.5 39.5t93.5 -39.5t39.5 -93.5t-39.5 -93.5t-93.5 -39.5t-93.5 39.5t-39.5 93.5z" />
<glyph unicode="&#xd7;" horiz-adv-x="931" d="M143 289l226 227l-226 225l97 99l227 -228l225 228l96 -99l-225 -225l225 -227l-96 -99l-225 228l-227 -228z" />
<glyph unicode="&#xd8;" horiz-adv-x="1382" d="M61 647q0 190 83.5 341t227 234t320.5 83q187 0 338 -99l74 97l98 -74l-76 -99q93 -91 144 -214.5t51 -268.5q0 -190 -83.5 -346t-227.5 -244t-318 -88q-206 0 -360 111l-84 -111l-96 76l88 117q-179 192 -179 485zM313 709q0 -201 72 -355l541 713q-106 125 -234 125 q-70 0 -126 -14t-104.5 -48t-80.5 -88.5t-50 -138.5t-18 -194zM453 240q111 -140 245 -140q67 0 118.5 11.5t101 43.5t81.5 85.5t51 140.5t19 205q0 213 -76 368z" />
<glyph unicode="&#xd9;" horiz-adv-x="1345" d="M41 1190v82h414v-82q-47 -7 -71 -20.5t-24 -45.5v-530q0 -250 85 -371t237 -121q77 0 138.5 22.5t112 71.5t78 135.5t27.5 205.5v587q0 32 -23.5 45.5t-72.5 20.5v82h322v-82q-46 -7 -69.5 -20.5t-23.5 -45.5v-604q0 -248 -132 -394t-357 -146q-263 0 -407 146t-144 402 v596q0 32 -22.5 45.5t-67.5 20.5zM441 1679q12 -39 57 -65l278 -158q36 -22 58 6q22 27 -13 62l-219 229q-35 38 -72 41.5t-69 -33.5q-32 -43 -20 -82z" />
<glyph unicode="&#xda;" horiz-adv-x="1345" d="M41 1190v82h414v-82q-47 -7 -71 -20.5t-24 -45.5v-530q0 -250 85 -371t237 -121q77 0 138.5 22.5t112 71.5t78 135.5t27.5 205.5v587q0 32 -23.5 45.5t-72.5 20.5v82h322v-82q-46 -7 -69.5 -20.5t-23.5 -45.5v-604q0 -248 -132 -394t-357 -146q-263 0 -407 146t-144 402 v596q0 32 -22.5 45.5t-67.5 20.5zM610 1462q22 -28 58 -6l278 158q45 26 57 65t-20 82q-32 37 -68 33.5t-73 -41.5l-219 -229q-33 -33 -13 -62z" />
<glyph unicode="&#xdb;" horiz-adv-x="1345" d="M41 1190v82h414v-82q-47 -7 -71 -20.5t-24 -45.5v-530q0 -250 85 -371t237 -121q77 0 138.5 22.5t112 71.5t78 135.5t27.5 205.5v587q0 32 -23.5 45.5t-72.5 20.5v82h322v-82q-46 -7 -69.5 -20.5t-23.5 -45.5v-604q0 -248 -132 -394t-357 -146q-263 0 -407 146t-144 402 v596q0 32 -22.5 45.5t-67.5 20.5zM371 1442l329 356l332 -356h-133l-199 141l-198 -141h-131z" />
<glyph unicode="&#xdc;" horiz-adv-x="1345" d="M41 1190v82h414v-82q-47 -7 -71 -20.5t-24 -45.5v-530q0 -250 85 -371t237 -121q77 0 138.5 22.5t112 71.5t78 135.5t27.5 205.5v587q0 32 -23.5 45.5t-72.5 20.5v82h322v-82q-46 -7 -69.5 -20.5t-23.5 -45.5v-604q0 -248 -132 -394t-357 -146q-263 0 -407 146t-144 402 v596q0 32 -22.5 45.5t-67.5 20.5zM334 1620q0 54 39 93.5t94 39.5q54 0 92.5 -39.5t38.5 -93.5t-38.5 -93.5t-92.5 -39.5q-55 0 -94 39.5t-39 93.5zM766 1620q0 54 39.5 93.5t93.5 39.5t93.5 -39.5t39.5 -93.5t-39.5 -93.5t-93.5 -39.5t-93.5 39.5t-39.5 93.5z" />
<glyph unicode="&#xdd;" horiz-adv-x="1304" d="M31 1186v86h454v-86q-47 -8 -70 -26t-5 -42l301 -418l286 398q26 35 -3.5 57.5t-94.5 30.5v86h375v-86q-60 -7 -94 -33t-78 -88l-340 -463v-442q0 -17 11.5 -29t36.5 -19.5t45 -11t56 -8.5v-92h-505v92q36 5 56 8.5t45.5 11t37.5 19.5t12 29v387l-336 467q-11 15 -31 45 t-27 39.5t-22 28.5t-23.5 25t-23 15.5t-29.5 13t-34 5.5zM614 1462q-20 29 13 62l219 229q37 38 73 41.5t68 -33.5q32 -43 20 -82t-57 -65l-278 -158q-36 -22 -58 6z" />
<glyph unicode="&#xde;" horiz-adv-x="1124" d="M27 0v78q65 15 94 35t29 61v920q0 42 -28.5 61.5t-94.5 34.5v82h469v-82q-65 -15 -93 -34.5t-28 -61.5v-45h166q242 0 391 -110t149 -290q0 -175 -146 -274t-392 -99h-168v-102q0 -41 28.5 -61t92.5 -35v-78h-469zM375 375h194q78 0 133 21t84.5 60.5t42.5 88t13 112.5 q0 293 -273 293h-194v-575z" />
<glyph unicode="&#xdf;" horiz-adv-x="1120" d="M59 0v78q59 8 77 20t18 47v867q0 167 95 260.5t265 93.5q175 0 277 -100t102 -258q0 -72 -38 -135t-103 -107q122 -35 206 -137t84 -250q0 -175 -154.5 -278t-404.5 -103v113q170 0 252 66.5t82 201.5q0 56 -6.5 97t-26.5 82t-54.5 67t-94 43t-141.5 18v94q87 0 151 67.5 t64 160.5q0 45 -10 87.5t-31 81.5t-61 63t-93 24q-158 0 -158 -236v-817q0 -109 -54.5 -160t-164.5 -51h-78z" />
<glyph unicode="&#xe0;" horiz-adv-x="1001" d="M45 240q0 53 15 93.5t54 79t106 68.5t171.5 57t249.5 48v35q0 117 -38.5 173t-125.5 56q-88 0 -126 -32.5t-38 -125.5q0 -30 -35.5 -47.5t-82.5 -17.5q-43 0 -70 27.5t-29 68.5q0 103 114 161t275 58q172 0 266.5 -86t94.5 -268v-395q0 -50 27 -66.5t88 -7.5v-84 q-112 -47 -181 -47q-50 0 -86 51t-45 149q-18 -40 -41.5 -74t-57.5 -65.5t-81.5 -49.5t-103.5 -19q-133 -2 -226.5 67t-93.5 193zM234 1331q12 -39 57 -65l278 -158q36 -22 58 6q22 27 -13 62l-219 229q-35 38 -72 41.5t-69 -33.5q-32 -43 -20 -82zM264 250 q0 -61 40.5 -102.5t105.5 -41.5q40 0 74.5 15t57 35t44 52.5t31.5 53t24 51.5v181q-100 -17 -172.5 -40.5t-111 -46.5t-60.5 -52.5t-27.5 -52t-5.5 -52.5z" />
<glyph unicode="&#xe1;" horiz-adv-x="1001" d="M45 240q0 53 15 93.5t54 79t106 68.5t171.5 57t249.5 48v35q0 117 -38.5 173t-125.5 56q-88 0 -126 -32.5t-38 -125.5q0 -30 -35.5 -47.5t-82.5 -17.5q-43 0 -70 27.5t-29 68.5q0 103 114 161t275 58q172 0 266.5 -86t94.5 -268v-395q0 -50 27 -66.5t88 -7.5v-84 q-112 -47 -181 -47q-50 0 -86 51t-45 149q-18 -40 -41.5 -74t-57.5 -65.5t-81.5 -49.5t-103.5 -19q-133 -2 -226.5 67t-93.5 193zM264 250q0 -61 40.5 -102.5t105.5 -41.5q40 0 74.5 15t57 35t44 52.5t31.5 53t24 51.5v181q-100 -17 -172.5 -40.5t-111 -46.5t-60.5 -52.5 t-27.5 -52t-5.5 -52.5zM403 1114q22 -28 58 -6l278 158q45 26 57 65t-20 82q-32 37 -68 33.5t-73 -41.5l-219 -229q-33 -33 -13 -62z" />
<glyph unicode="&#xe2;" horiz-adv-x="1001" d="M45 240q0 53 15 93.5t54 79t106 68.5t171.5 57t249.5 48v35q0 117 -38.5 173t-125.5 56q-88 0 -126 -32.5t-38 -125.5q0 -30 -35.5 -47.5t-82.5 -17.5q-43 0 -70 27.5t-29 68.5q0 103 114 161t275 58q172 0 266.5 -86t94.5 -268v-395q0 -50 27 -66.5t88 -7.5v-84 q-112 -47 -181 -47q-50 0 -86 51t-45 149q-18 -40 -41.5 -74t-57.5 -65.5t-81.5 -49.5t-103.5 -19q-133 -2 -226.5 67t-93.5 193zM164 1094l330 356l331 -356h-133l-198 141l-199 -141h-131zM264 250q0 -61 40.5 -102.5t105.5 -41.5q40 0 74.5 15t57 35t44 52.5t31.5 53 t24 51.5v181q-100 -17 -172.5 -40.5t-111 -46.5t-60.5 -52.5t-27.5 -52t-5.5 -52.5z" />
<glyph unicode="&#xe3;" horiz-adv-x="1001" d="M45 240q0 53 15 93.5t54 79t106 68.5t171.5 57t249.5 48v35q0 117 -38.5 173t-125.5 56q-88 0 -126 -32.5t-38 -125.5q0 -30 -35.5 -47.5t-82.5 -17.5q-43 0 -70 27.5t-29 68.5q0 103 114 161t275 58q172 0 266.5 -86t94.5 -268v-395q0 -50 27 -66.5t88 -7.5v-84 q-112 -47 -181 -47q-50 0 -86 51t-45 149q-18 -40 -41.5 -74t-57.5 -65.5t-81.5 -49.5t-103.5 -19q-133 -2 -226.5 67t-93.5 193zM113 1151q-22 92 52 154.5t173 62.5q51 0 95 -18.5t71 -41t66 -41t81 -18.5q48 0 84.5 31t36.5 55h94q-10 -102 -79.5 -163.5t-174.5 -61.5 q-40 0 -77.5 14.5t-66 35t-55 40.5t-54.5 34.5t-54 14.5q-57 0 -88 -36t-27 -62h-77zM264 250q0 -61 40.5 -102.5t105.5 -41.5q40 0 74.5 15t57 35t44 52.5t31.5 53t24 51.5v181q-100 -17 -172.5 -40.5t-111 -46.5t-60.5 -52.5t-27.5 -52t-5.5 -52.5z" />
<glyph unicode="&#xe4;" horiz-adv-x="1001" d="M45 240q0 53 15 93.5t54 79t106 68.5t171.5 57t249.5 48v35q0 117 -38.5 173t-125.5 56q-88 0 -126 -32.5t-38 -125.5q0 -30 -35.5 -47.5t-82.5 -17.5q-43 0 -70 27.5t-29 68.5q0 103 114 161t275 58q172 0 266.5 -86t94.5 -268v-395q0 -50 27 -66.5t88 -7.5v-84 q-112 -47 -181 -47q-50 0 -86 51t-45 149q-18 -40 -41.5 -74t-57.5 -65.5t-81.5 -49.5t-103.5 -19q-133 -2 -226.5 67t-93.5 193zM127 1272q0 54 39 93.5t94 39.5q54 0 92.5 -39.5t38.5 -93.5t-38.5 -93.5t-92.5 -39.5q-55 0 -94 39.5t-39 93.5zM264 250q0 -61 40.5 -102.5 t105.5 -41.5q40 0 74.5 15t57 35t44 52.5t31.5 53t24 51.5v181q-100 -17 -172.5 -40.5t-111 -46.5t-60.5 -52.5t-27.5 -52t-5.5 -52.5zM559 1272q0 54 39.5 93.5t93.5 39.5t93.5 -39.5t39.5 -93.5t-39.5 -93.5t-93.5 -39.5t-93.5 39.5t-39.5 93.5z" />
<glyph unicode="&#xe5;" horiz-adv-x="1001" d="M45 240q0 53 15 93.5t54 79t106 68.5t171.5 57t249.5 48v35q0 117 -38.5 173t-125.5 56q-88 0 -126 -32.5t-38 -125.5q0 -30 -35.5 -47.5t-82.5 -17.5q-43 0 -70 27.5t-29 68.5q0 103 114 161t275 58q172 0 266.5 -86t94.5 -268v-395q0 -50 27 -66.5t88 -7.5v-84 q-112 -47 -181 -47q-50 0 -86 51t-45 149q-18 -40 -41.5 -74t-57.5 -65.5t-81.5 -49.5t-103.5 -19q-133 -2 -226.5 67t-93.5 193zM264 250q0 -61 40.5 -102.5t105.5 -41.5q40 0 74.5 15t57 35t44 52.5t31.5 53t24 51.5v181q-100 -17 -172.5 -40.5t-111 -46.5t-60.5 -52.5 t-27.5 -52t-5.5 -52.5zM283 1307q0 80 59.5 137t142.5 57t142 -57t59 -137q0 -78 -59 -135.5t-142 -57.5t-142.5 57.5t-59.5 135.5zM406 1307q0 -40 23.5 -69.5t55.5 -29.5q28 0 52 30t24 69q0 38 -24 68t-52 30q-32 0 -55.5 -29.5t-23.5 -68.5z" />
<glyph unicode="&#xe6;" horiz-adv-x="1589" d="M61 240q0 52 15 92.5t54 79t105 69t170 57.5t248 48v35q0 146 -64.5 196t-209.5 14q-27 -7 -36 -27t-9.5 -58t-3.5 -54q-8 -34 -46 -54t-87 -13q-48 8 -69.5 46t-8.5 93q17 69 107 117t214 59q256 22 357 -119q126 117 303 117q168 0 293 -109.5t125 -271.5 q0 -59 -29.5 -92t-85.5 -33h-526q0 -144 77.5 -238t200.5 -94q88 0 147 36.5t107 94.5l72 -77q-24 -32 -49.5 -57t-68 -54.5t-104 -46t-135.5 -16.5q-115 0 -212 49t-162 137q-61 -87 -157 -132.5t-216 -47.5q-85 -1 -155 26t-115.5 86t-45.5 142zM279 246q0 -56 40.5 -94.5 t102.5 -38.5q156 0 231 200v179q-98 -16 -169.5 -40t-110 -48t-61 -54.5t-28 -53t-5.5 -50.5zM877 541h432q2 138 -51 214t-158 76q-106 0 -164.5 -77t-58.5 -213z" />
<glyph unicode="&#xe7;" horiz-adv-x="970" d="M51 459q0 112 37.5 205t100.5 153t143.5 92.5t167.5 32.5q171 0 272.5 -77.5t101.5 -178.5q0 -40 -25 -66t-75 -26q-51 0 -78.5 22.5t-27.5 57.5q0 36 -1 53t-8 42t-21.5 36t-43 20t-70.5 9q-137 0 -195.5 -78t-58.5 -258q0 -165 80 -280t211 -114q26 0 47 2t39.5 10 t29 11.5t27 18.5t21 18.5t22.5 23.5t21 23q10 10 16.5 14.5t17.5 4.5t23 -11l47 -43q-33 -63 -105.5 -116t-191.5 -70l-38 -84q89 14 158 -42.5t55 -148.5q-14 -85 -91 -127t-174 -37q-93 4 -150 45t-67 95q-4 25 8.5 46t34 31t49.5 5t50 -29q11 -60 25 -79q19 -28 59 -30 q99 -6 114 95q8 48 -20 76t-82 22q-17 -2 -42.5 -6.5t-31.5 -5.5q-32 -6 -46 16.5t1 44.5q33 60 53 111q-162 20 -275.5 149t-113.5 322z" />
<glyph unicode="&#xe8;" horiz-adv-x="985" d="M61 467q0 109 37 200t99 149t142 90t167 32q168 0 293 -109.5t125 -271.5q0 -59 -29.5 -92t-85.5 -33h-526q0 -144 77.5 -238t200.5 -94q88 0 147 36.5t107 94.5l72 -77q-24 -32 -49.5 -57t-68 -54.5t-104 -46t-135.5 -16.5q-198 0 -333.5 138t-135.5 349zM254 1331 q12 -39 57 -65l279 -158q36 -21 57 6q22 28 -12 62l-219 229q-35 38 -72.5 41.5t-69.5 -33.5q-32 -43 -20 -82zM283 541h432q2 138 -51 214t-158 76q-106 0 -164.5 -77t-58.5 -213z" />
<glyph unicode="&#xe9;" horiz-adv-x="985" d="M61 467q0 109 37 200t99 149t142 90t167 32q168 0 293 -109.5t125 -271.5q0 -59 -29.5 -92t-85.5 -33h-526q0 -144 77.5 -238t200.5 -94q88 0 147 36.5t107 94.5l72 -77q-24 -32 -49.5 -57t-68 -54.5t-104 -46t-135.5 -16.5q-198 0 -333.5 138t-135.5 349zM283 541h432 q2 138 -51 214t-158 76q-106 0 -164.5 -77t-58.5 -213zM424 1114q21 -27 57 -6l279 158q45 26 57 65t-20 82q-32 37 -68.5 33.5t-73.5 -41.5l-219 -229q-33 -33 -12 -62z" />
<glyph unicode="&#xea;" horiz-adv-x="985" d="M61 467q0 109 37 200t99 149t142 90t167 32q168 0 293 -109.5t125 -271.5q0 -59 -29.5 -92t-85.5 -33h-526q0 -144 77.5 -238t200.5 -94q88 0 147 36.5t107 94.5l72 -77q-24 -32 -49.5 -57t-68 -54.5t-104 -46t-135.5 -16.5q-198 0 -333.5 138t-135.5 349zM184 1094 l330 356l332 -356h-133l-199 141l-199 -141h-131zM283 541h432q2 138 -51 214t-158 76q-106 0 -164.5 -77t-58.5 -213z" />
<glyph unicode="&#xeb;" horiz-adv-x="985" d="M61 467q0 109 37 200t99 149t142 90t167 32q168 0 293 -109.5t125 -271.5q0 -59 -29.5 -92t-85.5 -33h-526q0 -144 77.5 -238t200.5 -94q88 0 147 36.5t107 94.5l72 -77q-24 -32 -49.5 -57t-68 -54.5t-104 -46t-135.5 -16.5q-198 0 -333.5 138t-135.5 349zM147 1272 q0 54 39.5 93.5t94.5 39.5q54 0 92.5 -39.5t38.5 -93.5t-38.5 -93.5t-92.5 -39.5q-55 0 -94.5 39.5t-39.5 93.5zM283 541h432q2 138 -51 214t-158 76q-106 0 -164.5 -77t-58.5 -213zM580 1272q0 54 39.5 93.5t93.5 39.5t93.5 -39.5t39.5 -93.5t-39.5 -93.5t-93.5 -39.5 t-93.5 39.5t-39.5 93.5z" />
<glyph unicode="&#xec;" horiz-adv-x="542" d="M-10 1331q12 -39 57 -65l279 -158q36 -21 57 6q22 28 -12 62l-219 229q-35 38 -72.5 41.5t-69.5 -33.5q-32 -43 -20 -82zM72 819v92l235 19q66 6 66 -64v-731q0 -33 22 -45t66 -12v-78h-381v78q45 0 67.5 12t22.5 45v621q0 35 -13 49t-44 14h-41z" />
<glyph unicode="&#xed;" horiz-adv-x="542" d="M72 819v92l235 19q66 6 66 -64v-731q0 -33 22 -45t66 -12v-78h-381v78q45 0 67.5 12t22.5 45v621q0 35 -13 49t-44 14h-41zM162 1114q21 -27 57 -6l279 158q45 26 57 65t-20 82q-32 37 -68.5 33.5t-73.5 -41.5l-219 -229q-33 -33 -12 -62z" />
<glyph unicode="&#xee;" horiz-adv-x="542" d="M-84 1094l332 356l332 -356h-134l-198 141l-199 -141h-133zM72 819v92l235 19q66 6 66 -64v-731q0 -33 22 -45t66 -12v-78h-381v78q45 0 67.5 12t22.5 45v621q0 35 -13 49t-44 14h-41z" />
<glyph unicode="&#xef;" horiz-adv-x="542" d="M-117 1272q0 54 39 93.5t94 39.5q54 0 92.5 -39.5t38.5 -93.5t-38.5 -93.5t-92.5 -39.5q-55 0 -94 39.5t-39 93.5zM72 819v92l235 19q66 6 66 -64v-731q0 -33 22 -45t66 -12v-78h-381v78q45 0 67.5 12t22.5 45v621q0 35 -13 49t-44 14h-41zM315 1272q0 54 40 93.5 t94 39.5t93.5 -39.5t39.5 -93.5t-39.5 -93.5t-93.5 -39.5t-94 39.5t-40 93.5z" />
<glyph unicode="&#xf0;" horiz-adv-x="1144" d="M61 473q0 222 100 347.5t253 125.5q54 0 103 -15t85.5 -40t63 -48t49.5 -46q7 -8 10 -11v179q0 57 -6 104l-182 -51l-31 96l184 51q-24 47 -64 65t-104 21l-63 4v91q1 0 19 -0.5t28 -1t33 -2.5t39.5 -5t42 -8.5t45.5 -12t45 -17.5t45.5 -24t42 -30.5t39.5 -38.5l194 56 l31 -97l-170 -47q37 -88 37 -207v-256q0 -334 -111 -500.5t-346 -166.5q-194 0 -303 122.5t-109 362.5zM258 473q0 -191 50.5 -282t164.5 -91q49 0 87 13.5t64.5 35t45 60.5t29.5 78.5t17 101t7.5 116t1.5 134.5q0 15 -9.5 38.5t-32 53t-54 54.5t-80.5 42t-107 17 q-184 0 -184 -371z" />
<glyph unicode="&#xf1;" horiz-adv-x="1181" d="M51 813v92l264 35q48 6 57.5 -33t-3.5 -100q0 -4 -0.5 -6.5t-1 -6t-0.5 -6.5l-9 -71q15 26 31 48.5t48.5 57.5t68 59.5t88 43t108.5 18.5q75 0 130 -16.5t98 -56t65 -110.5t23 -175v-387q0 -58 25.5 -81.5t97.5 -6.5l-27 -91q-56 -20 -135 -20t-123.5 42t-44.5 105v420 q0 121 -32.5 180.5t-121.5 59.5q-39 0 -80 -15t-67 -31t-59.5 -47.5t-43.5 -42t-32 -36.5v-500q0 -34 23.5 -45.5t78.5 -11.5v-78h-401v78q52 0 74 11.5t22 45.5v598q0 96 -121 80zM205 1151q-22 92 52 154.5t173 62.5q51 0 95 -18.5t71 -41t66 -41t81 -18.5q48 0 84.5 31 t36.5 55h94q-10 -103 -79.5 -164t-173.5 -61q-48 0 -95 21.5t-77.5 48t-67.5 48t-68 21.5q-57 0 -87.5 -36t-26.5 -62h-78z" />
<glyph unicode="&#xf2;" horiz-adv-x="1038" d="M61 455q0 112 39 205t103.5 153t145.5 92.5t169 32.5q120 0 223.5 -54.5t169.5 -163t66 -249.5q0 -110 -38.5 -204t-102.5 -156t-145.5 -96.5t-168.5 -34.5q-88 0 -171.5 34.5t-147.5 95t-103 151t-39 194.5zM271 1331q12 -39 57 -65l278 -158q36 -22 58 6q22 27 -13 62 l-219 229q-35 38 -72 41.5t-69 -33.5q-32 -43 -20 -82zM279 518q0 -188 74.5 -303t187.5 -115q221 0 221 310q0 192 -74.5 305.5t-189.5 113.5q-219 0 -219 -311z" />
<glyph unicode="&#xf3;" horiz-adv-x="1038" d="M61 455q0 112 39 205t103.5 153t145.5 92.5t169 32.5q120 0 223.5 -54.5t169.5 -163t66 -249.5q0 -110 -38.5 -204t-102.5 -156t-145.5 -96.5t-168.5 -34.5q-88 0 -171.5 34.5t-147.5 95t-103 151t-39 194.5zM279 518q0 -188 74.5 -303t187.5 -115q221 0 221 310 q0 192 -74.5 305.5t-189.5 113.5q-219 0 -219 -311zM440 1114q22 -28 58 -6l278 158q45 26 57 65t-20 82q-32 37 -68 33.5t-73 -41.5l-219 -229q-33 -33 -13 -62z" />
<glyph unicode="&#xf4;" horiz-adv-x="1038" d="M61 455q0 112 39 205t103.5 153t145.5 92.5t169 32.5q120 0 223.5 -54.5t169.5 -163t66 -249.5q0 -110 -38.5 -204t-102.5 -156t-145.5 -96.5t-168.5 -34.5q-88 0 -171.5 34.5t-147.5 95t-103 151t-39 194.5zM199 1094l329 356l332 -356h-133l-199 141l-198 -141h-131z M279 518q0 -188 74.5 -303t187.5 -115q221 0 221 310q0 192 -74.5 305.5t-189.5 113.5q-219 0 -219 -311z" />
<glyph unicode="&#xf5;" horiz-adv-x="1038" d="M61 455q0 112 39 205t103.5 153t145.5 92.5t169 32.5q120 0 223.5 -54.5t169.5 -163t66 -249.5q0 -110 -38.5 -204t-102.5 -156t-145.5 -96.5t-168.5 -34.5q-88 0 -171.5 34.5t-147.5 95t-103 151t-39 194.5zM147 1151q-22 92 52.5 154.5t173.5 62.5q51 0 95 -18.5 t71 -41t66 -41t81 -18.5q48 0 84.5 31t36.5 55h94q-10 -102 -79.5 -163.5t-174.5 -61.5q-40 0 -77.5 14.5t-66 35t-55 40.5t-54.5 34.5t-54 14.5q-57 0 -88 -36t-27 -62h-78zM279 518q0 -188 74.5 -303t187.5 -115q221 0 221 310q0 192 -74.5 305.5t-189.5 113.5 q-219 0 -219 -311z" />
<glyph unicode="&#xf6;" horiz-adv-x="1038" d="M61 455q0 112 39 205t103.5 153t145.5 92.5t169 32.5q120 0 223.5 -54.5t169.5 -163t66 -249.5q0 -110 -38.5 -204t-102.5 -156t-145.5 -96.5t-168.5 -34.5q-88 0 -171.5 34.5t-147.5 95t-103 151t-39 194.5zM164 1272q0 54 39 93.5t94 39.5q54 0 92.5 -39.5t38.5 -93.5 t-38.5 -93.5t-92.5 -39.5q-55 0 -94 39.5t-39 93.5zM279 518q0 -188 74.5 -303t187.5 -115q221 0 221 310q0 192 -74.5 305.5t-189.5 113.5q-219 0 -219 -311zM596 1272q0 54 39.5 93.5t93.5 39.5t93.5 -39.5t39.5 -93.5t-39.5 -93.5t-93.5 -39.5t-93.5 39.5t-39.5 93.5z " />
<glyph unicode="&#xf7;" horiz-adv-x="1044" d="M143 446v138h758v-138h-758zM424 203q0 41 30.5 71.5t71.5 30.5t72 -30.5t31 -71.5q0 -42 -30.5 -72.5t-72.5 -30.5t-72 30t-30 73zM424 829q0 41 30.5 72t71.5 31t72 -31t31 -72q0 -42 -30.5 -72t-72.5 -30t-72 30t-30 72z" />
<glyph unicode="&#xf8;" horiz-adv-x="1038" d="M61 455q0 112 39 205t103.5 153t145.5 92.5t169 32.5q128 0 240 -64l37 50l96 -76l-39 -51q125 -128 125 -326q0 -110 -38.5 -204t-102.5 -156t-145.5 -96.5t-168.5 -34.5q-127 0 -233 65l-43 -57l-99 75l43 58q-129 139 -129 334zM279 518q0 -133 38 -229l347 461 q-70 79 -166 79q-219 0 -219 -311zM385 174q68 -74 156 -74q221 0 221 310q0 120 -33 221z" />
<glyph unicode="&#xf9;" horiz-adv-x="1150" d="M51 827v74l240 37q23 2 37 -9.5t14 -33.5v-549q0 -127 47.5 -179t147.5 -52q97 0 153 60.5t92 172.5v414q0 36 -12 50.5t-43 14.5h-31v74l238 37q24 4 37.5 -7.5t13.5 -35.5v-702q0 -50 27 -66.5t88 -7.5v-84l-148 -43q-63 -20 -110 33.5t-60 185.5v4q-10 -28 -23 -54.5 t-38.5 -60t-57 -58t-79 -41.5t-103.5 -17q-156 0 -249 89.5t-93 258.5v430q0 35 -13 50t-44 15h-31zM316 1331q-12 39 20 82q32 37 69 33.5t72 -41.5l219 -229q35 -35 13 -62q-22 -28 -58 -6l-278 158q-45 26 -57 65z" />
<glyph unicode="&#xfa;" horiz-adv-x="1150" d="M51 827v74l240 37q23 2 37 -9.5t14 -33.5v-549q0 -127 47.5 -179t147.5 -52q97 0 153 60.5t92 172.5v414q0 36 -12 50.5t-43 14.5h-31v74l238 37q24 4 37.5 -7.5t13.5 -35.5v-702q0 -50 27 -66.5t88 -7.5v-84l-148 -43q-63 -20 -110 33.5t-60 185.5v4q-10 -28 -23 -54.5 t-38.5 -60t-57 -58t-79 -41.5t-103.5 -17q-156 0 -249 89.5t-93 258.5v430q0 35 -13 50t-44 15h-31zM487 1114q-20 29 13 62l219 229q37 38 73 41.5t68 -33.5q32 -43 20 -82t-57 -65l-278 -158q-36 -22 -58 6z" />
<glyph unicode="&#xfb;" horiz-adv-x="1150" d="M51 827v74l240 37q23 2 37 -9.5t14 -33.5v-549q0 -127 47.5 -179t147.5 -52q97 0 153 60.5t92 172.5v414q0 36 -12 50.5t-43 14.5h-31v74l238 37q24 4 37.5 -7.5t13.5 -35.5v-702q0 -50 27 -66.5t88 -7.5v-84l-148 -43q-63 -20 -110 33.5t-60 185.5v4q-10 -28 -23 -54.5 t-38.5 -60t-57 -58t-79 -41.5t-103.5 -17q-156 0 -249 89.5t-93 258.5v430q0 35 -13 50t-44 15h-31zM246 1094l329 356l332 -356h-133l-199 141l-198 -141h-131z" />
<glyph unicode="&#xfc;" horiz-adv-x="1150" d="M51 827v74l240 37q23 2 37 -9.5t14 -33.5v-549q0 -127 47.5 -179t147.5 -52q97 0 153 60.5t92 172.5v414q0 36 -12 50.5t-43 14.5h-31v74l238 37q24 4 37.5 -7.5t13.5 -35.5v-702q0 -50 27 -66.5t88 -7.5v-84l-148 -43q-63 -20 -110 33.5t-60 185.5v4q-10 -28 -23 -54.5 t-38.5 -60t-57 -58t-79 -41.5t-103.5 -17q-156 0 -249 89.5t-93 258.5v430q0 35 -13 50t-44 15h-31zM209 1272q0 54 39 93.5t94 39.5q54 0 92.5 -39.5t38.5 -93.5t-38.5 -93.5t-92.5 -39.5q-55 0 -94 39.5t-39 93.5zM641 1272q0 54 39.5 93.5t93.5 39.5t93.5 -39.5 t39.5 -93.5t-39.5 -93.5t-93.5 -39.5t-93.5 39.5t-39.5 93.5z" />
<glyph unicode="&#xfd;" horiz-adv-x="1132" d="M23 858v66h423v-66l-51 -10q-66 -12 -45 -57l264 -562l228 562q8 22 -6.5 37t-40.5 20l-58 10v66h355v-66l-29 -12q-7 -3 -26 -10.5t-26.5 -11t-18 -12.5t-15.5 -21l-416 -963q-30 -69 -55 -112.5t-59 -82t-77 -56t-98 -17.5q-95 0 -153.5 31.5t-71.5 91.5 q-12 64 14 101.5t93 37.5q37 0 57.5 -15t26 -37t9.5 -44t17 -37t39 -15q9 0 17 2.5t15.5 9t14 12.5t14 17t12.5 19t12 22.5t10.5 22t11 23.5t10.5 22l88 199l-381 768q-12 26 -26.5 36t-41.5 19zM510 1114q21 -27 57 -6l279 158q45 26 57 65t-20 82q-32 37 -68.5 33.5 t-73.5 -41.5l-219 -229q-33 -33 -12 -62z" />
<glyph unicode="&#xfe;" horiz-adv-x="1114" d="M31 1262v73l268 31q49 6 49 -39v-340q0 -130 -33 -254l35 45q27 32 47.5 53t58.5 50.5t85.5 45t101.5 15.5q174 0 281.5 -127t107.5 -350q0 -111 -33.5 -203.5t-89.5 -151t-126 -90.5t-146 -32q-169 0 -287 159v-397q0 -34 23.5 -45.5t79.5 -11.5v-70h-406v70 q52 0 74 11.5t22 45.5v1444q0 36 -12.5 52t-42.5 16h-57zM350 299q32 -89 100 -145t166 -56q95 0 148 85.5t53 254.5q0 155 -52 258t-147 103q-66 0 -116.5 -17t-82.5 -41.5t-69 -66.5v-375z" />
<glyph unicode="&#xff;" horiz-adv-x="1132" d="M23 858v66h423v-66l-51 -10q-66 -12 -45 -57l264 -562l228 562q8 22 -6.5 37t-40.5 20l-58 10v66h355v-66l-29 -12q-7 -3 -26 -10.5t-26.5 -11t-18 -12.5t-15.5 -21l-416 -963q-30 -69 -55 -112.5t-59 -82t-77 -56t-98 -17.5q-95 0 -153.5 31.5t-71.5 91.5 q-12 64 14 101.5t93 37.5q37 0 57.5 -15t26 -37t9.5 -44t17 -37t39 -15q9 0 17 2.5t15.5 9t14 12.5t14 17t12.5 19t12 22.5t10.5 22t11 23.5t10.5 22l88 199l-381 768q-12 26 -26.5 36t-41.5 19zM231 1272q0 54 39.5 93.5t94.5 39.5q54 0 92.5 -39.5t38.5 -93.5t-38.5 -93.5 t-92.5 -39.5q-55 0 -94.5 39.5t-39.5 93.5zM664 1272q0 54 39.5 93.5t93.5 39.5t93.5 -39.5t39.5 -93.5t-39.5 -93.5t-93.5 -39.5t-93.5 39.5t-39.5 93.5z" />
<glyph unicode="&#x152;" horiz-adv-x="2031" d="M61 647q0 190 83.5 341t227 234t320.5 83q99 0 203 -33h917q21 0 28 -7t7 -30v-219h-86l-30 67q-20 42 -58 58t-106 16h-336v-452h350q44 0 62 19t39 71l1.5 3t1 3t1.5 4h51v-313h-51q-2 4 -8.5 19.5t-8 19t-7.5 15.5t-9 15t-9 11t-11.5 10t-13.5 6t-17.5 5t-20.5 1h-350 v-481l436 4q58 0 82 13t55 52l54 68h102q-33 -65 -66 -203q-6 -22 -23 -34.5t-38 -12.5h-948q-95 -31 -193 -31q-132 0 -248.5 49.5t-201 137.5t-133 215.5t-48.5 275.5zM313 709q0 -134 33.5 -250t88 -193.5t123.5 -121.5t140 -44q105 0 180 31.5t121 112.5v696 q-52 120 -134 186t-173 66q-70 0 -126 -14t-104.5 -48t-80.5 -88.5t-50 -138.5t-18 -194z" />
<glyph unicode="&#x153;" horiz-adv-x="1689" d="M61 455q0 112 39 205t103.5 153t145.5 92.5t169 32.5q99 0 189.5 -39.5t156.5 -112.5q62 74 151.5 114t188.5 40q108 0 203.5 -48.5t155 -137t59.5 -195.5q0 -59 -29.5 -92t-85.5 -33h-526q0 -144 77 -238t199 -94q88 0 147 36.5t107 94.5l72 -77q-24 -32 -49.5 -57 t-68 -54.5t-103.5 -46t-135 -16.5q-107 0 -200.5 43.5t-158.5 121.5q-64 -79 -155.5 -123t-190.5 -44q-88 0 -171.5 34.5t-147.5 95t-103 151t-39 194.5zM279 518q0 -188 74.5 -303t187.5 -115q106 0 163 71.5t58 229.5q-4 46 -4 68v20q-15 157 -86.5 248.5t-173.5 91.5 q-219 0 -219 -311zM981 543h432q0 138 -52.5 214.5t-156.5 76.5q-107 0 -165 -77t-58 -214z" />
<glyph unicode="&#x178;" horiz-adv-x="1304" d="M31 1186v86h454v-86q-47 -8 -70 -26t-5 -42l301 -418l286 398q26 35 -3.5 57.5t-94.5 30.5v86h375v-86q-60 -7 -94 -33t-78 -88l-340 -463v-442q0 -17 11.5 -29t36.5 -19.5t45 -11t56 -8.5v-92h-505v92q36 5 56 8.5t45.5 11t37.5 19.5t12 29v387l-336 467q-11 15 -31 45 t-27 39.5t-22 28.5t-23.5 25t-23 15.5t-29.5 13t-34 5.5zM338 1620q0 54 39 93.5t94 39.5q54 0 92.5 -39.5t38.5 -93.5t-38.5 -93.5t-92.5 -39.5q-55 0 -94 39.5t-39 93.5zM770 1620q0 54 39.5 93.5t93.5 39.5t93.5 -39.5t39.5 -93.5t-39.5 -93.5t-93.5 -39.5t-93.5 39.5 t-39.5 93.5z" />
<glyph unicode="&#x2c6;" horiz-adv-x="886" d="M113 1094l331 354l330 -354h-131l-199 139l-200 -139h-131z" />
<glyph unicode="&#x2dc;" horiz-adv-x="921" d="M86 1151q-22 92 52 154.5t173 62.5q42 0 78 -12.5t62.5 -30t51.5 -34.5t56 -29.5t66 -12.5q48 0 84 31t36 55h95q-10 -102 -79.5 -163.5t-174.5 -61.5q-40 0 -77.5 14.5t-66 35t-55 40.5t-54.5 34.5t-54 14.5q-57 0 -88 -36t-27 -62h-78z" />
<glyph unicode="&#x2000;" horiz-adv-x="924" />
<glyph unicode="&#x2001;" horiz-adv-x="1849" />
<glyph unicode="&#x2002;" horiz-adv-x="924" />
<glyph unicode="&#x2003;" horiz-adv-x="1849" />
<glyph unicode="&#x2004;" horiz-adv-x="616" />
<glyph unicode="&#x2005;" horiz-adv-x="462" />
<glyph unicode="&#x2006;" horiz-adv-x="308" />
<glyph unicode="&#x2007;" horiz-adv-x="308" />
<glyph unicode="&#x2008;" horiz-adv-x="231" />
<glyph unicode="&#x2009;" horiz-adv-x="369" />
<glyph unicode="&#x200a;" horiz-adv-x="102" />
<glyph unicode="&#x2010;" horiz-adv-x="778" d="M92 451v124h553v-124h-553z" />
<glyph unicode="&#x2011;" horiz-adv-x="778" d="M92 451v124h553v-124h-553z" />
<glyph unicode="&#x2012;" horiz-adv-x="778" d="M92 451v124h553v-124h-553z" />
<glyph unicode="&#x2013;" horiz-adv-x="1366" d="M61 451v124h1192v-124h-1192z" />
<glyph unicode="&#x2014;" horiz-adv-x="1820" d="M51 451v124h1678v-124h-1678z" />
<glyph unicode="&#x2018;" horiz-adv-x="393" d="M90 981q-15 92 6 174q28 95 113 170q21 12 37 -4l37 -39q-23 -24 -33.5 -35.5t-22.5 -30.5t-18 -36q-21 -52 -10 -78q18 5 55 2q45 -6 74 -45t22 -88q-6 -55 -46.5 -87t-92.5 -26q-49 6 -81 41.5t-40 81.5z" />
<glyph unicode="&#x2019;" horiz-adv-x="393" d="M43 1225q6 53 47.5 84.5t93.5 25.5q49 -6 80 -41.5t39 -81.5q18 -91 -6 -174q-30 -98 -111 -170q-21 -12 -39 4l-34 39q59 66 73 103q18 53 11 78q-19 -5 -58 -2q-44 6 -73 45.5t-23 89.5z" />
<glyph unicode="&#x201a;" horiz-adv-x="438" d="M96 119q6 53 48 84.5t94 25.5q49 -6 79.5 -41.5t38.5 -81.5q18 -91 -6 -174q-29 -99 -110 -170q-20 -11 -39 5l-35 38q58 62 74 103q18 51 10 78q-19 -5 -57 -2q-44 6 -73.5 45.5t-23.5 89.5z" />
<glyph unicode="&#x201c;" horiz-adv-x="749" d="M51 981q-18 91 6 174q27 93 111 170q22 13 39 -4l35 -39q-59 -62 -74 -102q-18 -54 -8 -78q16 5 55 2q45 -6 73.5 -45t22.5 -88q-6 -55 -47.5 -87t-93.5 -26q-49 6 -80 41.5t-39 81.5zM408 981q-18 91 6 174q28 95 110 170q22 13 39 -4l35 -39q-59 -62 -74 -102 q-18 -54 -8 -78q16 5 55 2q45 -6 74 -45t23 -88q-6 -54 -48 -86.5t-94 -26.5q-49 6 -79.5 41.5t-38.5 81.5z" />
<glyph unicode="&#x201d;" horiz-adv-x="749" d="M59 1225q6 53 47 84.5t93 25.5q49 -6 80.5 -41.5t39.5 -81.5q15 -92 -6 -174q-29 -97 -112 -170q-21 -12 -37 4l-37 39q3 4 12.5 14t12.5 13.5t10.5 12t10.5 13t8.5 12t8 12.5l6 12t5.5 14q21 52 10 78q-18 -5 -55 -2q-45 6 -74.5 45.5t-22.5 89.5zM416 1225 q6 53 46.5 84.5t92.5 25.5q49 -6 81 -41.5t40 -81.5q15 -92 -6 -174q-29 -96 -113 -170q-21 -12 -37 4l-37 39q3 4 12.5 14t12.5 13.5t10.5 12t10.5 13t8.5 12t8 12.5l6 12t5.5 14q21 52 10 78q-18 -5 -55 -2q-45 6 -74 45.5t-22 89.5z" />
<glyph unicode="&#x201e;" horiz-adv-x="770" d="M96 119q6 53 48 84.5t94 25.5q49 -6 79.5 -41.5t38.5 -81.5q18 -91 -6 -174q-29 -99 -110 -170q-20 -11 -39 5l-35 38q58 62 74 103q18 51 10 78q-19 -5 -57 -2q-44 6 -73.5 45.5t-23.5 89.5zM428 119q6 53 47.5 84.5t93.5 25.5q49 -6 80 -41.5t39 -81.5q18 -91 -6 -174 q-29 -97 -111 -170q-20 -11 -39 5l-34 38q57 60 73 103q18 53 11 78q-19 -5 -58 -2q-44 6 -73 45.5t-23 89.5z" />
<glyph unicode="&#x2022;" horiz-adv-x="679" d="M123 600q0 89 64 153t153 64q90 0 153.5 -63.5t63.5 -153.5q0 -91 -63 -154t-154 -63q-90 0 -153.5 63.5t-63.5 153.5z" />
<glyph unicode="&#x2026;" d="M113 106q0 51 37 88t88 37t87.5 -37t36.5 -88q0 -52 -36.5 -89t-87.5 -37t-88 37t-37 89zM487 106q0 51 36.5 88t88.5 37q51 0 88 -37t37 -88q0 -52 -37 -89t-88 -37q-52 0 -88.5 36.5t-36.5 89.5zM860 106q0 51 37 88t88 37t88 -37t37 -88q0 -52 -37 -89t-88 -37t-88 37 t-37 89z" />
<glyph unicode="&#x202f;" horiz-adv-x="369" />
<glyph unicode="&#x2039;" horiz-adv-x="518" d="M94 469l355 332v-133l-140 -199l140 -199v-131z" />
<glyph unicode="&#x203a;" horiz-adv-x="518" d="M70 139v131l141 199l-141 199v133l356 -332z" />
<glyph unicode="&#x205f;" horiz-adv-x="462" />
<glyph unicode="&#x20ac;" horiz-adv-x="1497" d="M70 440l22 115h164q-6 49 -6 102l2 41h-139l24 117h129q49 218 212 354t374 136q232 0 371 -168q44 0 59 100q6 35 39 35h55l23 -391l-88 -31q-35 -12 -47 22q-3 8 -7 19t-10.5 27t-11.5 28q-54 130 -144.5 189t-201.5 59q-144 0 -247.5 -96t-131.5 -283h467l-25 -117 h-450v-10q0 -61 10 -133h420l-23 -115h-368q54 -155 160.5 -246.5t232.5 -91.5q106 0 179.5 44t133.5 126q8 12 20.5 31.5t18.5 27.5t15.5 15t19.5 8q18 0 46 -18t32 -35q4 -14 -2 -30t-25 -50q-67 -114 -187.5 -183t-299.5 -69q-206 0 -374 128t-230 343h-211z" />
<glyph unicode="&#x2122;" horiz-adv-x="1290" d="M41 1147l6 98q0 9 9.5 18t21.5 9h407q12 0 21.5 -9t9.5 -18l6 -98h-45l-16 33q-8 16 -27 16h-92v-317q0 -10 16.5 -15.5t36.5 -5.5v-51h-227v51q51 0 51 21v317h-90q-19 0 -27 -16l-16 -33h-45zM578 807v47q29 8 37 13.5t8 19.5v297q0 18 -8.5 24.5t-36.5 12.5v51h155 l187 -283l184 283h137v-49q-23 -8 -29 -14t-6 -25v-297q0 -16 6.5 -20.5t36.5 -12.5v-47h-200v47q29 8 37 13.5t8 19.5v225l-158 -256q-10 -23 -28.5 -23t-30.5 23l-177 258v-227q0 -7 2 -12t9 -8.5t12.5 -5.5t21.5 -7v-47h-167z" />
<glyph unicode="&#x25fc;" horiz-adv-x="921" d="M0 0v922h922v-922h-922z" />
</font>
</defs>
</svg>
