<?xml version="1.0" standalone="no"?>
<!DOCTYPE svg PUBLIC "-//W3C//DTD SVG 1.1//EN" "http://www.w3.org/Graphics/SVG/1.1/DTD/svg11.dtd" >
<svg xmlns="http://www.w3.org/2000/svg" xmlns:xlink="http://www.w3.org/1999/xlink" version="1.1">
<metadata></metadata>
<defs>
<font id="quincy_cfitalic" horiz-adv-x="1202" >
<font-face units-per-em="2048" ascent="1638" descent="-410" />
<missing-glyph horiz-adv-x="350" />
<glyph unicode="&#xfb01;" horiz-adv-x="1173" d="M-180 -248q0 37 18.5 56.5t46.5 19.5q31 0 53.5 -20.5t22.5 -61.5q0 -106 82 -106q32 0 57 13t41.5 35t29 57t20 72t14.5 87l121 944h-140l11 86h139l8 63q24 184 102 276.5t226 92.5q70 0 127.5 -20t91.5 -50t52 -62t18 -60q0 -35 -20.5 -54.5t-51.5 -19.5t-50.5 17 t-19.5 52q0 40 -39.5 77.5t-120.5 37.5q-35 0 -61.5 -12.5t-43 -32.5t-28.5 -55.5t-18.5 -69t-13.5 -86.5l-13 -94h258q-19 -55 -31 -70.5t-38 -15.5h-199l-117 -916q-23 -178 -101.5 -275t-199.5 -97q-59 0 -106 18.5t-73.5 48t-40 61.5t-13.5 64zM811 821l10 58 q100 57 170 57q45 0 57.5 -36.5t2.5 -113.5l-74 -600q-4 -37 7.5 -62t41 -29t78.5 34l-27 -80q-69 -49 -145 -49q-54 0 -83.5 43t-21.5 104l76 601q6 53 -16 73.5t-76 -0.5z" />
<glyph unicode="&#xfb02;" horiz-adv-x="1173" d="M-180 -248q0 37 18.5 56.5t46.5 19.5q31 0 53.5 -20.5t22.5 -61.5q0 -106 82 -106q32 0 57 13t41.5 35t29 57t20 72t14.5 87l121 944h-140l11 86h139l2 8q27 214 136 319t284 105q178 0 262.5 -90t66.5 -225l-110 -861q-4 -37 7 -63t39.5 -31t78.5 33l-27 -80 q-73 -49 -125 -49q-67 0 -100 44t-25 106l117 901q14 121 -29.5 177t-169.5 56q-216 0 -256 -311l-4 -39h277q-19 -55 -31.5 -70.5t-38.5 -15.5h-219l-117 -916q-23 -178 -101.5 -275t-199.5 -97q-59 0 -106 18.5t-73.5 48t-40 61.5t-13.5 64z" />
<glyph horiz-adv-x="0" />
<glyph horiz-adv-x="682" />
<glyph unicode=" "  horiz-adv-x="350" />
<glyph unicode="&#x09;" horiz-adv-x="350" />
<glyph unicode="&#xa0;" horiz-adv-x="350" />
<glyph unicode="!" horiz-adv-x="407" d="M31 102q4 41 36.5 72t69.5 31q43 0 69.5 -36t20.5 -85q-6 -42 -38.5 -73t-69.5 -31q-43 0 -69 35.5t-19 86.5zM170 444q19 167 10 415.5t4 348.5q9 69 38 99t81 30q56 0 78.5 -34.5t13.5 -112.5q-12 -99 -82.5 -341.5t-93.5 -404.5h-49z" />
<glyph unicode="&#x22;" horiz-adv-x="530" d="M162 928q0 -39 22 -39q11 0 21 11t14 28l92 334q10 40 -7.5 65t-55.5 25q-39 0 -62.5 -25t-23.5 -65v-334zM428 928q0 -39 23 -39q12 0 21.5 11t12.5 28l93 334q11 40 -6.5 65t-57.5 25q-38 0 -62 -25t-24 -65v-334z" />
<glyph unicode="#" horiz-adv-x="1138" d="M125 408l8 34q6 29 31 29h184l139 387h-202q-25 0 -25 33l8 37q8 26 33 26h219l152 422h90l-148 -422h236l151 422h89l-148 -422h178q12 0 20 -9.5t5 -24.5l-8 -35q0 -27 -31 -27h-199l-135 -387h213q14 0 20.5 -10t0.5 -25l-5 -37q-8 -26 -32 -26h-232l-151 -434h-99 l156 434h-233l-152 -434h-100l155 434h-166q-12 0 -18.5 10t-3.5 25zM444 471h234l137 387h-235z" />
<glyph unicode="$" horiz-adv-x="985" d="M61 55l39 326h56q23 0 33 -10.5t10 -36.5q0 -127 53 -197.5t178 -79.5l68 535l-6 2q-13 6 -40.5 17.5t-44.5 19t-44.5 20.5t-45.5 24.5t-42 28.5t-39.5 34t-32.5 40t-26.5 47.5t-16 55.5t-6.5 65q0 152 116.5 255.5t313.5 103.5h4l14 106h74l-14 -111q60 -9 110 -30.5 t78.5 -43.5t63 -45.5t61.5 -33.5l-37 -260h-57q-17 0 -27 10t-10 25v77q0 75 -55.5 135.5t-137.5 82.5l-59 -476q121 -50 169 -80q172 -108 173 -292q0 -76 -27.5 -140.5t-72 -109t-102.5 -76.5t-118 -48.5t-120 -19.5l-13 -100h-73l12 102q-79 5 -184.5 41.5t-174.5 36.5z M309 985q0 -20 3.5 -38t8.5 -32.5t15.5 -28.5t18.5 -23.5t24 -20.5t25 -17t28.5 -15t28.5 -13t30 -13t29 -12l60 455h-5q-120 0 -193 -70.5t-73 -171.5zM504 57q49 4 92.5 20.5t81 47t60 82t22.5 117.5q0 49 -14.5 87t-45 66t-59.5 45.5t-74 38.5z" />
<glyph unicode="%" horiz-adv-x="1277" d="M88 -10l956 1245q-211 -168 -348 -84q6 -62 -12 -127q-27 -95 -116.5 -182.5t-184.5 -87.5q-52 0 -90.5 26.5t-55 68t-20.5 93t12 102.5q30 97 121 185t185 88q38 0 69 -17q11 -4 50 -26.5t75 -35t91 -19.5t127 14.5t153 71.5h82l-959 -1315h-135zM346 1024 q-55 -195 47 -195q116 0 176 215q12 38 17.5 72t3.5 64t-18.5 47.5t-45.5 17.5q-110 0 -180 -221zM623.5 165.5q-4.5 51.5 11.5 102.5q32 98 122 185.5t185 87.5q52 0 90 -27t54.5 -69t19 -94t-15.5 -103q-24 -94 -114 -182.5t-185 -88.5q-52 0 -90.5 26.5t-55.5 68.5 t-21.5 93.5zM754 248q-51 -195 47 -195q61 0 105.5 60.5t70.5 154.5q12 39 17 72.5t3 63.5t-18 47.5t-45 17.5q-110 0 -180 -221z" />
<glyph unicode="&#x26;" horiz-adv-x="1372" d="M84 350q0 150 88.5 260.5t241.5 128.5q-59 49 -80 76q-50 65 -51 164q-2 39 7 80.5t34 86t63 79.5t100.5 57.5t139.5 22.5q107 0 187.5 -56.5t80.5 -154.5q0 -41 -17.5 -69t-48.5 -28q-71 0 -71 90q0 79 -29.5 107.5t-101.5 28.5q-60 0 -101.5 -28.5t-60 -75.5 t-25.5 -90.5t-6 -90.5q7 -164 139 -209l-24 -70l-21 5q-63 13 -117.5 -13t-89 -76t-54 -110.5t-19.5 -118.5q0 -86 26.5 -148.5t72 -95.5t95.5 -48t107 -15q83 0 151.5 25t114 65.5t77 92t45 103.5t13.5 101q0 60 -27.5 95.5t-78.5 35.5q-61 0 -92.5 -49.5t-1.5 -91.5h-50 q-34 49 -34 104q0 37 34.5 70t108.5 82l256 168q107 72 145.5 127.5t38.5 138.5q0 60 -49.5 79t-138.5 -7q-13 -3 -22.5 3.5t-10.5 22.5v3q4 34 20 39l3 1q85 29 135 29q78 0 132 -53.5t54 -130.5q0 -48 -12 -92.5t-30 -79t-51.5 -70.5t-63.5 -61.5t-80.5 -58.5t-87 -54 t-97.5 -55q148 -55 148 -218q0 -59 -23 -120t-71 -117.5t-114.5 -100t-161.5 -70t-204 -26.5q-114 0 -213.5 45t-163 133.5t-63.5 202.5z" />
<glyph unicode="'" horiz-adv-x="276" d="M162 928q0 -39 22 -39q11 0 21 11t14 28l92 334q10 40 -7.5 65t-55.5 25q-39 0 -62.5 -25t-23.5 -65v-334z" />
<glyph unicode="(" horiz-adv-x="505" d="M102 616q34 273 164 518t312 410q14 8 36 8h15q19 0 26 -10t-2 -24q-155 -146 -260 -389t-139 -533q-37 -278 2.5 -516.5t149.5 -390.5q14 -12 11 -20.5t-20 -8.5h-16q-21 0 -31 23q-144 161 -213.5 406t-34.5 527z" />
<glyph unicode=")" horiz-adv-x="493" d="M-146 -329q-2 11 15 26q169 152 284.5 392t145.5 517q38 282 -20.5 525t-194.5 395q-9 10 0 18t29 8h16q17 0 37 -14q160 -163 239.5 -408.5t45.5 -523.5q-34 -279 -174 -524.5t-343 -407.5q-17 -14 -40 -14h-19q-19 0 -21 11z" />
<glyph unicode="*" horiz-adv-x="587" d="M131 813q33 -47 96 -18l119 139q12 15 5.5 26t-25.5 7l-152 -37q-55 -44 -43 -117zM176 1141q-35 -68 8 -105l140 -37q19 -5 33.5 12.5t4.5 32.5l-81 136q-55 27 -105 -39zM295 745q0 -66 59 -75q71 9 90 84l-34 159q-5 20 -17 16.5t-20 -24.5zM358 1221l35 -160 q1 -18 11 -17q11 3 20 25l80 160q0 67 -60 76q-33 -5 -56.5 -27t-29.5 -57zM440 926l82 -135q53 -27 105 38q36 65 -11 109l-141 33q-19 4 -32.5 -13t-2.5 -32zM449.5 1010q7.5 -11 27.5 -6l152 38q55 43 43 115q-36 47 -97 19l-120 -140q-13 -15 -5.5 -26z" />
<glyph unicode="+" horiz-adv-x="901" d="M113 461l14 110h291l41 322h98l-41 -322h287l-12 -110h-289l-41 -328h-99l41 328h-290z" />
<glyph unicode="," horiz-adv-x="329" d="M41 113q9 41 44 66t73 22q39 -4 62.5 -37t25.5 -76q6 -74 -27 -158q-25 -69 -106 -143q-13 -5 -29 14l-25 29q56 56 74 98q19 51 19 64q-17 -12 -46 -6q-37 5 -57 41.5t-8 85.5z" />
<glyph unicode="-" horiz-adv-x="659" d="M72 465l14 98h492l-13 -98h-493z" />
<glyph unicode="." horiz-adv-x="352" d="M49 102q3 41 35.5 72t71.5 31q41 0 67.5 -36t20.5 -85q-6 -42 -39 -73t-70 -31q-42 0 -67.5 36t-18.5 86z" />
<glyph unicode="/" horiz-adv-x="792" d="M78 0l653 1313h103l-656 -1313h-100z" />
<glyph unicode="0" horiz-adv-x="1064" d="M107.5 484.5q-3.5 82.5 9.5 166.5q13 97 41 189.5t74 177t104.5 147.5t137 100.5t167.5 37.5q77 0 140.5 -26.5t106 -73.5t74 -111.5t44.5 -139t16.5 -156.5t-8.5 -165q-16 -125 -57.5 -239t-106 -209t-159.5 -151.5t-206 -56.5q-76 0 -139 26.5t-105.5 74t-73 111.5 t-43.5 139.5t-16.5 158zM289 631q-40 -302 2 -441t192 -139q155 0 236 144t121 456q23 193 15 321t-59.5 192.5t-152.5 64.5q-155 0 -235.5 -144.5t-118.5 -453.5z" />
<glyph unicode="1" horiz-adv-x="585" d="M53 0l6 57q92 20 120 37q25 16 28 37l117 928q5 36 -5.5 51t-37.5 6l-101 -26l13 69l253 123q31 14 42.5 1t7.5 -40l-140 -1120q-1 -10 2 -18t11.5 -14t17 -10.5t22.5 -8.5t23.5 -6.5t25.5 -5.5t23 -5l-4 -55h-424z" />
<glyph unicode="2" horiz-adv-x="1083" d="M47 4q29 123 79 221.5t128.5 183t170.5 154.5t226 152q71 44 107.5 76.5t59 81.5t24.5 120q9 224 -205 224q-105 0 -172 -50t-94 -141q-18 -51 -20.5 -94t2.5 -62.5t-1 -52.5q-24 -46 -57 -60t-59.5 0t-44.5 43t-17 62q8 191 137.5 317t331.5 126q173 0 261.5 -84.5 t86.5 -225.5q1 -76 -20 -138t-70.5 -120.5t-116 -111t-170.5 -119.5q-156 -99 -251 -179t-156 -182h534q60 0 91 12.5t63 51.5l35 41h43l-68 -207q-19 -43 -59 -43z" />
<glyph unicode="3" horiz-adv-x="1046" d="M80 362q3 49 26 72t58 23q40 0 56 -13.5t16 -40.5t-0.5 -67t6.5 -92q23 -97 78 -146t163 -49q112 0 206 96t114 248q16 127 -41 196.5t-141 69.5q-36 0 -76 -14l-78 -27l-18 68l81 37q243 101 265 289q12 101 -32 157t-140 56q-179 0 -226 -195q-14 -57 -14 -108 q-41 -36 -80 -37t-65 32.5t-21 83.5q5 52 36.5 105.5t83 98t127 72.5t159.5 28q87 0 155 -28.5t106 -74t55 -99.5t11 -108q-12 -83 -64 -145t-128 -92q42 4 83.5 -20.5t73 -69t47 -113t5.5 -143.5q-22 -180 -167 -308.5t-323 -128.5q-196 0 -302 104t-95 283z" />
<glyph unicode="4" horiz-adv-x="1040" d="M86 418l10 55l705 834q25 28 50.5 16.5t20.5 -43.5l-98 -776h189l-13 -86h-186l-37 -295q-1 -8 0.5 -14.5t6 -11.5t9 -9t12.5 -7.5t14 -6t16 -5l16 -4t17 -3.5t16 -3l-5 -59h-391l6 57q35 7 57 13t44.5 21.5t25.5 37.5l37 289h-522zM201 504h417l70 547z" />
<glyph unicode="5" horiz-adv-x="1067" d="M84 365q0 47 23.5 69.5t58.5 22.5q40 0 55.5 -13.5t15 -40.5t-1 -67t6.5 -92q27 -99 76.5 -146t150.5 -47q115 0 209.5 95t114.5 247q20 158 -54.5 267.5t-203.5 109.5q-34 0 -67 -5.5t-55.5 -12t-49.5 -19.5t-40 -20t-38 -23t-31 -20l-66 2l119 600h613l34 26l33 2 l-35 -157l-37 -31h-567l-74 -364q56 53 141 83.5t171 30.5q77 0 148.5 -26.5t130.5 -79t88 -142.5t14 -204q-22 -181 -166.5 -308t-329.5 -127q-192 0 -296 105t-91 285z" />
<glyph unicode="6" horiz-adv-x="1046" d="M152 432.5q0 72.5 10 151.5q13 97 43 196.5t79.5 193.5t111 167t144 117.5t171.5 44.5q141 0 223 -82q18 -18 4 -35l-18 -21q-9 -13 -27 0q-46 24 -62 32t-45 15t-65 7q-281 0 -389 -553q35 44 116 87.5t168 43.5q167 0 265.5 -112.5t74.5 -293.5q-10 -76 -45 -149 t-90 -133t-136 -97t-173 -37q-79 0 -141 23.5t-102.5 66.5t-67.5 99.5t-38 126t-11 142zM324 565q-40 -247 12.5 -377.5t175.5 -130.5q87 0 149.5 49.5t95.5 127.5t46 184q17 132 -32 214.5t-150 82.5q-67 0 -137.5 -29.5t-112.5 -64t-47 -56.5z" />
<glyph unicode="7" horiz-adv-x="983" d="M152 1024l65 205q15 43 55 43h758l-739 -1282h-27q-25 0 -38 22.5t3 50.5l633 1053h-618l-51 -92h-41z" />
<glyph unicode="8" horiz-adv-x="1040" d="M82 371q15 117 85 205.5t193 134.5q-80 34 -113 107t-20 167q13 121 120.5 211t275.5 90q164 0 247.5 -95t65.5 -230q-8 -71 -63 -142.5t-144 -109.5q121 -46 176.5 -134.5t36.5 -244.5q-19 -144 -155.5 -251.5t-319.5 -107.5q-99 0 -178 33.5t-126.5 89t-68.5 127.5 t-12 150zM205 350q-7 -55 5 -108t41.5 -97t84.5 -71t127 -27q73 0 130.5 26t93.5 72t57 100t28 117q12 102 -35 164t-172 95l-139 36q-60 15 -132 -81t-89 -226zM383 965q-25 -160 141 -205l92 -25q46 -12 94.5 26.5t81 101t39.5 122.5q2 31 2.5 62t-13.5 61t-35.5 53 t-63.5 37t-98 14q-51 0 -92 -16t-66.5 -40.5t-43.5 -58.5t-26.5 -66t-11.5 -66z" />
<glyph unicode="9" horiz-adv-x="983" d="M145 893q10 76 45 149t90.5 133t136.5 97t173 37q79 0 141 -23.5t102.5 -66.5t67.5 -99.5t38 -126t11 -142t-10 -151.5q-13 -97 -43 -196.5t-79.5 -193.5t-111 -166.5t-144 -117t-171.5 -44.5q-142 0 -223 81q-18 18 -4 35l18 23q7 10 27 0q43 -24 61.5 -33t46.5 -15.5 t64 -6.5q280 0 389 552q-34 -44 -116 -86.5t-169 -42.5q-167 0 -265.5 112t-74.5 292zM299 866q-17 -132 32 -214.5t150 -82.5q67 0 137.5 29.5t112.5 64t47 56.5q40 247 -12.5 377.5t-175.5 130.5q-128 0 -199.5 -98.5t-91.5 -262.5z" />
<glyph unicode=":" horiz-adv-x="452" d="M129 102q4 41 37 72t70 31q41 0 67.5 -36t22.5 -85q-6 -42 -39 -73t-72 -31q-42 0 -67.5 36t-18.5 86zM162 784q5 40 36.5 70.5t69.5 30.5q42 0 68 -35t20 -86q-6 -41 -38 -71.5t-70 -30.5q-42 0 -67.5 35t-18.5 87z" />
<glyph unicode=";" horiz-adv-x="368" d="M41 113q9 41 44 66t73 22q39 -4 62.5 -37t25.5 -76q6 -74 -27 -158q-25 -69 -106 -143q-13 -5 -29 14l-25 29q56 56 74 98q19 51 19 64q-17 -12 -46 -6q-37 5 -57 41.5t-8 85.5zM152 782q4 40 36.5 70.5t69.5 30.5q43 0 69.5 -35t20.5 -86q-6 -41 -38.5 -72t-69.5 -31 q-43 0 -69 35.5t-19 87.5z" />
<glyph unicode="&#x3c;" horiz-adv-x="901" d="M72 459l14 110q389 142 799 351l-17 -115q-308 -165 -696 -291q369 -134 627 -293l-15 -112q-361 210 -712 350z" />
<glyph unicode="=" horiz-adv-x="827" d="M51 276l12 111h676l-12 -111h-676zM102 645l15 111h676l-13 -111h-678z" />
<glyph unicode="&#x3e;" horiz-adv-x="980" d="M139 106l11 117q274 160 632 295q-316 123 -553 289l11 111q312 -209 628 -351l-12 -110q-333 -136 -717 -351z" />
<glyph unicode="?" horiz-adv-x="845" d="M150 1008q-5 -45 3 -79.5t25 -51t39.5 -22t46.5 3.5t45 30q27 24 31 61t-5.5 72t-10.5 76.5t16 75.5q67 106 205 106q88 0 130.5 -54t31.5 -139q-5 -67 -42.5 -123.5t-158.5 -154.5q-105 -80 -109 -207l-2 -178h54l40 186q5 23 36 48t92.5 69t109.5 88q59 52 91 114 t36 120t-15.5 113t-57.5 96t-95.5 65.5t-124.5 24.5q-167 0 -279.5 -95.5t-131.5 -244.5zM266 102q4 41 36.5 72t70.5 31q41 0 67.5 -36t20.5 -85q-6 -43 -38.5 -73.5t-70.5 -30.5q-42 0 -67.5 36t-18.5 86z" />
<glyph unicode="@" horiz-adv-x="1404" d="M168 520q18 143 78.5 268t147.5 212.5t198 137.5t229 50q121 0 221 -48.5t167 -135.5t96 -216t10 -282q-10 -76 -26 -130t-46.5 -102t-81 -79.5t-123.5 -47.5q-82 -19 -126.5 11.5t-47.5 107.5q-30 -63 -93 -102t-138 -39q-94 0 -150 48t-43 146q5 40 18 71t44 62 t81 54.5t129 44.5t187 37l4 28q7 35 4.5 73t-11.5 68.5t-39 49t-77 14.5q-49 -4 -75 -12q-16 -3 -26.5 -12t-15 -24t-6.5 -29t-4 -35t-4 -33q-14 -22 -38 -31.5t-50 -3.5q-30 6 -41 34t2 75q21 52 90.5 90.5t147.5 44.5q145 14 214 -57t50 -218l-41 -329q-6 -42 9 -58t48 -8 q24 6 44.5 19.5t34.5 29t25.5 41.5t18 44t12.5 49.5t8 45.5t5 45t4 35q21 174 -11.5 305t-124 208t-233.5 77q-109 0 -201.5 -48t-158 -132.5t-108.5 -195.5t-60 -240q-21 -163 15.5 -298t128.5 -216.5t223 -81.5q41 0 104 14q55 14 72 -22l18 -35q-91 -29 -194 -29 q-120 0 -220.5 51.5t-166.5 142t-95.5 219.5t-11.5 277zM561 305q-6 -41 22 -71.5t79 -30.5q37 0 70.5 14t60 40t40 43t31.5 42l29 188q-102 -17 -168.5 -40t-99.5 -54t-45.5 -59t-18.5 -72z" />
<glyph unicode="A" horiz-adv-x="1298" d="M4 0l6 53q65 15 93 38.5t65 96.5l483 973q35 69 35 111l100 18l285 -1059q20 -73 40 -108t39.5 -46.5t63.5 -23.5l-6 -53h-391l6 53q77 16 95 41q11 15 11 37q0 14 -5 31l-72 280h-467l-135 -276q-11 -22 -11 -40q1 -18 11 -30q22 -26 88 -43l-6 -53h-328zM424 520h407 l-141 547z" />
<glyph unicode="B" horiz-adv-x="1138" d="M16 0l9 74q122 28 131 100l114 942q4 35 -21.5 56t-80.5 30l10 70h524q179 0 277 -65t98 -197q0 -44 -13 -87.5t-41 -88.5t-81 -82t-125 -58q118 -23 183 -100.5t65 -190.5q0 -61 -14.5 -116t-52 -108.5t-94.5 -92.5t-148.5 -62.5t-208.5 -23.5q-135 0 -226 12.5 t-100 12.5q-41 0 -114 -11.5t-91 -13.5zM307 182q-2 -20 0.5 -35.5t12 -26.5t19 -19t27.5 -13t30.5 -8t35.5 -3.5t35 -0.5h36.5h33.5q364 0 364 348q0 238 -321 238h-215zM373 733h264q67 0 119 21t80.5 52t47 73t24 77.5t5.5 71.5q0 88 -47.5 131t-146.5 43h-289z" />
<glyph unicode="C" horiz-adv-x="1146" d="M88 547q0 94 22.5 194.5t72.5 202t120.5 181.5t175.5 130t228 50q117 0 193 -49.5t126 -139.5q49 5 76 156h67l-36 -398l-76 -26l-33 102q-40 130 -122 199.5t-183 69.5q-83 0 -152.5 -32t-117 -87t-83 -123.5t-55.5 -147.5t-29.5 -152.5t-9.5 -144.5q0 -221 95 -332.5 t245 -111.5q135 0 236.5 80.5t142.5 208.5h94q-69 -190 -189 -289.5t-323 -99.5q-215 0 -350 154t-135 405z" />
<glyph unicode="D" horiz-adv-x="1191" d="M16 0l11 74q120 29 129 100l114 940q1 5 1 10q0 30 -22 48q-25 21 -79 32l8 68h367q304 0 458 -130t154 -401q0 -97 -20.5 -194.5t-71 -197.5t-124.5 -176.5t-191.5 -124.5t-262.5 -48q-50 0 -150.5 9t-127.5 9q-31 0 -59 -2.5t-69.5 -8t-64.5 -7.5zM305 150 q-2 -17 5.5 -29.5t27 -20t38 -12t50 -6t49.5 -2t51 -0.5q96 0 176 42.5t132 110.5t88 156.5t51.5 178t15.5 177.5q0 93 -24 173t-72.5 143t-129 99t-185.5 36h-146z" />
<glyph unicode="E" horiz-adv-x="1064" d="M37 0l10 49q55 19 78 41t29 74l118 956q1 13 1 23q0 29 -10 41q-14 16 -58 33q-3 0 -4 1t-3.5 1.5t-4.5 1.5l8 51h792q19 0 26.5 -9t4.5 -32l-27 -201h-51l-20 70q-23 94 -129 94h-346l-64 -506h328q18 0 31 5t25 20t17.5 23.5t19 35.5l17.5 35h33l-41 -313h-31 q-2 8 -6 26.5t-6 26t-6.5 20.5t-9 18.5t-12 12.5t-17 9.5t-22.5 2.5h-328l-72 -538l416 4q30 0 52.5 9.5t31.5 18.5t28 34.5t27 35.5l58 64l67 -5q-50 -89 -84 -196q-18 -37 -59 -37h-807z" />
<glyph unicode="F" horiz-adv-x="1044" d="M35 0l6 49q58 19 82.5 41t30.5 74l118 956q1 14 1 25q0 29 -9 40q-13 16 -60 33l-9 3l6 51h798q11 0 24.5 -11t12.5 -22l25 -209h-53l-19 70q-11 50 -42 72t-91 22h-405l-64 -506h328q15 0 27.5 5t21 11t18.5 21t14.5 22.5t15.5 29.5l15 30h31l-39 -313h-35q-2 9 -5.5 27 t-5 25.5t-5.5 20.5t-8.5 18.5t-11.5 12.5t-16.5 9.5t-22.5 2.5h-330l-62 -467q-2 -12 -2 -21.5t1.5 -17t3.5 -13t7 -10t9 -7.5t12.5 -6.5t14.5 -5.5t17 -6t19 -7l-6 -49h-358z" />
<glyph unicode="G" horiz-adv-x="1265" d="M88 547q0 94 22.5 194.5t72.5 202t120.5 181.5t175.5 130t228 50q117 0 193 -49.5t126 -139.5q49 5 76 156h67l-36 -398l-76 -26l-33 102q-41 132 -123 200.5t-194 68.5q-80 0 -147 -32t-113.5 -87t-81.5 -123.5t-54.5 -147.5t-29 -152.5t-9.5 -144.5q0 -222 95.5 -333 t250.5 -111q116 0 199.5 57.5t91.5 124.5l23 183q1 9 1 16q0 47 -48 47h-84l12 88l408 2l-13 -90h-55q-28 0 -46 -19.5t-20 -50.5l-57 -440q-2 -13 -15 -18t-25.5 -0.5t-12.5 16.5l-23 152q-179 -168 -381 -168q-215 0 -350 154t-135 405z" />
<glyph unicode="H" horiz-adv-x="1269" d="M37 0l8 51q58 17 80.5 35t28.5 66l120 966q2 14 2 25t-2 20t-3.5 15t-8.5 11.5t-11 8.5t-16 7.5t-18.5 6.5t-23.5 7l6 53h358l-6 -53q-64 -12 -87.5 -31.5t-29.5 -69.5l-55 -438h602l55 438q2 14 2 25t-2.5 20t-4 15t-8.5 11.5t-10.5 8.5t-16 7.5t-18.5 6.5t-24 7l7 53 h358l-6 -53q-64 -12 -87.5 -31.5t-29.5 -69.5l-121 -966q-2 -14 -2 -26q1 -32 13 -42q16 -16 75 -33l-6 -51h-356l8 51q58 17 80 35t28 66l58 450h-602l-58 -450q-2 -14 -2 -26q1 -32 13 -42q16 -16 75 -33l-6 -51h-356z" />
<glyph unicode="I" horiz-adv-x="505" d="M14 0l6 51q59 16 81.5 34.5t29.5 66.5l121 962q2 15 2 28q0 32 -12 42q-16 15 -74 30l8 58h359l-9 -58q-62 -11 -85 -29.5t-29 -68.5l-121 -964q-2 -14 -2 -26q1 -32 13 -42q16 -16 75 -33l-8 -51h-355z" />
<glyph unicode="J" horiz-adv-x="598" d="M-104 -147q0 58 23 88t63 30t64 -24t24 -58q0 -6 -0.5 -24.5t-0.5 -29.5t1.5 -28.5t5.5 -28.5t10 -22t17 -16.5t26 -5.5q76 0 90 98l160 1282q3 28 1 44.5t-15 27t-24 14.5t-41 12q-5 1 -7 2l6 58h358l-6 -58q-63 -11 -86 -29.5t-30 -68.5l-144 -1145 q-22 -168 -84 -236.5t-190 -68.5q-113 0 -167 57t-54 130z" />
<glyph unicode="K" horiz-adv-x="1191" d="M29 0l6 51q58 17 80 35t28 66l123 966q2 14 2 26q0 30 -12 42q-16 16 -74 33l8 53h357l-6 -53q-62 -12 -85.5 -32t-29.5 -69l-53 -424h28q22 0 48 13.5t43 33.5l407 422q14 14 15.5 24t-10 15.5t-22 8.5t-28.5 6l8 55h303l-6 -55q-99 -12 -147 -60l-457 -467l328 -481 q41 -59 78.5 -93.5t59.5 -45t55 -20.5q2 0 3.5 -0.5t3.5 -1t4 -1.5l-4 -47h-407l6 53q68 20 79 31q13 12 1 29l-334 483h-68l-55 -444q-2 -15 -2 -27q-1 -29 11 -41q16 -16 69 -31q5 -1 8 -2l-8 -51h-354z" />
<glyph unicode="L" horiz-adv-x="1009" d="M16 0l11 49q35 12 45.5 16t27.5 15.5t23 28t10 43.5l121 968q2 15 2 27q0 25 -10 37q-16 16 -62 32q-7 2 -10 3l6 53h357l-7 -53q-57 -15 -81.5 -35t-30.5 -70l-119 -950q-2 -16 -2 -29q1 -25 9 -38q14 -19 42 -17l348 16q64 3 97 17t59 55l41 63h65l-67 -188 q-14 -43 -60 -43h-815z" />
<glyph unicode="M" horiz-adv-x="1531" d="M16 0l4 49q65 22 81 35q27 22 32 70l121 946q2 15 2 27q0 33 -14 53q-18 27 -68 45l2 47h246l352 -942l535 942h247l-4 -51q-53 -17 -76.5 -45t-29.5 -82l-123 -949q-2 -14 -2.5 -24t2.5 -19t3.5 -14t8.5 -11.5t9.5 -8.5t15 -8t17 -7t22.5 -8l-2 -45h-348l4 49 q4 1 18 6.5t17 6.5t14.5 5.5t14.5 7t11.5 8t11 9.5t8 11t7.5 14t4.5 16.5t3.5 20.5l115 899l-530 -940q-16 -27 -26.5 -35t-19 0t-18.5 35l-352 942l-113 -910q-3 -24 -0.5 -39t15 -26t20.5 -15t34 -14l15 -6l-4 -45h-283z" />
<glyph unicode="N" horiz-adv-x="1236" d="M16 0l9 49q109 38 118 105l125 970q4 35 -18 57.5t-74 37.5l6 53h219l576 -930l94 782q4 35 -19.5 57.5t-78.5 37.5l6 53h305l-6 -53q-66 -14 -89 -38t-28 -65l-143 -1116q-2 -3 -6.5 -3t-7.5 3l-664 1061l-113 -916q-4 -35 18 -58t72 -38l-6 -49h-295z" />
<glyph unicode="O" d="M90 549q0 67 11 138t35 145t59 142.5t87 129t114 105t144 70.5t175 26q140 0 247 -71.5t163.5 -195t56.5 -278.5q0 -94 -22 -195.5t-71.5 -205.5t-119.5 -185.5t-177 -133.5t-233 -52q-140 0 -248 74.5t-164.5 201.5t-56.5 285zM270 565q0 -233 88 -357t222 -124 q82 0 149.5 29.5t112.5 82t78 117t50.5 141t25.5 147t8 142.5q0 227 -90 352.5t-224 125.5q-96 0 -171.5 -42.5t-121 -108.5t-75.5 -155.5t-41 -175t-11 -174.5z" />
<glyph unicode="P" horiz-adv-x="1058" d="M16 0l4 49l19.5 6.5l18 6t15.5 5.5t15 6.5l12 7.5t11 9.5t8 11t7.5 13.5t5 16.5t3.5 20.5l125 968q1 12 1 21q0 29 -11 41q-15 16 -62 33q-3 1 -5 2t-5 2l-6 2l6 51h492q194 0 302 -109q89 -89 90 -229q0 -31 -5 -64q-21 -174 -158.5 -273t-343.5 -99h-219l-45 -355 q-3 -31 5.5 -49t19.5 -24t43 -18q12 -5 18 -7l-2 -45h-359zM344 565h234q262 0 303 326q6 43 6 81q0 42 -7 76q-13 66 -60.5 108t-129.5 42h-266z" />
<glyph unicode="Q" horiz-adv-x="1286" d="M88 535q0 95 21.5 195.5t70.5 201.5t119.5 180t178 128.5t235.5 49.5q140 0 247 -71.5t163.5 -195t56.5 -278.5q0 -90 -20 -187t-65.5 -197t-110 -181.5t-162 -137.5t-212.5 -67l183 -176q46 -39 90 -39h8q48 4 84.5 40t42.5 83q11 92 76 92q69 -3 69 -75q0 -11 -2 -25 q-12 -90 -87 -153q-72 -62 -159 -62h-6q-106 3 -229 100l-221 191q-48 38 -100 39q-3 1 -5 1q-49 0 -82 -28q-36 -29 -43 -76q-5 -31 -27 -53t-48 -22q-29 2 -46 31q-14 22 -14 50q0 10 2 21q6 58 50.5 106t107.5 74q-79 75 -122.5 190.5t-43.5 250.5zM268 551 q0 -233 88 -357t222 -124q82 0 149.5 29.5t112.5 82t77.5 117t50 141t25.5 147t8 142.5q0 227 -90 352t-223 125q-96 0 -171.5 -42t-121 -108.5t-75.5 -155.5t-41 -174.5t-11 -174.5z" />
<glyph unicode="R" horiz-adv-x="1175" d="M23 0l6 57q4 1 21 5.5t20.5 5.5t16.5 5t16 7t12 8.5t12 11.5t7.5 14t7 18.5t3.5 23.5l115 960v8q0 28 -24 48q-28 22 -82 32l10 68h500q190 0 294 -100q87 -84 88 -210q0 -24 -4 -49q-13 -112 -111.5 -194.5t-250.5 -110.5q111 -25 161.5 -94t63.5 -180q5 -47 16.5 -89.5 t33 -84.5t58 -69.5t83.5 -33.5l-9 -57h-106q-110 0 -171.5 80t-78.5 260q-7 60 -16 96t-28.5 68.5t-52.5 49t-85 25.5t-129 9h-76l-53 -445q-2 -12 -2.5 -22t2.5 -17.5t4 -13t8 -10t9 -7t13 -5.5t13.5 -4t17 -3.5t17.5 -3.5l-4 -57h-346zM352 657h203q74 0 132.5 23.5 t95.5 63.5t58 88t27 102q3 24 3 46q-1 28 -5 54q-8 46 -30 84t-66.5 60t-105.5 22h-244z" />
<glyph unicode="S" horiz-adv-x="999" d="M61 55l39 326h56q23 0 33 -10.5t10 -36.5q0 -136 61.5 -207.5t206.5 -71.5q42 0 81.5 8t78.5 28t68 50t47 77t18 106q0 25 -4.5 47.5t-10.5 40t-19 35t-23 29.5t-29.5 25.5t-31 21.5t-36 20t-36.5 17.5t-39.5 17t-38.5 16.5q-13 6 -40.5 17.5t-44.5 19t-44.5 20.5 t-45.5 24.5t-42 28.5t-39.5 34t-32.5 40t-26.5 47.5t-16 55.5t-6.5 65q0 152 116.5 255.5t313.5 103.5q67 0 121.5 -13t91 -33t65 -41t58 -41.5t55.5 -29.5l-37 -260h-57q-17 0 -27 10t-10 25v77q0 93 -82 160.5t-187 67.5q-120 0 -193 -70.5t-73 -171.5q0 -36 11.5 -65.5 t27 -48.5t44 -37.5t48.5 -27.5t55.5 -23.5t51.5 -22.5t64 -27.5t83.5 -35.5t84 -48t79.5 -67.5t53.5 -91t22.5 -121.5q0 -79 -29.5 -146t-77.5 -111.5t-110 -76t-125 -46t-123 -14.5q-84 0 -154.5 20t-131.5 40t-122 20z" />
<glyph unicode="T" horiz-adv-x="1042" d="M113 1114q0 75 59 121.5t166 46.5q47 0 294 -20.5t304 -20.5q28 0 50.5 6t32 12.5t9.5 10.5q-9 0 -20 12.5t-11 30.5q0 17 15 29t37 12q27 0 44 -17t17 -49q0 -133 -190 -133q-42 0 -189 14l-129 -1019q-1 -8 -1 -14q-1 -40 25 -52q30 -14 148 -29q4 0 6.5 -0.5t6 -1 t6.5 -0.5l-5 -53h-552l8 53q126 21 151 32q36 15 43 56q1 4 2 9l129 1034q-204 16 -247 16q-44 0 -66.5 -17t-22.5 -42q14 0 31 -15.5t17 -42.5q0 -30 -21.5 -47.5t-54.5 -17.5q-37 0 -64.5 26.5t-27.5 69.5z" />
<glyph unicode="U" d="M168 518l80 635q2 17 -1.5 28t-16 17.5t-22.5 9t-32 6.5l6 58h332l-8 -58q-43 -7 -67.5 -21t-28.5 -46l-68 -543q-13 -104 -13 -187q0 -140 38 -219q61 -126 211 -126q64 0 122 23.5t111 73t90.5 138t52.5 207.5l80 639q2 17 -1.5 28t-15 17.5t-22.5 9t-34 6.5l6 58h274 l-6 -58q-42 -7 -66 -21t-28 -46l-80 -631q-31 -246 -159.5 -390t-323.5 -144q-232 0 -337 144q-80 110 -80 282q0 52 7 110z" />
<glyph unicode="V" horiz-adv-x="1247" d="M125 1214l6 58h387l-10 -58q-61 -6 -85 -19.5t-20 -39.5l234 -907l455 895q17 34 -9 49t-84 22l7 58h309l-10 -58q-56 -6 -80.5 -27.5t-55.5 -84.5l-569 -1112h-18q-48 0 -54 53l-266 1016q-24 95 -50 122t-87 33z" />
<glyph unicode="W" horiz-adv-x="1753" d="M121 1217l10 55h350l-8 -55q-47 -11 -65.5 -25.5t-12.5 -40.5l195 -881l293 709l-17 74q-22 98 -46 125.5t-85 38.5l8 55h351l-11 -55q-46 -11 -64 -26t-11 -40l194 -881l373 867q14 34 -7 51t-77 29l6 55h307l-10 -55q-57 -10 -84 -33.5t-55 -85.5l-488 -1108h-20 q-40 0 -49 53l-185 805l-358 -858h-18q-40 0 -52 53l-229 1010q-22 97 -47.5 125t-87.5 39z" />
<glyph unicode="X" horiz-adv-x="1263" d="M16 0l7 57q56 6 95 34t91 89l379 451l-246 422q-10 18 -27 49t-23 41.5t-19 28.5t-22.5 24t-25 12.5t-35.5 8.5l5 55h366l-4 -55q-44 -8 -71.5 -27.5t-16.5 -40.5l227 -389l316 377q25 29 -0.5 50.5t-81.5 29.5l4 55h317l-6 -55q-17 -2 -31 -5.5t-28.5 -12.5t-22 -13 t-23 -20t-19 -19.5t-22.5 -25.5t-22 -25l-342 -406l273 -467q13 -23 28.5 -52t23 -42t18.5 -29t21 -23t25 -12.5t35 -7.5l-4 -57h-367l5 57q46 7 74 26t14 44l-252 434l-357 -422q-27 -36 -6.5 -56t76.5 -26l-6 -57h-320z" />
<glyph unicode="Y" horiz-adv-x="1196" d="M168 1217l4 55h365l-7 -55q-42 -8 -66 -28t-13 -44l231 -453l328 441q15 19 15 34q0 37 -87 50l4 55h313l-6 -55q-54 -7 -87.5 -34t-82.5 -91l-372 -486l-58 -483q-3 -16 4 -26.5t27.5 -18t33 -10t44.5 -7.5q4 -1 6.5 -1.5t5.5 -0.5l-4 -59h-416l8 59q41 6 68 12.5t51 22 t27 37.5l55 432l-242 486l-20 40l-17.5 35t-14 26.5t-15 23t-15.5 16t-19 14t-21 7.5t-27 6z" />
<glyph unicode="Z" horiz-adv-x="1157" d="M69 35q-2 8 -2 16q0 27 21 53l838 1084l-594 -8q-23 0 -37 -20t-19 -48l-32 -78h-58l66 238h924l-920 -1190l633 10q23 0 37.5 17t29.5 51l39 73h58l-76 -233h-864q-36 0 -44 35z" />
<glyph unicode="[" horiz-adv-x="466" d="M8 -322l234 1858l348 18l-2 -22q-3 -23 -39 -29l-184 -39l-215 -1714l169 -39q16 -3 26 -13.5t9 -23.5v-14z" />
<glyph unicode="\" horiz-adv-x="917" d="M-51 1313h102l654 -1313h-101z" />
<glyph unicode="]" horiz-adv-x="415" d="M-156 -340l4 18q3 26 48 33l202 39l211 1714l-194 39q-42 7 -39 33l4 18l385 -18l-229 -1858z" />
<glyph unicode="^" horiz-adv-x="692" d="M150 939q-4 15 6 30l329 417q19 23 33 -8l225 -417q6 -15 1.5 -26t-17.5 -11h-33q-4 0 -8 4.5t-8.5 12.5t-7.5 11l-187 260l-252 -268q-16 -20 -30 -20h-35q-12 0 -16 15z" />
<glyph unicode="_" horiz-adv-x="1161" d="M33 -127l10 86h938l-10 -86h-938z" />
<glyph unicode="`" horiz-adv-x="587" d="M247.5 1326.5q15.5 -31.5 61.5 -58.5l279 -160q31 -17 45 2q12 20 -19 45l-243 227q-35 31 -68.5 33t-50.5 -26q-20 -31 -4.5 -62.5z" />
<glyph unicode="a" horiz-adv-x="985" d="M57 391q0 69 17 144t53.5 148.5t87.5 132t125.5 94.5t161.5 36q74 0 143 -40.5t100 -98.5l15 117h143l-94 -734q-1 -10 -1 -19q0 -25 8 -44q12 -26 40 -31q3 -1 6 -1q27 0 72 34l-27 -80q-73 -49 -125 -49q-62 0 -96 37q-32 35 -31 88v6q-47 -64 -118 -103.5t-146 -39.5 q-148 0 -241 111.5t-93 291.5zM215 399q0 -145 53.5 -234t145.5 -89q87 0 162.5 56t97.5 136l55 426l-2 -4q-59 172 -231 172q-76 0 -133.5 -45t-88 -117.5t-45 -148.5t-14.5 -152z" />
<glyph unicode="b" horiz-adv-x="997" d="M106 1247l11 58q120 0 284 41l-45 -367q-10 -119 -59 -250l39 53q27 31 49.5 53t60 51t83 44.5t94.5 15.5q137 0 224 -99t87 -278q0 -80 -24 -162.5t-70.5 -157t-108 -133.5t-143 -93.5t-168.5 -34.5q-153 0 -235 68q-67 56 -67 163q0 23 3 49l115 897q1 8 1 15 q0 36 -26 50q-31 16 -105 17zM264 268q-3 -21 -2 -41q0 -159 178 -159q86 0 154 45t106.5 117.5t58 153t19.5 161.5q0 135 -50 218t-132 83q-41 0 -76.5 -12t-71 -40.5t-62.5 -56.5t-71 -78z" />
<glyph unicode="c" horiz-adv-x="835" d="M57 391q0 74 19.5 151t60 149t95.5 129t132 91.5t164 34.5q140 0 206.5 -68t66.5 -171q0 -45 -16 -72t-66 -27q-40 0 -61 19.5t-17 56.5q10 55 10 84q0 94 -121 94q-83 0 -147 -44t-99.5 -115t-53 -148.5t-17.5 -157.5q0 -144 60 -227.5t178 -83.5q50 0 95.5 22.5t70 49 t44.5 49t25 22.5q28 0 57 -47q-20 -34 -46.5 -63.5t-68.5 -61t-103 -50.5t-134 -19q-141 0 -237.5 112.5t-96.5 290.5z" />
<glyph unicode="d" horiz-adv-x="997" d="M55 391q0 69 17 144t53.5 148.5t87.5 132t124.5 94.5t158.5 36q77 0 147 -40t102 -97l46 356q1 8 1 16q0 37 -25 50q-30 16 -103 16l8 58q125 0 289 41l-148 -1156q-4 -37 6.5 -63t38.5 -31q3 -1 7 -1q27 0 71 34l-27 -80q-73 -49 -125 -49q-62 0 -96 38q-32 36 -31 89v6 q-47 -65 -118 -105t-146 -40q-149 0 -243.5 112t-94.5 291zM211 399q0 -144 54 -233.5t147 -89.5q95 0 175.5 65t90.5 152l51 401q-69 168 -246 168q-61 0 -109 -31t-78 -79t-50 -111.5t-27.5 -123t-7.5 -118.5z" />
<glyph unicode="e" horiz-adv-x="851" d="M47 391q0 68 15 140.5t50.5 147.5t86.5 133.5t129.5 96t173.5 37.5q138 0 217.5 -87t79.5 -208q0 -45 -13 -77t-33.5 -53t-63 -36.5t-83.5 -24.5t-112 -20l-285 -43q-1 -16 -1 -31q0 -26 2 -52q4 -40 18.5 -85t38 -77.5t66 -54t99.5 -21.5q163 0 281 143l32 -65 q-52 -67 -138 -116.5t-210 -49.5q-156 0 -253 111.5t-97 291.5zM213 479l383 58q30 3 43.5 38t13.5 84q0 83 -42.5 143t-123.5 60q-115 0 -187.5 -108.5t-86.5 -274.5z" />
<glyph unicode="f" horiz-adv-x="790" d="M-190 -248q0 37 18.5 56.5t46.5 19.5q31 0 53.5 -20.5t22.5 -61.5q0 -106 82 -106q32 0 57 13t41.5 35t29 57t20 72t14.5 87l120 944h-139l10 86h140l8 63q24 187 97 278t220 91q126 0 197.5 -64t71.5 -128q0 -35 -20.5 -54.5t-51.5 -19.5t-50.5 17t-19.5 52 q0 41 -32.5 78t-106.5 37q-30 0 -52 -7.5t-38 -26t-26 -36t-18 -52.5t-12 -60.5t-10 -73.5l-12 -94h279q-19 -55 -31.5 -70.5t-38.5 -15.5h-219l-119 -916q-22 -177 -100 -274.5t-199 -97.5q-59 0 -106 18.5t-73.5 48t-40 61.5t-13.5 64z" />
<glyph unicode="g" horiz-adv-x="935" d="M-47 -186q0 61 31.5 105t87.5 44q28 -1 42 -9t15.5 -25.5t-1.5 -36t-8 -49.5t-5 -56q0 -77 64 -120.5t171 -43.5q82 0 144.5 15.5t98.5 38.5t59 54.5t30.5 60t7.5 58.5q0 60 -42 91.5t-126 44.5l-284 51q-232 41 -232 188q0 84 66 127q57 36 129 36q12 0 24 -1 q-106 89 -106 227q0 37 11.5 78.5t39.5 86t68.5 79.5t105.5 57.5t143 22.5q110 0 188.5 -44t102.5 -101q12 67 53.5 106t98.5 39q41 0 63.5 -21.5t22.5 -58.5q0 -72 -86 -72q-101 0 -101 -108q0 -168 -108 -266.5t-287 -98.5q-42 0 -92 13q-39 10 -74 10q-30 0 -58 -8 q-60 -15 -60 -64q0 -42 37 -64.5t108 -33.5l201 -35q189 -34 265.5 -84.5t76.5 -157.5q0 -90 -65.5 -168t-180 -125t-248.5 -47q-179 0 -285 67t-106 198zM270 586q0 -84 43.5 -139.5t137.5 -55.5q63 0 108 21.5t68.5 52t37 78.5t16.5 84.5t3 87.5q0 61 -52 103t-140 42 q-64 0 -110 -25.5t-69 -68.5t-33 -87t-10 -93z" />
<glyph unicode="h" horiz-adv-x="1011" d="M98 0l148 1165q1 8 1 15q1 36 -25 50q-30 16 -105 17l10 58q125 0 289 41l-74 -568l-14 -53q19 29 47 60t72 69.5t103 63t120 24.5q135 0 190 -82q36 -53 35 -155q0 -55 -10 -125l-58 -390q-2 -12 -2 -22q0 -23 8 -41q11 -26 39 -31q3 -1 7 -1q27 0 71 34l-26 -80 q-42 -29 -71.5 -39t-66.5 -10q-59 0 -90 44q-24 34 -24 81q0 13 2 27l61 444q7 48 7 86q0 156 -124 156q-61 0 -124.5 -34.5t-100 -70t-63.5 -71.5l-90 -662h-142z" />
<glyph unicode="i" horiz-adv-x="452" d="M88 821l8 58q100 57 170 57q48 0 60 -36q7 -20 6 -53q0 -26 -4 -61l-76 -600q-4 -37 8 -62t42 -29h5q28 0 74 34l-27 -80q-72 -49 -147 -49q-53 0 -82 42q-24 35 -24 84q0 10 1 21l78 601q1 11 1 21q0 37 -17 53q-11 10 -30 10t-46 -11zM219 1282q4 35 34.5 61.5 t63.5 26.5q39 0 63 -32q21 -27 22 -64q0 -6 -1 -12q-6 -36 -35.5 -63.5t-62.5 -27.5q-39 0 -65 33q-21 27 -20 61q0 8 1 17z" />
<glyph unicode="j" horiz-adv-x="405" d="M-293 -248q0 36 19 56t47 20q31 0 53 -20.5t22 -61.5q0 -106 82 -106q76 0 112.5 67.5t51.5 196.5l105 844q1 11 1 21q0 36 -18 53q-11 10 -29 10q-20 0 -47 -11l11 58q100 57 170 57q45 0 57 -36q7 -20 7 -52q0 -27 -5 -62l-104 -854q-23 -178 -101.5 -275t-199.5 -97 q-59 0 -106 18.5t-74 48t-40.5 61.5t-13.5 64zM240 1282q3 35 33 61.5t63 26.5q40 0 65 -32q20 -25 20 -59q0 -8 -1 -17q-4 -36 -33.5 -63.5t-62.5 -27.5q-40 0 -65 33q-20 26 -20 61q0 8 1 17z" />
<glyph unicode="k" horiz-adv-x="956" d="M29 0l2 53q67 0 75 60l142 1114q3 23 -9.5 33t-37.5 10h-49l8 65l215 31q17 1 24 -10.5t4 -32.5l-81 -649q40 121 127.5 194.5t191.5 73.5q87 0 138.5 -42t51.5 -105t-55 -126t-166 -108l-174 -69l332 -394q25 -31 39.5 -38t54.5 -7l-4 -53h-313l4 53q31 0 48 8t16.5 17 t-3.5 16l-313 371l-45 -359q-4 -32 9 -42.5t40 -10.5l-2 -53h-270zM299 483l281 129q52 24 80 59.5t28 69.5q0 38 -30.5 62t-88.5 24q-47 0 -89.5 -23.5t-74.5 -63.5t-55 -82.5t-41 -90.5z" />
<glyph unicode="l" horiz-adv-x="448" d="M102 150l131 1015q1 8 1 16q0 37 -25 50q-30 16 -103 16l11 58q116 0 280 41l-145 -1156q-1 -10 -1 -18q1 -25 9 -45q12 -26 40 -31q3 -1 7 -1q28 0 72 34l-27 -80q-73 -49 -125 -49q-67 0 -100 44q-27 35 -27 82q0 12 2 24z" />
<glyph unicode="m" horiz-adv-x="1546" d="M96 821l10 58q100 57 156 57q54 0 72 -42q11 -24 11 -55q0 -22 -5 -46l-16 -68q141 213 340 213q197 0 208 -201q137 201 334 201q120 0 172 -76q38 -55 38 -156q0 -39 -5 -85l-51 -431q-1 -10 -2 -19q0 -25 9 -44q11 -26 40 -31q3 -1 7 -1q28 0 71 34l-27 -80 q-71 -49 -125 -49q-67 0 -101 44q-28 36 -28 84q0 11 2 22l60 462q4 37 4 67q0 65 -18 103q-27 56 -107 56q-127 0 -273 -189l-81 -649h-144l76 612q5 38 5 69q0 62 -18 100q-28 57 -108 57q-44 0 -88 -20t-82.5 -57t-57.5 -58t-44 -54l-82 -649h-144l97 762q1 9 1 17 q0 37 -24 51q-11 7 -26 6q-23 0 -56 -15z" />
<glyph unicode="n" horiz-adv-x="1009" d="M98 821l8 58q100 57 156 57q54 0 72 -42q11 -24 11 -55q0 -22 -5 -46l-16 -68q141 213 348 213q120 0 174 -76q37 -53 38 -150q0 -42 -7 -91l-58 -431q-1 -9 -1 -17q0 -26 10 -46q12 -26 42 -31q3 -1 7 -1q28 0 71 34l-26 -80q-71 -49 -123 -49q-69 0 -103 44 q-28 36 -28 83q0 11 2 23l61 462q5 38 5 69q0 62 -18 100q-28 57 -108 57q-134 0 -280 -189l-82 -649h-144l97 762q1 9 1 17q0 37 -22 50q-11 6 -27 6q-23 0 -55 -14z" />
<glyph unicode="o" horiz-adv-x="907" d="M57 391q0 67 16.5 140.5t53 148t87.5 133.5t127 96t165 37q149 0 246.5 -113.5t97.5 -293.5q0 -66 -16.5 -139t-53 -147t-87 -132.5t-126.5 -95.5t-164 -37q-149 0 -247.5 112.5t-98.5 290.5zM215 399q0 -144 56 -233.5t149 -89.5q62 0 111.5 31t79 79t49 110t27 118 t7.5 110q0 148 -57 243t-152 95q-61 0 -110 -32.5t-78 -82t-48.5 -114t-26.5 -122t-7 -112.5z" />
<glyph unicode="p" horiz-adv-x="997" d="M-33 -410l6 56q47 0 70 12t27 45l131 1045q1 11 1 21q0 36 -17 53q-11 10 -30 10t-46 -11l8 58q100 57 170 57q47 0 60 -36q7 -21 7 -55q0 -26 -4 -59v-4q142 164 293 164q137 0 223 -99t86 -278q0 -80 -24 -162.5t-70.5 -157t-108 -133.5t-143 -93.5t-168.5 -34.5 q-111 0 -184 37l-41 -322q-4 -34 15 -45.5t67 -11.5l-4 -56h-324zM285 268q-3 -23 -3 -44q0 -156 179 -156q86 0 154 45t106.5 117.5t58 153t19.5 161.5q0 135 -50.5 218t-132.5 83q-78 0 -135 -42.5t-145 -144.5z" />
<glyph unicode="q" horiz-adv-x="985" d="M57 391q0 69 17 144t54 148.5t88 132t125.5 94.5t160.5 36q72 0 140 -39t101 -96l15 113h145l-151 -1153q-2 -10 -2 -19q0 -33 25 -46q31 -17 106 -17l-11 -58q-120 0 -284 -41l69 537q-49 -62 -118.5 -100.5t-143.5 -38.5q-148 0 -242 112t-94 291zM213 399 q0 -145 53.5 -234t147.5 -89q87 0 162.5 56t97.5 136l53 422q-27 80 -86.5 126t-148.5 46q-61 0 -110.5 -31t-80 -79.5t-51 -111.5t-29 -123t-8.5 -118z" />
<glyph unicode="r" horiz-adv-x="727" d="M88 0l102 762q1 9 1 17q0 37 -22 50q-11 6 -26 6q-23 0 -55 -14l8 53q93 60 156 60q52 0 68 -42q9 -24 10 -56q0 -25 -6 -56l-43 -231l47 137q36 113 116 180.5t172 67.5q67 0 95 -40q10 -15 10 -33q0 -30 -29 -66q-31 -36 -56 -46t-39.5 -2t-38.5 20t-46 13h-2 q-70 0 -126 -84t-89 -200l-66 -496h-141z" />
<glyph unicode="s" horiz-adv-x="739" d="M27 172q8 83 21.5 117.5t45.5 34.5q39 0 52 -11.5t10 -42.5v-17q0 -77 40 -127q46 -56 138 -56q86 0 124 47.5t38 115.5q0 40 -28 80.5t-69.5 72.5t-90 70.5t-90 75t-69.5 86t-28 103.5q0 27 8.5 55t30 59.5t54 55.5t85.5 39.5t119 15.5q72 0 130 -23.5t89 -56.5 t47 -63.5t14 -50.5q-10 -81 -29.5 -111.5t-52.5 -30.5q-25 0 -36 14.5t-9 34.5q5 25 5 48q0 63 -34 105q-46 58 -132 58q-74 0 -106 -35t-32 -83q0 -38 21 -74t54.5 -66t74 -59.5t80.5 -61t73.5 -64t54.5 -74.5t21 -87q0 -51 -19 -98.5t-57.5 -88.5t-105.5 -66t-154 -25 q-61 0 -118 22t-92.5 53t-57 61t-20.5 48z" />
<glyph unicode="t" horiz-adv-x="561" d="M78 831l12 93q29 0 54 7.5t48 26.5t38 33.5t37 49t31 49.5t32 57q12 18 26.5 13.5t12.5 -25.5l-31 -211h217l-14 -93h-219l-78 -645q-1 -7 0 -14q0 -34 16 -54q20 -26 55 -26q43 0 86.5 20.5t73.5 57.5l-20 -82q-39 -41 -90.5 -66.5t-104.5 -25.5q-80 0 -126 60 q-37 48 -36 116q0 18 2 37l76 622h-98z" />
<glyph unicode="u" horiz-adv-x="995" d="M74 821l10 58q100 57 158 57q52 0 66 -30q9 -19 10 -50q0 -17 -3 -39l-59 -487q-4 -36 -5 -66q-1 -76 27 -116q38 -56 130 -56q97 0 162.5 61.5t111.5 184.5l53 401q2 13 2 24q0 35 -18 55q-12 13 -32 14q-18 0 -42 -11l10 58q100 57 156 57q53 0 67 -30q9 -19 10 -50 q0 -17 -3 -39l-76 -627q-1 -10 -1 -19q0 -25 8 -44q11 -26 40 -31q3 -1 7 -1q28 0 71 34l-27 -80q-71 -49 -123 -49q-67 0 -100 44q-28 37 -28 87q0 9 1 19l9 55q-16 -37 -41.5 -72t-62 -69t-87.5 -55t-108 -21q-137 0 -205 88q-53 68 -54 183q0 33 5 71l51 409q1 12 1 22 q1 39 -17 59q-11 13 -31 13q-18 0 -43 -12z" />
<glyph unicode="v" horiz-adv-x="909" d="M57 819l11 55q79 58 137 58q38 0 62.5 -25t33 -50.5t22.5 -86.5q1 -2 1 -3.5t1 -4t1 -4.5l118 -539q248 343 338 551q11 27 -4.5 46t-45.5 20h-4q-29 0 -64 -17l8 55q94 60 155 60q53 0 75 -37q10 -18 11 -40q0 -24 -12 -54q-80 -187 -212.5 -384.5t-328.5 -449.5h-6 l-176 791q-12 54 -40 68q-11 5 -24 6q-24 0 -57 -15z" />
<glyph unicode="w" horiz-adv-x="1513" d="M57 819l11 55q79 58 137 58q38 0 62.5 -25t33 -50.5t22.5 -86.5q1 -2 1 -3.5t1 -4t1 -4.5l118 -539q241 329 336 547q-12 51 -41 64q-10 5 -23 5q-24 0 -57 -16l13 55q79 58 137 58q20 0 36 -5.5t28 -19t19.5 -25t14.5 -36.5t10.5 -40t10.5 -48l119 -539q245 333 339 551 q4 12 4 21q0 27 -28 39q-15 7 -33 6q-28 0 -61 -17l8 55q91 60 156 60q54 0 74 -37q9 -17 9 -39q0 -25 -12 -55q-81 -189 -214.5 -389.5t-325.5 -444.5h-5l-145 654q-81 -146 -188.5 -298.5t-264.5 -355.5h-6l-176 791q-12 54 -40 68q-11 5 -24 6q-24 0 -57 -15z" />
<glyph unicode="x" horiz-adv-x="956" d="M8 84q0 30 18 48t48 18q29 0 53 -30t43 -30q40 0 72 57l164 265l-150 366q-26 61 -87 61q-35 0 -81 -20l8 55q92 62 160 62q81 0 143 -148l95 -233l141 227q47 75 90.5 113.5t110.5 38.5q56 0 86 -23t30 -59q0 -28 -18.5 -49t-46.5 -21t-52.5 29t-43.5 29q-33 0 -70 -58 l-193 -311l125 -309q10 -26 27.5 -42.5t41.5 -22t56 4.5t68 37l-31 -90q-68 -53 -145 -53q-48 0 -87.5 41t-66.5 106l-76 187l-114 -183q-22 -35 -30.5 -48.5t-29 -39t-36 -35.5t-40.5 -19t-53 -9q-57 0 -93 27t-36 61z" />
<glyph unicode="y" horiz-adv-x="976" d="M-154 -305q0 92 84 92q34 0 49 -17t16.5 -37.5t13.5 -37.5t40 -17q53 0 145.5 93t204.5 249l-168 740q-12 55 -41 69q-10 5 -24 5q-24 0 -57 -15l12 55q79 58 137 58t84 -39.5t43 -124.5l123 -590q208 323 321 588q6 14 6 25q0 24 -26 37q-15 8 -33 8q-27 0 -59 -17l8 55 q91 60 156 60q54 0 74 -37q9 -17 9 -39q0 -25 -12 -55q-58 -140 -150.5 -308.5t-201 -332t-217 -299.5t-209.5 -219.5t-168 -83.5q-77 0 -118.5 39.5t-41.5 95.5z" />
<glyph unicode="z" horiz-adv-x="897" d="M58 34q-2 8 -3 16q0 26 21 52l577 746l-405 -17q-12 -1 -21 -9.5t-13.5 -17t-11 -25.5t-9.5 -23l-19 -37h-55l61 223h711l-664 -846l445 10q16 0 29.5 14.5t17.5 24t14 35.5l17 35h53l-62 -215h-639q-36 0 -44 34z" />
<glyph unicode="{" horiz-adv-x="473" d="M121 586l2 43q77 36 103 59t32 68l47 370q10 77 24.5 134t42.5 115t76.5 102.5t118.5 74.5l23 -59q-65 -35 -100.5 -126t-55.5 -249l-49 -383q-6 -47 -41 -75.5t-102 -53.5l-6 -6q62 -24 91.5 -54t22.5 -77l-47 -385q-22 -148 -9.5 -242t68.5 -129l-28 -51 q-82 40 -123 108t-44 147.5t7 174.5l47 371q6 45 -13 66t-87 57z" />
<glyph unicode="|" horiz-adv-x="430" d="M80 -440l262 2078h109l-263 -2078h-108z" />
<glyph unicode="}" horiz-adv-x="495" d="M-82 -285q70 35 107 125t57 248l47 385q4 47 43.5 75.5t112.5 53.5v6q-66 25 -98 54.5t-25 76.5l47 383q21 148 5 243t-77 130l33 55q68 -30 110.5 -76.5t57.5 -100t18.5 -118.5t-6.5 -133l-49 -370q-4 -45 17 -67t94 -58l-2 -43q-85 -37 -112 -59t-30 -66l-45 -371 q-8 -61 -18.5 -107.5t-31 -97.5t-50.5 -89.5t-77 -74t-109 -59.5z" />
<glyph unicode="~" horiz-adv-x="1003" d="M182 432l60 4q15 0 29 15t25 33t32 33t47 15q32 0 67.5 -21.5t63 -47t69.5 -47t87 -21.5q67 0 134 56.5t101 148.5l-57 -2q-10 0 -25 -13.5t-29 -29.5t-36.5 -29.5t-44.5 -13.5q-33 0 -62 12.5t-51.5 30t-45 34.5t-53.5 29.5t-67 12.5q-76 0 -140.5 -54t-103.5 -145z" />
<glyph unicode="&#xa1;" horiz-adv-x="428" d="M29 -68q12 101 85 346t95 410h57q-17 -170 -4 -411.5t0 -344.5q-9 -73 -42 -105t-93 -32q-58 0 -82.5 32t-15.5 105zM180 1040q6 46 42 79.5t81 33.5q43 0 71 -33.5t25 -79.5q-6 -45 -43 -77.5t-80 -32.5q-46 0 -74 32t-22 78z" />
<glyph unicode="&#xa2;" horiz-adv-x="835" d="M57 391q0 74 19.5 151t60 149t95.5 129t132 91.5t164 34.5q36 0 50 -2l45 119h73l-49 -133q79 -26 116.5 -86t37.5 -137q0 -45 -16 -72t-66 -27q-40 0 -61 19.5t-17 56.5q10 55 10 84q0 54 -37 76l-272 -733q48 -25 109 -25q50 0 95.5 22.5t70 49t44.5 49t25 22.5 q28 0 57 -47q-20 -34 -46.5 -63.5t-68.5 -61t-103 -50.5t-134 -19q-45 0 -88 12l-47 -125h-74l58 154q-84 47 -133.5 142t-49.5 220zM213 397q0 -159 72 -243l264 708h-19q-83 0 -147 -44t-99.5 -115t-53 -148.5t-17.5 -157.5z" />
<glyph unicode="&#xa3;" horiz-adv-x="1060" d="M57 0l15 117q227 142 227 311q0 53 -12 96h-176l12 90h129q-22 48 -32 72.5t-21.5 74.5t-12.5 103q1 54 16 111t51 117t89 106.5t136.5 76.5t185.5 30q128 0 214.5 -59.5t117 -162t3.5 -231.5q-8 -36 -32 -61t-54 -25q-69 0 -92 82q-2 15 21.5 64t23.5 98q1 25 -4.5 51 t-20.5 53.5t-37.5 49t-59 35t-82.5 13.5q-71 0 -127.5 -22t-90 -55t-56 -74.5t-30.5 -76t-8 -64.5q0 -70 14 -121t42.5 -105.5t37.5 -79.5h242l-12 -90h-205q4 -40 4 -71q0 -100 -50 -197.5t-147 -155.5q33 1 123 2.5t151 4.5t135 11t121 27t64 48l29 38h53l-67 -188 q-17 -43 -64 -43h-764z" />
<glyph unicode="&#xa4;" horiz-adv-x="1161" d="M160 70l127 125q-76 123 -56 282q18 147 119 262l-92 117l59 62l93 -121q117 96 247 96q139 0 236 -100l125 125l45 -62l-127 -123q74 -120 53 -276q-17 -146 -121 -264l97 -123l-58 -58l-96 123q-120 -96 -250 -96q-136 0 -229 96l-127 -123zM317 457 q-17 -134 54.5 -233t191.5 -99q123 0 225 105t121 247q15 133 -58 230.5t-192 97.5q-125 0 -225 -102.5t-117 -245.5z" />
<glyph unicode="&#xa5;" horiz-adv-x="1206" d="M168 1217l4 55h365l-7 -55q-42 -8 -66 -28t-13 -44l231 -453l328 441q50 66 -72 84l4 55h313l-6 -55q-54 -7 -87.5 -34t-82.5 -91l-307 -402h260l-10 -90h-315l-17 -133h314l-13 -90h-311l-31 -254q-3 -16 4 -26.5t27.5 -18t33 -10t44.5 -7.5q4 -1 6.5 -1.5t5.5 -0.5 l-4 -59h-416l8 59q41 6 68 12.5t51 22t27 37.5l31 246h-293l12 90h293l12 96l-18 37h-271l13 90h213l-179 359l-20 40l-17.5 35t-14 26.5t-15 23t-15.5 16t-19 14t-21 7.5t-27 6z" />
<glyph unicode="&#xa6;" horiz-adv-x="430" d="M80 -440l90 714h109l-91 -714h-108zM252 924l90 714h109l-91 -714h-108z" />
<glyph unicode="&#xa7;" horiz-adv-x="989" d="M88 205l43 18q36 16 39 -30q12 -33 18 -111q19 -99 87 -152t176 -53q44 0 80 4.5t74 19t63.5 38t42 63.5t16.5 94q0 27 -7 49.5t-16.5 38.5t-28.5 30.5t-33.5 23t-41.5 18t-42 14t-45 12.5t-42 11q-7 2 -38 9t-42 10t-40.5 11.5t-43 15.5t-38.5 19.5t-37.5 25.5t-29.5 32 t-25.5 40t-15 49t-7.5 60q-1 65 26.5 128.5t73.5 113.5q-43 56 -43 143q-5 150 103 252.5t276 102.5q80 0 139.5 -13.5t85.5 -28.5t63.5 -42t59.5 -39l-12 -246l-41 -12q-14 -5 -22 3.5t-7 26.5q-5 16 -16 117q-14 78 -71.5 115t-176.5 37q-104 0 -173 -63.5t-69 -166.5 q1 -40 14.5 -66.5t40 -40t49.5 -19.5t61 -12t58 -11q7 -2 33 -7.5t42.5 -9.5t46.5 -13t50.5 -17t48.5 -22.5t47 -29.5t39.5 -37t32.5 -46t20 -55.5t7 -67.5q-3 -145 -98 -240q56 -66 53 -160q-1 -68 -27 -125.5t-68.5 -97.5t-98.5 -68t-116.5 -41.5t-123.5 -13.5 q-38 0 -72 3t-64 11t-50.5 14t-46 18.5t-36 18t-34 20t-27.5 16.5zM297 600q2 -26 9.5 -46t23 -34.5t29.5 -24.5t39 -18t40 -12t44.5 -10t41.5 -9q3 -1 42.5 -10t61 -14.5t58.5 -19t66 -29.5q22 52 22 123q1 31 -6 55.5t-24 42.5t-31.5 30t-44.5 23t-46.5 16t-53 14.5 t-48.5 12.5q-10 2 -40.5 8.5t-48 10.5t-43.5 12.5t-46 17.5q-45 -58 -45 -139z" />
<glyph unicode="&#xa8;" horiz-adv-x="802" d="M123 1262q0 44 30 78t72 34q38 0 62 -28t24 -68q0 -47 -28.5 -82t-73.5 -35q-39 0 -62.5 29t-23.5 72zM688 1262q0 44 30.5 78t72.5 34q38 0 62 -28t24 -68q0 -47 -29 -82t-74 -35q-39 0 -62.5 29t-23.5 72z" />
<glyph unicode="&#xa9;" horiz-adv-x="1499" d="M184 502q25 199 124 356.5t246 243.5t314 86q102 0 191 -33t155.5 -96t111 -148.5t60.5 -196t0 -233.5q-19 -148 -81 -276.5t-152.5 -218t-206.5 -140.5t-241 -51q-102 0 -191 33t-156.5 96t-112 148.5t-61 196t-0.5 233.5zM301 481q-22 -173 16.5 -309t138.5 -215.5 t249 -79.5q227 0 379.5 175t187.5 450q22 173 -16.5 309t-138.5 215.5t-249 79.5q-152 0 -274 -82.5t-195.5 -222.5t-97.5 -320zM502 487q22 177 120.5 279t221.5 102q121 0 179.5 -64t47.5 -155q-2 -22 -17.5 -37.5t-43.5 -15.5q-30 0 -47 18t-13 48q4 42 6 72t-20 47.5 t-74 17.5q-105 0 -158 -69t-75 -230q-16 -131 32.5 -229.5t141.5 -98.5q59 0 92.5 23t62.5 65q16 18 28 17t18 -11l24 -26q-36 -61 -104.5 -106.5t-175.5 -45.5q-121 0 -195 112t-51 287z" />
<glyph unicode="&#xaa;" horiz-adv-x="671" d="M145 481l9 72h456l-8 -72h-457zM170 836q7 50 35 84.5t107.5 65.5t215.5 52l4 25q3 39 3 76.5t-22.5 63t-66.5 20.5q-28 -2 -63 -17q-19 -5 -26.5 -19.5t-10.5 -41.5t-6 -39q-8 -15 -28 -22t-40 -1q-53 3 -28 86q13 37 65 65.5t111 33.5q113 11 169.5 -45t43.5 -166 l-33 -256q-4 -33 10 -40t49 9l-6 -55l-80 -29q-31 -11 -51.5 25.5t-17.5 99.5q-25 -56 -71 -91t-109 -36q-73 -2 -118.5 37.5t-35.5 114.5zM272 817q-3 -34 16 -54t56 -20q29 0 54.5 11t46 32t32 37t26.5 39q3 5 5 8l18 127q-62 -10 -108.5 -26.5t-72.5 -34t-42.5 -40.5 t-22 -40t-8.5 -39z" />
<glyph unicode="&#xab;" horiz-adv-x="819" d="M96 469l355 305l-11 -92l-180 -213l127 -211l-10 -94zM420 469l354 305l-10 -92l-180 -213l127 -211l-11 -94z" />
<glyph unicode="&#xac;" horiz-adv-x="1099" d="M219 645l12 111h682l-14 -111h-680zM854 293l59 463h99l-60 -463h-98z" />
<glyph unicode="&#xad;" horiz-adv-x="716" d="M86 465l14 98h492l-12 -98h-494z" />
<glyph unicode="&#xae;" horiz-adv-x="1499" d="M186 502q25 198 123.5 355t245 243t313.5 86q128 0 233 -52t173.5 -144t98.5 -224t11 -285q-19 -148 -80.5 -276t-152 -217.5t-206 -140t-240.5 -50.5q-127 0 -232.5 52t-175.5 144t-100 224t-11 285zM303 481q-22 -172 16.5 -307.5t138 -215t247.5 -79.5 q152 0 273.5 82.5t195 222t96.5 318.5q22 172 -16.5 307.5t-138 215t-247.5 79.5q-227 0 -378.5 -174t-186.5 -449zM471 137l4 43q31 10 41.5 20t13.5 38l68 522q3 29 -5 39t-34 20l4 39h271q103 0 162 -60t48 -151q-22 -155 -210 -164q38 -4 62 -16.5t36 -37.5t16 -45.5 t8 -59.5q6 -49 31 -93.5t53 -44.5l-6 -51h-69q-47 0 -76 52t-37 145q-11 74 -35 100.5t-82 26.5h-59l-27 -230q-1 -6 -1 -10.5t-0.5 -8t1.5 -6.5t2.5 -5.5t4 -5t4.5 -3.5t6.5 -3.5t7 -3t9 -3.5t9.5 -4l-4 -39h-217zM684 514h111q60 0 92 43.5t39 110.5q8 57 -12 96t-70 39 h-121z" />
<glyph unicode="&#xaf;" horiz-adv-x="819" d="M250 1272l2 22q3 18 11.5 24.5t27.5 6.5h518q39 0 33 -37l-2 -24q-1 -18 -10 -24.5t-29 -6.5h-518q-39 0 -33 39z" />
<glyph unicode="&#xb0;" horiz-adv-x="563" d="M195 1073q12 96 79 160.5t150 64.5q89 0 141 -70t39 -175q-12 -96 -78.5 -161t-150.5 -65q-87 0 -139.5 70.5t-40.5 175.5zM289 1053q-8 -65 14 -109.5t72 -44.5q56 0 93 49t48 125q8 67 -15.5 110.5t-72.5 43.5q-56 0 -93.5 -49t-45.5 -125z" />
<glyph unicode="&#xb1;" horiz-adv-x="915" d="M72 8l12 111h678l-14 -111h-676zM137 668l15 110h290l41 322h99l-41 -322h286l-12 -110h-289l-41 -328h-98l41 328h-291z" />
<glyph unicode="&#xb2;" horiz-adv-x="624" d="M215 797q15 50 37.5 90t53.5 71t51.5 47.5t56.5 41.5q46 24 72.5 50.5t31.5 69.5q3 37 -11 61.5t-44 24.5q-34 0 -54 -15t-32 -52q-6 -19 -4.5 -40.5t-1.5 -37.5q-12 -21 -30.5 -25.5t-34.5 4t-27 24.5t-9 32q8 73 59 121.5t134 48.5q86 0 125 -45t28 -121 q-3 -25 -13 -45.5t-28.5 -38t-33.5 -29t-40.5 -28t-37.5 -25.5q-128 -65 -146 -111l189 4q28 0 39 21l24 23h43l-28 -101q-8 -24 -41 -24z" />
<glyph unicode="&#xb3;" horiz-adv-x="653" d="M266 956q7 39 43 39q24 0 36 -9.5t13.5 -23.5t1.5 -31.5v-33.5q8 -32 23.5 -44.5t50.5 -12.5q36 0 66 33t37 90q6 45 -11.5 64.5t-45 16t-60.5 -21.5l-19 51l48 25q80 31 88 98q4 33 -6.5 47t-38.5 14q-52 0 -77 -44.5t-20 -88.5l-61 19q-22 10 -19 37q8 59 54 97t116 38 q73 0 112 -42.5t34 -92.5q-3 -46 -51 -82q28 -14 46 -51.5t11 -90.5q-9 -71 -68.5 -121.5t-132.5 -50.5q-86 0 -132 51t-38 121z" />
<glyph unicode="&#xb4;" horiz-adv-x="540" d="M188 1110q11 -20 43 -2l279 160q47 26 62 58t-5 63q-17 28 -49.5 26t-66.5 -33l-246 -227q-31 -25 -17 -45z" />
<glyph unicode="&#xb6;" horiz-adv-x="1171" d="M164 891q21 176 156.5 278.5t330.5 102.5h541l-4 -58q-43 -9 -66.5 -24t-27.5 -47l-146 -1159q-5 -36 9.5 -51.5t62.5 -22.5l-6 -47h-631l2 47q67 7 91.5 25.5t29.5 56.5l63 500h-28q-196 0 -298 107t-79 292zM340 709q7 -69 51.5 -109.5t128.5 -40.5h58l81 643h-36 q-69 0 -119.5 -23.5t-82 -69.5t-49.5 -103t-28 -136q-11 -92 -4 -161zM662 -16q-5 -36 7 -50t48 -14q69 0 78 72l145 1157q4 34 -3.5 43.5t-31.5 9.5h-90z" />
<glyph unicode="&#xb7;" horiz-adv-x="499" d="M45 612q4 40 37 70.5t70 30.5q42 0 68 -35t22 -86q-6 -41 -39.5 -72t-71.5 -31q-42 0 -67.5 35.5t-18.5 87.5z" />
<glyph unicode="&#xb8;" horiz-adv-x="452" d="M-39 -293q-2 28 15 47t44 17t48 -29q0 -4 1.5 -21.5t2.5 -24.5t4.5 -21t9 -20.5t15.5 -12.5t24 -7q50 -3 85.5 26t47.5 81q12 47 -11.5 74t-74.5 20q-47 -3 -70 -12q-24 -3 -31.5 19t5.5 44t67 113h97l-54 -94q37 11 74 1t62.5 -36.5t36.5 -67.5t-3 -92 q-16 -54 -54 -86.5t-82 -43t-97 -7.5q-76 4 -118 40.5t-44 92.5z" />
<glyph unicode="&#xb9;" horiz-adv-x="354" d="M176 803l2 43q58 4 62 39l43 342l-60 -21l8 54l105 53q25 11 36 -2.5t9 -34.5l-49 -397q-3 -27 27 -31q4 -1 20 -2l-4 -43h-199z" />
<glyph unicode="&#xba;" horiz-adv-x="667" d="M147 481l11 72h452l-8 -72h-455zM190 981q16 130 98.5 208.5t180.5 80.5q102 -2 167 -83.5t48 -215.5q-17 -128 -98.5 -206.5t-179.5 -78.5q-102 0 -167.5 82t-48.5 213zM293 985q-12 -96 22 -169t86 -73q76 0 121.5 52t59.5 172q12 100 -22 173.5t-89 73.5 q-150 0 -178 -229z" />
<glyph unicode="&#xbb;" horiz-adv-x="813" d="M45 164l12 94l179 211l-127 213l10 92l280 -305zM377 164l12 94l178 211l-125 213l11 92l278 -305z" />
<glyph unicode="&#xbc;" horiz-adv-x="1193" d="M33 -10l958 1313h96l-958 -1313h-96zM166 803l2 43q57 4 61 39l43 342l-59 -21l8 54l105 53q25 11 36 -2.5t9 -34.5l-49 -397q-3 -27 27 -31q4 -1 20 -2l-4 -43h-199zM705 145l8 54l254 307q20 22 44 10t21 -37l-35 -276h70l-8 -58h-68l-10 -77q-3 -17 6.5 -25t32.5 -8 l-4 -47h-187l7 47q42 0 49 41l8 69h-188zM791 203h108l19 145z" />
<glyph unicode="&#xbd;" horiz-adv-x="1234" d="M33 -10l958 1313h96l-958 -1313h-96zM166 803l2 43q57 4 61 39l43 342l-59 -21l8 54l105 53q25 11 36 -2.5t9 -34.5l-49 -397q-3 -27 27 -31q4 -1 20 -2l-4 -43h-199zM700 -8q15 50 37.5 90t53.5 71t51.5 47.5t56.5 41.5q47 25 73.5 51t31.5 69q3 37 -11.5 62t-44.5 25 q-65 0 -86 -68q-5 -18 -3.5 -40.5t-2.5 -37.5q-12 -21 -30 -25.5t-34 4.5t-26.5 24.5t-9.5 31.5q8 73 58.5 121.5t133.5 48.5q86 0 125.5 -45t28.5 -121q-3 -25 -13 -45.5t-28.5 -38t-34 -29t-41 -28t-37.5 -25.5q-128 -67 -145 -110l188 4q28 0 41 20l23 23h45l-31 -101 q-8 -24 -41 -24z" />
<glyph unicode="&#xbe;" horiz-adv-x="1677" d="M268 956q7 39 43 39q24 0 36 -9.5t13.5 -23.5t1.5 -31.5v-33.5q7 -32 24 -44.5t52 -12.5t64.5 33t36.5 90q6 45 -11.5 64.5t-45 16t-60.5 -21.5l-19 51l48 25q80 31 88 98q4 33 -6.5 47t-38.5 14q-52 0 -77 -44.5t-20 -88.5l-59 19q-23 8 -19 37q6 59 52 97t116 38 q74 0 113.5 -42.5t34.5 -92.5q-6 -49 -53 -82q29 -13 47.5 -51t11.5 -91q-9 -71 -69.5 -121.5t-133.5 -50.5q-86 0 -132 51t-38 121zM281 -10l956 1313h96l-958 -1313h-94zM1022 145l8 54l254 307q20 22 44.5 10t21.5 -37l-35 -276h69l-8 -58h-67l-11 -77q-3 -17 6.5 -25 t32.5 -8l-4 -47h-184l4 47q40 0 51 41l8 69h-190zM1108 203h111l16 145z" />
<glyph unicode="&#xbf;" horiz-adv-x="884" d="M39 84q-4 -58 15.5 -113t57.5 -95.5t95.5 -65.5t124.5 -25q167 0 279.5 95.5t131.5 244.5q5 45 -3 79.5t-25 51t-39.5 22t-46.5 -3.5t-45 -30q-27 -24 -31 -60.5t6 -71.5t11 -77t-17 -76q-64 -106 -205 -106q-87 0 -130 54t-32 138q5 68 42.5 124t158.5 155 q103 81 111 206v179h-54l-38 -185q-6 -24 -37 -49t-92.5 -69t-110.5 -89q-59 -52 -91 -113.5t-36 -119.5zM432 1051q6 41 39 71.5t70 30.5q42 0 67.5 -35.5t18.5 -87.5q-3 -39 -35.5 -69.5t-71.5 -30.5q-42 0 -68 35t-20 86z" />
<glyph unicode="&#xc0;" horiz-adv-x="1298" d="M4 0l6 53q65 15 93 38.5t65 96.5l483 973q35 69 35 111l100 18l285 -1059q20 -73 40 -108t39.5 -46.5t63.5 -23.5l-6 -53h-391l6 53q76 16 94.5 41t6.5 68l-72 280h-467l-135 -276q-22 -44 -0.5 -69.5t88.5 -43.5l-6 -53h-328zM424 520h407l-141 547zM505.5 1674.5 q-15.5 31.5 4.5 62.5q17 28 50.5 26.5t68.5 -32.5l243 -228q31 -25 19 -45q-14 -19 -45 -2l-279 160q-46 27 -61.5 58.5z" />
<glyph unicode="&#xc1;" horiz-adv-x="1298" d="M4 0l6 53q65 15 93 38.5t65 96.5l483 973q35 69 35 111l100 18l285 -1059q20 -73 40 -108t39.5 -46.5t63.5 -23.5l-6 -53h-391l6 53q76 16 94.5 41t6.5 68l-72 280h-467l-135 -276q-22 -44 -0.5 -69.5t88.5 -43.5l-6 -53h-328zM424 520h407l-141 547zM635 1458 q-15 20 16 45l246 228q34 31 67 32.5t50 -26.5q20 -31 4.5 -63t-62.5 -58l-278 -160q-32 -18 -43 2z" />
<glyph unicode="&#xc2;" horiz-adv-x="1298" d="M4 0l6 53q65 15 93 38.5t65 96.5l483 973q35 69 35 111l100 18l285 -1059q20 -73 40 -108t39.5 -46.5t63.5 -23.5l-6 -53h-391l6 53q76 16 94.5 41t6.5 68l-72 280h-467l-135 -276q-22 -44 -0.5 -69.5t88.5 -43.5l-6 -53h-328zM424 520h407l-141 547zM453 1432l344 317 l266 -317h-94l-193 153l-231 -153h-92z" />
<glyph unicode="&#xc3;" horiz-adv-x="1298" d="M4 0l6 53q65 15 93 38.5t65 96.5l483 973q35 69 35 111l100 18l285 -1059q20 -73 40 -108t39.5 -46.5t63.5 -23.5l-6 -53h-391l6 53q76 16 94.5 41t6.5 68l-72 280h-467l-135 -276q-22 -44 -0.5 -69.5t88.5 -43.5l-6 -53h-328zM424 520h407l-141 547zM492 1513 q-3 85 62.5 139t143.5 54q34 0 64 -12.5t52 -30t43 -34.5t48.5 -29.5t57.5 -12.5q46 0 91 32t50 58l51 -6q-24 -97 -86 -150t-145 -53q-41 0 -80 22t-64 48t-56 48t-58 22q-54 0 -92 -35.5t-42 -67.5z" />
<glyph unicode="&#xc4;" horiz-adv-x="1298" d="M4 0l6 53q65 15 93 38.5t65 96.5l483 973q35 69 35 111l100 18l285 -1059q20 -73 40 -108t39.5 -46.5t63.5 -23.5l-6 -53h-391l6 53q76 16 94.5 41t6.5 68l-72 280h-467l-135 -276q-22 -44 -0.5 -69.5t88.5 -43.5l-6 -53h-328zM418 1610q0 44 30 78t72 34q38 0 62 -28 t24 -68q0 -47 -28.5 -82t-73.5 -35q-39 0 -62.5 29t-23.5 72zM424 520h407l-141 547zM983 1610q0 44 30 78t72 34q38 0 62 -28t24 -68q0 -47 -28.5 -82t-73.5 -35q-39 0 -62.5 29t-23.5 72z" />
<glyph unicode="&#xc5;" horiz-adv-x="1298" d="M4 0l6 53q65 15 93 38.5t65 96.5l483 973q35 69 35 111l100 18l285 -1059q20 -73 40 -108t39.5 -46.5t63.5 -23.5l-6 -53h-391l6 53q76 16 94.5 41t6.5 68l-72 280h-467l-135 -276q-22 -44 -0.5 -69.5t88.5 -43.5l-6 -53h-328zM424 520h407l-141 547zM629 1638 q0 75 54.5 133t125.5 58q64 0 104.5 -45t40.5 -115q0 -71 -55 -129.5t-123 -58.5q-63 0 -105 45t-42 112zM719 1649q0 -99 65 -99q34 0 59 28.5t25 80.5q0 102 -67 102q-34 0 -58 -29.5t-24 -82.5z" />
<glyph unicode="&#xc6;" horiz-adv-x="1742" d="M8 0l4 55q76 15 112 39t87 90l702 930q30 39 35 55q-1 5 -3 9t-5.5 7.5t-5.5 6t-7.5 5.5t-8.5 5t-10.5 5t-11 4.5t-13 4.5t-13.5 5l9 51h792q19 0 26.5 -9t4.5 -32l-27 -201h-51l-20 70q-23 94 -129 94h-347l-63 -506h328q18 0 31 5t25 20t17.5 23.5t19 35.5l17.5 35h33 l-41 -313h-31q-2 7 -6.5 26.5l-6 26t-6 20.5t-9.5 19t-12.5 12t-17 9.5t-22.5 2.5h-327l-72 -538l416 4q30 0 52.5 9.5t31.5 18.5t28 34.5t27 35.5l57 64l68 -5q-50 -89 -84 -196q-18 -37 -59 -37h-807l10 49q55 19 77.5 41t28.5 74l35 285h-352l-219 -293q-28 -42 -5.5 -64 t103.5 -37l-4 -55h-381zM571 524h306l61 490z" />
<glyph unicode="&#xc7;" horiz-adv-x="1146" d="M88 547q0 94 22.5 194.5t72.5 202t120.5 181.5t175.5 130t228 50q117 0 193 -49.5t126 -139.5q49 5 76 156h67l-36 -398l-76 -26l-33 102q-40 130 -122 199.5t-183 69.5q-83 0 -152.5 -32t-117 -87t-83 -123.5t-55.5 -147.5t-29.5 -152.5t-9.5 -144.5q0 -221 95 -332.5 t245 -111.5q135 0 236.5 80.5t142.5 208.5h94q-69 -190 -189 -289.5t-323 -99.5h-16l-47 -82q37 11 74 1t62.5 -36.5t36.5 -67.5t-3 -92q-16 -54 -54 -86.5t-82.5 -43t-97.5 -7.5q-76 4 -117.5 40.5t-43.5 92.5q-2 28 15 47t43.5 17t47.5 -29q0 -2 1.5 -21t2.5 -25t5 -20.5 t9.5 -20.5t15.5 -12.5t24 -7.5q50 -3 85.5 26t47.5 81q12 47 -11.5 74t-74.5 20q-47 -3 -70 -12q-24 -3 -32 19t5 44q39 64 68 111q-172 37 -275.5 184.5t-103.5 364.5z" />
<glyph unicode="&#xc8;" horiz-adv-x="1064" d="M37 0l10 49q55 19 78 41t29 74l118 956q5 48 -9 64.5t-58 32.5q-3 0 -4 1t-3.5 1.5t-4.5 1.5l8 51h792q19 0 26.5 -9t4.5 -32l-27 -201h-51l-20 70q-23 94 -129 94h-346l-64 -506h328q18 0 31 5t25 20t17.5 23.5t19 35.5l17.5 35h33l-41 -313h-31q-2 8 -6 26.5t-6 26 t-6.5 20.5t-9 18.5t-12 12.5t-17 9.5t-22.5 2.5h-328l-72 -538l416 4q30 0 52.5 9.5t31.5 18.5t28 34.5t27 35.5l58 64l67 -5q-50 -89 -84 -196q-18 -37 -59 -37h-807zM374.5 1674.5q15.5 -31.5 61.5 -58.5l279 -160q31 -17 45 2q12 20 -19 45l-243 228q-35 31 -68.5 32.5 t-50.5 -26.5q-20 -31 -4.5 -62.5z" />
<glyph unicode="&#xc9;" horiz-adv-x="1064" d="M37 0l10 49q55 19 78 41t29 74l118 956q5 48 -9 64.5t-58 32.5q-3 0 -4 1t-3.5 1.5t-4.5 1.5l8 51h792q19 0 26.5 -9t4.5 -32l-27 -201h-51l-20 70q-23 94 -129 94h-346l-64 -506h328q18 0 31 5t25 20t17.5 23.5t19 35.5l17.5 35h33l-41 -313h-31q-2 8 -6 26.5t-6 26 t-6.5 20.5t-9 18.5t-12 12.5t-17 9.5t-22.5 2.5h-328l-72 -538l416 4q30 0 52.5 9.5t31.5 18.5t28 34.5t27 35.5l58 64l67 -5q-50 -89 -84 -196q-18 -37 -59 -37h-807zM502 1458q11 -20 43 -2l278 160q47 26 62.5 58t-4.5 63q-17 28 -50 26.5t-67 -32.5l-246 -228 q-31 -25 -16 -45z" />
<glyph unicode="&#xca;" horiz-adv-x="1064" d="M37 0l10 49q55 19 78 41t29 74l118 956q5 48 -9 64.5t-58 32.5q-3 0 -4 1t-3.5 1.5t-4.5 1.5l8 51h792q19 0 26.5 -9t4.5 -32l-27 -201h-51l-20 70q-23 94 -129 94h-346l-64 -506h328q18 0 31 5t25 20t17.5 23.5t19 35.5l17.5 35h33l-41 -313h-31q-2 8 -6 26.5t-6 26 t-6.5 20.5t-9 18.5t-12 12.5t-17 9.5t-22.5 2.5h-328l-72 -538l416 4q30 0 52.5 9.5t31.5 18.5t28 34.5t27 35.5l58 64l67 -5q-50 -89 -84 -196q-18 -37 -59 -37h-807zM319 1432l345 317l266 -317h-94l-193 153l-231 -153h-93z" />
<glyph unicode="&#xcb;" horiz-adv-x="1064" d="M37 0l10 49q55 19 78 41t29 74l118 956q5 48 -9 64.5t-58 32.5q-3 0 -4 1t-3.5 1.5t-4.5 1.5l8 51h792q19 0 26.5 -9t4.5 -32l-27 -201h-51l-20 70q-23 94 -129 94h-346l-64 -506h328q18 0 31 5t25 20t17.5 23.5t19 35.5l17.5 35h33l-41 -313h-31q-2 8 -6 26.5t-6 26 t-6.5 20.5t-9 18.5t-12 12.5t-17 9.5t-22.5 2.5h-328l-72 -538l416 4q30 0 52.5 9.5t31.5 18.5t28 34.5t27 35.5l58 64l67 -5q-50 -89 -84 -196q-18 -37 -59 -37h-807zM285 1610q0 44 30 78t72 34q38 0 62 -28t24 -68q0 -47 -28.5 -82t-73.5 -35q-39 0 -62.5 29t-23.5 72z M850 1610q0 44 30 78t72 34q38 0 62 -28t24 -68q0 -47 -28.5 -82t-73.5 -35q-39 0 -62.5 29t-23.5 72z" />
<glyph unicode="&#xcc;" horiz-adv-x="505" d="M14 0l6 51q59 16 81.5 34.5t29.5 66.5l121 962q6 55 -9.5 70t-74.5 30l8 58h359l-9 -58q-62 -11 -85 -29.5t-29 -68.5l-121 -964q-6 -53 10.5 -68.5t75.5 -32.5l-8 -51h-355zM118.5 1674.5q15.5 -31.5 61.5 -58.5l279 -160q31 -17 45 2q12 20 -19 45l-243 228 q-35 31 -68.5 32.5t-50.5 -26.5q-20 -31 -4.5 -62.5z" />
<glyph unicode="&#xcd;" horiz-adv-x="505" d="M14 0l6 51q59 16 81.5 34.5t29.5 66.5l121 962q6 55 -9.5 70t-74.5 30l8 58h359l-9 -58q-62 -11 -85 -29.5t-29 -68.5l-121 -964q-6 -53 10.5 -68.5t75.5 -32.5l-8 -51h-355zM248 1458q11 -20 43 -2l278 160q47 26 62.5 58t-4.5 63q-17 28 -50 26.5t-67 -32.5l-246 -228 q-31 -25 -16 -45z" />
<glyph unicode="&#xce;" horiz-adv-x="505" d="M14 0l6 51q59 16 81.5 34.5t29.5 66.5l121 962q6 55 -9.5 70t-74.5 30l8 58h359l-9 -58q-62 -11 -85 -29.5t-29 -68.5l-121 -964q-6 -53 10.5 -68.5t75.5 -32.5l-8 -51h-355zM66 1432l344 317l266 -317h-94l-193 153l-231 -153h-92z" />
<glyph unicode="&#xcf;" horiz-adv-x="505" d="M14 0l6 51q59 16 81.5 34.5t29.5 66.5l121 962q6 55 -9.5 70t-74.5 30l8 58h359l-9 -58q-62 -11 -85 -29.5t-29 -68.5l-121 -964q-6 -53 10.5 -68.5t75.5 -32.5l-8 -51h-355zM31 1610q0 44 30 78t72 34q38 0 62 -28t24 -68q0 -47 -28.5 -82t-73.5 -35q-39 0 -62.5 29 t-23.5 72zM596 1610q0 44 30 78t72 34q38 0 62 -28t24 -68q0 -47 -28.5 -82t-73.5 -35q-39 0 -62.5 29t-23.5 72z" />
<glyph unicode="&#xd0;" horiz-adv-x="1198" d="M16 0l11 74q120 29 129 100l51 422h-41l10 82h41l53 436q4 37 -21 58t-79 32l8 68h367q304 0 458 -130t154 -401q0 -97 -20.5 -194.5t-71 -197.5t-124.5 -176.5t-191.5 -124.5t-262.5 -48q-50 0 -150.5 9t-127.5 9q-31 0 -59 -2.5t-69.5 -8t-64.5 -7.5zM305 150 q-2 -17 5.5 -29.5t27 -20t38 -12t50 -6t49.5 -2t51 -0.5q96 0 176 42.5t132 110.5t88 156.5t51.5 178t15.5 177.5q0 93 -24 173t-72.5 143t-129 99t-185.5 36h-146l-63 -518h301l-11 -82h-301z" />
<glyph unicode="&#xd1;" horiz-adv-x="1236" d="M16 0l9 49q109 38 118 105l125 970q4 35 -18 57.5t-74 37.5l6 53h219l576 -930l94 782q4 35 -19.5 57.5t-78.5 37.5l6 53h305l-6 -53q-66 -14 -89 -38t-28 -65l-143 -1116q-2 -3 -6.5 -3t-7.5 3l-664 1061l-113 -916q-4 -35 18 -58t72 -38l-6 -49h-295zM446 1513 q-3 85 63 139t144 54q34 0 64 -12.5t52 -30t43 -34.5t48.5 -29.5t57.5 -12.5q46 0 91 32t50 58l51 -6q-24 -97 -86 -150t-145 -53q-41 0 -80 22t-64 48t-56 48t-58 22q-54 0 -92 -35.5t-42 -67.5z" />
<glyph unicode="&#xd2;" d="M90 549q0 67 11 138t35 145t59 142.5t87 129t114 105t144 70.5t175 26q140 0 247 -71.5t163.5 -195t56.5 -278.5q0 -94 -22 -195.5t-71.5 -205.5t-119.5 -185.5t-177 -133.5t-233 -52q-140 0 -248 74.5t-164.5 201.5t-56.5 285zM270 565q0 -233 88 -357t222 -124 q82 0 149.5 29.5t112.5 82t78 117t50.5 141t25.5 147t8 142.5q0 227 -90 352.5t-224 125.5q-96 0 -171.5 -42.5t-121 -108.5t-75.5 -155.5t-41 -175t-11 -174.5zM483 1674.5q16 -31.5 62 -58.5l278 -160q31 -17 45 2q12 21 -18 45l-244 228q-35 31 -68.5 32.5t-50.5 -26.5 q-20 -31 -4 -62.5z" />
<glyph unicode="&#xd3;" d="M90 549q0 67 11 138t35 145t59 142.5t87 129t114 105t144 70.5t175 26q140 0 247 -71.5t163.5 -195t56.5 -278.5q0 -94 -22 -195.5t-71.5 -205.5t-119.5 -185.5t-177 -133.5t-233 -52q-140 0 -248 74.5t-164.5 201.5t-56.5 285zM270 565q0 -233 88 -357t222 -124 q82 0 149.5 29.5t112.5 82t78 117t50.5 141t25.5 147t8 142.5q0 227 -90 352.5t-224 125.5q-96 0 -171.5 -42.5t-121 -108.5t-75.5 -155.5t-41 -175t-11 -174.5zM610 1458q11 -20 43 -2l279 160q47 26 62 58t-5 63q-17 28 -50 26.5t-67 -32.5l-245 -228q-31 -25 -17 -45z " />
<glyph unicode="&#xd4;" d="M90 549q0 67 11 138t35 145t59 142.5t87 129t114 105t144 70.5t175 26q140 0 247 -71.5t163.5 -195t56.5 -278.5q0 -94 -22 -195.5t-71.5 -205.5t-119.5 -185.5t-177 -133.5t-233 -52q-140 0 -248 74.5t-164.5 201.5t-56.5 285zM270 565q0 -233 88 -357t222 -124 q82 0 149.5 29.5t112.5 82t78 117t50.5 141t25.5 147t8 142.5q0 227 -90 352.5t-224 125.5q-96 0 -171.5 -42.5t-121 -108.5t-75.5 -155.5t-41 -175t-11 -174.5zM428 1432l344 317l266 -317h-94l-192 153l-232 -153h-92z" />
<glyph unicode="&#xd5;" d="M90 549q0 67 11 138t35 145t59 142.5t87 129t114 105t144 70.5t175 26q140 0 247 -71.5t163.5 -195t56.5 -278.5q0 -94 -22 -195.5t-71.5 -205.5t-119.5 -185.5t-177 -133.5t-233 -52q-140 0 -248 74.5t-164.5 201.5t-56.5 285zM270 565q0 -233 88 -357t222 -124 q82 0 149.5 29.5t112.5 82t78 117t50.5 141t25.5 147t8 142.5q0 227 -90 352.5t-224 125.5q-96 0 -171.5 -42.5t-121 -108.5t-75.5 -155.5t-41 -175t-11 -174.5zM469 1513q-3 85 63 139t144 54q34 0 64 -12.5t51.5 -30t43 -34.5t48.5 -29.5t57 -12.5q46 0 91 32t50 58l52 -6 q-24 -97 -86.5 -150t-145.5 -53q-41 0 -80 22t-64 48t-56 48t-58 22q-54 0 -91.5 -35.5t-41.5 -67.5z" />
<glyph unicode="&#xd6;" d="M90 549q0 67 11 138t35 145t59 142.5t87 129t114 105t144 70.5t175 26q140 0 247 -71.5t163.5 -195t56.5 -278.5q0 -94 -22 -195.5t-71.5 -205.5t-119.5 -185.5t-177 -133.5t-233 -52q-140 0 -248 74.5t-164.5 201.5t-56.5 285zM270 565q0 -233 88 -357t222 -124 q82 0 149.5 29.5t112.5 82t78 117t50.5 141t25.5 147t8 142.5q0 227 -90 352.5t-224 125.5q-96 0 -171.5 -42.5t-121 -108.5t-75.5 -155.5t-41 -175t-11 -174.5zM393 1610q0 44 30.5 78t72.5 34q38 0 62 -28t24 -68q0 -47 -29 -82t-74 -35q-39 0 -62.5 29t-23.5 72z M958 1610q0 44 30.5 78t72.5 34q38 0 62 -28t24 -68q0 -47 -29 -82t-74 -35q-39 0 -62.5 29t-23.5 72z" />
<glyph unicode="&#xd7;" horiz-adv-x="854" d="M156 279l239 237l-180 236l78 77l180 -235l240 235l61 -77l-239 -238l180 -235l-78 -78l-180 235l-238 -235z" />
<glyph unicode="&#xd8;" horiz-adv-x="1204" d="M90 549q0 67 11 138t35 145t59 142.5t87 129t114 105t144 70.5t175 26q170 0 289 -103l75 103l58 -52l-80 -106q125 -153 125 -387q0 -94 -22 -195.5t-71.5 -205.5t-119.5 -185.5t-177 -133.5t-233 -52q-162 0 -283 100l-81 -111l-60 52l86 116q-131 156 -131 404z M270 565q0 -169 49 -286l601 808q-90 134 -230 134q-96 0 -171.5 -42.5t-121 -108.5t-75.5 -155.5t-41 -175t-11 -174.5zM360 203q85 -119 220 -119q82 0 149.5 29.5t112.5 82t78 117t50.5 141t25.5 147t8 142.5q0 150 -48 269z" />
<glyph unicode="&#xd9;" d="M168 518l80 635q2 17 -1.5 28t-16 17.5t-22.5 9t-32 6.5l6 58h332l-8 -58q-43 -7 -67.5 -21t-28.5 -46l-68 -543q-36 -280 25 -406t211 -126q64 0 122 23.5t111 73t90.5 138t52.5 207.5l80 639q2 17 -1.5 28t-15 17.5t-22.5 9t-34 6.5l6 58h274l-6 -58q-42 -7 -66 -21 t-28 -46l-80 -631q-31 -246 -159.5 -390t-323.5 -144q-232 0 -337 144t-73 392zM487.5 1674.5q15.5 -31.5 61.5 -58.5l278 -160q31 -17 45 2q12 21 -18 45l-244 228q-35 31 -68 32.5t-50 -26.5q-20 -31 -4.5 -62.5z" />
<glyph unicode="&#xda;" d="M168 518l80 635q2 17 -1.5 28t-16 17.5t-22.5 9t-32 6.5l6 58h332l-8 -58q-43 -7 -67.5 -21t-28.5 -46l-68 -543q-36 -280 25 -406t211 -126q64 0 122 23.5t111 73t90.5 138t52.5 207.5l80 639q2 17 -1.5 28t-15 17.5t-22.5 9t-34 6.5l6 58h274l-6 -58q-42 -7 -66 -21 t-28 -46l-80 -631q-31 -246 -159.5 -390t-323.5 -144q-232 0 -337 144t-73 392zM614 1458q11 -20 43 -2l279 160q47 26 62 58t-5 63q-17 28 -49.5 26.5t-66.5 -32.5l-246 -228q-31 -25 -17 -45z" />
<glyph unicode="&#xdb;" d="M168 518l80 635q2 17 -1.5 28t-16 17.5t-22.5 9t-32 6.5l6 58h332l-8 -58q-43 -7 -67.5 -21t-28.5 -46l-68 -543q-36 -280 25 -406t211 -126q64 0 122 23.5t111 73t90.5 138t52.5 207.5l80 639q2 17 -1.5 28t-15 17.5t-22.5 9t-34 6.5l6 58h274l-6 -58q-42 -7 -66 -21 t-28 -46l-80 -631q-31 -246 -159.5 -390t-323.5 -144q-232 0 -337 144t-73 392zM432 1432l344 317l266 -317h-94l-192 153l-232 -153h-92z" />
<glyph unicode="&#xdc;" d="M168 518l80 635q2 17 -1.5 28t-16 17.5t-22.5 9t-32 6.5l6 58h332l-8 -58q-43 -7 -67.5 -21t-28.5 -46l-68 -543q-36 -280 25 -406t211 -126q64 0 122 23.5t111 73t90.5 138t52.5 207.5l80 639q2 17 -1.5 28t-15 17.5t-22.5 9t-34 6.5l6 58h274l-6 -58q-42 -7 -66 -21 t-28 -46l-80 -631q-31 -246 -159.5 -390t-323.5 -144q-232 0 -337 144t-73 392zM397 1610q0 44 30.5 78t72.5 34q38 0 62 -28t24 -68q0 -47 -29 -82t-74 -35q-39 0 -62.5 29t-23.5 72zM963 1610q0 44 30 78t72 34q38 0 62 -28t24 -68q0 -47 -28.5 -82t-73.5 -35 q-39 0 -62.5 29t-23.5 72z" />
<glyph unicode="&#xdd;" horiz-adv-x="1196" d="M168 1217l4 55h365l-7 -55q-42 -8 -66 -28t-13 -44l231 -453l328 441q50 66 -72 84l4 55h313l-6 -55q-54 -7 -87.5 -34t-82.5 -91l-372 -486l-58 -483q-3 -16 4 -26.5t27.5 -18t33 -10t44.5 -7.5q4 -1 6.5 -1.5t5.5 -0.5l-4 -59h-416l8 59q41 6 68 12.5t51 22t27 37.5 l55 432l-242 486l-20 40l-17.5 35t-14 26.5t-15 23t-15.5 16t-19 14t-21 7.5t-27 6zM623 1458q-15 20 16 45l246 228q34 31 66.5 32.5t49.5 -26.5q20 -31 5 -63t-62 -58l-278 -160q-32 -18 -43 2z" />
<glyph unicode="&#xde;" horiz-adv-x="1036" d="M-2 0l6 51q59 16 81.5 34.5t29.5 66.5l121 962q6 55 -9.5 70t-74.5 30l8 58h358l-8 -58q-62 -11 -85.5 -30t-29.5 -68l-121 -964q-6 -53 10.5 -68.5t75.5 -32.5l-8 -51h-354zM295 276l8 68h246q78 0 133 21.5t88 65.5t50 96t26 126q11 66 5.5 125t-25 103t-68 70 t-123.5 26h-250l8 72h221q212 0 322 -112t88 -298q-23 -170 -155.5 -266.5t-346.5 -96.5h-227z" />
<glyph unicode="&#xdf;" horiz-adv-x="972" d="M23 0l2 47q52 7 71 21.5t25 50.5l110 897q22 170 107.5 260t232.5 90q140 0 210.5 -82t70.5 -221q0 -85 -40.5 -164.5t-115.5 -128.5q91 -28 149 -113.5t58 -216.5q0 -61 -14 -119t-51.5 -118t-94.5 -104.5t-151 -72.5t-213 -28l8 86q64 0 116.5 12.5t88.5 33.5t63 52 t43 64t25.5 74.5t12.5 78.5t3 80q0 111 -57.5 170t-202.5 62l4 69q57 0 104 30t75.5 77t43.5 99t15 101q0 89 -34.5 145t-113.5 56q-81 0 -128.5 -69t-63.5 -181l-105 -843q-13 -106 -51.5 -150.5t-130.5 -44.5h-71z" />
<glyph unicode="&#xe0;" horiz-adv-x="985" d="M57 391q0 69 17 144t53.5 148.5t87.5 132t125.5 94.5t161.5 36q74 0 143 -40.5t100 -98.5l15 117h143l-94 -734q-4 -37 7 -63t39.5 -31t78.5 33l-27 -80q-73 -49 -125 -49q-62 0 -95.5 37t-31.5 94q-47 -64 -118 -103.5t-146 -39.5q-148 0 -241 111.5t-93 291.5zM215 399 q0 -145 53.5 -234t145.5 -89q87 0 162.5 56t97.5 136l55 426l-2 -4q-59 172 -231 172q-76 0 -133.5 -45t-88 -117.5t-45 -148.5t-14.5 -152zM305 1326.5q-16 31.5 4 62.5q17 28 50.5 26t68.5 -33l244 -227q30 -24 18 -45q-14 -19 -45 -2l-278 160q-46 27 -62 58.5z" />
<glyph unicode="&#xe1;" horiz-adv-x="985" d="M57 391q0 69 17 144t53.5 148.5t87.5 132t125.5 94.5t161.5 36q74 0 143 -40.5t100 -98.5l15 117h143l-94 -734q-4 -37 7 -63t39.5 -31t78.5 33l-27 -80q-73 -49 -125 -49q-62 0 -95.5 37t-31.5 94q-47 -64 -118 -103.5t-146 -39.5q-148 0 -241 111.5t-93 291.5zM215 399 q0 -145 53.5 -234t145.5 -89q87 0 162.5 56t97.5 136l55 426l-2 -4q-59 172 -231 172q-76 0 -133.5 -45t-88 -117.5t-45 -148.5t-14.5 -152zM432 1110q-14 20 17 45l245 227q34 31 67 33t50 -26q20 -31 5 -63t-62 -58l-279 -160q-32 -18 -43 2z" />
<glyph unicode="&#xe2;" horiz-adv-x="985" d="M57 391q0 69 17 144t53.5 148.5t87.5 132t125.5 94.5t161.5 36q74 0 143 -40.5t100 -98.5l15 117h143l-94 -734q-4 -37 7 -63t39.5 -31t78.5 33l-27 -80q-73 -49 -125 -49q-62 0 -95.5 37t-31.5 94q-47 -64 -118 -103.5t-146 -39.5q-148 0 -241 111.5t-93 291.5zM215 399 q0 -145 53.5 -234t145.5 -89q87 0 162.5 56t97.5 136l55 426l-2 -4q-59 172 -231 172q-76 0 -133.5 -45t-88 -117.5t-45 -148.5t-14.5 -152zM250 1083l344 318l266 -318h-94l-193 154l-231 -154h-92z" />
<glyph unicode="&#xe3;" horiz-adv-x="985" d="M57 391q0 69 17 144t53.5 148.5t87.5 132t125.5 94.5t161.5 36q74 0 143 -40.5t100 -98.5l15 117h143l-94 -734q-4 -37 7 -63t39.5 -31t78.5 33l-27 -80q-73 -49 -125 -49q-62 0 -95.5 37t-31.5 94q-47 -64 -118 -103.5t-146 -39.5q-148 0 -241 111.5t-93 291.5zM215 399 q0 -145 53.5 -234t145.5 -89q87 0 162.5 56t97.5 136l55 426l-2 -4q-59 172 -231 172q-76 0 -133.5 -45t-88 -117.5t-45 -148.5t-14.5 -152zM291 1165q-3 85 63 139t144 54q34 0 64 -12.5t51.5 -30t43 -34.5t48.5 -29.5t57 -12.5q46 0 91 32t50 58l51 -6q-24 -97 -86 -150 t-145 -53q-41 0 -80 22t-64 48t-56 48t-58 22q-54 0 -91.5 -35.5t-41.5 -67.5z" />
<glyph unicode="&#xe4;" horiz-adv-x="985" d="M57 391q0 69 17 144t53.5 148.5t87.5 132t125.5 94.5t161.5 36q74 0 143 -40.5t100 -98.5l15 117h143l-94 -734q-4 -37 7 -63t39.5 -31t78.5 33l-27 -80q-73 -49 -125 -49q-62 0 -95.5 37t-31.5 94q-47 -64 -118 -103.5t-146 -39.5q-148 0 -241 111.5t-93 291.5zM215 399 q0 -145 53.5 -234t145.5 -89q87 0 162.5 56t97.5 136l55 426l-2 -4q-59 172 -231 172q-76 0 -133.5 -45t-88 -117.5t-45 -148.5t-14.5 -152zM215 1262q0 44 30 78t72 34q38 0 62 -28t24 -68q0 -47 -28.5 -82t-73.5 -35q-39 0 -62.5 29t-23.5 72zM780 1262q0 44 30.5 78 t72.5 34q38 0 62 -28t24 -68q0 -47 -29 -82t-74 -35q-39 0 -62.5 29t-23.5 72z" />
<glyph unicode="&#xe5;" horiz-adv-x="985" d="M57 391q0 69 17 144t53.5 148.5t87.5 132t125.5 94.5t161.5 36q74 0 143 -40.5t100 -98.5l15 117h143l-94 -734q-4 -37 7 -63t39.5 -31t78.5 33l-27 -80q-73 -49 -125 -49q-62 0 -95.5 37t-31.5 94q-47 -64 -118 -103.5t-146 -39.5q-148 0 -241 111.5t-93 291.5zM215 399 q0 -145 53.5 -234t145.5 -89q87 0 162.5 56t97.5 136l55 426l-2 -4q-59 172 -231 172q-76 0 -133.5 -45t-88 -117.5t-45 -148.5t-14.5 -152zM426 1290q0 75 54.5 133t125.5 58q64 0 105 -45.5t41 -114.5q0 -71 -55 -129.5t-124 -58.5q-63 0 -105 45t-42 112zM516 1300 q0 -98 66 -98q34 0 59 28.5t25 80.5q0 102 -68 102q-34 0 -58 -30t-24 -83z" />
<glyph unicode="&#xe6;" horiz-adv-x="1390" d="M35 236q6 47 23.5 84.5t57.5 75.5t102 68t161.5 57t232.5 48l6 29q22 167 -37 225t-216 19q-21 -5 -33 -22.5t-15.5 -36t-8 -50t-9.5 -49.5q-12 -27 -41.5 -39.5t-64.5 -3.5q-36 6 -47.5 39.5t6.5 93.5q24 63 108 108.5t178 53.5q238 24 305 -129q122 139 308 139 q138 0 218.5 -87t80.5 -208q0 -45 -13.5 -77.5t-34.5 -53t-63.5 -36t-83.5 -24.5t-113 -20l-284 -43q-1 -43 3 -83.5t18 -85t38 -77t66 -54t98 -21.5q163 0 281 143l32 -65q-129 -166 -346 -166q-101 0 -180.5 49.5t-124.5 136.5q-62 -94 -156 -140t-204 -48 q-113 -2 -187.5 65.5t-60.5 184.5zM186 217q-8 -62 28 -101.5t101 -39.5q49 0 90.5 17.5t73.5 51t51.5 61.5t42.5 70l25 160q4 44 8 70q-397 -67 -420 -289zM762 479l383 58q30 3 43.5 38t13.5 84q0 83 -42.5 143t-123.5 60q-114 0 -187 -108.5t-87 -274.5z" />
<glyph unicode="&#xe7;" horiz-adv-x="835" d="M57 391q0 74 19.5 151t60 149t95.5 129t132 91.5t164 34.5q140 0 206.5 -68t66.5 -171q0 -45 -16 -72t-66 -27q-40 0 -61 19.5t-17 56.5q10 55 10 84q0 94 -121 94q-83 0 -147 -44t-99.5 -115t-53 -148.5t-17.5 -157.5q0 -144 60 -227.5t178 -83.5q50 0 95.5 22.5t70 49 t44.5 49t25 22.5q28 0 57 -47q-20 -34 -46.5 -63.5t-68.5 -61t-103 -50.5t-134 -19q-141 0 -237.5 112.5t-96.5 290.5zM150 -309q-2 28 15 47t43.5 17t47.5 -29q0 -4 1.5 -21.5t2.5 -24.5t4.5 -21t9 -20.5t15.5 -12.5t24 -7q50 -3 85.5 26t47.5 81q12 47 -11.5 74t-74.5 20 q-43 -2 -69 -13q-24 -3 -32 19.5t5 44.5q50 83 68 113h96l-53 -95q37 11 74 1.5t62.5 -36t36.5 -67.5t-3 -92q-16 -54 -54 -86.5t-82.5 -43t-97.5 -7.5q-76 4 -117.5 40.5t-43.5 92.5z" />
<glyph unicode="&#xe8;" horiz-adv-x="851" d="M47 391q0 68 15 140.5t50.5 147.5t86.5 133.5t129.5 96t173.5 37.5q138 0 217.5 -87t79.5 -208q0 -45 -13 -77t-33.5 -53t-63 -36.5t-83.5 -24.5t-112 -20l-285 -43q-2 -43 1.5 -83.5t18 -85t38 -77t66 -54t99.5 -21.5q163 0 281 143l32 -65q-52 -67 -138 -116.5 t-210 -49.5q-156 0 -253 111.5t-97 291.5zM213 479l383 58q30 3 43.5 38t13.5 84q0 83 -42.5 143t-123.5 60q-115 0 -187.5 -108.5t-86.5 -274.5zM290.5 1344.5q15.5 -31.5 61.5 -58.5l279 -160q31 -17 45 2q12 21 -19 46l-243 227q-35 31 -68.5 32.5t-50.5 -26.5 q-20 -31 -4.5 -62.5z" />
<glyph unicode="&#xe9;" horiz-adv-x="851" d="M47 391q0 68 15 140.5t50.5 147.5t86.5 133.5t129.5 96t173.5 37.5q138 0 217.5 -87t79.5 -208q0 -45 -13 -77t-33.5 -53t-63 -36.5t-83.5 -24.5t-112 -20l-285 -43q-2 -43 1.5 -83.5t18 -85t38 -77t66 -54t99.5 -21.5q163 0 281 143l32 -65q-52 -67 -138 -116.5 t-210 -49.5q-156 0 -253 111.5t-97 291.5zM213 479l383 58q30 3 43.5 38t13.5 84q0 83 -42.5 143t-123.5 60q-115 0 -187.5 -108.5t-86.5 -274.5zM418 1128q11 -20 43 -2l278 160q47 26 62.5 58t-4.5 63q-17 28 -50 26.5t-67 -32.5l-246 -227q-31 -25 -16 -46z" />
<glyph unicode="&#xea;" horiz-adv-x="851" d="M47 391q0 68 15 140.5t50.5 147.5t86.5 133.5t129.5 96t173.5 37.5q138 0 217.5 -87t79.5 -208q0 -45 -13 -77t-33.5 -53t-63 -36.5t-83.5 -24.5t-112 -20l-285 -43q-2 -43 1.5 -83.5t18 -85t38 -77t66 -54t99.5 -21.5q163 0 281 143l32 -65q-52 -67 -138 -116.5 t-210 -49.5q-156 0 -253 111.5t-97 291.5zM213 479l383 58q30 3 43.5 38t13.5 84q0 83 -42.5 143t-123.5 60q-115 0 -187.5 -108.5t-86.5 -274.5zM238 1102l344 317l266 -317h-94l-193 153l-231 -153h-92z" />
<glyph unicode="&#xeb;" horiz-adv-x="851" d="M47 391q0 68 15 140.5t50.5 147.5t86.5 133.5t129.5 96t173.5 37.5q138 0 217.5 -87t79.5 -208q0 -45 -13 -77t-33.5 -53t-63 -36.5t-83.5 -24.5t-112 -20l-285 -43q-2 -43 1.5 -83.5t18 -85t38 -77t66 -54t99.5 -21.5q163 0 281 143l32 -65q-52 -67 -138 -116.5 t-210 -49.5q-156 0 -253 111.5t-97 291.5zM201 1280q0 44 30 78.5t72 34.5q38 0 62 -28t24 -69q0 -47 -28.5 -81.5t-73.5 -34.5q-39 0 -62.5 29t-23.5 71zM213 479l383 58q30 3 43.5 38t13.5 84q0 83 -42.5 143t-123.5 60q-115 0 -187.5 -108.5t-86.5 -274.5zM766 1280 q0 44 30 78.5t72 34.5q38 0 62 -28t24 -69q0 -47 -28.5 -81.5t-73.5 -34.5q-39 0 -62.5 29t-23.5 71z" />
<glyph unicode="&#xec;" horiz-adv-x="452" d="M10 1326.5q16 -31.5 62 -58.5l278 -160q31 -17 45 2q12 21 -18 45l-244 227q-35 31 -68.5 33t-50.5 -26q-20 -31 -4 -62.5zM88 821l8 58q100 57 170 57q47 0 59.5 -36t2.5 -114l-76 -600q-4 -37 8 -62t41.5 -29t79.5 34l-27 -80q-72 -49 -147 -49q-53 0 -82 42.5 t-23 104.5l78 601q6 53 -16 73.5t-76 -0.5z" />
<glyph unicode="&#xed;" horiz-adv-x="452" d="M88 821l8 58q100 57 170 57q47 0 59.5 -36t2.5 -114l-76 -600q-4 -37 8 -62t41.5 -29t79.5 34l-27 -80q-72 -49 -147 -49q-53 0 -82 42.5t-23 104.5l78 601q6 53 -16 73.5t-76 -0.5zM137 1110q11 -20 43 -2l279 160q47 26 62 58t-5 63q-17 28 -50 26t-67 -33l-245 -227 q-31 -25 -17 -45z" />
<glyph unicode="&#xee;" horiz-adv-x="452" d="M-43 1083l344 318l266 -318h-94l-192 154l-232 -154h-92zM88 821l8 58q100 57 170 57q47 0 59.5 -36t2.5 -114l-76 -600q-4 -37 8 -62t41.5 -29t79.5 34l-27 -80q-72 -49 -147 -49q-53 0 -82 42.5t-23 104.5l78 601q6 53 -16 73.5t-76 -0.5z" />
<glyph unicode="&#xef;" horiz-adv-x="452" d="M-80 1262q0 44 30.5 78t72.5 34q38 0 62 -28t24 -68q0 -47 -29 -82t-74 -35q-39 0 -62.5 29t-23.5 72zM88 821l8 58q100 57 170 57q47 0 59.5 -36t2.5 -114l-76 -600q-4 -37 8 -62t41.5 -29t79.5 34l-27 -80q-72 -49 -147 -49q-53 0 -82 42.5t-23 104.5l78 601 q6 53 -16 73.5t-76 -0.5zM485 1262q0 44 30.5 78t72.5 34q38 0 62 -28t24 -68q0 -47 -29 -82t-74 -35q-39 0 -62.5 29t-23.5 72z" />
<glyph unicode="&#xf0;" horiz-adv-x="1021" d="M94 483q29 221 121 342t221 121q43 0 83.5 -13t67 -29t55 -43.5t40 -41t29.5 -37.5l24 187q10 88 8 131l-186 -58l-8 66l188 57q-12 64 -48.5 86t-104.5 27l-58 4l4 64q1 0 17 -0.5t24.5 -1t29 -2.5t34.5 -5t35.5 -9t38 -13.5t36.5 -19t36 -25t32 -33t29 -41.5l196 59 l9 -65l-181 -53q30 -100 13 -242l-29 -219q-45 -352 -157.5 -520t-311.5 -168q-348 0 -287 495zM231 463q-25 -204 12 -298.5t138 -94.5q52 0 93.5 19t72.5 57.5t54.5 86.5t41 117.5t29.5 138t24 160.5q1 13 -5.5 36.5t-24.5 53.5t-43.5 56.5t-67.5 44.5t-92 18 q-87 0 -146.5 -100.5t-85.5 -294.5z" />
<glyph unicode="&#xf1;" horiz-adv-x="1009" d="M98 821l8 58q100 57 156 57q54 0 72.5 -41.5t5.5 -101.5l-16 -68q141 213 348 213q121 0 174.5 -76t30.5 -241l-58 -431q-4 -37 8.5 -63t42 -31t78.5 33l-26 -80q-71 -49 -123 -49q-68 0 -102.5 44t-26.5 106l61 462q14 112 -13.5 169t-107.5 57q-134 0 -280 -189 l-82 -649h-144l97 762q6 51 -21.5 67t-81.5 -8zM266 1165q-3 85 63 139t144 54q34 0 64 -12.5t51.5 -30t43 -34.5t48.5 -29.5t57 -12.5q46 0 91.5 32t50.5 58l51 -6q-24 -97 -86.5 -150t-145.5 -53q-41 0 -80 22t-64 48t-56 48t-58 22q-54 0 -91.5 -35.5t-41.5 -67.5z" />
<glyph unicode="&#xf2;" horiz-adv-x="907" d="M57 391q0 67 16.5 140.5t53 148t87.5 133.5t127 96t165 37q149 0 246.5 -113.5t97.5 -293.5q0 -66 -16.5 -139t-53 -147t-87 -132.5t-126.5 -95.5t-164 -37q-149 0 -247.5 112.5t-98.5 290.5zM215 399q0 -144 56 -233.5t149 -89.5q62 0 111.5 31t79 79t49 110t27 118 t7.5 110q0 148 -57 243t-152 95q-61 0 -110 -32.5t-78 -82t-48.5 -114t-26.5 -122t-7 -112.5zM270 1326.5q16 -31.5 62 -58.5l278 -160q31 -17 45 2q12 21 -18 45l-244 227q-35 31 -68.5 33t-50.5 -26q-20 -31 -4 -62.5z" />
<glyph unicode="&#xf3;" horiz-adv-x="907" d="M57 391q0 67 16.5 140.5t53 148t87.5 133.5t127 96t165 37q149 0 246.5 -113.5t97.5 -293.5q0 -66 -16.5 -139t-53 -147t-87 -132.5t-126.5 -95.5t-164 -37q-149 0 -247.5 112.5t-98.5 290.5zM215 399q0 -144 56 -233.5t149 -89.5q62 0 111.5 31t79 79t49 110t27 118 t7.5 110q0 148 -57 243t-152 95q-61 0 -110 -32.5t-78 -82t-48.5 -114t-26.5 -122t-7 -112.5zM399 1110q11 -20 43 -2l279 160q47 26 62 58t-5 63q-17 28 -49.5 26t-66.5 -33l-246 -227q-31 -25 -17 -45z" />
<glyph unicode="&#xf4;" horiz-adv-x="907" d="M57 391q0 67 16.5 140.5t53 148t87.5 133.5t127 96t165 37q149 0 246.5 -113.5t97.5 -293.5q0 -66 -16.5 -139t-53 -147t-87 -132.5t-126.5 -95.5t-164 -37q-149 0 -247.5 112.5t-98.5 290.5zM215 399q0 -144 56 -233.5t149 -89.5q62 0 111.5 31t79 79t49 110t27 118 t7.5 110q0 148 -57 243t-152 95q-61 0 -110 -32.5t-78 -82t-48.5 -114t-26.5 -122t-7 -112.5zM217 1083l344 318l266 -318h-94l-192 154l-232 -154h-92z" />
<glyph unicode="&#xf5;" horiz-adv-x="907" d="M57 391q0 67 16.5 140.5t53 148t87.5 133.5t127 96t165 37q149 0 246.5 -113.5t97.5 -293.5q0 -66 -16.5 -139t-53 -147t-87 -132.5t-126.5 -95.5t-164 -37q-149 0 -247.5 112.5t-98.5 290.5zM215 399q0 -144 56 -233.5t149 -89.5q62 0 111.5 31t79 79t49 110t27 118 t7.5 110q0 148 -57 243t-152 95q-61 0 -110 -32.5t-78 -82t-48.5 -114t-26.5 -122t-7 -112.5zM256 1165q-3 85 63 139t144 54q34 0 64 -12.5t51.5 -30t43 -34.5t48.5 -29.5t57 -12.5q46 0 91 32t50 58l52 -6q-24 -97 -86.5 -150t-145.5 -53q-41 0 -80 22t-64 48t-56 48 t-58 22q-54 0 -91.5 -35.5t-41.5 -67.5z" />
<glyph unicode="&#xf6;" horiz-adv-x="907" d="M57 391q0 67 16.5 140.5t53 148t87.5 133.5t127 96t165 37q149 0 246.5 -113.5t97.5 -293.5q0 -66 -16.5 -139t-53 -147t-87 -132.5t-126.5 -95.5t-164 -37q-149 0 -247.5 112.5t-98.5 290.5zM182 1262q0 44 30.5 78t72.5 34q38 0 62 -28t24 -68q0 -47 -29 -82t-74 -35 q-39 0 -62.5 29t-23.5 72zM215 399q0 -144 56 -233.5t149 -89.5q62 0 111.5 31t79 79t49 110t27 118t7.5 110q0 148 -57 243t-152 95q-61 0 -110 -32.5t-78 -82t-48.5 -114t-26.5 -122t-7 -112.5zM748 1262q0 44 30 78t72 34q38 0 62 -28t24 -68q0 -47 -28.5 -82t-73.5 -35 q-39 0 -62.5 29t-23.5 72z" />
<glyph unicode="&#xf7;" horiz-adv-x="821" d="M74 461l12 110h676l-12 -110h-676zM287 207q4 33 29 57.5t53 24.5q32 0 53 -27t16 -61q-3 -36 -27 -61t-53 -25q-32 0 -53 28t-18 64zM365 834q4 33 30 57t54 24q32 0 53 -27t16 -61q-3 -36 -28.5 -61t-55.5 -25q-32 0 -52 28.5t-17 64.5z" />
<glyph unicode="&#xf8;" horiz-adv-x="915" d="M61 391q0 67 16.5 140.5t53 148t87.5 133.5t127 96t165 37q122 0 207 -76l90 113l59 -51l-94 -119q82 -113 82 -274q0 -66 -16.5 -139t-52.5 -147t-87 -132.5t-126.5 -95.5t-163.5 -37q-130 0 -222 86l-53 -66l-59 51l59 76q-72 109 -72 256zM219 399q0 -67 17 -137 l403 510q-61 90 -150 90q-61 0 -110 -32.5t-78 -82t-48.5 -114t-26.5 -122t-7 -112.5zM268 178q54 -102 156 -102q62 0 111.5 31t79 79t49 110t27 118t7.5 110q0 92 -22 166z" />
<glyph unicode="&#xf9;" horiz-adv-x="995" d="M74 821l10 58q100 57 158 57q52 0 66.5 -29.5t6.5 -89.5l-59 -487q-15 -126 22.5 -182t129.5 -56q97 0 162.5 61.5t111.5 184.5l53 401q7 54 -16 79.5t-74 2.5l10 58q100 57 156 57q53 0 67.5 -29.5t6.5 -89.5l-76 -627q-4 -37 7 -63t40 -31t78 33l-27 -80 q-71 -49 -123 -49q-67 0 -100 44t-27 106l9 55q-16 -37 -41.5 -72t-62 -69t-87.5 -55t-108 -21q-137 0 -205.5 88.5t-48.5 253.5l51 409q6 56 -16.5 81t-73.5 1zM278.5 1326.5q-15.5 31.5 4.5 62.5q17 28 50 26t68 -33l244 -227q31 -25 19 -45q-14 -20 -46 -2l-278 160 q-46 27 -61.5 58.5z" />
<glyph unicode="&#xfa;" horiz-adv-x="995" d="M74 821l10 58q100 57 158 57q52 0 66.5 -29.5t6.5 -89.5l-59 -487q-15 -126 22.5 -182t129.5 -56q97 0 162.5 61.5t111.5 184.5l53 401q7 54 -16 79.5t-74 2.5l10 58q100 57 156 57q53 0 67.5 -29.5t6.5 -89.5l-76 -627q-4 -37 7 -63t40 -31t78 33l-27 -80 q-71 -49 -123 -49q-67 0 -100 44t-27 106l9 55q-16 -37 -41.5 -72t-62 -69t-87.5 -55t-108 -21q-137 0 -205.5 88.5t-48.5 253.5l51 409q6 56 -16.5 81t-73.5 1zM408 1110q-15 20 16 45l246 227q34 31 66.5 33t49.5 -26q20 -31 5 -63t-62 -58l-278 -160q-32 -18 -43 2z" />
<glyph unicode="&#xfb;" horiz-adv-x="995" d="M74 821l10 58q100 57 158 57q52 0 66.5 -29.5t6.5 -89.5l-59 -487q-15 -126 22.5 -182t129.5 -56q97 0 162.5 61.5t111.5 184.5l53 401q7 54 -16 79.5t-74 2.5l10 58q100 57 156 57q53 0 67.5 -29.5t6.5 -89.5l-76 -627q-4 -37 7 -63t40 -31t78 33l-27 -80 q-71 -49 -123 -49q-67 0 -100 44t-27 106l9 55q-16 -37 -41.5 -72t-62 -69t-87.5 -55t-108 -21q-137 0 -205.5 88.5t-48.5 253.5l51 409q6 56 -16.5 81t-73.5 1zM225 1083l344 318l267 -318h-95l-192 154l-232 -154h-92z" />
<glyph unicode="&#xfc;" horiz-adv-x="995" d="M74 821l10 58q100 57 158 57q52 0 66.5 -29.5t6.5 -89.5l-59 -487q-15 -126 22.5 -182t129.5 -56q97 0 162.5 61.5t111.5 184.5l53 401q7 54 -16 79.5t-74 2.5l10 58q100 57 156 57q53 0 67.5 -29.5t6.5 -89.5l-76 -627q-4 -37 7 -63t40 -31t78 33l-27 -80 q-71 -49 -123 -49q-67 0 -100 44t-27 106l9 55q-16 -37 -41.5 -72t-62 -69t-87.5 -55t-108 -21q-137 0 -205.5 88.5t-48.5 253.5l51 409q6 56 -16.5 81t-73.5 1zM190 1262q0 44 30.5 78t72.5 34q38 0 62 -28t24 -68q0 -47 -29 -82t-74 -35q-39 0 -62.5 29t-23.5 72z M756 1262q0 44 30 78t72 34q38 0 62 -28t24 -68q0 -47 -28.5 -82t-73.5 -35q-39 0 -62.5 29t-23.5 72z" />
<glyph unicode="&#xfd;" horiz-adv-x="976" d="M-154 -305q0 92 84 92q34 0 49 -17t16.5 -37.5t13.5 -37.5t40 -17q53 0 145.5 93t204.5 249l-168 740q-12 55 -40.5 69t-81.5 -10l12 55q79 58 137 58t84 -39.5t43 -124.5l123 -590q208 323 321 588q18 43 -20 62.5t-92 -9.5l8 55q91 60 156 60q54 0 74 -37t-3 -94 q-58 -140 -150.5 -308.5t-201 -332t-217 -299.5t-209.5 -219.5t-168 -83.5q-77 0 -118.5 39.5t-41.5 95.5zM449 1110q-15 20 16 45l246 227q34 31 66.5 33t49.5 -26q20 -31 5 -63t-62 -58l-278 -160q-32 -18 -43 2z" />
<glyph unicode="&#xfe;" horiz-adv-x="962" d="M-37 -377l6 55q46 0 69.5 14t27.5 48l186 1458q4 35 -5.5 49.5t-37.5 14.5h-51l10 73l205 31q22 3 32 -8.5t7 -34.5l-43 -340q-13 -123 -62 -254l37 53q25 30 47.5 52.5t59 51t81.5 44.5t93 16q159 0 232 -130t44 -361q-28 -217 -140 -342t-251 -125q-169 0 -242 178 l-55 -432q-4 -34 14.5 -45t67.5 -11l-6 -55h-326zM281 283q21 -93 72.5 -152t138.5 -59q210 0 260 377q10 100 2.5 184.5t-48 140t-106.5 55.5q-93 0 -147.5 -33.5t-118.5 -111.5z" />
<glyph unicode="&#xff;" horiz-adv-x="976" d="M-154 -305q0 92 84 92q34 0 49 -17t16.5 -37.5t13.5 -37.5t40 -17q53 0 145.5 93t204.5 249l-168 740q-12 55 -40.5 69t-81.5 -10l12 55q79 58 137 58t84 -39.5t43 -124.5l123 -590q208 323 321 588q18 43 -20 62.5t-92 -9.5l8 55q91 60 156 60q54 0 74 -37t-3 -94 q-58 -140 -150.5 -308.5t-201 -332t-217 -299.5t-209.5 -219.5t-168 -83.5q-77 0 -118.5 39.5t-41.5 95.5zM231 1262q0 44 30.5 78t72.5 34q38 0 62 -28t24 -68q0 -47 -29 -82t-74 -35q-39 0 -62.5 29t-23.5 72zM797 1262q0 44 30 78t72 34q38 0 62 -28t24 -68 q0 -47 -28.5 -82t-73.5 -35q-39 0 -62.5 29t-23.5 72z" />
<glyph unicode="&#x152;" horiz-adv-x="1744" d="M98 657q23 181 110.5 329.5t220.5 233.5t284 85q89 0 176 -33h786q19 0 25.5 -9t3.5 -32l-25 -201h-51l-20 70q-26 94 -131 94h-344l-64 -506h328q14 0 26.5 5t20.5 11t18 20.5t14.5 23t15.5 30t15 29.5h33l-41 -313h-33q-2 10 -6.5 31t-7 29t-8 22t-12 19.5t-17.5 10 t-26 4.5h-328l-72 -538l416 4q30 0 52.5 10t31 18t27.5 35t26 35l57 64l68 -5q-45 -80 -82 -196q-18 -37 -59 -37h-795q-85 -31 -176 -31q-154 0 -268 92t-163.5 249t-25.5 347zM277 430.5q16 -117.5 57 -199.5t98 -125t121 -43q184 0 283 107l108 862q-41 91 -102 141 t-127 50q-68 0 -122.5 -13t-107.5 -48t-91.5 -93t-68.5 -151.5t-46 -219.5q-18 -150 -2 -267.5z" />
<glyph unicode="&#x153;" horiz-adv-x="1486" d="M57 391q0 67 16.5 140.5t53 148t87.5 133.5t127 96t165 37q93 0 169 -47t122 -131q125 180 340 180q138 0 217.5 -87t79.5 -208q0 -45 -13 -77.5t-34 -53t-63 -36t-83.5 -24.5t-112.5 -20l-286 -43q-1 -43 3 -83.5t18 -85t38 -77t67 -54t99 -21.5q163 0 281 143l32 -65 q-52 -67 -138 -116.5t-210 -49.5q-99 0 -176.5 47.5t-122.5 132.5q-129 -182 -330 -182q-149 0 -247.5 112.5t-98.5 290.5zM215 399q0 -144 56 -233.5t149 -89.5q59 0 106 26.5t77 72.5t49 97.5t30 112.5v8q0 57 12 125v6q0 148 -57 243t-152 95q-61 0 -110 -32.5t-78 -82 t-48.5 -114t-26.5 -122t-7 -112.5zM846 481l385 58q30 3 43.5 38.5t13.5 84.5q0 83 -42.5 142.5t-123.5 59.5q-111 0 -182 -98.5t-92 -255.5z" />
<glyph unicode="&#x178;" horiz-adv-x="1196" d="M168 1217l4 55h365l-7 -55q-42 -8 -66 -28t-13 -44l231 -453l328 441q50 66 -72 84l4 55h313l-6 -55q-54 -7 -87.5 -34t-82.5 -91l-372 -486l-58 -483q-3 -16 4 -26.5t27.5 -18t33 -10t44.5 -7.5q4 -1 6.5 -1.5t5.5 -0.5l-4 -59h-416l8 59q41 6 68 12.5t51 22t27 37.5 l55 432l-242 486l-20 40l-17.5 35t-14 26.5t-15 23t-15.5 16t-19 14t-21 7.5t-27 6zM406 1610q0 44 30 78t72 34q38 0 62 -28t24 -68q0 -47 -28.5 -82t-73.5 -35q-39 0 -62.5 29t-23.5 72zM971 1610q0 44 30 78t72 34q38 0 62 -28t24 -68q0 -47 -28.5 -82t-73.5 -35 q-39 0 -62.5 29t-23.5 72z" />
<glyph unicode="&#x2c6;" horiz-adv-x="786" d="M166 1083l344 318l266 -318h-94l-193 154l-231 -154h-92z" />
<glyph unicode="&#x2dc;" horiz-adv-x="827" d="M227 1165q-3 85 63 139t144 54q34 0 64 -12.5t51.5 -30t43 -34.5t48.5 -29.5t57 -12.5q46 0 91.5 32t50.5 58l51 -6q-24 -97 -86.5 -150t-145.5 -53q-41 0 -80 22t-64 48t-56 48t-58 22q-54 0 -91.5 -35.5t-41.5 -67.5z" />
<glyph unicode="&#x2000;" horiz-adv-x="914" />
<glyph unicode="&#x2001;" horiz-adv-x="1829" />
<glyph unicode="&#x2002;" horiz-adv-x="914" />
<glyph unicode="&#x2003;" horiz-adv-x="1829" />
<glyph unicode="&#x2004;" horiz-adv-x="609" />
<glyph unicode="&#x2005;" horiz-adv-x="457" />
<glyph unicode="&#x2006;" horiz-adv-x="304" />
<glyph unicode="&#x2007;" horiz-adv-x="304" />
<glyph unicode="&#x2008;" horiz-adv-x="228" />
<glyph unicode="&#x2009;" horiz-adv-x="365" />
<glyph unicode="&#x200a;" horiz-adv-x="101" />
<glyph unicode="&#x2010;" horiz-adv-x="659" d="M72 465l14 98h492l-13 -98h-493z" />
<glyph unicode="&#x2011;" horiz-adv-x="659" d="M72 465l14 98h492l-13 -98h-493z" />
<glyph unicode="&#x2012;" horiz-adv-x="659" d="M72 465l14 98h492l-13 -98h-493z" />
<glyph unicode="&#x2013;" horiz-adv-x="1304" d="M127 465l12 98h1065l-14 -98h-1063z" />
<glyph unicode="&#x2014;" horiz-adv-x="1759" d="M141 465l15 98h1497l-13 -98h-1499z" />
<glyph unicode="&#x2018;" horiz-adv-x="311" d="M186 999q-3 81 27 158q30 71 109 143q12 5 28 -14l23 -29q-55 -58 -72 -98q-18 -49 -18 -63q16 12 45 6q37 -5 57 -41.5t8 -85.5q-9 -42 -44 -66.5t-73 -19.5q-40 3 -63.5 35t-26.5 75z" />
<glyph unicode="&#x2019;" horiz-adv-x="344" d="M147 1219q9 41 44 66t73 22q40 -4 63.5 -37t26.5 -76q4 -84 -26 -158q-30 -71 -109 -143q-13 -5 -29 14l-22 29q55 58 72 98q18 52 18 66q-19 -13 -45 -8q-38 5 -58 41.5t-8 85.5z" />
<glyph unicode="&#x201a;" horiz-adv-x="344" d="M55 113q9 41 44 66t73 22q39 -4 62.5 -37t25.5 -76q6 -74 -27 -158q-25 -69 -106 -143q-13 -5 -29 14l-24 29q54 54 73 98q19 51 19 64q-17 -12 -45 -6q-38 5 -58 41.5t-8 85.5z" />
<glyph unicode="&#x201c;" horiz-adv-x="616" d="M240 999q-6 76 26 158q25 68 107 143q12 5 28 -14l25 -29q-59 -62 -74 -98q-18 -49 -18 -63q19 12 45 6q37 -5 57 -41.5t10 -85.5q-10 -42 -44.5 -66.5t-73.5 -19.5q-39 3 -62 35t-26 75zM545 999q-6 76 26 158q25 68 107 143q13 5 29 -14l24 -29q-59 -62 -74 -98 q-18 -49 -18 -63q19 12 45 6q37 -5 57.5 -41.5t10.5 -85.5q-10 -42 -45 -66.5t-74 -19.5q-39 3 -62 35t-26 75z" />
<glyph unicode="&#x201d;" horiz-adv-x="690" d="M147 1219q9 41 44 66t73 22q40 -4 63.5 -37t26.5 -76q4 -84 -26 -158q-30 -71 -109 -143q-13 -5 -29 14l-22 29q55 58 72 98q18 52 18 66q-19 -13 -45 -8q-38 5 -58 41.5t-8 85.5zM453 1219q9 41 43.5 66t72.5 22q40 -4 63.5 -37t26.5 -76q4 -84 -26 -158 q-30 -71 -109 -143q-12 -5 -28 14l-23 29q55 58 72 98q18 52 18 66q-19 -13 -45 -8q-37 5 -57 41.5t-8 85.5z" />
<glyph unicode="&#x201e;" horiz-adv-x="675" d="M55 113q9 41 44 66t73 22q39 -4 62.5 -37t25.5 -76q6 -74 -27 -158q-25 -69 -106 -143q-13 -5 -29 14l-24 29q54 54 73 98q19 51 19 64q-17 -12 -45 -6q-38 5 -58 41.5t-8 85.5zM387 113q9 41 44 66t73 22q39 -4 62.5 -37t25.5 -76q6 -74 -27 -158q-25 -69 -106 -143 q-13 -5 -29 14l-24 29q54 54 73 98q19 51 19 64q-17 -12 -45 -6q-38 5 -58 41.5t-8 85.5z" />
<glyph unicode="&#x2022;" horiz-adv-x="530" d="M164 610q9 66 59.5 115t110.5 49q65 0 104 -53.5t29 -128.5q-7 -66 -57.5 -115t-110.5 -49q-65 0 -104.5 53.5t-30.5 128.5z" />
<glyph unicode="&#x2026;" horiz-adv-x="1083" d="M63 102q3 41 35.5 72t71.5 31q41 0 67.5 -36t20.5 -85q-6 -42 -38.5 -73t-69.5 -31q-42 0 -68 36t-19 86zM412 102q3 41 35 72t71 31q41 0 67.5 -36t20.5 -85q-6 -42 -38.5 -73t-69.5 -31q-42 0 -67.5 36t-18.5 86zM760 102q3 41 35 72t71 31q41 0 67.5 -36t20.5 -85 q-6 -42 -38.5 -73t-69.5 -31q-42 0 -67.5 36t-18.5 86z" />
<glyph unicode="&#x202f;" horiz-adv-x="365" />
<glyph unicode="&#x2039;" horiz-adv-x="481" d="M82 469l354 305l-10 -92l-180 -213l127 -211l-11 -94z" />
<glyph unicode="&#x203a;" horiz-adv-x="479" d="M45 164l12 94l179 211l-127 213l10 92l280 -305z" />
<glyph unicode="&#x205f;" horiz-adv-x="457" />
<glyph unicode="&#x20ac;" horiz-adv-x="1212" d="M31 465l26 90h93q0 57 14 143h-70l27 90h63q23 80 57.5 152.5t87 140t115 116.5t146.5 78.5t178 29.5q219 0 319 -189q47 5 78 156h66l-37 -398l-76 -26l-31 102q-42 130 -124 199.5t-183 69.5q-71 0 -132.5 -24t-106 -64t-81 -97t-59.5 -117t-39 -129h508l-26 -90h-498 q-8 -48 -12 -143h473l-27 -90h-444q17 -188 109.5 -282.5t230.5 -94.5q134 0 236 80.5t141 208.5h94q-69 -190 -188.5 -289.5t-321.5 -99.5q-196 0 -328 130t-155 347h-123z" />
<glyph unicode="&#x2122;" horiz-adv-x="1228" d="M205 1147l18 102q1 9 9.5 16t17.5 7h366q10 0 18.5 -10.5t8.5 -20.5l-8 -94h-39l-8 37q-4 12 -23 12h-86l-39 -322q-1 -9 11.5 -12.5t31.5 -3.5l-4 -51h-205l5 51q19 0 34.5 7.5t16.5 17.5l41 313h-78q-14 0 -27 -20l-22 -29h-39zM643 807l4 49q26 7 34 13.5t13 21.5 l35 297q1 18 -4.5 23.5t-30.5 11.5l4 49h142l129 -283l202 283h121l-4 -51q-15 -6 -21 -9.5t-11 -11t-7 -20.5l-37 -297q-1 -4 -1 -6.5t-0.5 -4.5t0.5 -4l1.5 -3t2.5 -2.5t3 -2t4.5 -1.5t6 -2t7.5 -2.5t9 -2.5l-4 -45h-180l4 49q27 8 36.5 14.5t10.5 20.5l29 221l-172 -260 q-12 -23 -27.5 -19.5t-23.5 27.5l-130 254l-28 -231q-2 -17 13 -23q4 -2 16 -6l6 -2l-4 -45h-148z" />
<glyph unicode="&#x25fc;" horiz-adv-x="931" d="M0 0v932h932v-932h-932z" />
</font>
</defs>
</svg>
